%TF.GenerationSoftware,KiCad,Pcbnew,7.0.2*%
%TF.CreationDate,2023-05-13T16:56:26+02:00*%
%TF.ProjectId,pid_controller,7069645f-636f-46e7-9472-6f6c6c65722e,2.0*%
%TF.SameCoordinates,Original*%
%TF.FileFunction,Drillmap*%
%TF.FilePolarity,Positive*%
%FSLAX45Y45*%
G04 Gerber Fmt 4.5, Leading zero omitted, Abs format (unit mm)*
G04 Created by KiCad (PCBNEW 7.0.2) date 2023-05-13 16:56:26*
%MOMM*%
%LPD*%
G01*
G04 APERTURE LIST*
%ADD10C,0.100000*%
%ADD11C,0.200000*%
%ADD12C,0.040000*%
%ADD13C,0.080000*%
%ADD14C,0.090000*%
%ADD15C,0.110000*%
%ADD16C,0.132000*%
%ADD17C,0.250000*%
%ADD18C,0.350000*%
G04 APERTURE END LIST*
D10*
X7493000Y-6851650D02*
X19888200Y-6851650D01*
X19888200Y-13874750D01*
X7493000Y-13874750D01*
X7493000Y-6851650D01*
D11*
D12*
X8260400Y-10267000D02*
X8300400Y-10307000D01*
X8300400Y-10267000D02*
X8260400Y-10307000D01*
X11359200Y-10063800D02*
X11399200Y-10103800D01*
X11399200Y-10063800D02*
X11359200Y-10103800D01*
X16947200Y-9251000D02*
X16987200Y-9291000D01*
X16987200Y-9251000D02*
X16947200Y-9291000D01*
D13*
X8554000Y-11442300D02*
G75*
G03*
X8554000Y-11442300I-40000J0D01*
G01*
X8554000Y-12712300D02*
G75*
G03*
X8554000Y-12712300I-40000J0D01*
G01*
X8930000Y-11442300D02*
G75*
G03*
X8930000Y-11442300I-40000J0D01*
G01*
X8930000Y-12712300D02*
G75*
G03*
X8930000Y-12712300I-40000J0D01*
G01*
X9311000Y-11442300D02*
G75*
G03*
X9311000Y-11442300I-40000J0D01*
G01*
X9311000Y-12712300D02*
G75*
G03*
X9311000Y-12712300I-40000J0D01*
G01*
X9692000Y-11442300D02*
G75*
G03*
X9692000Y-11442300I-40000J0D01*
G01*
X9692000Y-12712300D02*
G75*
G03*
X9692000Y-12712300I-40000J0D01*
G01*
X9881500Y-10287500D02*
G75*
G03*
X9881500Y-10287500I-40000J0D01*
G01*
X9881500Y-10541500D02*
G75*
G03*
X9881500Y-10541500I-40000J0D01*
G01*
X10073000Y-11442300D02*
G75*
G03*
X10073000Y-11442300I-40000J0D01*
G01*
X10073000Y-12712300D02*
G75*
G03*
X10073000Y-12712300I-40000J0D01*
G01*
X10454000Y-11442300D02*
G75*
G03*
X10454000Y-11442300I-40000J0D01*
G01*
X10454000Y-12712300D02*
G75*
G03*
X10454000Y-12712300I-40000J0D01*
G01*
X10643500Y-10287500D02*
G75*
G03*
X10643500Y-10287500I-40000J0D01*
G01*
X10643500Y-10541500D02*
G75*
G03*
X10643500Y-10541500I-40000J0D01*
G01*
X10835000Y-11442300D02*
G75*
G03*
X10835000Y-11442300I-40000J0D01*
G01*
X10835000Y-12712300D02*
G75*
G03*
X10835000Y-12712300I-40000J0D01*
G01*
X11089000Y-9779000D02*
G75*
G03*
X11089000Y-9779000I-40000J0D01*
G01*
X11089000Y-10795000D02*
G75*
G03*
X11089000Y-10795000I-40000J0D01*
G01*
X11216000Y-11442300D02*
G75*
G03*
X11216000Y-11442300I-40000J0D01*
G01*
X11216000Y-12712300D02*
G75*
G03*
X11216000Y-12712300I-40000J0D01*
G01*
X11343000Y-9779000D02*
G75*
G03*
X11343000Y-9779000I-40000J0D01*
G01*
X11343000Y-10795000D02*
G75*
G03*
X11343000Y-10795000I-40000J0D01*
G01*
X11597000Y-9779000D02*
G75*
G03*
X11597000Y-9779000I-40000J0D01*
G01*
X11597000Y-10795000D02*
G75*
G03*
X11597000Y-10795000I-40000J0D01*
G01*
X11597000Y-11442300D02*
G75*
G03*
X11597000Y-11442300I-40000J0D01*
G01*
X11597000Y-12712300D02*
G75*
G03*
X11597000Y-12712300I-40000J0D01*
G01*
X11851000Y-9779000D02*
G75*
G03*
X11851000Y-9779000I-40000J0D01*
G01*
X11851000Y-10795000D02*
G75*
G03*
X11851000Y-10795000I-40000J0D01*
G01*
X15458800Y-8701300D02*
G75*
G03*
X15458800Y-8701300I-40000J0D01*
G01*
X15712800Y-8701300D02*
G75*
G03*
X15712800Y-8701300I-40000J0D01*
G01*
X15966800Y-8701300D02*
G75*
G03*
X15966800Y-8701300I-40000J0D01*
G01*
X16740500Y-11853100D02*
G75*
G03*
X16740500Y-11853100I-40000J0D01*
G01*
X16740500Y-12103100D02*
G75*
G03*
X16740500Y-12103100I-40000J0D01*
G01*
X17769200Y-11840400D02*
G75*
G03*
X17769200Y-11840400I-40000J0D01*
G01*
X17769200Y-12090400D02*
G75*
G03*
X17769200Y-12090400I-40000J0D01*
G01*
D14*
X16611600Y-8035100D02*
X16611600Y-8125100D01*
X16566600Y-8080100D02*
X16656600Y-8080100D01*
X16611600Y-8543100D02*
X16611600Y-8633100D01*
X16566600Y-8588100D02*
X16656600Y-8588100D01*
D10*
X8749356Y-7370606D02*
X8749356Y-7299894D01*
X8678644Y-7299894D01*
X8678644Y-7370606D01*
X8749356Y-7370606D01*
X8899956Y-7909356D02*
X8899956Y-7838644D01*
X8829244Y-7838644D01*
X8829244Y-7909356D01*
X8899956Y-7909356D01*
X8899956Y-9433356D02*
X8899956Y-9362644D01*
X8829244Y-9362644D01*
X8829244Y-9433356D01*
X8899956Y-9433356D01*
X9003356Y-7370606D02*
X9003356Y-7299894D01*
X8932644Y-7299894D01*
X8932644Y-7370606D01*
X9003356Y-7370606D01*
X9153956Y-7909356D02*
X9153956Y-7838644D01*
X9083244Y-7838644D01*
X9083244Y-7909356D01*
X9153956Y-7909356D01*
X9153956Y-9433356D02*
X9153956Y-9362644D01*
X9083244Y-9362644D01*
X9083244Y-9433356D01*
X9153956Y-9433356D01*
X9257356Y-7370606D02*
X9257356Y-7299894D01*
X9186644Y-7299894D01*
X9186644Y-7370606D01*
X9257356Y-7370606D01*
X9407956Y-7909356D02*
X9407956Y-7838644D01*
X9337244Y-7838644D01*
X9337244Y-7909356D01*
X9407956Y-7909356D01*
X9407956Y-9433356D02*
X9407956Y-9362644D01*
X9337244Y-9362644D01*
X9337244Y-9433356D01*
X9407956Y-9433356D01*
X9511356Y-7370606D02*
X9511356Y-7299894D01*
X9440644Y-7299894D01*
X9440644Y-7370606D01*
X9511356Y-7370606D01*
X9661956Y-7909356D02*
X9661956Y-7838644D01*
X9591244Y-7838644D01*
X9591244Y-7909356D01*
X9661956Y-7909356D01*
X9661956Y-9433356D02*
X9661956Y-9362644D01*
X9591244Y-9362644D01*
X9591244Y-9433356D01*
X9661956Y-9433356D01*
X9765356Y-7370606D02*
X9765356Y-7299894D01*
X9694644Y-7299894D01*
X9694644Y-7370606D01*
X9765356Y-7370606D01*
X9915956Y-7909356D02*
X9915956Y-7838644D01*
X9845244Y-7838644D01*
X9845244Y-7909356D01*
X9915956Y-7909356D01*
X9915956Y-9433356D02*
X9915956Y-9362644D01*
X9845244Y-9362644D01*
X9845244Y-9433356D01*
X9915956Y-9433356D01*
X10019356Y-7370606D02*
X10019356Y-7299894D01*
X9948644Y-7299894D01*
X9948644Y-7370606D01*
X10019356Y-7370606D01*
X10169956Y-7909356D02*
X10169956Y-7838644D01*
X10099244Y-7838644D01*
X10099244Y-7909356D01*
X10169956Y-7909356D01*
X10169956Y-9433356D02*
X10169956Y-9362644D01*
X10099244Y-9362644D01*
X10099244Y-9433356D01*
X10169956Y-9433356D01*
X10273356Y-7370606D02*
X10273356Y-7299894D01*
X10202644Y-7299894D01*
X10202644Y-7370606D01*
X10273356Y-7370606D01*
X10423956Y-7909356D02*
X10423956Y-7838644D01*
X10353244Y-7838644D01*
X10353244Y-7909356D01*
X10423956Y-7909356D01*
X10423956Y-9433356D02*
X10423956Y-9362644D01*
X10353244Y-9362644D01*
X10353244Y-9433356D01*
X10423956Y-9433356D01*
X10527356Y-7370606D02*
X10527356Y-7299894D01*
X10456644Y-7299894D01*
X10456644Y-7370606D01*
X10527356Y-7370606D01*
X10677956Y-7909356D02*
X10677956Y-7838644D01*
X10607244Y-7838644D01*
X10607244Y-7909356D01*
X10677956Y-7909356D01*
X10677956Y-9433356D02*
X10677956Y-9362644D01*
X10607244Y-9362644D01*
X10607244Y-9433356D01*
X10677956Y-9433356D01*
X10781356Y-7370606D02*
X10781356Y-7299894D01*
X10710644Y-7299894D01*
X10710644Y-7370606D01*
X10781356Y-7370606D01*
X10931956Y-7909356D02*
X10931956Y-7838644D01*
X10861244Y-7838644D01*
X10861244Y-7909356D01*
X10931956Y-7909356D01*
X10931956Y-9433356D02*
X10931956Y-9362644D01*
X10861244Y-9362644D01*
X10861244Y-9433356D01*
X10931956Y-9433356D01*
X11035356Y-7370606D02*
X11035356Y-7299894D01*
X10964644Y-7299894D01*
X10964644Y-7370606D01*
X11035356Y-7370606D01*
X11185956Y-7909356D02*
X11185956Y-7838644D01*
X11115244Y-7838644D01*
X11115244Y-7909356D01*
X11185956Y-7909356D01*
X11185956Y-9433356D02*
X11185956Y-9362644D01*
X11115244Y-9362644D01*
X11115244Y-9433356D01*
X11185956Y-9433356D01*
X11289356Y-7370606D02*
X11289356Y-7299894D01*
X11218644Y-7299894D01*
X11218644Y-7370606D01*
X11289356Y-7370606D01*
X11439956Y-7909356D02*
X11439956Y-7838644D01*
X11369244Y-7838644D01*
X11369244Y-7909356D01*
X11439956Y-7909356D01*
X11439956Y-9433356D02*
X11439956Y-9362644D01*
X11369244Y-9362644D01*
X11369244Y-9433356D01*
X11439956Y-9433356D01*
X11543356Y-7370606D02*
X11543356Y-7299894D01*
X11472644Y-7299894D01*
X11472644Y-7370606D01*
X11543356Y-7370606D01*
X11668556Y-13243356D02*
X11668556Y-13172644D01*
X11597844Y-13172644D01*
X11597844Y-13243356D01*
X11668556Y-13243356D01*
X11693956Y-7909356D02*
X11693956Y-7838644D01*
X11623244Y-7838644D01*
X11623244Y-7909356D01*
X11693956Y-7909356D01*
X11693956Y-9433356D02*
X11693956Y-9362644D01*
X11623244Y-9362644D01*
X11623244Y-9433356D01*
X11693956Y-9433356D01*
X11797356Y-7370606D02*
X11797356Y-7299894D01*
X11726644Y-7299894D01*
X11726644Y-7370606D01*
X11797356Y-7370606D01*
X11922556Y-13243356D02*
X11922556Y-13172644D01*
X11851844Y-13172644D01*
X11851844Y-13243356D01*
X11922556Y-13243356D01*
X11947956Y-7909356D02*
X11947956Y-7838644D01*
X11877244Y-7838644D01*
X11877244Y-7909356D01*
X11947956Y-7909356D01*
X11947956Y-9433356D02*
X11947956Y-9362644D01*
X11877244Y-9362644D01*
X11877244Y-9433356D01*
X11947956Y-9433356D01*
X12051356Y-7370606D02*
X12051356Y-7299894D01*
X11980644Y-7299894D01*
X11980644Y-7370606D01*
X12051356Y-7370606D01*
X12176556Y-13243356D02*
X12176556Y-13172644D01*
X12105844Y-13172644D01*
X12105844Y-13243356D01*
X12176556Y-13243356D01*
X12201956Y-7909356D02*
X12201956Y-7838644D01*
X12131244Y-7838644D01*
X12131244Y-7909356D01*
X12201956Y-7909356D01*
X12201956Y-9433356D02*
X12201956Y-9362644D01*
X12131244Y-9362644D01*
X12131244Y-9433356D01*
X12201956Y-9433356D01*
X12305356Y-7370606D02*
X12305356Y-7299894D01*
X12234644Y-7299894D01*
X12234644Y-7370606D01*
X12305356Y-7370606D01*
X12455956Y-7909356D02*
X12455956Y-7838644D01*
X12385244Y-7838644D01*
X12385244Y-7909356D01*
X12455956Y-7909356D01*
X12455956Y-9433356D02*
X12455956Y-9362644D01*
X12385244Y-9362644D01*
X12385244Y-9433356D01*
X12455956Y-9433356D01*
X12557556Y-12862356D02*
X12557556Y-12791644D01*
X12486844Y-12791644D01*
X12486844Y-12862356D01*
X12557556Y-12862356D01*
X12559356Y-7370606D02*
X12559356Y-7299894D01*
X12488644Y-7299894D01*
X12488644Y-7370606D01*
X12559356Y-7370606D01*
X12811556Y-12862356D02*
X12811556Y-12791644D01*
X12740844Y-12791644D01*
X12740844Y-12862356D01*
X12811556Y-12862356D01*
X13065556Y-12862356D02*
X13065556Y-12791644D01*
X12994844Y-12791644D01*
X12994844Y-12862356D01*
X13065556Y-12862356D01*
X13319556Y-12862356D02*
X13319556Y-12791644D01*
X13248844Y-12791644D01*
X13248844Y-12862356D01*
X13319556Y-12862356D01*
X13700556Y-13217956D02*
X13700556Y-13147244D01*
X13629844Y-13147244D01*
X13629844Y-13217956D01*
X13700556Y-13217956D01*
X13954556Y-13217956D02*
X13954556Y-13147244D01*
X13883844Y-13147244D01*
X13883844Y-13217956D01*
X13954556Y-13217956D01*
X15453156Y-9687356D02*
X15453156Y-9616644D01*
X15382444Y-9616644D01*
X15382444Y-9687356D01*
X15453156Y-9687356D01*
X15707156Y-9687356D02*
X15707156Y-9616644D01*
X15636444Y-9616644D01*
X15636444Y-9687356D01*
X15707156Y-9687356D01*
X15961156Y-9687356D02*
X15961156Y-9616644D01*
X15890444Y-9616644D01*
X15890444Y-9687356D01*
X15961156Y-9687356D01*
X17485156Y-8087156D02*
X17485156Y-8016444D01*
X17414444Y-8016444D01*
X17414444Y-8087156D01*
X17485156Y-8087156D01*
X17485156Y-8341156D02*
X17485156Y-8270444D01*
X17414444Y-8270444D01*
X17414444Y-8341156D01*
X17485156Y-8341156D01*
X17739156Y-8087156D02*
X17739156Y-8016444D01*
X17668444Y-8016444D01*
X17668444Y-8087156D01*
X17739156Y-8087156D01*
X17739156Y-8341156D02*
X17739156Y-8270444D01*
X17668444Y-8270444D01*
X17668444Y-8341156D01*
X17739156Y-8341156D01*
X19601356Y-8770606D02*
X19601356Y-8699894D01*
X19530644Y-8699894D01*
X19530644Y-8770606D01*
X19601356Y-8770606D01*
X19601356Y-9170606D02*
X19601356Y-9099894D01*
X19530644Y-9099894D01*
X19530644Y-9170606D01*
X19601356Y-9170606D01*
X19601356Y-9870606D02*
X19601356Y-9799894D01*
X19530644Y-9799894D01*
X19530644Y-9870606D01*
X19601356Y-9870606D01*
X19601356Y-10270606D02*
X19601356Y-10199894D01*
X19530644Y-10199894D01*
X19530644Y-10270606D01*
X19601356Y-10270606D01*
D15*
X15417800Y-8106800D02*
X15472800Y-8051800D01*
X15417800Y-7996800D01*
X15362800Y-8051800D01*
X15417800Y-8106800D01*
X15417800Y-10367400D02*
X15472800Y-10312400D01*
X15417800Y-10257400D01*
X15362800Y-10312400D01*
X15417800Y-10367400D01*
X15671800Y-8106800D02*
X15726800Y-8051800D01*
X15671800Y-7996800D01*
X15616800Y-8051800D01*
X15671800Y-8106800D01*
X15671800Y-10367400D02*
X15726800Y-10312400D01*
X15671800Y-10257400D01*
X15616800Y-10312400D01*
X15671800Y-10367400D01*
X15925800Y-8106800D02*
X15980800Y-8051800D01*
X15925800Y-7996800D01*
X15870800Y-8051800D01*
X15925800Y-8106800D01*
X15925800Y-10367400D02*
X15980800Y-10312400D01*
X15925800Y-10257400D01*
X15870800Y-10312400D01*
X15925800Y-10367400D01*
X15976600Y-12729600D02*
X16031600Y-12674600D01*
X15976600Y-12619600D01*
X15921600Y-12674600D01*
X15976600Y-12729600D01*
X15976600Y-12983600D02*
X16031600Y-12928600D01*
X15976600Y-12873600D01*
X15921600Y-12928600D01*
X15976600Y-12983600D01*
X15976600Y-13237600D02*
X16031600Y-13182600D01*
X15976600Y-13127600D01*
X15921600Y-13182600D01*
X15976600Y-13237600D01*
X16764000Y-10215000D02*
X16819000Y-10160000D01*
X16764000Y-10105000D01*
X16709000Y-10160000D01*
X16764000Y-10215000D01*
X17780000Y-10215000D02*
X17835000Y-10160000D01*
X17780000Y-10105000D01*
X17725000Y-10160000D01*
X17780000Y-10215000D01*
D16*
X16706000Y-13154700D02*
X16838000Y-13286700D01*
X16838000Y-13154700D02*
X16706000Y-13286700D01*
X16838000Y-13220700D02*
G75*
G03*
X16838000Y-13220700I-66000J0D01*
G01*
X17206000Y-13154700D02*
X17338000Y-13286700D01*
X17338000Y-13154700D02*
X17206000Y-13286700D01*
X17338000Y-13220700D02*
G75*
G03*
X17338000Y-13220700I-66000J0D01*
G01*
X19111000Y-11951100D02*
X19243000Y-12083100D01*
X19243000Y-11951100D02*
X19111000Y-12083100D01*
X19243000Y-12017100D02*
G75*
G03*
X19243000Y-12017100I-66000J0D01*
G01*
X19111000Y-12451100D02*
X19243000Y-12583100D01*
X19243000Y-12451100D02*
X19111000Y-12583100D01*
X19243000Y-12517100D02*
G75*
G03*
X19243000Y-12517100I-66000J0D01*
G01*
D17*
X13311600Y-7517400D02*
X13561600Y-7767400D01*
X13561600Y-7517400D02*
X13311600Y-7767400D01*
X13436600Y-7517400D02*
X13436600Y-7767400D01*
X13311600Y-7642400D02*
X13561600Y-7642400D01*
X13337000Y-10390600D02*
X13587000Y-10640600D01*
X13587000Y-10390600D02*
X13337000Y-10640600D01*
X13462000Y-10390600D02*
X13462000Y-10640600D01*
X13337000Y-10515600D02*
X13587000Y-10515600D01*
X14215000Y-7517400D02*
X14465000Y-7767400D01*
X14465000Y-7517400D02*
X14215000Y-7767400D01*
X14340000Y-7517400D02*
X14340000Y-7767400D01*
X14215000Y-7642400D02*
X14465000Y-7642400D01*
X14215000Y-10390600D02*
X14465000Y-10640600D01*
X14465000Y-10390600D02*
X14215000Y-10640600D01*
X14340000Y-10390600D02*
X14340000Y-10640600D01*
X14215000Y-10515600D02*
X14465000Y-10515600D01*
D18*
X7791000Y-7260250D02*
X8141000Y-7610250D01*
X8141000Y-7260250D02*
X7791000Y-7610250D01*
X8089745Y-7558995D02*
X8089745Y-7311505D01*
X7842255Y-7311505D01*
X7842255Y-7558995D01*
X8089745Y-7558995D01*
X7791000Y-10960250D02*
X8141000Y-11310250D01*
X8141000Y-10960250D02*
X7791000Y-11310250D01*
X8089745Y-11258995D02*
X8089745Y-11011505D01*
X7842255Y-11011505D01*
X7842255Y-11258995D01*
X8089745Y-11258995D01*
X19291000Y-7260250D02*
X19641000Y-7610250D01*
X19641000Y-7260250D02*
X19291000Y-7610250D01*
X19589745Y-7558995D02*
X19589745Y-7311505D01*
X19342255Y-7311505D01*
X19342255Y-7558995D01*
X19589745Y-7558995D01*
X19291000Y-10960250D02*
X19641000Y-11310250D01*
X19641000Y-10960250D02*
X19291000Y-11310250D01*
X19589745Y-11258995D02*
X19589745Y-11011505D01*
X19342255Y-11011505D01*
X19342255Y-11258995D01*
X19589745Y-11258995D01*
D11*
X7735619Y-14192274D02*
X7735619Y-13992274D01*
X7735619Y-13992274D02*
X7783238Y-13992274D01*
X7783238Y-13992274D02*
X7811809Y-14001798D01*
X7811809Y-14001798D02*
X7830857Y-14020845D01*
X7830857Y-14020845D02*
X7840381Y-14039893D01*
X7840381Y-14039893D02*
X7849905Y-14077988D01*
X7849905Y-14077988D02*
X7849905Y-14106559D01*
X7849905Y-14106559D02*
X7840381Y-14144655D01*
X7840381Y-14144655D02*
X7830857Y-14163702D01*
X7830857Y-14163702D02*
X7811809Y-14182750D01*
X7811809Y-14182750D02*
X7783238Y-14192274D01*
X7783238Y-14192274D02*
X7735619Y-14192274D01*
X7935619Y-14192274D02*
X7935619Y-14058940D01*
X7935619Y-14097036D02*
X7945143Y-14077988D01*
X7945143Y-14077988D02*
X7954667Y-14068464D01*
X7954667Y-14068464D02*
X7973714Y-14058940D01*
X7973714Y-14058940D02*
X7992762Y-14058940D01*
X8059428Y-14192274D02*
X8059428Y-14058940D01*
X8059428Y-13992274D02*
X8049905Y-14001798D01*
X8049905Y-14001798D02*
X8059428Y-14011321D01*
X8059428Y-14011321D02*
X8068952Y-14001798D01*
X8068952Y-14001798D02*
X8059428Y-13992274D01*
X8059428Y-13992274D02*
X8059428Y-14011321D01*
X8183238Y-14192274D02*
X8164190Y-14182750D01*
X8164190Y-14182750D02*
X8154667Y-14163702D01*
X8154667Y-14163702D02*
X8154667Y-13992274D01*
X8288000Y-14192274D02*
X8268952Y-14182750D01*
X8268952Y-14182750D02*
X8259428Y-14163702D01*
X8259428Y-14163702D02*
X8259428Y-13992274D01*
X8516571Y-14192274D02*
X8516571Y-13992274D01*
X8516571Y-13992274D02*
X8583238Y-14135131D01*
X8583238Y-14135131D02*
X8649905Y-13992274D01*
X8649905Y-13992274D02*
X8649905Y-14192274D01*
X8830857Y-14192274D02*
X8830857Y-14087512D01*
X8830857Y-14087512D02*
X8821333Y-14068464D01*
X8821333Y-14068464D02*
X8802286Y-14058940D01*
X8802286Y-14058940D02*
X8764190Y-14058940D01*
X8764190Y-14058940D02*
X8745143Y-14068464D01*
X8830857Y-14182750D02*
X8811810Y-14192274D01*
X8811810Y-14192274D02*
X8764190Y-14192274D01*
X8764190Y-14192274D02*
X8745143Y-14182750D01*
X8745143Y-14182750D02*
X8735619Y-14163702D01*
X8735619Y-14163702D02*
X8735619Y-14144655D01*
X8735619Y-14144655D02*
X8745143Y-14125607D01*
X8745143Y-14125607D02*
X8764190Y-14116083D01*
X8764190Y-14116083D02*
X8811810Y-14116083D01*
X8811810Y-14116083D02*
X8830857Y-14106559D01*
X8926095Y-14058940D02*
X8926095Y-14258940D01*
X8926095Y-14068464D02*
X8945143Y-14058940D01*
X8945143Y-14058940D02*
X8983238Y-14058940D01*
X8983238Y-14058940D02*
X9002286Y-14068464D01*
X9002286Y-14068464D02*
X9011810Y-14077988D01*
X9011810Y-14077988D02*
X9021333Y-14097036D01*
X9021333Y-14097036D02*
X9021333Y-14154178D01*
X9021333Y-14154178D02*
X9011810Y-14173226D01*
X9011810Y-14173226D02*
X9002286Y-14182750D01*
X9002286Y-14182750D02*
X8983238Y-14192274D01*
X8983238Y-14192274D02*
X8945143Y-14192274D01*
X8945143Y-14192274D02*
X8926095Y-14182750D01*
X9107048Y-14173226D02*
X9116571Y-14182750D01*
X9116571Y-14182750D02*
X9107048Y-14192274D01*
X9107048Y-14192274D02*
X9097524Y-14182750D01*
X9097524Y-14182750D02*
X9107048Y-14173226D01*
X9107048Y-14173226D02*
X9107048Y-14192274D01*
X9107048Y-14068464D02*
X9116571Y-14077988D01*
X9116571Y-14077988D02*
X9107048Y-14087512D01*
X9107048Y-14087512D02*
X9097524Y-14077988D01*
X9097524Y-14077988D02*
X9107048Y-14068464D01*
X9107048Y-14068464D02*
X9107048Y-14087512D01*
D12*
X7448000Y-14499750D02*
X7488000Y-14539750D01*
X7488000Y-14499750D02*
X7448000Y-14539750D01*
D11*
X7773714Y-14412274D02*
X7792762Y-14412274D01*
X7792762Y-14412274D02*
X7811809Y-14421798D01*
X7811809Y-14421798D02*
X7821333Y-14431321D01*
X7821333Y-14431321D02*
X7830857Y-14450369D01*
X7830857Y-14450369D02*
X7840381Y-14488464D01*
X7840381Y-14488464D02*
X7840381Y-14536083D01*
X7840381Y-14536083D02*
X7830857Y-14574178D01*
X7830857Y-14574178D02*
X7821333Y-14593226D01*
X7821333Y-14593226D02*
X7811809Y-14602750D01*
X7811809Y-14602750D02*
X7792762Y-14612274D01*
X7792762Y-14612274D02*
X7773714Y-14612274D01*
X7773714Y-14612274D02*
X7754667Y-14602750D01*
X7754667Y-14602750D02*
X7745143Y-14593226D01*
X7745143Y-14593226D02*
X7735619Y-14574178D01*
X7735619Y-14574178D02*
X7726095Y-14536083D01*
X7726095Y-14536083D02*
X7726095Y-14488464D01*
X7726095Y-14488464D02*
X7735619Y-14450369D01*
X7735619Y-14450369D02*
X7745143Y-14431321D01*
X7745143Y-14431321D02*
X7754667Y-14421798D01*
X7754667Y-14421798D02*
X7773714Y-14412274D01*
X7926095Y-14593226D02*
X7935619Y-14602750D01*
X7935619Y-14602750D02*
X7926095Y-14612274D01*
X7926095Y-14612274D02*
X7916571Y-14602750D01*
X7916571Y-14602750D02*
X7926095Y-14593226D01*
X7926095Y-14593226D02*
X7926095Y-14612274D01*
X8107048Y-14478940D02*
X8107048Y-14612274D01*
X8059428Y-14402750D02*
X8011809Y-14545607D01*
X8011809Y-14545607D02*
X8135619Y-14545607D01*
X8249905Y-14412274D02*
X8268952Y-14412274D01*
X8268952Y-14412274D02*
X8288000Y-14421798D01*
X8288000Y-14421798D02*
X8297524Y-14431321D01*
X8297524Y-14431321D02*
X8307048Y-14450369D01*
X8307048Y-14450369D02*
X8316571Y-14488464D01*
X8316571Y-14488464D02*
X8316571Y-14536083D01*
X8316571Y-14536083D02*
X8307048Y-14574178D01*
X8307048Y-14574178D02*
X8297524Y-14593226D01*
X8297524Y-14593226D02*
X8288000Y-14602750D01*
X8288000Y-14602750D02*
X8268952Y-14612274D01*
X8268952Y-14612274D02*
X8249905Y-14612274D01*
X8249905Y-14612274D02*
X8230857Y-14602750D01*
X8230857Y-14602750D02*
X8221333Y-14593226D01*
X8221333Y-14593226D02*
X8211809Y-14574178D01*
X8211809Y-14574178D02*
X8202286Y-14536083D01*
X8202286Y-14536083D02*
X8202286Y-14488464D01*
X8202286Y-14488464D02*
X8211809Y-14450369D01*
X8211809Y-14450369D02*
X8221333Y-14431321D01*
X8221333Y-14431321D02*
X8230857Y-14421798D01*
X8230857Y-14421798D02*
X8249905Y-14412274D01*
X8440381Y-14412274D02*
X8459429Y-14412274D01*
X8459429Y-14412274D02*
X8478476Y-14421798D01*
X8478476Y-14421798D02*
X8488000Y-14431321D01*
X8488000Y-14431321D02*
X8497524Y-14450369D01*
X8497524Y-14450369D02*
X8507048Y-14488464D01*
X8507048Y-14488464D02*
X8507048Y-14536083D01*
X8507048Y-14536083D02*
X8497524Y-14574178D01*
X8497524Y-14574178D02*
X8488000Y-14593226D01*
X8488000Y-14593226D02*
X8478476Y-14602750D01*
X8478476Y-14602750D02*
X8459429Y-14612274D01*
X8459429Y-14612274D02*
X8440381Y-14612274D01*
X8440381Y-14612274D02*
X8421333Y-14602750D01*
X8421333Y-14602750D02*
X8411810Y-14593226D01*
X8411810Y-14593226D02*
X8402286Y-14574178D01*
X8402286Y-14574178D02*
X8392762Y-14536083D01*
X8392762Y-14536083D02*
X8392762Y-14488464D01*
X8392762Y-14488464D02*
X8402286Y-14450369D01*
X8402286Y-14450369D02*
X8411810Y-14431321D01*
X8411810Y-14431321D02*
X8421333Y-14421798D01*
X8421333Y-14421798D02*
X8440381Y-14412274D01*
X8592762Y-14612274D02*
X8592762Y-14478940D01*
X8592762Y-14497988D02*
X8602286Y-14488464D01*
X8602286Y-14488464D02*
X8621333Y-14478940D01*
X8621333Y-14478940D02*
X8649905Y-14478940D01*
X8649905Y-14478940D02*
X8668952Y-14488464D01*
X8668952Y-14488464D02*
X8678476Y-14507512D01*
X8678476Y-14507512D02*
X8678476Y-14612274D01*
X8678476Y-14507512D02*
X8688000Y-14488464D01*
X8688000Y-14488464D02*
X8707048Y-14478940D01*
X8707048Y-14478940D02*
X8735619Y-14478940D01*
X8735619Y-14478940D02*
X8754667Y-14488464D01*
X8754667Y-14488464D02*
X8764191Y-14507512D01*
X8764191Y-14507512D02*
X8764191Y-14612274D01*
X8859429Y-14612274D02*
X8859429Y-14478940D01*
X8859429Y-14497988D02*
X8868952Y-14488464D01*
X8868952Y-14488464D02*
X8888000Y-14478940D01*
X8888000Y-14478940D02*
X8916572Y-14478940D01*
X8916572Y-14478940D02*
X8935619Y-14488464D01*
X8935619Y-14488464D02*
X8945143Y-14507512D01*
X8945143Y-14507512D02*
X8945143Y-14612274D01*
X8945143Y-14507512D02*
X8954667Y-14488464D01*
X8954667Y-14488464D02*
X8973714Y-14478940D01*
X8973714Y-14478940D02*
X9002286Y-14478940D01*
X9002286Y-14478940D02*
X9021333Y-14488464D01*
X9021333Y-14488464D02*
X9030857Y-14507512D01*
X9030857Y-14507512D02*
X9030857Y-14612274D01*
X9421333Y-14402750D02*
X9249905Y-14659893D01*
X9678476Y-14412274D02*
X9697524Y-14412274D01*
X9697524Y-14412274D02*
X9716572Y-14421798D01*
X9716572Y-14421798D02*
X9726095Y-14431321D01*
X9726095Y-14431321D02*
X9735619Y-14450369D01*
X9735619Y-14450369D02*
X9745143Y-14488464D01*
X9745143Y-14488464D02*
X9745143Y-14536083D01*
X9745143Y-14536083D02*
X9735619Y-14574178D01*
X9735619Y-14574178D02*
X9726095Y-14593226D01*
X9726095Y-14593226D02*
X9716572Y-14602750D01*
X9716572Y-14602750D02*
X9697524Y-14612274D01*
X9697524Y-14612274D02*
X9678476Y-14612274D01*
X9678476Y-14612274D02*
X9659429Y-14602750D01*
X9659429Y-14602750D02*
X9649905Y-14593226D01*
X9649905Y-14593226D02*
X9640381Y-14574178D01*
X9640381Y-14574178D02*
X9630857Y-14536083D01*
X9630857Y-14536083D02*
X9630857Y-14488464D01*
X9630857Y-14488464D02*
X9640381Y-14450369D01*
X9640381Y-14450369D02*
X9649905Y-14431321D01*
X9649905Y-14431321D02*
X9659429Y-14421798D01*
X9659429Y-14421798D02*
X9678476Y-14412274D01*
X9830857Y-14593226D02*
X9840381Y-14602750D01*
X9840381Y-14602750D02*
X9830857Y-14612274D01*
X9830857Y-14612274D02*
X9821334Y-14602750D01*
X9821334Y-14602750D02*
X9830857Y-14593226D01*
X9830857Y-14593226D02*
X9830857Y-14612274D01*
X9964191Y-14412274D02*
X9983238Y-14412274D01*
X9983238Y-14412274D02*
X10002286Y-14421798D01*
X10002286Y-14421798D02*
X10011810Y-14431321D01*
X10011810Y-14431321D02*
X10021334Y-14450369D01*
X10021334Y-14450369D02*
X10030857Y-14488464D01*
X10030857Y-14488464D02*
X10030857Y-14536083D01*
X10030857Y-14536083D02*
X10021334Y-14574178D01*
X10021334Y-14574178D02*
X10011810Y-14593226D01*
X10011810Y-14593226D02*
X10002286Y-14602750D01*
X10002286Y-14602750D02*
X9983238Y-14612274D01*
X9983238Y-14612274D02*
X9964191Y-14612274D01*
X9964191Y-14612274D02*
X9945143Y-14602750D01*
X9945143Y-14602750D02*
X9935619Y-14593226D01*
X9935619Y-14593226D02*
X9926095Y-14574178D01*
X9926095Y-14574178D02*
X9916572Y-14536083D01*
X9916572Y-14536083D02*
X9916572Y-14488464D01*
X9916572Y-14488464D02*
X9926095Y-14450369D01*
X9926095Y-14450369D02*
X9935619Y-14431321D01*
X9935619Y-14431321D02*
X9945143Y-14421798D01*
X9945143Y-14421798D02*
X9964191Y-14412274D01*
X10221334Y-14612274D02*
X10107048Y-14612274D01*
X10164191Y-14612274D02*
X10164191Y-14412274D01*
X10164191Y-14412274D02*
X10145143Y-14440845D01*
X10145143Y-14440845D02*
X10126095Y-14459893D01*
X10126095Y-14459893D02*
X10107048Y-14469417D01*
X10402286Y-14412274D02*
X10307048Y-14412274D01*
X10307048Y-14412274D02*
X10297524Y-14507512D01*
X10297524Y-14507512D02*
X10307048Y-14497988D01*
X10307048Y-14497988D02*
X10326095Y-14488464D01*
X10326095Y-14488464D02*
X10373715Y-14488464D01*
X10373715Y-14488464D02*
X10392762Y-14497988D01*
X10392762Y-14497988D02*
X10402286Y-14507512D01*
X10402286Y-14507512D02*
X10411810Y-14526559D01*
X10411810Y-14526559D02*
X10411810Y-14574178D01*
X10411810Y-14574178D02*
X10402286Y-14593226D01*
X10402286Y-14593226D02*
X10392762Y-14602750D01*
X10392762Y-14602750D02*
X10373715Y-14612274D01*
X10373715Y-14612274D02*
X10326095Y-14612274D01*
X10326095Y-14612274D02*
X10307048Y-14602750D01*
X10307048Y-14602750D02*
X10297524Y-14593226D01*
X10478476Y-14412274D02*
X10611810Y-14412274D01*
X10611810Y-14412274D02*
X10526095Y-14612274D01*
X10678476Y-14412274D02*
X10678476Y-14450369D01*
X10754667Y-14412274D02*
X10754667Y-14450369D01*
X11049905Y-14688464D02*
X11040381Y-14678940D01*
X11040381Y-14678940D02*
X11021334Y-14650369D01*
X11021334Y-14650369D02*
X11011810Y-14631321D01*
X11011810Y-14631321D02*
X11002286Y-14602750D01*
X11002286Y-14602750D02*
X10992762Y-14555131D01*
X10992762Y-14555131D02*
X10992762Y-14517036D01*
X10992762Y-14517036D02*
X11002286Y-14469417D01*
X11002286Y-14469417D02*
X11011810Y-14440845D01*
X11011810Y-14440845D02*
X11021334Y-14421798D01*
X11021334Y-14421798D02*
X11040381Y-14393226D01*
X11040381Y-14393226D02*
X11049905Y-14383702D01*
X11107048Y-14412274D02*
X11230857Y-14412274D01*
X11230857Y-14412274D02*
X11164191Y-14488464D01*
X11164191Y-14488464D02*
X11192762Y-14488464D01*
X11192762Y-14488464D02*
X11211810Y-14497988D01*
X11211810Y-14497988D02*
X11221334Y-14507512D01*
X11221334Y-14507512D02*
X11230857Y-14526559D01*
X11230857Y-14526559D02*
X11230857Y-14574178D01*
X11230857Y-14574178D02*
X11221334Y-14593226D01*
X11221334Y-14593226D02*
X11211810Y-14602750D01*
X11211810Y-14602750D02*
X11192762Y-14612274D01*
X11192762Y-14612274D02*
X11135619Y-14612274D01*
X11135619Y-14612274D02*
X11116572Y-14602750D01*
X11116572Y-14602750D02*
X11107048Y-14593226D01*
X11468953Y-14612274D02*
X11468953Y-14412274D01*
X11554667Y-14612274D02*
X11554667Y-14507512D01*
X11554667Y-14507512D02*
X11545143Y-14488464D01*
X11545143Y-14488464D02*
X11526096Y-14478940D01*
X11526096Y-14478940D02*
X11497524Y-14478940D01*
X11497524Y-14478940D02*
X11478476Y-14488464D01*
X11478476Y-14488464D02*
X11468953Y-14497988D01*
X11678476Y-14612274D02*
X11659429Y-14602750D01*
X11659429Y-14602750D02*
X11649905Y-14593226D01*
X11649905Y-14593226D02*
X11640381Y-14574178D01*
X11640381Y-14574178D02*
X11640381Y-14517036D01*
X11640381Y-14517036D02*
X11649905Y-14497988D01*
X11649905Y-14497988D02*
X11659429Y-14488464D01*
X11659429Y-14488464D02*
X11678476Y-14478940D01*
X11678476Y-14478940D02*
X11707048Y-14478940D01*
X11707048Y-14478940D02*
X11726096Y-14488464D01*
X11726096Y-14488464D02*
X11735619Y-14497988D01*
X11735619Y-14497988D02*
X11745143Y-14517036D01*
X11745143Y-14517036D02*
X11745143Y-14574178D01*
X11745143Y-14574178D02*
X11735619Y-14593226D01*
X11735619Y-14593226D02*
X11726096Y-14602750D01*
X11726096Y-14602750D02*
X11707048Y-14612274D01*
X11707048Y-14612274D02*
X11678476Y-14612274D01*
X11859429Y-14612274D02*
X11840381Y-14602750D01*
X11840381Y-14602750D02*
X11830857Y-14583702D01*
X11830857Y-14583702D02*
X11830857Y-14412274D01*
X12011810Y-14602750D02*
X11992762Y-14612274D01*
X11992762Y-14612274D02*
X11954667Y-14612274D01*
X11954667Y-14612274D02*
X11935619Y-14602750D01*
X11935619Y-14602750D02*
X11926096Y-14583702D01*
X11926096Y-14583702D02*
X11926096Y-14507512D01*
X11926096Y-14507512D02*
X11935619Y-14488464D01*
X11935619Y-14488464D02*
X11954667Y-14478940D01*
X11954667Y-14478940D02*
X11992762Y-14478940D01*
X11992762Y-14478940D02*
X12011810Y-14488464D01*
X12011810Y-14488464D02*
X12021334Y-14507512D01*
X12021334Y-14507512D02*
X12021334Y-14526559D01*
X12021334Y-14526559D02*
X11926096Y-14545607D01*
X12097524Y-14602750D02*
X12116572Y-14612274D01*
X12116572Y-14612274D02*
X12154667Y-14612274D01*
X12154667Y-14612274D02*
X12173715Y-14602750D01*
X12173715Y-14602750D02*
X12183238Y-14583702D01*
X12183238Y-14583702D02*
X12183238Y-14574178D01*
X12183238Y-14574178D02*
X12173715Y-14555131D01*
X12173715Y-14555131D02*
X12154667Y-14545607D01*
X12154667Y-14545607D02*
X12126096Y-14545607D01*
X12126096Y-14545607D02*
X12107048Y-14536083D01*
X12107048Y-14536083D02*
X12097524Y-14517036D01*
X12097524Y-14517036D02*
X12097524Y-14507512D01*
X12097524Y-14507512D02*
X12107048Y-14488464D01*
X12107048Y-14488464D02*
X12126096Y-14478940D01*
X12126096Y-14478940D02*
X12154667Y-14478940D01*
X12154667Y-14478940D02*
X12173715Y-14488464D01*
X12249905Y-14688464D02*
X12259429Y-14678940D01*
X12259429Y-14678940D02*
X12278477Y-14650369D01*
X12278477Y-14650369D02*
X12288000Y-14631321D01*
X12288000Y-14631321D02*
X12297524Y-14602750D01*
X12297524Y-14602750D02*
X12307048Y-14555131D01*
X12307048Y-14555131D02*
X12307048Y-14517036D01*
X12307048Y-14517036D02*
X12297524Y-14469417D01*
X12297524Y-14469417D02*
X12288000Y-14440845D01*
X12288000Y-14440845D02*
X12278477Y-14421798D01*
X12278477Y-14421798D02*
X12259429Y-14393226D01*
X12259429Y-14393226D02*
X12249905Y-14383702D01*
D13*
X7488000Y-14783750D02*
G75*
G03*
X7488000Y-14783750I-40000J0D01*
G01*
D11*
X7773714Y-14676274D02*
X7792762Y-14676274D01*
X7792762Y-14676274D02*
X7811809Y-14685798D01*
X7811809Y-14685798D02*
X7821333Y-14695321D01*
X7821333Y-14695321D02*
X7830857Y-14714369D01*
X7830857Y-14714369D02*
X7840381Y-14752464D01*
X7840381Y-14752464D02*
X7840381Y-14800083D01*
X7840381Y-14800083D02*
X7830857Y-14838178D01*
X7830857Y-14838178D02*
X7821333Y-14857226D01*
X7821333Y-14857226D02*
X7811809Y-14866750D01*
X7811809Y-14866750D02*
X7792762Y-14876274D01*
X7792762Y-14876274D02*
X7773714Y-14876274D01*
X7773714Y-14876274D02*
X7754667Y-14866750D01*
X7754667Y-14866750D02*
X7745143Y-14857226D01*
X7745143Y-14857226D02*
X7735619Y-14838178D01*
X7735619Y-14838178D02*
X7726095Y-14800083D01*
X7726095Y-14800083D02*
X7726095Y-14752464D01*
X7726095Y-14752464D02*
X7735619Y-14714369D01*
X7735619Y-14714369D02*
X7745143Y-14695321D01*
X7745143Y-14695321D02*
X7754667Y-14685798D01*
X7754667Y-14685798D02*
X7773714Y-14676274D01*
X7926095Y-14857226D02*
X7935619Y-14866750D01*
X7935619Y-14866750D02*
X7926095Y-14876274D01*
X7926095Y-14876274D02*
X7916571Y-14866750D01*
X7916571Y-14866750D02*
X7926095Y-14857226D01*
X7926095Y-14857226D02*
X7926095Y-14876274D01*
X8049905Y-14761988D02*
X8030857Y-14752464D01*
X8030857Y-14752464D02*
X8021333Y-14742940D01*
X8021333Y-14742940D02*
X8011809Y-14723893D01*
X8011809Y-14723893D02*
X8011809Y-14714369D01*
X8011809Y-14714369D02*
X8021333Y-14695321D01*
X8021333Y-14695321D02*
X8030857Y-14685798D01*
X8030857Y-14685798D02*
X8049905Y-14676274D01*
X8049905Y-14676274D02*
X8088000Y-14676274D01*
X8088000Y-14676274D02*
X8107048Y-14685798D01*
X8107048Y-14685798D02*
X8116571Y-14695321D01*
X8116571Y-14695321D02*
X8126095Y-14714369D01*
X8126095Y-14714369D02*
X8126095Y-14723893D01*
X8126095Y-14723893D02*
X8116571Y-14742940D01*
X8116571Y-14742940D02*
X8107048Y-14752464D01*
X8107048Y-14752464D02*
X8088000Y-14761988D01*
X8088000Y-14761988D02*
X8049905Y-14761988D01*
X8049905Y-14761988D02*
X8030857Y-14771512D01*
X8030857Y-14771512D02*
X8021333Y-14781036D01*
X8021333Y-14781036D02*
X8011809Y-14800083D01*
X8011809Y-14800083D02*
X8011809Y-14838178D01*
X8011809Y-14838178D02*
X8021333Y-14857226D01*
X8021333Y-14857226D02*
X8030857Y-14866750D01*
X8030857Y-14866750D02*
X8049905Y-14876274D01*
X8049905Y-14876274D02*
X8088000Y-14876274D01*
X8088000Y-14876274D02*
X8107048Y-14866750D01*
X8107048Y-14866750D02*
X8116571Y-14857226D01*
X8116571Y-14857226D02*
X8126095Y-14838178D01*
X8126095Y-14838178D02*
X8126095Y-14800083D01*
X8126095Y-14800083D02*
X8116571Y-14781036D01*
X8116571Y-14781036D02*
X8107048Y-14771512D01*
X8107048Y-14771512D02*
X8088000Y-14761988D01*
X8249905Y-14676274D02*
X8268952Y-14676274D01*
X8268952Y-14676274D02*
X8288000Y-14685798D01*
X8288000Y-14685798D02*
X8297524Y-14695321D01*
X8297524Y-14695321D02*
X8307048Y-14714369D01*
X8307048Y-14714369D02*
X8316571Y-14752464D01*
X8316571Y-14752464D02*
X8316571Y-14800083D01*
X8316571Y-14800083D02*
X8307048Y-14838178D01*
X8307048Y-14838178D02*
X8297524Y-14857226D01*
X8297524Y-14857226D02*
X8288000Y-14866750D01*
X8288000Y-14866750D02*
X8268952Y-14876274D01*
X8268952Y-14876274D02*
X8249905Y-14876274D01*
X8249905Y-14876274D02*
X8230857Y-14866750D01*
X8230857Y-14866750D02*
X8221333Y-14857226D01*
X8221333Y-14857226D02*
X8211809Y-14838178D01*
X8211809Y-14838178D02*
X8202286Y-14800083D01*
X8202286Y-14800083D02*
X8202286Y-14752464D01*
X8202286Y-14752464D02*
X8211809Y-14714369D01*
X8211809Y-14714369D02*
X8221333Y-14695321D01*
X8221333Y-14695321D02*
X8230857Y-14685798D01*
X8230857Y-14685798D02*
X8249905Y-14676274D01*
X8440381Y-14676274D02*
X8459429Y-14676274D01*
X8459429Y-14676274D02*
X8478476Y-14685798D01*
X8478476Y-14685798D02*
X8488000Y-14695321D01*
X8488000Y-14695321D02*
X8497524Y-14714369D01*
X8497524Y-14714369D02*
X8507048Y-14752464D01*
X8507048Y-14752464D02*
X8507048Y-14800083D01*
X8507048Y-14800083D02*
X8497524Y-14838178D01*
X8497524Y-14838178D02*
X8488000Y-14857226D01*
X8488000Y-14857226D02*
X8478476Y-14866750D01*
X8478476Y-14866750D02*
X8459429Y-14876274D01*
X8459429Y-14876274D02*
X8440381Y-14876274D01*
X8440381Y-14876274D02*
X8421333Y-14866750D01*
X8421333Y-14866750D02*
X8411810Y-14857226D01*
X8411810Y-14857226D02*
X8402286Y-14838178D01*
X8402286Y-14838178D02*
X8392762Y-14800083D01*
X8392762Y-14800083D02*
X8392762Y-14752464D01*
X8392762Y-14752464D02*
X8402286Y-14714369D01*
X8402286Y-14714369D02*
X8411810Y-14695321D01*
X8411810Y-14695321D02*
X8421333Y-14685798D01*
X8421333Y-14685798D02*
X8440381Y-14676274D01*
X8592762Y-14876274D02*
X8592762Y-14742940D01*
X8592762Y-14761988D02*
X8602286Y-14752464D01*
X8602286Y-14752464D02*
X8621333Y-14742940D01*
X8621333Y-14742940D02*
X8649905Y-14742940D01*
X8649905Y-14742940D02*
X8668952Y-14752464D01*
X8668952Y-14752464D02*
X8678476Y-14771512D01*
X8678476Y-14771512D02*
X8678476Y-14876274D01*
X8678476Y-14771512D02*
X8688000Y-14752464D01*
X8688000Y-14752464D02*
X8707048Y-14742940D01*
X8707048Y-14742940D02*
X8735619Y-14742940D01*
X8735619Y-14742940D02*
X8754667Y-14752464D01*
X8754667Y-14752464D02*
X8764191Y-14771512D01*
X8764191Y-14771512D02*
X8764191Y-14876274D01*
X8859429Y-14876274D02*
X8859429Y-14742940D01*
X8859429Y-14761988D02*
X8868952Y-14752464D01*
X8868952Y-14752464D02*
X8888000Y-14742940D01*
X8888000Y-14742940D02*
X8916572Y-14742940D01*
X8916572Y-14742940D02*
X8935619Y-14752464D01*
X8935619Y-14752464D02*
X8945143Y-14771512D01*
X8945143Y-14771512D02*
X8945143Y-14876274D01*
X8945143Y-14771512D02*
X8954667Y-14752464D01*
X8954667Y-14752464D02*
X8973714Y-14742940D01*
X8973714Y-14742940D02*
X9002286Y-14742940D01*
X9002286Y-14742940D02*
X9021333Y-14752464D01*
X9021333Y-14752464D02*
X9030857Y-14771512D01*
X9030857Y-14771512D02*
X9030857Y-14876274D01*
X9421333Y-14666750D02*
X9249905Y-14923893D01*
X9678476Y-14676274D02*
X9697524Y-14676274D01*
X9697524Y-14676274D02*
X9716572Y-14685798D01*
X9716572Y-14685798D02*
X9726095Y-14695321D01*
X9726095Y-14695321D02*
X9735619Y-14714369D01*
X9735619Y-14714369D02*
X9745143Y-14752464D01*
X9745143Y-14752464D02*
X9745143Y-14800083D01*
X9745143Y-14800083D02*
X9735619Y-14838178D01*
X9735619Y-14838178D02*
X9726095Y-14857226D01*
X9726095Y-14857226D02*
X9716572Y-14866750D01*
X9716572Y-14866750D02*
X9697524Y-14876274D01*
X9697524Y-14876274D02*
X9678476Y-14876274D01*
X9678476Y-14876274D02*
X9659429Y-14866750D01*
X9659429Y-14866750D02*
X9649905Y-14857226D01*
X9649905Y-14857226D02*
X9640381Y-14838178D01*
X9640381Y-14838178D02*
X9630857Y-14800083D01*
X9630857Y-14800083D02*
X9630857Y-14752464D01*
X9630857Y-14752464D02*
X9640381Y-14714369D01*
X9640381Y-14714369D02*
X9649905Y-14695321D01*
X9649905Y-14695321D02*
X9659429Y-14685798D01*
X9659429Y-14685798D02*
X9678476Y-14676274D01*
X9830857Y-14857226D02*
X9840381Y-14866750D01*
X9840381Y-14866750D02*
X9830857Y-14876274D01*
X9830857Y-14876274D02*
X9821334Y-14866750D01*
X9821334Y-14866750D02*
X9830857Y-14857226D01*
X9830857Y-14857226D02*
X9830857Y-14876274D01*
X9964191Y-14676274D02*
X9983238Y-14676274D01*
X9983238Y-14676274D02*
X10002286Y-14685798D01*
X10002286Y-14685798D02*
X10011810Y-14695321D01*
X10011810Y-14695321D02*
X10021334Y-14714369D01*
X10021334Y-14714369D02*
X10030857Y-14752464D01*
X10030857Y-14752464D02*
X10030857Y-14800083D01*
X10030857Y-14800083D02*
X10021334Y-14838178D01*
X10021334Y-14838178D02*
X10011810Y-14857226D01*
X10011810Y-14857226D02*
X10002286Y-14866750D01*
X10002286Y-14866750D02*
X9983238Y-14876274D01*
X9983238Y-14876274D02*
X9964191Y-14876274D01*
X9964191Y-14876274D02*
X9945143Y-14866750D01*
X9945143Y-14866750D02*
X9935619Y-14857226D01*
X9935619Y-14857226D02*
X9926095Y-14838178D01*
X9926095Y-14838178D02*
X9916572Y-14800083D01*
X9916572Y-14800083D02*
X9916572Y-14752464D01*
X9916572Y-14752464D02*
X9926095Y-14714369D01*
X9926095Y-14714369D02*
X9935619Y-14695321D01*
X9935619Y-14695321D02*
X9945143Y-14685798D01*
X9945143Y-14685798D02*
X9964191Y-14676274D01*
X10097524Y-14676274D02*
X10221334Y-14676274D01*
X10221334Y-14676274D02*
X10154667Y-14752464D01*
X10154667Y-14752464D02*
X10183238Y-14752464D01*
X10183238Y-14752464D02*
X10202286Y-14761988D01*
X10202286Y-14761988D02*
X10211810Y-14771512D01*
X10211810Y-14771512D02*
X10221334Y-14790559D01*
X10221334Y-14790559D02*
X10221334Y-14838178D01*
X10221334Y-14838178D02*
X10211810Y-14857226D01*
X10211810Y-14857226D02*
X10202286Y-14866750D01*
X10202286Y-14866750D02*
X10183238Y-14876274D01*
X10183238Y-14876274D02*
X10126095Y-14876274D01*
X10126095Y-14876274D02*
X10107048Y-14866750D01*
X10107048Y-14866750D02*
X10097524Y-14857226D01*
X10411810Y-14876274D02*
X10297524Y-14876274D01*
X10354667Y-14876274D02*
X10354667Y-14676274D01*
X10354667Y-14676274D02*
X10335619Y-14704845D01*
X10335619Y-14704845D02*
X10316572Y-14723893D01*
X10316572Y-14723893D02*
X10297524Y-14733417D01*
X10592762Y-14676274D02*
X10497524Y-14676274D01*
X10497524Y-14676274D02*
X10488000Y-14771512D01*
X10488000Y-14771512D02*
X10497524Y-14761988D01*
X10497524Y-14761988D02*
X10516572Y-14752464D01*
X10516572Y-14752464D02*
X10564191Y-14752464D01*
X10564191Y-14752464D02*
X10583238Y-14761988D01*
X10583238Y-14761988D02*
X10592762Y-14771512D01*
X10592762Y-14771512D02*
X10602286Y-14790559D01*
X10602286Y-14790559D02*
X10602286Y-14838178D01*
X10602286Y-14838178D02*
X10592762Y-14857226D01*
X10592762Y-14857226D02*
X10583238Y-14866750D01*
X10583238Y-14866750D02*
X10564191Y-14876274D01*
X10564191Y-14876274D02*
X10516572Y-14876274D01*
X10516572Y-14876274D02*
X10497524Y-14866750D01*
X10497524Y-14866750D02*
X10488000Y-14857226D01*
X10678476Y-14676274D02*
X10678476Y-14714369D01*
X10754667Y-14676274D02*
X10754667Y-14714369D01*
X11049905Y-14952464D02*
X11040381Y-14942940D01*
X11040381Y-14942940D02*
X11021334Y-14914369D01*
X11021334Y-14914369D02*
X11011810Y-14895321D01*
X11011810Y-14895321D02*
X11002286Y-14866750D01*
X11002286Y-14866750D02*
X10992762Y-14819131D01*
X10992762Y-14819131D02*
X10992762Y-14781036D01*
X10992762Y-14781036D02*
X11002286Y-14733417D01*
X11002286Y-14733417D02*
X11011810Y-14704845D01*
X11011810Y-14704845D02*
X11021334Y-14685798D01*
X11021334Y-14685798D02*
X11040381Y-14657226D01*
X11040381Y-14657226D02*
X11049905Y-14647702D01*
X11107048Y-14676274D02*
X11230857Y-14676274D01*
X11230857Y-14676274D02*
X11164191Y-14752464D01*
X11164191Y-14752464D02*
X11192762Y-14752464D01*
X11192762Y-14752464D02*
X11211810Y-14761988D01*
X11211810Y-14761988D02*
X11221334Y-14771512D01*
X11221334Y-14771512D02*
X11230857Y-14790559D01*
X11230857Y-14790559D02*
X11230857Y-14838178D01*
X11230857Y-14838178D02*
X11221334Y-14857226D01*
X11221334Y-14857226D02*
X11211810Y-14866750D01*
X11211810Y-14866750D02*
X11192762Y-14876274D01*
X11192762Y-14876274D02*
X11135619Y-14876274D01*
X11135619Y-14876274D02*
X11116572Y-14866750D01*
X11116572Y-14866750D02*
X11107048Y-14857226D01*
X11297524Y-14676274D02*
X11430857Y-14676274D01*
X11430857Y-14676274D02*
X11345143Y-14876274D01*
X11659429Y-14876274D02*
X11659429Y-14676274D01*
X11745143Y-14876274D02*
X11745143Y-14771512D01*
X11745143Y-14771512D02*
X11735619Y-14752464D01*
X11735619Y-14752464D02*
X11716572Y-14742940D01*
X11716572Y-14742940D02*
X11688000Y-14742940D01*
X11688000Y-14742940D02*
X11668953Y-14752464D01*
X11668953Y-14752464D02*
X11659429Y-14761988D01*
X11868953Y-14876274D02*
X11849905Y-14866750D01*
X11849905Y-14866750D02*
X11840381Y-14857226D01*
X11840381Y-14857226D02*
X11830857Y-14838178D01*
X11830857Y-14838178D02*
X11830857Y-14781036D01*
X11830857Y-14781036D02*
X11840381Y-14761988D01*
X11840381Y-14761988D02*
X11849905Y-14752464D01*
X11849905Y-14752464D02*
X11868953Y-14742940D01*
X11868953Y-14742940D02*
X11897524Y-14742940D01*
X11897524Y-14742940D02*
X11916572Y-14752464D01*
X11916572Y-14752464D02*
X11926096Y-14761988D01*
X11926096Y-14761988D02*
X11935619Y-14781036D01*
X11935619Y-14781036D02*
X11935619Y-14838178D01*
X11935619Y-14838178D02*
X11926096Y-14857226D01*
X11926096Y-14857226D02*
X11916572Y-14866750D01*
X11916572Y-14866750D02*
X11897524Y-14876274D01*
X11897524Y-14876274D02*
X11868953Y-14876274D01*
X12049905Y-14876274D02*
X12030857Y-14866750D01*
X12030857Y-14866750D02*
X12021334Y-14847702D01*
X12021334Y-14847702D02*
X12021334Y-14676274D01*
X12202286Y-14866750D02*
X12183238Y-14876274D01*
X12183238Y-14876274D02*
X12145143Y-14876274D01*
X12145143Y-14876274D02*
X12126096Y-14866750D01*
X12126096Y-14866750D02*
X12116572Y-14847702D01*
X12116572Y-14847702D02*
X12116572Y-14771512D01*
X12116572Y-14771512D02*
X12126096Y-14752464D01*
X12126096Y-14752464D02*
X12145143Y-14742940D01*
X12145143Y-14742940D02*
X12183238Y-14742940D01*
X12183238Y-14742940D02*
X12202286Y-14752464D01*
X12202286Y-14752464D02*
X12211810Y-14771512D01*
X12211810Y-14771512D02*
X12211810Y-14790559D01*
X12211810Y-14790559D02*
X12116572Y-14809607D01*
X12288000Y-14866750D02*
X12307048Y-14876274D01*
X12307048Y-14876274D02*
X12345143Y-14876274D01*
X12345143Y-14876274D02*
X12364191Y-14866750D01*
X12364191Y-14866750D02*
X12373715Y-14847702D01*
X12373715Y-14847702D02*
X12373715Y-14838178D01*
X12373715Y-14838178D02*
X12364191Y-14819131D01*
X12364191Y-14819131D02*
X12345143Y-14809607D01*
X12345143Y-14809607D02*
X12316572Y-14809607D01*
X12316572Y-14809607D02*
X12297524Y-14800083D01*
X12297524Y-14800083D02*
X12288000Y-14781036D01*
X12288000Y-14781036D02*
X12288000Y-14771512D01*
X12288000Y-14771512D02*
X12297524Y-14752464D01*
X12297524Y-14752464D02*
X12316572Y-14742940D01*
X12316572Y-14742940D02*
X12345143Y-14742940D01*
X12345143Y-14742940D02*
X12364191Y-14752464D01*
X12440381Y-14952464D02*
X12449905Y-14942940D01*
X12449905Y-14942940D02*
X12468953Y-14914369D01*
X12468953Y-14914369D02*
X12478477Y-14895321D01*
X12478477Y-14895321D02*
X12488000Y-14866750D01*
X12488000Y-14866750D02*
X12497524Y-14819131D01*
X12497524Y-14819131D02*
X12497524Y-14781036D01*
X12497524Y-14781036D02*
X12488000Y-14733417D01*
X12488000Y-14733417D02*
X12478477Y-14704845D01*
X12478477Y-14704845D02*
X12468953Y-14685798D01*
X12468953Y-14685798D02*
X12449905Y-14657226D01*
X12449905Y-14657226D02*
X12440381Y-14647702D01*
D14*
X7443000Y-15002750D02*
X7443000Y-15092750D01*
X7398000Y-15047750D02*
X7488000Y-15047750D01*
D11*
X7773714Y-14940274D02*
X7792762Y-14940274D01*
X7792762Y-14940274D02*
X7811809Y-14949798D01*
X7811809Y-14949798D02*
X7821333Y-14959321D01*
X7821333Y-14959321D02*
X7830857Y-14978369D01*
X7830857Y-14978369D02*
X7840381Y-15016464D01*
X7840381Y-15016464D02*
X7840381Y-15064083D01*
X7840381Y-15064083D02*
X7830857Y-15102178D01*
X7830857Y-15102178D02*
X7821333Y-15121226D01*
X7821333Y-15121226D02*
X7811809Y-15130750D01*
X7811809Y-15130750D02*
X7792762Y-15140274D01*
X7792762Y-15140274D02*
X7773714Y-15140274D01*
X7773714Y-15140274D02*
X7754667Y-15130750D01*
X7754667Y-15130750D02*
X7745143Y-15121226D01*
X7745143Y-15121226D02*
X7735619Y-15102178D01*
X7735619Y-15102178D02*
X7726095Y-15064083D01*
X7726095Y-15064083D02*
X7726095Y-15016464D01*
X7726095Y-15016464D02*
X7735619Y-14978369D01*
X7735619Y-14978369D02*
X7745143Y-14959321D01*
X7745143Y-14959321D02*
X7754667Y-14949798D01*
X7754667Y-14949798D02*
X7773714Y-14940274D01*
X7926095Y-15121226D02*
X7935619Y-15130750D01*
X7935619Y-15130750D02*
X7926095Y-15140274D01*
X7926095Y-15140274D02*
X7916571Y-15130750D01*
X7916571Y-15130750D02*
X7926095Y-15121226D01*
X7926095Y-15121226D02*
X7926095Y-15140274D01*
X8030857Y-15140274D02*
X8068952Y-15140274D01*
X8068952Y-15140274D02*
X8088000Y-15130750D01*
X8088000Y-15130750D02*
X8097524Y-15121226D01*
X8097524Y-15121226D02*
X8116571Y-15092655D01*
X8116571Y-15092655D02*
X8126095Y-15054559D01*
X8126095Y-15054559D02*
X8126095Y-14978369D01*
X8126095Y-14978369D02*
X8116571Y-14959321D01*
X8116571Y-14959321D02*
X8107048Y-14949798D01*
X8107048Y-14949798D02*
X8088000Y-14940274D01*
X8088000Y-14940274D02*
X8049905Y-14940274D01*
X8049905Y-14940274D02*
X8030857Y-14949798D01*
X8030857Y-14949798D02*
X8021333Y-14959321D01*
X8021333Y-14959321D02*
X8011809Y-14978369D01*
X8011809Y-14978369D02*
X8011809Y-15025988D01*
X8011809Y-15025988D02*
X8021333Y-15045036D01*
X8021333Y-15045036D02*
X8030857Y-15054559D01*
X8030857Y-15054559D02*
X8049905Y-15064083D01*
X8049905Y-15064083D02*
X8088000Y-15064083D01*
X8088000Y-15064083D02*
X8107048Y-15054559D01*
X8107048Y-15054559D02*
X8116571Y-15045036D01*
X8116571Y-15045036D02*
X8126095Y-15025988D01*
X8249905Y-14940274D02*
X8268952Y-14940274D01*
X8268952Y-14940274D02*
X8288000Y-14949798D01*
X8288000Y-14949798D02*
X8297524Y-14959321D01*
X8297524Y-14959321D02*
X8307048Y-14978369D01*
X8307048Y-14978369D02*
X8316571Y-15016464D01*
X8316571Y-15016464D02*
X8316571Y-15064083D01*
X8316571Y-15064083D02*
X8307048Y-15102178D01*
X8307048Y-15102178D02*
X8297524Y-15121226D01*
X8297524Y-15121226D02*
X8288000Y-15130750D01*
X8288000Y-15130750D02*
X8268952Y-15140274D01*
X8268952Y-15140274D02*
X8249905Y-15140274D01*
X8249905Y-15140274D02*
X8230857Y-15130750D01*
X8230857Y-15130750D02*
X8221333Y-15121226D01*
X8221333Y-15121226D02*
X8211809Y-15102178D01*
X8211809Y-15102178D02*
X8202286Y-15064083D01*
X8202286Y-15064083D02*
X8202286Y-15016464D01*
X8202286Y-15016464D02*
X8211809Y-14978369D01*
X8211809Y-14978369D02*
X8221333Y-14959321D01*
X8221333Y-14959321D02*
X8230857Y-14949798D01*
X8230857Y-14949798D02*
X8249905Y-14940274D01*
X8440381Y-14940274D02*
X8459429Y-14940274D01*
X8459429Y-14940274D02*
X8478476Y-14949798D01*
X8478476Y-14949798D02*
X8488000Y-14959321D01*
X8488000Y-14959321D02*
X8497524Y-14978369D01*
X8497524Y-14978369D02*
X8507048Y-15016464D01*
X8507048Y-15016464D02*
X8507048Y-15064083D01*
X8507048Y-15064083D02*
X8497524Y-15102178D01*
X8497524Y-15102178D02*
X8488000Y-15121226D01*
X8488000Y-15121226D02*
X8478476Y-15130750D01*
X8478476Y-15130750D02*
X8459429Y-15140274D01*
X8459429Y-15140274D02*
X8440381Y-15140274D01*
X8440381Y-15140274D02*
X8421333Y-15130750D01*
X8421333Y-15130750D02*
X8411810Y-15121226D01*
X8411810Y-15121226D02*
X8402286Y-15102178D01*
X8402286Y-15102178D02*
X8392762Y-15064083D01*
X8392762Y-15064083D02*
X8392762Y-15016464D01*
X8392762Y-15016464D02*
X8402286Y-14978369D01*
X8402286Y-14978369D02*
X8411810Y-14959321D01*
X8411810Y-14959321D02*
X8421333Y-14949798D01*
X8421333Y-14949798D02*
X8440381Y-14940274D01*
X8592762Y-15140274D02*
X8592762Y-15006940D01*
X8592762Y-15025988D02*
X8602286Y-15016464D01*
X8602286Y-15016464D02*
X8621333Y-15006940D01*
X8621333Y-15006940D02*
X8649905Y-15006940D01*
X8649905Y-15006940D02*
X8668952Y-15016464D01*
X8668952Y-15016464D02*
X8678476Y-15035512D01*
X8678476Y-15035512D02*
X8678476Y-15140274D01*
X8678476Y-15035512D02*
X8688000Y-15016464D01*
X8688000Y-15016464D02*
X8707048Y-15006940D01*
X8707048Y-15006940D02*
X8735619Y-15006940D01*
X8735619Y-15006940D02*
X8754667Y-15016464D01*
X8754667Y-15016464D02*
X8764191Y-15035512D01*
X8764191Y-15035512D02*
X8764191Y-15140274D01*
X8859429Y-15140274D02*
X8859429Y-15006940D01*
X8859429Y-15025988D02*
X8868952Y-15016464D01*
X8868952Y-15016464D02*
X8888000Y-15006940D01*
X8888000Y-15006940D02*
X8916572Y-15006940D01*
X8916572Y-15006940D02*
X8935619Y-15016464D01*
X8935619Y-15016464D02*
X8945143Y-15035512D01*
X8945143Y-15035512D02*
X8945143Y-15140274D01*
X8945143Y-15035512D02*
X8954667Y-15016464D01*
X8954667Y-15016464D02*
X8973714Y-15006940D01*
X8973714Y-15006940D02*
X9002286Y-15006940D01*
X9002286Y-15006940D02*
X9021333Y-15016464D01*
X9021333Y-15016464D02*
X9030857Y-15035512D01*
X9030857Y-15035512D02*
X9030857Y-15140274D01*
X9421333Y-14930750D02*
X9249905Y-15187893D01*
X9678476Y-14940274D02*
X9697524Y-14940274D01*
X9697524Y-14940274D02*
X9716572Y-14949798D01*
X9716572Y-14949798D02*
X9726095Y-14959321D01*
X9726095Y-14959321D02*
X9735619Y-14978369D01*
X9735619Y-14978369D02*
X9745143Y-15016464D01*
X9745143Y-15016464D02*
X9745143Y-15064083D01*
X9745143Y-15064083D02*
X9735619Y-15102178D01*
X9735619Y-15102178D02*
X9726095Y-15121226D01*
X9726095Y-15121226D02*
X9716572Y-15130750D01*
X9716572Y-15130750D02*
X9697524Y-15140274D01*
X9697524Y-15140274D02*
X9678476Y-15140274D01*
X9678476Y-15140274D02*
X9659429Y-15130750D01*
X9659429Y-15130750D02*
X9649905Y-15121226D01*
X9649905Y-15121226D02*
X9640381Y-15102178D01*
X9640381Y-15102178D02*
X9630857Y-15064083D01*
X9630857Y-15064083D02*
X9630857Y-15016464D01*
X9630857Y-15016464D02*
X9640381Y-14978369D01*
X9640381Y-14978369D02*
X9649905Y-14959321D01*
X9649905Y-14959321D02*
X9659429Y-14949798D01*
X9659429Y-14949798D02*
X9678476Y-14940274D01*
X9830857Y-15121226D02*
X9840381Y-15130750D01*
X9840381Y-15130750D02*
X9830857Y-15140274D01*
X9830857Y-15140274D02*
X9821334Y-15130750D01*
X9821334Y-15130750D02*
X9830857Y-15121226D01*
X9830857Y-15121226D02*
X9830857Y-15140274D01*
X9964191Y-14940274D02*
X9983238Y-14940274D01*
X9983238Y-14940274D02*
X10002286Y-14949798D01*
X10002286Y-14949798D02*
X10011810Y-14959321D01*
X10011810Y-14959321D02*
X10021334Y-14978369D01*
X10021334Y-14978369D02*
X10030857Y-15016464D01*
X10030857Y-15016464D02*
X10030857Y-15064083D01*
X10030857Y-15064083D02*
X10021334Y-15102178D01*
X10021334Y-15102178D02*
X10011810Y-15121226D01*
X10011810Y-15121226D02*
X10002286Y-15130750D01*
X10002286Y-15130750D02*
X9983238Y-15140274D01*
X9983238Y-15140274D02*
X9964191Y-15140274D01*
X9964191Y-15140274D02*
X9945143Y-15130750D01*
X9945143Y-15130750D02*
X9935619Y-15121226D01*
X9935619Y-15121226D02*
X9926095Y-15102178D01*
X9926095Y-15102178D02*
X9916572Y-15064083D01*
X9916572Y-15064083D02*
X9916572Y-15016464D01*
X9916572Y-15016464D02*
X9926095Y-14978369D01*
X9926095Y-14978369D02*
X9935619Y-14959321D01*
X9935619Y-14959321D02*
X9945143Y-14949798D01*
X9945143Y-14949798D02*
X9964191Y-14940274D01*
X10097524Y-14940274D02*
X10221334Y-14940274D01*
X10221334Y-14940274D02*
X10154667Y-15016464D01*
X10154667Y-15016464D02*
X10183238Y-15016464D01*
X10183238Y-15016464D02*
X10202286Y-15025988D01*
X10202286Y-15025988D02*
X10211810Y-15035512D01*
X10211810Y-15035512D02*
X10221334Y-15054559D01*
X10221334Y-15054559D02*
X10221334Y-15102178D01*
X10221334Y-15102178D02*
X10211810Y-15121226D01*
X10211810Y-15121226D02*
X10202286Y-15130750D01*
X10202286Y-15130750D02*
X10183238Y-15140274D01*
X10183238Y-15140274D02*
X10126095Y-15140274D01*
X10126095Y-15140274D02*
X10107048Y-15130750D01*
X10107048Y-15130750D02*
X10097524Y-15121226D01*
X10402286Y-14940274D02*
X10307048Y-14940274D01*
X10307048Y-14940274D02*
X10297524Y-15035512D01*
X10297524Y-15035512D02*
X10307048Y-15025988D01*
X10307048Y-15025988D02*
X10326095Y-15016464D01*
X10326095Y-15016464D02*
X10373715Y-15016464D01*
X10373715Y-15016464D02*
X10392762Y-15025988D01*
X10392762Y-15025988D02*
X10402286Y-15035512D01*
X10402286Y-15035512D02*
X10411810Y-15054559D01*
X10411810Y-15054559D02*
X10411810Y-15102178D01*
X10411810Y-15102178D02*
X10402286Y-15121226D01*
X10402286Y-15121226D02*
X10392762Y-15130750D01*
X10392762Y-15130750D02*
X10373715Y-15140274D01*
X10373715Y-15140274D02*
X10326095Y-15140274D01*
X10326095Y-15140274D02*
X10307048Y-15130750D01*
X10307048Y-15130750D02*
X10297524Y-15121226D01*
X10583238Y-15006940D02*
X10583238Y-15140274D01*
X10535619Y-14930750D02*
X10488000Y-15073607D01*
X10488000Y-15073607D02*
X10611810Y-15073607D01*
X10678476Y-14940274D02*
X10678476Y-14978369D01*
X10754667Y-14940274D02*
X10754667Y-14978369D01*
X11049905Y-15216464D02*
X11040381Y-15206940D01*
X11040381Y-15206940D02*
X11021334Y-15178369D01*
X11021334Y-15178369D02*
X11011810Y-15159321D01*
X11011810Y-15159321D02*
X11002286Y-15130750D01*
X11002286Y-15130750D02*
X10992762Y-15083131D01*
X10992762Y-15083131D02*
X10992762Y-15045036D01*
X10992762Y-15045036D02*
X11002286Y-14997417D01*
X11002286Y-14997417D02*
X11011810Y-14968845D01*
X11011810Y-14968845D02*
X11021334Y-14949798D01*
X11021334Y-14949798D02*
X11040381Y-14921226D01*
X11040381Y-14921226D02*
X11049905Y-14911702D01*
X11116572Y-14959321D02*
X11126096Y-14949798D01*
X11126096Y-14949798D02*
X11145143Y-14940274D01*
X11145143Y-14940274D02*
X11192762Y-14940274D01*
X11192762Y-14940274D02*
X11211810Y-14949798D01*
X11211810Y-14949798D02*
X11221334Y-14959321D01*
X11221334Y-14959321D02*
X11230857Y-14978369D01*
X11230857Y-14978369D02*
X11230857Y-14997417D01*
X11230857Y-14997417D02*
X11221334Y-15025988D01*
X11221334Y-15025988D02*
X11107048Y-15140274D01*
X11107048Y-15140274D02*
X11230857Y-15140274D01*
X11468953Y-15140274D02*
X11468953Y-14940274D01*
X11554667Y-15140274D02*
X11554667Y-15035512D01*
X11554667Y-15035512D02*
X11545143Y-15016464D01*
X11545143Y-15016464D02*
X11526096Y-15006940D01*
X11526096Y-15006940D02*
X11497524Y-15006940D01*
X11497524Y-15006940D02*
X11478476Y-15016464D01*
X11478476Y-15016464D02*
X11468953Y-15025988D01*
X11678476Y-15140274D02*
X11659429Y-15130750D01*
X11659429Y-15130750D02*
X11649905Y-15121226D01*
X11649905Y-15121226D02*
X11640381Y-15102178D01*
X11640381Y-15102178D02*
X11640381Y-15045036D01*
X11640381Y-15045036D02*
X11649905Y-15025988D01*
X11649905Y-15025988D02*
X11659429Y-15016464D01*
X11659429Y-15016464D02*
X11678476Y-15006940D01*
X11678476Y-15006940D02*
X11707048Y-15006940D01*
X11707048Y-15006940D02*
X11726096Y-15016464D01*
X11726096Y-15016464D02*
X11735619Y-15025988D01*
X11735619Y-15025988D02*
X11745143Y-15045036D01*
X11745143Y-15045036D02*
X11745143Y-15102178D01*
X11745143Y-15102178D02*
X11735619Y-15121226D01*
X11735619Y-15121226D02*
X11726096Y-15130750D01*
X11726096Y-15130750D02*
X11707048Y-15140274D01*
X11707048Y-15140274D02*
X11678476Y-15140274D01*
X11859429Y-15140274D02*
X11840381Y-15130750D01*
X11840381Y-15130750D02*
X11830857Y-15111702D01*
X11830857Y-15111702D02*
X11830857Y-14940274D01*
X12011810Y-15130750D02*
X11992762Y-15140274D01*
X11992762Y-15140274D02*
X11954667Y-15140274D01*
X11954667Y-15140274D02*
X11935619Y-15130750D01*
X11935619Y-15130750D02*
X11926096Y-15111702D01*
X11926096Y-15111702D02*
X11926096Y-15035512D01*
X11926096Y-15035512D02*
X11935619Y-15016464D01*
X11935619Y-15016464D02*
X11954667Y-15006940D01*
X11954667Y-15006940D02*
X11992762Y-15006940D01*
X11992762Y-15006940D02*
X12011810Y-15016464D01*
X12011810Y-15016464D02*
X12021334Y-15035512D01*
X12021334Y-15035512D02*
X12021334Y-15054559D01*
X12021334Y-15054559D02*
X11926096Y-15073607D01*
X12097524Y-15130750D02*
X12116572Y-15140274D01*
X12116572Y-15140274D02*
X12154667Y-15140274D01*
X12154667Y-15140274D02*
X12173715Y-15130750D01*
X12173715Y-15130750D02*
X12183238Y-15111702D01*
X12183238Y-15111702D02*
X12183238Y-15102178D01*
X12183238Y-15102178D02*
X12173715Y-15083131D01*
X12173715Y-15083131D02*
X12154667Y-15073607D01*
X12154667Y-15073607D02*
X12126096Y-15073607D01*
X12126096Y-15073607D02*
X12107048Y-15064083D01*
X12107048Y-15064083D02*
X12097524Y-15045036D01*
X12097524Y-15045036D02*
X12097524Y-15035512D01*
X12097524Y-15035512D02*
X12107048Y-15016464D01*
X12107048Y-15016464D02*
X12126096Y-15006940D01*
X12126096Y-15006940D02*
X12154667Y-15006940D01*
X12154667Y-15006940D02*
X12173715Y-15016464D01*
X12249905Y-15216464D02*
X12259429Y-15206940D01*
X12259429Y-15206940D02*
X12278477Y-15178369D01*
X12278477Y-15178369D02*
X12288000Y-15159321D01*
X12288000Y-15159321D02*
X12297524Y-15130750D01*
X12297524Y-15130750D02*
X12307048Y-15083131D01*
X12307048Y-15083131D02*
X12307048Y-15045036D01*
X12307048Y-15045036D02*
X12297524Y-14997417D01*
X12297524Y-14997417D02*
X12288000Y-14968845D01*
X12288000Y-14968845D02*
X12278477Y-14949798D01*
X12278477Y-14949798D02*
X12259429Y-14921226D01*
X12259429Y-14921226D02*
X12249905Y-14911702D01*
D10*
X7473356Y-15347106D02*
X7473356Y-15276394D01*
X7402644Y-15276394D01*
X7402644Y-15347106D01*
X7473356Y-15347106D01*
D11*
X7840381Y-15404274D02*
X7726095Y-15404274D01*
X7783238Y-15404274D02*
X7783238Y-15204274D01*
X7783238Y-15204274D02*
X7764190Y-15232845D01*
X7764190Y-15232845D02*
X7745143Y-15251893D01*
X7745143Y-15251893D02*
X7726095Y-15261417D01*
X7926095Y-15385226D02*
X7935619Y-15394750D01*
X7935619Y-15394750D02*
X7926095Y-15404274D01*
X7926095Y-15404274D02*
X7916571Y-15394750D01*
X7916571Y-15394750D02*
X7926095Y-15385226D01*
X7926095Y-15385226D02*
X7926095Y-15404274D01*
X8059428Y-15204274D02*
X8078476Y-15204274D01*
X8078476Y-15204274D02*
X8097524Y-15213798D01*
X8097524Y-15213798D02*
X8107048Y-15223321D01*
X8107048Y-15223321D02*
X8116571Y-15242369D01*
X8116571Y-15242369D02*
X8126095Y-15280464D01*
X8126095Y-15280464D02*
X8126095Y-15328083D01*
X8126095Y-15328083D02*
X8116571Y-15366178D01*
X8116571Y-15366178D02*
X8107048Y-15385226D01*
X8107048Y-15385226D02*
X8097524Y-15394750D01*
X8097524Y-15394750D02*
X8078476Y-15404274D01*
X8078476Y-15404274D02*
X8059428Y-15404274D01*
X8059428Y-15404274D02*
X8040381Y-15394750D01*
X8040381Y-15394750D02*
X8030857Y-15385226D01*
X8030857Y-15385226D02*
X8021333Y-15366178D01*
X8021333Y-15366178D02*
X8011809Y-15328083D01*
X8011809Y-15328083D02*
X8011809Y-15280464D01*
X8011809Y-15280464D02*
X8021333Y-15242369D01*
X8021333Y-15242369D02*
X8030857Y-15223321D01*
X8030857Y-15223321D02*
X8040381Y-15213798D01*
X8040381Y-15213798D02*
X8059428Y-15204274D01*
X8249905Y-15204274D02*
X8268952Y-15204274D01*
X8268952Y-15204274D02*
X8288000Y-15213798D01*
X8288000Y-15213798D02*
X8297524Y-15223321D01*
X8297524Y-15223321D02*
X8307048Y-15242369D01*
X8307048Y-15242369D02*
X8316571Y-15280464D01*
X8316571Y-15280464D02*
X8316571Y-15328083D01*
X8316571Y-15328083D02*
X8307048Y-15366178D01*
X8307048Y-15366178D02*
X8297524Y-15385226D01*
X8297524Y-15385226D02*
X8288000Y-15394750D01*
X8288000Y-15394750D02*
X8268952Y-15404274D01*
X8268952Y-15404274D02*
X8249905Y-15404274D01*
X8249905Y-15404274D02*
X8230857Y-15394750D01*
X8230857Y-15394750D02*
X8221333Y-15385226D01*
X8221333Y-15385226D02*
X8211809Y-15366178D01*
X8211809Y-15366178D02*
X8202286Y-15328083D01*
X8202286Y-15328083D02*
X8202286Y-15280464D01*
X8202286Y-15280464D02*
X8211809Y-15242369D01*
X8211809Y-15242369D02*
X8221333Y-15223321D01*
X8221333Y-15223321D02*
X8230857Y-15213798D01*
X8230857Y-15213798D02*
X8249905Y-15204274D01*
X8440381Y-15204274D02*
X8459429Y-15204274D01*
X8459429Y-15204274D02*
X8478476Y-15213798D01*
X8478476Y-15213798D02*
X8488000Y-15223321D01*
X8488000Y-15223321D02*
X8497524Y-15242369D01*
X8497524Y-15242369D02*
X8507048Y-15280464D01*
X8507048Y-15280464D02*
X8507048Y-15328083D01*
X8507048Y-15328083D02*
X8497524Y-15366178D01*
X8497524Y-15366178D02*
X8488000Y-15385226D01*
X8488000Y-15385226D02*
X8478476Y-15394750D01*
X8478476Y-15394750D02*
X8459429Y-15404274D01*
X8459429Y-15404274D02*
X8440381Y-15404274D01*
X8440381Y-15404274D02*
X8421333Y-15394750D01*
X8421333Y-15394750D02*
X8411810Y-15385226D01*
X8411810Y-15385226D02*
X8402286Y-15366178D01*
X8402286Y-15366178D02*
X8392762Y-15328083D01*
X8392762Y-15328083D02*
X8392762Y-15280464D01*
X8392762Y-15280464D02*
X8402286Y-15242369D01*
X8402286Y-15242369D02*
X8411810Y-15223321D01*
X8411810Y-15223321D02*
X8421333Y-15213798D01*
X8421333Y-15213798D02*
X8440381Y-15204274D01*
X8592762Y-15404274D02*
X8592762Y-15270940D01*
X8592762Y-15289988D02*
X8602286Y-15280464D01*
X8602286Y-15280464D02*
X8621333Y-15270940D01*
X8621333Y-15270940D02*
X8649905Y-15270940D01*
X8649905Y-15270940D02*
X8668952Y-15280464D01*
X8668952Y-15280464D02*
X8678476Y-15299512D01*
X8678476Y-15299512D02*
X8678476Y-15404274D01*
X8678476Y-15299512D02*
X8688000Y-15280464D01*
X8688000Y-15280464D02*
X8707048Y-15270940D01*
X8707048Y-15270940D02*
X8735619Y-15270940D01*
X8735619Y-15270940D02*
X8754667Y-15280464D01*
X8754667Y-15280464D02*
X8764191Y-15299512D01*
X8764191Y-15299512D02*
X8764191Y-15404274D01*
X8859429Y-15404274D02*
X8859429Y-15270940D01*
X8859429Y-15289988D02*
X8868952Y-15280464D01*
X8868952Y-15280464D02*
X8888000Y-15270940D01*
X8888000Y-15270940D02*
X8916572Y-15270940D01*
X8916572Y-15270940D02*
X8935619Y-15280464D01*
X8935619Y-15280464D02*
X8945143Y-15299512D01*
X8945143Y-15299512D02*
X8945143Y-15404274D01*
X8945143Y-15299512D02*
X8954667Y-15280464D01*
X8954667Y-15280464D02*
X8973714Y-15270940D01*
X8973714Y-15270940D02*
X9002286Y-15270940D01*
X9002286Y-15270940D02*
X9021333Y-15280464D01*
X9021333Y-15280464D02*
X9030857Y-15299512D01*
X9030857Y-15299512D02*
X9030857Y-15404274D01*
X9421333Y-15194750D02*
X9249905Y-15451893D01*
X9678476Y-15204274D02*
X9697524Y-15204274D01*
X9697524Y-15204274D02*
X9716572Y-15213798D01*
X9716572Y-15213798D02*
X9726095Y-15223321D01*
X9726095Y-15223321D02*
X9735619Y-15242369D01*
X9735619Y-15242369D02*
X9745143Y-15280464D01*
X9745143Y-15280464D02*
X9745143Y-15328083D01*
X9745143Y-15328083D02*
X9735619Y-15366178D01*
X9735619Y-15366178D02*
X9726095Y-15385226D01*
X9726095Y-15385226D02*
X9716572Y-15394750D01*
X9716572Y-15394750D02*
X9697524Y-15404274D01*
X9697524Y-15404274D02*
X9678476Y-15404274D01*
X9678476Y-15404274D02*
X9659429Y-15394750D01*
X9659429Y-15394750D02*
X9649905Y-15385226D01*
X9649905Y-15385226D02*
X9640381Y-15366178D01*
X9640381Y-15366178D02*
X9630857Y-15328083D01*
X9630857Y-15328083D02*
X9630857Y-15280464D01*
X9630857Y-15280464D02*
X9640381Y-15242369D01*
X9640381Y-15242369D02*
X9649905Y-15223321D01*
X9649905Y-15223321D02*
X9659429Y-15213798D01*
X9659429Y-15213798D02*
X9678476Y-15204274D01*
X9830857Y-15385226D02*
X9840381Y-15394750D01*
X9840381Y-15394750D02*
X9830857Y-15404274D01*
X9830857Y-15404274D02*
X9821334Y-15394750D01*
X9821334Y-15394750D02*
X9830857Y-15385226D01*
X9830857Y-15385226D02*
X9830857Y-15404274D01*
X9964191Y-15204274D02*
X9983238Y-15204274D01*
X9983238Y-15204274D02*
X10002286Y-15213798D01*
X10002286Y-15213798D02*
X10011810Y-15223321D01*
X10011810Y-15223321D02*
X10021334Y-15242369D01*
X10021334Y-15242369D02*
X10030857Y-15280464D01*
X10030857Y-15280464D02*
X10030857Y-15328083D01*
X10030857Y-15328083D02*
X10021334Y-15366178D01*
X10021334Y-15366178D02*
X10011810Y-15385226D01*
X10011810Y-15385226D02*
X10002286Y-15394750D01*
X10002286Y-15394750D02*
X9983238Y-15404274D01*
X9983238Y-15404274D02*
X9964191Y-15404274D01*
X9964191Y-15404274D02*
X9945143Y-15394750D01*
X9945143Y-15394750D02*
X9935619Y-15385226D01*
X9935619Y-15385226D02*
X9926095Y-15366178D01*
X9926095Y-15366178D02*
X9916572Y-15328083D01*
X9916572Y-15328083D02*
X9916572Y-15280464D01*
X9916572Y-15280464D02*
X9926095Y-15242369D01*
X9926095Y-15242369D02*
X9935619Y-15223321D01*
X9935619Y-15223321D02*
X9945143Y-15213798D01*
X9945143Y-15213798D02*
X9964191Y-15204274D01*
X10097524Y-15204274D02*
X10221334Y-15204274D01*
X10221334Y-15204274D02*
X10154667Y-15280464D01*
X10154667Y-15280464D02*
X10183238Y-15280464D01*
X10183238Y-15280464D02*
X10202286Y-15289988D01*
X10202286Y-15289988D02*
X10211810Y-15299512D01*
X10211810Y-15299512D02*
X10221334Y-15318559D01*
X10221334Y-15318559D02*
X10221334Y-15366178D01*
X10221334Y-15366178D02*
X10211810Y-15385226D01*
X10211810Y-15385226D02*
X10202286Y-15394750D01*
X10202286Y-15394750D02*
X10183238Y-15404274D01*
X10183238Y-15404274D02*
X10126095Y-15404274D01*
X10126095Y-15404274D02*
X10107048Y-15394750D01*
X10107048Y-15394750D02*
X10097524Y-15385226D01*
X10316572Y-15404274D02*
X10354667Y-15404274D01*
X10354667Y-15404274D02*
X10373715Y-15394750D01*
X10373715Y-15394750D02*
X10383238Y-15385226D01*
X10383238Y-15385226D02*
X10402286Y-15356655D01*
X10402286Y-15356655D02*
X10411810Y-15318559D01*
X10411810Y-15318559D02*
X10411810Y-15242369D01*
X10411810Y-15242369D02*
X10402286Y-15223321D01*
X10402286Y-15223321D02*
X10392762Y-15213798D01*
X10392762Y-15213798D02*
X10373715Y-15204274D01*
X10373715Y-15204274D02*
X10335619Y-15204274D01*
X10335619Y-15204274D02*
X10316572Y-15213798D01*
X10316572Y-15213798D02*
X10307048Y-15223321D01*
X10307048Y-15223321D02*
X10297524Y-15242369D01*
X10297524Y-15242369D02*
X10297524Y-15289988D01*
X10297524Y-15289988D02*
X10307048Y-15309036D01*
X10307048Y-15309036D02*
X10316572Y-15318559D01*
X10316572Y-15318559D02*
X10335619Y-15328083D01*
X10335619Y-15328083D02*
X10373715Y-15328083D01*
X10373715Y-15328083D02*
X10392762Y-15318559D01*
X10392762Y-15318559D02*
X10402286Y-15309036D01*
X10402286Y-15309036D02*
X10411810Y-15289988D01*
X10583238Y-15270940D02*
X10583238Y-15404274D01*
X10535619Y-15194750D02*
X10488000Y-15337607D01*
X10488000Y-15337607D02*
X10611810Y-15337607D01*
X10678476Y-15204274D02*
X10678476Y-15242369D01*
X10754667Y-15204274D02*
X10754667Y-15242369D01*
X11049905Y-15480464D02*
X11040381Y-15470940D01*
X11040381Y-15470940D02*
X11021334Y-15442369D01*
X11021334Y-15442369D02*
X11011810Y-15423321D01*
X11011810Y-15423321D02*
X11002286Y-15394750D01*
X11002286Y-15394750D02*
X10992762Y-15347131D01*
X10992762Y-15347131D02*
X10992762Y-15309036D01*
X10992762Y-15309036D02*
X11002286Y-15261417D01*
X11002286Y-15261417D02*
X11011810Y-15232845D01*
X11011810Y-15232845D02*
X11021334Y-15213798D01*
X11021334Y-15213798D02*
X11040381Y-15185226D01*
X11040381Y-15185226D02*
X11049905Y-15175702D01*
X11211810Y-15204274D02*
X11173715Y-15204274D01*
X11173715Y-15204274D02*
X11154667Y-15213798D01*
X11154667Y-15213798D02*
X11145143Y-15223321D01*
X11145143Y-15223321D02*
X11126096Y-15251893D01*
X11126096Y-15251893D02*
X11116572Y-15289988D01*
X11116572Y-15289988D02*
X11116572Y-15366178D01*
X11116572Y-15366178D02*
X11126096Y-15385226D01*
X11126096Y-15385226D02*
X11135619Y-15394750D01*
X11135619Y-15394750D02*
X11154667Y-15404274D01*
X11154667Y-15404274D02*
X11192762Y-15404274D01*
X11192762Y-15404274D02*
X11211810Y-15394750D01*
X11211810Y-15394750D02*
X11221334Y-15385226D01*
X11221334Y-15385226D02*
X11230857Y-15366178D01*
X11230857Y-15366178D02*
X11230857Y-15318559D01*
X11230857Y-15318559D02*
X11221334Y-15299512D01*
X11221334Y-15299512D02*
X11211810Y-15289988D01*
X11211810Y-15289988D02*
X11192762Y-15280464D01*
X11192762Y-15280464D02*
X11154667Y-15280464D01*
X11154667Y-15280464D02*
X11135619Y-15289988D01*
X11135619Y-15289988D02*
X11126096Y-15299512D01*
X11126096Y-15299512D02*
X11116572Y-15318559D01*
X11402286Y-15204274D02*
X11364191Y-15204274D01*
X11364191Y-15204274D02*
X11345143Y-15213798D01*
X11345143Y-15213798D02*
X11335619Y-15223321D01*
X11335619Y-15223321D02*
X11316572Y-15251893D01*
X11316572Y-15251893D02*
X11307048Y-15289988D01*
X11307048Y-15289988D02*
X11307048Y-15366178D01*
X11307048Y-15366178D02*
X11316572Y-15385226D01*
X11316572Y-15385226D02*
X11326095Y-15394750D01*
X11326095Y-15394750D02*
X11345143Y-15404274D01*
X11345143Y-15404274D02*
X11383238Y-15404274D01*
X11383238Y-15404274D02*
X11402286Y-15394750D01*
X11402286Y-15394750D02*
X11411810Y-15385226D01*
X11411810Y-15385226D02*
X11421334Y-15366178D01*
X11421334Y-15366178D02*
X11421334Y-15318559D01*
X11421334Y-15318559D02*
X11411810Y-15299512D01*
X11411810Y-15299512D02*
X11402286Y-15289988D01*
X11402286Y-15289988D02*
X11383238Y-15280464D01*
X11383238Y-15280464D02*
X11345143Y-15280464D01*
X11345143Y-15280464D02*
X11326095Y-15289988D01*
X11326095Y-15289988D02*
X11316572Y-15299512D01*
X11316572Y-15299512D02*
X11307048Y-15318559D01*
X11659429Y-15404274D02*
X11659429Y-15204274D01*
X11745143Y-15404274D02*
X11745143Y-15299512D01*
X11745143Y-15299512D02*
X11735619Y-15280464D01*
X11735619Y-15280464D02*
X11716572Y-15270940D01*
X11716572Y-15270940D02*
X11688000Y-15270940D01*
X11688000Y-15270940D02*
X11668953Y-15280464D01*
X11668953Y-15280464D02*
X11659429Y-15289988D01*
X11868953Y-15404274D02*
X11849905Y-15394750D01*
X11849905Y-15394750D02*
X11840381Y-15385226D01*
X11840381Y-15385226D02*
X11830857Y-15366178D01*
X11830857Y-15366178D02*
X11830857Y-15309036D01*
X11830857Y-15309036D02*
X11840381Y-15289988D01*
X11840381Y-15289988D02*
X11849905Y-15280464D01*
X11849905Y-15280464D02*
X11868953Y-15270940D01*
X11868953Y-15270940D02*
X11897524Y-15270940D01*
X11897524Y-15270940D02*
X11916572Y-15280464D01*
X11916572Y-15280464D02*
X11926096Y-15289988D01*
X11926096Y-15289988D02*
X11935619Y-15309036D01*
X11935619Y-15309036D02*
X11935619Y-15366178D01*
X11935619Y-15366178D02*
X11926096Y-15385226D01*
X11926096Y-15385226D02*
X11916572Y-15394750D01*
X11916572Y-15394750D02*
X11897524Y-15404274D01*
X11897524Y-15404274D02*
X11868953Y-15404274D01*
X12049905Y-15404274D02*
X12030857Y-15394750D01*
X12030857Y-15394750D02*
X12021334Y-15375702D01*
X12021334Y-15375702D02*
X12021334Y-15204274D01*
X12202286Y-15394750D02*
X12183238Y-15404274D01*
X12183238Y-15404274D02*
X12145143Y-15404274D01*
X12145143Y-15404274D02*
X12126096Y-15394750D01*
X12126096Y-15394750D02*
X12116572Y-15375702D01*
X12116572Y-15375702D02*
X12116572Y-15299512D01*
X12116572Y-15299512D02*
X12126096Y-15280464D01*
X12126096Y-15280464D02*
X12145143Y-15270940D01*
X12145143Y-15270940D02*
X12183238Y-15270940D01*
X12183238Y-15270940D02*
X12202286Y-15280464D01*
X12202286Y-15280464D02*
X12211810Y-15299512D01*
X12211810Y-15299512D02*
X12211810Y-15318559D01*
X12211810Y-15318559D02*
X12116572Y-15337607D01*
X12288000Y-15394750D02*
X12307048Y-15404274D01*
X12307048Y-15404274D02*
X12345143Y-15404274D01*
X12345143Y-15404274D02*
X12364191Y-15394750D01*
X12364191Y-15394750D02*
X12373715Y-15375702D01*
X12373715Y-15375702D02*
X12373715Y-15366178D01*
X12373715Y-15366178D02*
X12364191Y-15347131D01*
X12364191Y-15347131D02*
X12345143Y-15337607D01*
X12345143Y-15337607D02*
X12316572Y-15337607D01*
X12316572Y-15337607D02*
X12297524Y-15328083D01*
X12297524Y-15328083D02*
X12288000Y-15309036D01*
X12288000Y-15309036D02*
X12288000Y-15299512D01*
X12288000Y-15299512D02*
X12297524Y-15280464D01*
X12297524Y-15280464D02*
X12316572Y-15270940D01*
X12316572Y-15270940D02*
X12345143Y-15270940D01*
X12345143Y-15270940D02*
X12364191Y-15280464D01*
X12440381Y-15480464D02*
X12449905Y-15470940D01*
X12449905Y-15470940D02*
X12468953Y-15442369D01*
X12468953Y-15442369D02*
X12478477Y-15423321D01*
X12478477Y-15423321D02*
X12488000Y-15394750D01*
X12488000Y-15394750D02*
X12497524Y-15347131D01*
X12497524Y-15347131D02*
X12497524Y-15309036D01*
X12497524Y-15309036D02*
X12488000Y-15261417D01*
X12488000Y-15261417D02*
X12478477Y-15232845D01*
X12478477Y-15232845D02*
X12468953Y-15213798D01*
X12468953Y-15213798D02*
X12449905Y-15185226D01*
X12449905Y-15185226D02*
X12440381Y-15175702D01*
D15*
X7433000Y-15630750D02*
X7488000Y-15575750D01*
X7433000Y-15520750D01*
X7378000Y-15575750D01*
X7433000Y-15630750D01*
D11*
X7840381Y-15668274D02*
X7726095Y-15668274D01*
X7783238Y-15668274D02*
X7783238Y-15468274D01*
X7783238Y-15468274D02*
X7764190Y-15496845D01*
X7764190Y-15496845D02*
X7745143Y-15515893D01*
X7745143Y-15515893D02*
X7726095Y-15525417D01*
X7926095Y-15649226D02*
X7935619Y-15658750D01*
X7935619Y-15658750D02*
X7926095Y-15668274D01*
X7926095Y-15668274D02*
X7916571Y-15658750D01*
X7916571Y-15658750D02*
X7926095Y-15649226D01*
X7926095Y-15649226D02*
X7926095Y-15668274D01*
X8126095Y-15668274D02*
X8011809Y-15668274D01*
X8068952Y-15668274D02*
X8068952Y-15468274D01*
X8068952Y-15468274D02*
X8049905Y-15496845D01*
X8049905Y-15496845D02*
X8030857Y-15515893D01*
X8030857Y-15515893D02*
X8011809Y-15525417D01*
X8249905Y-15468274D02*
X8268952Y-15468274D01*
X8268952Y-15468274D02*
X8288000Y-15477798D01*
X8288000Y-15477798D02*
X8297524Y-15487321D01*
X8297524Y-15487321D02*
X8307048Y-15506369D01*
X8307048Y-15506369D02*
X8316571Y-15544464D01*
X8316571Y-15544464D02*
X8316571Y-15592083D01*
X8316571Y-15592083D02*
X8307048Y-15630178D01*
X8307048Y-15630178D02*
X8297524Y-15649226D01*
X8297524Y-15649226D02*
X8288000Y-15658750D01*
X8288000Y-15658750D02*
X8268952Y-15668274D01*
X8268952Y-15668274D02*
X8249905Y-15668274D01*
X8249905Y-15668274D02*
X8230857Y-15658750D01*
X8230857Y-15658750D02*
X8221333Y-15649226D01*
X8221333Y-15649226D02*
X8211809Y-15630178D01*
X8211809Y-15630178D02*
X8202286Y-15592083D01*
X8202286Y-15592083D02*
X8202286Y-15544464D01*
X8202286Y-15544464D02*
X8211809Y-15506369D01*
X8211809Y-15506369D02*
X8221333Y-15487321D01*
X8221333Y-15487321D02*
X8230857Y-15477798D01*
X8230857Y-15477798D02*
X8249905Y-15468274D01*
X8440381Y-15468274D02*
X8459429Y-15468274D01*
X8459429Y-15468274D02*
X8478476Y-15477798D01*
X8478476Y-15477798D02*
X8488000Y-15487321D01*
X8488000Y-15487321D02*
X8497524Y-15506369D01*
X8497524Y-15506369D02*
X8507048Y-15544464D01*
X8507048Y-15544464D02*
X8507048Y-15592083D01*
X8507048Y-15592083D02*
X8497524Y-15630178D01*
X8497524Y-15630178D02*
X8488000Y-15649226D01*
X8488000Y-15649226D02*
X8478476Y-15658750D01*
X8478476Y-15658750D02*
X8459429Y-15668274D01*
X8459429Y-15668274D02*
X8440381Y-15668274D01*
X8440381Y-15668274D02*
X8421333Y-15658750D01*
X8421333Y-15658750D02*
X8411810Y-15649226D01*
X8411810Y-15649226D02*
X8402286Y-15630178D01*
X8402286Y-15630178D02*
X8392762Y-15592083D01*
X8392762Y-15592083D02*
X8392762Y-15544464D01*
X8392762Y-15544464D02*
X8402286Y-15506369D01*
X8402286Y-15506369D02*
X8411810Y-15487321D01*
X8411810Y-15487321D02*
X8421333Y-15477798D01*
X8421333Y-15477798D02*
X8440381Y-15468274D01*
X8592762Y-15668274D02*
X8592762Y-15534940D01*
X8592762Y-15553988D02*
X8602286Y-15544464D01*
X8602286Y-15544464D02*
X8621333Y-15534940D01*
X8621333Y-15534940D02*
X8649905Y-15534940D01*
X8649905Y-15534940D02*
X8668952Y-15544464D01*
X8668952Y-15544464D02*
X8678476Y-15563512D01*
X8678476Y-15563512D02*
X8678476Y-15668274D01*
X8678476Y-15563512D02*
X8688000Y-15544464D01*
X8688000Y-15544464D02*
X8707048Y-15534940D01*
X8707048Y-15534940D02*
X8735619Y-15534940D01*
X8735619Y-15534940D02*
X8754667Y-15544464D01*
X8754667Y-15544464D02*
X8764191Y-15563512D01*
X8764191Y-15563512D02*
X8764191Y-15668274D01*
X8859429Y-15668274D02*
X8859429Y-15534940D01*
X8859429Y-15553988D02*
X8868952Y-15544464D01*
X8868952Y-15544464D02*
X8888000Y-15534940D01*
X8888000Y-15534940D02*
X8916572Y-15534940D01*
X8916572Y-15534940D02*
X8935619Y-15544464D01*
X8935619Y-15544464D02*
X8945143Y-15563512D01*
X8945143Y-15563512D02*
X8945143Y-15668274D01*
X8945143Y-15563512D02*
X8954667Y-15544464D01*
X8954667Y-15544464D02*
X8973714Y-15534940D01*
X8973714Y-15534940D02*
X9002286Y-15534940D01*
X9002286Y-15534940D02*
X9021333Y-15544464D01*
X9021333Y-15544464D02*
X9030857Y-15563512D01*
X9030857Y-15563512D02*
X9030857Y-15668274D01*
X9421333Y-15458750D02*
X9249905Y-15715893D01*
X9678476Y-15468274D02*
X9697524Y-15468274D01*
X9697524Y-15468274D02*
X9716572Y-15477798D01*
X9716572Y-15477798D02*
X9726095Y-15487321D01*
X9726095Y-15487321D02*
X9735619Y-15506369D01*
X9735619Y-15506369D02*
X9745143Y-15544464D01*
X9745143Y-15544464D02*
X9745143Y-15592083D01*
X9745143Y-15592083D02*
X9735619Y-15630178D01*
X9735619Y-15630178D02*
X9726095Y-15649226D01*
X9726095Y-15649226D02*
X9716572Y-15658750D01*
X9716572Y-15658750D02*
X9697524Y-15668274D01*
X9697524Y-15668274D02*
X9678476Y-15668274D01*
X9678476Y-15668274D02*
X9659429Y-15658750D01*
X9659429Y-15658750D02*
X9649905Y-15649226D01*
X9649905Y-15649226D02*
X9640381Y-15630178D01*
X9640381Y-15630178D02*
X9630857Y-15592083D01*
X9630857Y-15592083D02*
X9630857Y-15544464D01*
X9630857Y-15544464D02*
X9640381Y-15506369D01*
X9640381Y-15506369D02*
X9649905Y-15487321D01*
X9649905Y-15487321D02*
X9659429Y-15477798D01*
X9659429Y-15477798D02*
X9678476Y-15468274D01*
X9830857Y-15649226D02*
X9840381Y-15658750D01*
X9840381Y-15658750D02*
X9830857Y-15668274D01*
X9830857Y-15668274D02*
X9821334Y-15658750D01*
X9821334Y-15658750D02*
X9830857Y-15649226D01*
X9830857Y-15649226D02*
X9830857Y-15668274D01*
X9964191Y-15468274D02*
X9983238Y-15468274D01*
X9983238Y-15468274D02*
X10002286Y-15477798D01*
X10002286Y-15477798D02*
X10011810Y-15487321D01*
X10011810Y-15487321D02*
X10021334Y-15506369D01*
X10021334Y-15506369D02*
X10030857Y-15544464D01*
X10030857Y-15544464D02*
X10030857Y-15592083D01*
X10030857Y-15592083D02*
X10021334Y-15630178D01*
X10021334Y-15630178D02*
X10011810Y-15649226D01*
X10011810Y-15649226D02*
X10002286Y-15658750D01*
X10002286Y-15658750D02*
X9983238Y-15668274D01*
X9983238Y-15668274D02*
X9964191Y-15668274D01*
X9964191Y-15668274D02*
X9945143Y-15658750D01*
X9945143Y-15658750D02*
X9935619Y-15649226D01*
X9935619Y-15649226D02*
X9926095Y-15630178D01*
X9926095Y-15630178D02*
X9916572Y-15592083D01*
X9916572Y-15592083D02*
X9916572Y-15544464D01*
X9916572Y-15544464D02*
X9926095Y-15506369D01*
X9926095Y-15506369D02*
X9935619Y-15487321D01*
X9935619Y-15487321D02*
X9945143Y-15477798D01*
X9945143Y-15477798D02*
X9964191Y-15468274D01*
X10202286Y-15534940D02*
X10202286Y-15668274D01*
X10154667Y-15458750D02*
X10107048Y-15601607D01*
X10107048Y-15601607D02*
X10230857Y-15601607D01*
X10288000Y-15468274D02*
X10411810Y-15468274D01*
X10411810Y-15468274D02*
X10345143Y-15544464D01*
X10345143Y-15544464D02*
X10373715Y-15544464D01*
X10373715Y-15544464D02*
X10392762Y-15553988D01*
X10392762Y-15553988D02*
X10402286Y-15563512D01*
X10402286Y-15563512D02*
X10411810Y-15582559D01*
X10411810Y-15582559D02*
X10411810Y-15630178D01*
X10411810Y-15630178D02*
X10402286Y-15649226D01*
X10402286Y-15649226D02*
X10392762Y-15658750D01*
X10392762Y-15658750D02*
X10373715Y-15668274D01*
X10373715Y-15668274D02*
X10316572Y-15668274D01*
X10316572Y-15668274D02*
X10297524Y-15658750D01*
X10297524Y-15658750D02*
X10288000Y-15649226D01*
X10478476Y-15468274D02*
X10602286Y-15468274D01*
X10602286Y-15468274D02*
X10535619Y-15544464D01*
X10535619Y-15544464D02*
X10564191Y-15544464D01*
X10564191Y-15544464D02*
X10583238Y-15553988D01*
X10583238Y-15553988D02*
X10592762Y-15563512D01*
X10592762Y-15563512D02*
X10602286Y-15582559D01*
X10602286Y-15582559D02*
X10602286Y-15630178D01*
X10602286Y-15630178D02*
X10592762Y-15649226D01*
X10592762Y-15649226D02*
X10583238Y-15658750D01*
X10583238Y-15658750D02*
X10564191Y-15668274D01*
X10564191Y-15668274D02*
X10507048Y-15668274D01*
X10507048Y-15668274D02*
X10488000Y-15658750D01*
X10488000Y-15658750D02*
X10478476Y-15649226D01*
X10678476Y-15468274D02*
X10678476Y-15506369D01*
X10754667Y-15468274D02*
X10754667Y-15506369D01*
X11049905Y-15744464D02*
X11040381Y-15734940D01*
X11040381Y-15734940D02*
X11021334Y-15706369D01*
X11021334Y-15706369D02*
X11011810Y-15687321D01*
X11011810Y-15687321D02*
X11002286Y-15658750D01*
X11002286Y-15658750D02*
X10992762Y-15611131D01*
X10992762Y-15611131D02*
X10992762Y-15573036D01*
X10992762Y-15573036D02*
X11002286Y-15525417D01*
X11002286Y-15525417D02*
X11011810Y-15496845D01*
X11011810Y-15496845D02*
X11021334Y-15477798D01*
X11021334Y-15477798D02*
X11040381Y-15449226D01*
X11040381Y-15449226D02*
X11049905Y-15439702D01*
X11230857Y-15668274D02*
X11116572Y-15668274D01*
X11173715Y-15668274D02*
X11173715Y-15468274D01*
X11173715Y-15468274D02*
X11154667Y-15496845D01*
X11154667Y-15496845D02*
X11135619Y-15515893D01*
X11135619Y-15515893D02*
X11116572Y-15525417D01*
X11421334Y-15668274D02*
X11307048Y-15668274D01*
X11364191Y-15668274D02*
X11364191Y-15468274D01*
X11364191Y-15468274D02*
X11345143Y-15496845D01*
X11345143Y-15496845D02*
X11326095Y-15515893D01*
X11326095Y-15515893D02*
X11307048Y-15525417D01*
X11659429Y-15668274D02*
X11659429Y-15468274D01*
X11745143Y-15668274D02*
X11745143Y-15563512D01*
X11745143Y-15563512D02*
X11735619Y-15544464D01*
X11735619Y-15544464D02*
X11716572Y-15534940D01*
X11716572Y-15534940D02*
X11688000Y-15534940D01*
X11688000Y-15534940D02*
X11668953Y-15544464D01*
X11668953Y-15544464D02*
X11659429Y-15553988D01*
X11868953Y-15668274D02*
X11849905Y-15658750D01*
X11849905Y-15658750D02*
X11840381Y-15649226D01*
X11840381Y-15649226D02*
X11830857Y-15630178D01*
X11830857Y-15630178D02*
X11830857Y-15573036D01*
X11830857Y-15573036D02*
X11840381Y-15553988D01*
X11840381Y-15553988D02*
X11849905Y-15544464D01*
X11849905Y-15544464D02*
X11868953Y-15534940D01*
X11868953Y-15534940D02*
X11897524Y-15534940D01*
X11897524Y-15534940D02*
X11916572Y-15544464D01*
X11916572Y-15544464D02*
X11926096Y-15553988D01*
X11926096Y-15553988D02*
X11935619Y-15573036D01*
X11935619Y-15573036D02*
X11935619Y-15630178D01*
X11935619Y-15630178D02*
X11926096Y-15649226D01*
X11926096Y-15649226D02*
X11916572Y-15658750D01*
X11916572Y-15658750D02*
X11897524Y-15668274D01*
X11897524Y-15668274D02*
X11868953Y-15668274D01*
X12049905Y-15668274D02*
X12030857Y-15658750D01*
X12030857Y-15658750D02*
X12021334Y-15639702D01*
X12021334Y-15639702D02*
X12021334Y-15468274D01*
X12202286Y-15658750D02*
X12183238Y-15668274D01*
X12183238Y-15668274D02*
X12145143Y-15668274D01*
X12145143Y-15668274D02*
X12126096Y-15658750D01*
X12126096Y-15658750D02*
X12116572Y-15639702D01*
X12116572Y-15639702D02*
X12116572Y-15563512D01*
X12116572Y-15563512D02*
X12126096Y-15544464D01*
X12126096Y-15544464D02*
X12145143Y-15534940D01*
X12145143Y-15534940D02*
X12183238Y-15534940D01*
X12183238Y-15534940D02*
X12202286Y-15544464D01*
X12202286Y-15544464D02*
X12211810Y-15563512D01*
X12211810Y-15563512D02*
X12211810Y-15582559D01*
X12211810Y-15582559D02*
X12116572Y-15601607D01*
X12288000Y-15658750D02*
X12307048Y-15668274D01*
X12307048Y-15668274D02*
X12345143Y-15668274D01*
X12345143Y-15668274D02*
X12364191Y-15658750D01*
X12364191Y-15658750D02*
X12373715Y-15639702D01*
X12373715Y-15639702D02*
X12373715Y-15630178D01*
X12373715Y-15630178D02*
X12364191Y-15611131D01*
X12364191Y-15611131D02*
X12345143Y-15601607D01*
X12345143Y-15601607D02*
X12316572Y-15601607D01*
X12316572Y-15601607D02*
X12297524Y-15592083D01*
X12297524Y-15592083D02*
X12288000Y-15573036D01*
X12288000Y-15573036D02*
X12288000Y-15563512D01*
X12288000Y-15563512D02*
X12297524Y-15544464D01*
X12297524Y-15544464D02*
X12316572Y-15534940D01*
X12316572Y-15534940D02*
X12345143Y-15534940D01*
X12345143Y-15534940D02*
X12364191Y-15544464D01*
X12440381Y-15744464D02*
X12449905Y-15734940D01*
X12449905Y-15734940D02*
X12468953Y-15706369D01*
X12468953Y-15706369D02*
X12478477Y-15687321D01*
X12478477Y-15687321D02*
X12488000Y-15658750D01*
X12488000Y-15658750D02*
X12497524Y-15611131D01*
X12497524Y-15611131D02*
X12497524Y-15573036D01*
X12497524Y-15573036D02*
X12488000Y-15525417D01*
X12488000Y-15525417D02*
X12478477Y-15496845D01*
X12478477Y-15496845D02*
X12468953Y-15477798D01*
X12468953Y-15477798D02*
X12449905Y-15449226D01*
X12449905Y-15449226D02*
X12440381Y-15439702D01*
D16*
X7356000Y-15773750D02*
X7488000Y-15905750D01*
X7488000Y-15773750D02*
X7356000Y-15905750D01*
X7488000Y-15839750D02*
G75*
G03*
X7488000Y-15839750I-66000J0D01*
G01*
D11*
X7840381Y-15932274D02*
X7726095Y-15932274D01*
X7783238Y-15932274D02*
X7783238Y-15732274D01*
X7783238Y-15732274D02*
X7764190Y-15760845D01*
X7764190Y-15760845D02*
X7745143Y-15779893D01*
X7745143Y-15779893D02*
X7726095Y-15789417D01*
X7926095Y-15913226D02*
X7935619Y-15922750D01*
X7935619Y-15922750D02*
X7926095Y-15932274D01*
X7926095Y-15932274D02*
X7916571Y-15922750D01*
X7916571Y-15922750D02*
X7926095Y-15913226D01*
X7926095Y-15913226D02*
X7926095Y-15932274D01*
X8002286Y-15732274D02*
X8126095Y-15732274D01*
X8126095Y-15732274D02*
X8059428Y-15808464D01*
X8059428Y-15808464D02*
X8088000Y-15808464D01*
X8088000Y-15808464D02*
X8107048Y-15817988D01*
X8107048Y-15817988D02*
X8116571Y-15827512D01*
X8116571Y-15827512D02*
X8126095Y-15846559D01*
X8126095Y-15846559D02*
X8126095Y-15894178D01*
X8126095Y-15894178D02*
X8116571Y-15913226D01*
X8116571Y-15913226D02*
X8107048Y-15922750D01*
X8107048Y-15922750D02*
X8088000Y-15932274D01*
X8088000Y-15932274D02*
X8030857Y-15932274D01*
X8030857Y-15932274D02*
X8011809Y-15922750D01*
X8011809Y-15922750D02*
X8002286Y-15913226D01*
X8202286Y-15751321D02*
X8211809Y-15741798D01*
X8211809Y-15741798D02*
X8230857Y-15732274D01*
X8230857Y-15732274D02*
X8278476Y-15732274D01*
X8278476Y-15732274D02*
X8297524Y-15741798D01*
X8297524Y-15741798D02*
X8307048Y-15751321D01*
X8307048Y-15751321D02*
X8316571Y-15770369D01*
X8316571Y-15770369D02*
X8316571Y-15789417D01*
X8316571Y-15789417D02*
X8307048Y-15817988D01*
X8307048Y-15817988D02*
X8192762Y-15932274D01*
X8192762Y-15932274D02*
X8316571Y-15932274D01*
X8440381Y-15732274D02*
X8459429Y-15732274D01*
X8459429Y-15732274D02*
X8478476Y-15741798D01*
X8478476Y-15741798D02*
X8488000Y-15751321D01*
X8488000Y-15751321D02*
X8497524Y-15770369D01*
X8497524Y-15770369D02*
X8507048Y-15808464D01*
X8507048Y-15808464D02*
X8507048Y-15856083D01*
X8507048Y-15856083D02*
X8497524Y-15894178D01*
X8497524Y-15894178D02*
X8488000Y-15913226D01*
X8488000Y-15913226D02*
X8478476Y-15922750D01*
X8478476Y-15922750D02*
X8459429Y-15932274D01*
X8459429Y-15932274D02*
X8440381Y-15932274D01*
X8440381Y-15932274D02*
X8421333Y-15922750D01*
X8421333Y-15922750D02*
X8411810Y-15913226D01*
X8411810Y-15913226D02*
X8402286Y-15894178D01*
X8402286Y-15894178D02*
X8392762Y-15856083D01*
X8392762Y-15856083D02*
X8392762Y-15808464D01*
X8392762Y-15808464D02*
X8402286Y-15770369D01*
X8402286Y-15770369D02*
X8411810Y-15751321D01*
X8411810Y-15751321D02*
X8421333Y-15741798D01*
X8421333Y-15741798D02*
X8440381Y-15732274D01*
X8592762Y-15932274D02*
X8592762Y-15798940D01*
X8592762Y-15817988D02*
X8602286Y-15808464D01*
X8602286Y-15808464D02*
X8621333Y-15798940D01*
X8621333Y-15798940D02*
X8649905Y-15798940D01*
X8649905Y-15798940D02*
X8668952Y-15808464D01*
X8668952Y-15808464D02*
X8678476Y-15827512D01*
X8678476Y-15827512D02*
X8678476Y-15932274D01*
X8678476Y-15827512D02*
X8688000Y-15808464D01*
X8688000Y-15808464D02*
X8707048Y-15798940D01*
X8707048Y-15798940D02*
X8735619Y-15798940D01*
X8735619Y-15798940D02*
X8754667Y-15808464D01*
X8754667Y-15808464D02*
X8764191Y-15827512D01*
X8764191Y-15827512D02*
X8764191Y-15932274D01*
X8859429Y-15932274D02*
X8859429Y-15798940D01*
X8859429Y-15817988D02*
X8868952Y-15808464D01*
X8868952Y-15808464D02*
X8888000Y-15798940D01*
X8888000Y-15798940D02*
X8916572Y-15798940D01*
X8916572Y-15798940D02*
X8935619Y-15808464D01*
X8935619Y-15808464D02*
X8945143Y-15827512D01*
X8945143Y-15827512D02*
X8945143Y-15932274D01*
X8945143Y-15827512D02*
X8954667Y-15808464D01*
X8954667Y-15808464D02*
X8973714Y-15798940D01*
X8973714Y-15798940D02*
X9002286Y-15798940D01*
X9002286Y-15798940D02*
X9021333Y-15808464D01*
X9021333Y-15808464D02*
X9030857Y-15827512D01*
X9030857Y-15827512D02*
X9030857Y-15932274D01*
X9421333Y-15722750D02*
X9249905Y-15979893D01*
X9678476Y-15732274D02*
X9697524Y-15732274D01*
X9697524Y-15732274D02*
X9716572Y-15741798D01*
X9716572Y-15741798D02*
X9726095Y-15751321D01*
X9726095Y-15751321D02*
X9735619Y-15770369D01*
X9735619Y-15770369D02*
X9745143Y-15808464D01*
X9745143Y-15808464D02*
X9745143Y-15856083D01*
X9745143Y-15856083D02*
X9735619Y-15894178D01*
X9735619Y-15894178D02*
X9726095Y-15913226D01*
X9726095Y-15913226D02*
X9716572Y-15922750D01*
X9716572Y-15922750D02*
X9697524Y-15932274D01*
X9697524Y-15932274D02*
X9678476Y-15932274D01*
X9678476Y-15932274D02*
X9659429Y-15922750D01*
X9659429Y-15922750D02*
X9649905Y-15913226D01*
X9649905Y-15913226D02*
X9640381Y-15894178D01*
X9640381Y-15894178D02*
X9630857Y-15856083D01*
X9630857Y-15856083D02*
X9630857Y-15808464D01*
X9630857Y-15808464D02*
X9640381Y-15770369D01*
X9640381Y-15770369D02*
X9649905Y-15751321D01*
X9649905Y-15751321D02*
X9659429Y-15741798D01*
X9659429Y-15741798D02*
X9678476Y-15732274D01*
X9830857Y-15913226D02*
X9840381Y-15922750D01*
X9840381Y-15922750D02*
X9830857Y-15932274D01*
X9830857Y-15932274D02*
X9821334Y-15922750D01*
X9821334Y-15922750D02*
X9830857Y-15913226D01*
X9830857Y-15913226D02*
X9830857Y-15932274D01*
X9964191Y-15732274D02*
X9983238Y-15732274D01*
X9983238Y-15732274D02*
X10002286Y-15741798D01*
X10002286Y-15741798D02*
X10011810Y-15751321D01*
X10011810Y-15751321D02*
X10021334Y-15770369D01*
X10021334Y-15770369D02*
X10030857Y-15808464D01*
X10030857Y-15808464D02*
X10030857Y-15856083D01*
X10030857Y-15856083D02*
X10021334Y-15894178D01*
X10021334Y-15894178D02*
X10011810Y-15913226D01*
X10011810Y-15913226D02*
X10002286Y-15922750D01*
X10002286Y-15922750D02*
X9983238Y-15932274D01*
X9983238Y-15932274D02*
X9964191Y-15932274D01*
X9964191Y-15932274D02*
X9945143Y-15922750D01*
X9945143Y-15922750D02*
X9935619Y-15913226D01*
X9935619Y-15913226D02*
X9926095Y-15894178D01*
X9926095Y-15894178D02*
X9916572Y-15856083D01*
X9916572Y-15856083D02*
X9916572Y-15808464D01*
X9916572Y-15808464D02*
X9926095Y-15770369D01*
X9926095Y-15770369D02*
X9935619Y-15751321D01*
X9935619Y-15751321D02*
X9945143Y-15741798D01*
X9945143Y-15741798D02*
X9964191Y-15732274D01*
X10211810Y-15732274D02*
X10116572Y-15732274D01*
X10116572Y-15732274D02*
X10107048Y-15827512D01*
X10107048Y-15827512D02*
X10116572Y-15817988D01*
X10116572Y-15817988D02*
X10135619Y-15808464D01*
X10135619Y-15808464D02*
X10183238Y-15808464D01*
X10183238Y-15808464D02*
X10202286Y-15817988D01*
X10202286Y-15817988D02*
X10211810Y-15827512D01*
X10211810Y-15827512D02*
X10221334Y-15846559D01*
X10221334Y-15846559D02*
X10221334Y-15894178D01*
X10221334Y-15894178D02*
X10211810Y-15913226D01*
X10211810Y-15913226D02*
X10202286Y-15922750D01*
X10202286Y-15922750D02*
X10183238Y-15932274D01*
X10183238Y-15932274D02*
X10135619Y-15932274D01*
X10135619Y-15932274D02*
X10116572Y-15922750D01*
X10116572Y-15922750D02*
X10107048Y-15913226D01*
X10297524Y-15751321D02*
X10307048Y-15741798D01*
X10307048Y-15741798D02*
X10326095Y-15732274D01*
X10326095Y-15732274D02*
X10373715Y-15732274D01*
X10373715Y-15732274D02*
X10392762Y-15741798D01*
X10392762Y-15741798D02*
X10402286Y-15751321D01*
X10402286Y-15751321D02*
X10411810Y-15770369D01*
X10411810Y-15770369D02*
X10411810Y-15789417D01*
X10411810Y-15789417D02*
X10402286Y-15817988D01*
X10402286Y-15817988D02*
X10288000Y-15932274D01*
X10288000Y-15932274D02*
X10411810Y-15932274D01*
X10535619Y-15732274D02*
X10554667Y-15732274D01*
X10554667Y-15732274D02*
X10573715Y-15741798D01*
X10573715Y-15741798D02*
X10583238Y-15751321D01*
X10583238Y-15751321D02*
X10592762Y-15770369D01*
X10592762Y-15770369D02*
X10602286Y-15808464D01*
X10602286Y-15808464D02*
X10602286Y-15856083D01*
X10602286Y-15856083D02*
X10592762Y-15894178D01*
X10592762Y-15894178D02*
X10583238Y-15913226D01*
X10583238Y-15913226D02*
X10573715Y-15922750D01*
X10573715Y-15922750D02*
X10554667Y-15932274D01*
X10554667Y-15932274D02*
X10535619Y-15932274D01*
X10535619Y-15932274D02*
X10516572Y-15922750D01*
X10516572Y-15922750D02*
X10507048Y-15913226D01*
X10507048Y-15913226D02*
X10497524Y-15894178D01*
X10497524Y-15894178D02*
X10488000Y-15856083D01*
X10488000Y-15856083D02*
X10488000Y-15808464D01*
X10488000Y-15808464D02*
X10497524Y-15770369D01*
X10497524Y-15770369D02*
X10507048Y-15751321D01*
X10507048Y-15751321D02*
X10516572Y-15741798D01*
X10516572Y-15741798D02*
X10535619Y-15732274D01*
X10678476Y-15732274D02*
X10678476Y-15770369D01*
X10754667Y-15732274D02*
X10754667Y-15770369D01*
X11049905Y-16008464D02*
X11040381Y-15998940D01*
X11040381Y-15998940D02*
X11021334Y-15970369D01*
X11021334Y-15970369D02*
X11011810Y-15951321D01*
X11011810Y-15951321D02*
X11002286Y-15922750D01*
X11002286Y-15922750D02*
X10992762Y-15875131D01*
X10992762Y-15875131D02*
X10992762Y-15837036D01*
X10992762Y-15837036D02*
X11002286Y-15789417D01*
X11002286Y-15789417D02*
X11011810Y-15760845D01*
X11011810Y-15760845D02*
X11021334Y-15741798D01*
X11021334Y-15741798D02*
X11040381Y-15713226D01*
X11040381Y-15713226D02*
X11049905Y-15703702D01*
X11211810Y-15798940D02*
X11211810Y-15932274D01*
X11164191Y-15722750D02*
X11116572Y-15865607D01*
X11116572Y-15865607D02*
X11240381Y-15865607D01*
X11468953Y-15932274D02*
X11468953Y-15732274D01*
X11554667Y-15932274D02*
X11554667Y-15827512D01*
X11554667Y-15827512D02*
X11545143Y-15808464D01*
X11545143Y-15808464D02*
X11526096Y-15798940D01*
X11526096Y-15798940D02*
X11497524Y-15798940D01*
X11497524Y-15798940D02*
X11478476Y-15808464D01*
X11478476Y-15808464D02*
X11468953Y-15817988D01*
X11678476Y-15932274D02*
X11659429Y-15922750D01*
X11659429Y-15922750D02*
X11649905Y-15913226D01*
X11649905Y-15913226D02*
X11640381Y-15894178D01*
X11640381Y-15894178D02*
X11640381Y-15837036D01*
X11640381Y-15837036D02*
X11649905Y-15817988D01*
X11649905Y-15817988D02*
X11659429Y-15808464D01*
X11659429Y-15808464D02*
X11678476Y-15798940D01*
X11678476Y-15798940D02*
X11707048Y-15798940D01*
X11707048Y-15798940D02*
X11726096Y-15808464D01*
X11726096Y-15808464D02*
X11735619Y-15817988D01*
X11735619Y-15817988D02*
X11745143Y-15837036D01*
X11745143Y-15837036D02*
X11745143Y-15894178D01*
X11745143Y-15894178D02*
X11735619Y-15913226D01*
X11735619Y-15913226D02*
X11726096Y-15922750D01*
X11726096Y-15922750D02*
X11707048Y-15932274D01*
X11707048Y-15932274D02*
X11678476Y-15932274D01*
X11859429Y-15932274D02*
X11840381Y-15922750D01*
X11840381Y-15922750D02*
X11830857Y-15903702D01*
X11830857Y-15903702D02*
X11830857Y-15732274D01*
X12011810Y-15922750D02*
X11992762Y-15932274D01*
X11992762Y-15932274D02*
X11954667Y-15932274D01*
X11954667Y-15932274D02*
X11935619Y-15922750D01*
X11935619Y-15922750D02*
X11926096Y-15903702D01*
X11926096Y-15903702D02*
X11926096Y-15827512D01*
X11926096Y-15827512D02*
X11935619Y-15808464D01*
X11935619Y-15808464D02*
X11954667Y-15798940D01*
X11954667Y-15798940D02*
X11992762Y-15798940D01*
X11992762Y-15798940D02*
X12011810Y-15808464D01*
X12011810Y-15808464D02*
X12021334Y-15827512D01*
X12021334Y-15827512D02*
X12021334Y-15846559D01*
X12021334Y-15846559D02*
X11926096Y-15865607D01*
X12097524Y-15922750D02*
X12116572Y-15932274D01*
X12116572Y-15932274D02*
X12154667Y-15932274D01*
X12154667Y-15932274D02*
X12173715Y-15922750D01*
X12173715Y-15922750D02*
X12183238Y-15903702D01*
X12183238Y-15903702D02*
X12183238Y-15894178D01*
X12183238Y-15894178D02*
X12173715Y-15875131D01*
X12173715Y-15875131D02*
X12154667Y-15865607D01*
X12154667Y-15865607D02*
X12126096Y-15865607D01*
X12126096Y-15865607D02*
X12107048Y-15856083D01*
X12107048Y-15856083D02*
X12097524Y-15837036D01*
X12097524Y-15837036D02*
X12097524Y-15827512D01*
X12097524Y-15827512D02*
X12107048Y-15808464D01*
X12107048Y-15808464D02*
X12126096Y-15798940D01*
X12126096Y-15798940D02*
X12154667Y-15798940D01*
X12154667Y-15798940D02*
X12173715Y-15808464D01*
X12249905Y-16008464D02*
X12259429Y-15998940D01*
X12259429Y-15998940D02*
X12278477Y-15970369D01*
X12278477Y-15970369D02*
X12288000Y-15951321D01*
X12288000Y-15951321D02*
X12297524Y-15922750D01*
X12297524Y-15922750D02*
X12307048Y-15875131D01*
X12307048Y-15875131D02*
X12307048Y-15837036D01*
X12307048Y-15837036D02*
X12297524Y-15789417D01*
X12297524Y-15789417D02*
X12288000Y-15760845D01*
X12288000Y-15760845D02*
X12278477Y-15741798D01*
X12278477Y-15741798D02*
X12259429Y-15713226D01*
X12259429Y-15713226D02*
X12249905Y-15703702D01*
X7288000Y-16003750D02*
X7488000Y-16203750D01*
X7488000Y-16003750D02*
X7288000Y-16203750D01*
X7388000Y-16003750D02*
X7388000Y-16203750D01*
X7288000Y-16103750D02*
X7488000Y-16103750D01*
X7726095Y-16015321D02*
X7735619Y-16005798D01*
X7735619Y-16005798D02*
X7754667Y-15996274D01*
X7754667Y-15996274D02*
X7802286Y-15996274D01*
X7802286Y-15996274D02*
X7821333Y-16005798D01*
X7821333Y-16005798D02*
X7830857Y-16015321D01*
X7830857Y-16015321D02*
X7840381Y-16034369D01*
X7840381Y-16034369D02*
X7840381Y-16053417D01*
X7840381Y-16053417D02*
X7830857Y-16081988D01*
X7830857Y-16081988D02*
X7716571Y-16196274D01*
X7716571Y-16196274D02*
X7840381Y-16196274D01*
X7926095Y-16177226D02*
X7935619Y-16186750D01*
X7935619Y-16186750D02*
X7926095Y-16196274D01*
X7926095Y-16196274D02*
X7916571Y-16186750D01*
X7916571Y-16186750D02*
X7926095Y-16177226D01*
X7926095Y-16177226D02*
X7926095Y-16196274D01*
X8116571Y-15996274D02*
X8021333Y-15996274D01*
X8021333Y-15996274D02*
X8011809Y-16091512D01*
X8011809Y-16091512D02*
X8021333Y-16081988D01*
X8021333Y-16081988D02*
X8040381Y-16072464D01*
X8040381Y-16072464D02*
X8088000Y-16072464D01*
X8088000Y-16072464D02*
X8107048Y-16081988D01*
X8107048Y-16081988D02*
X8116571Y-16091512D01*
X8116571Y-16091512D02*
X8126095Y-16110559D01*
X8126095Y-16110559D02*
X8126095Y-16158178D01*
X8126095Y-16158178D02*
X8116571Y-16177226D01*
X8116571Y-16177226D02*
X8107048Y-16186750D01*
X8107048Y-16186750D02*
X8088000Y-16196274D01*
X8088000Y-16196274D02*
X8040381Y-16196274D01*
X8040381Y-16196274D02*
X8021333Y-16186750D01*
X8021333Y-16186750D02*
X8011809Y-16177226D01*
X8249905Y-15996274D02*
X8268952Y-15996274D01*
X8268952Y-15996274D02*
X8288000Y-16005798D01*
X8288000Y-16005798D02*
X8297524Y-16015321D01*
X8297524Y-16015321D02*
X8307048Y-16034369D01*
X8307048Y-16034369D02*
X8316571Y-16072464D01*
X8316571Y-16072464D02*
X8316571Y-16120083D01*
X8316571Y-16120083D02*
X8307048Y-16158178D01*
X8307048Y-16158178D02*
X8297524Y-16177226D01*
X8297524Y-16177226D02*
X8288000Y-16186750D01*
X8288000Y-16186750D02*
X8268952Y-16196274D01*
X8268952Y-16196274D02*
X8249905Y-16196274D01*
X8249905Y-16196274D02*
X8230857Y-16186750D01*
X8230857Y-16186750D02*
X8221333Y-16177226D01*
X8221333Y-16177226D02*
X8211809Y-16158178D01*
X8211809Y-16158178D02*
X8202286Y-16120083D01*
X8202286Y-16120083D02*
X8202286Y-16072464D01*
X8202286Y-16072464D02*
X8211809Y-16034369D01*
X8211809Y-16034369D02*
X8221333Y-16015321D01*
X8221333Y-16015321D02*
X8230857Y-16005798D01*
X8230857Y-16005798D02*
X8249905Y-15996274D01*
X8440381Y-15996274D02*
X8459429Y-15996274D01*
X8459429Y-15996274D02*
X8478476Y-16005798D01*
X8478476Y-16005798D02*
X8488000Y-16015321D01*
X8488000Y-16015321D02*
X8497524Y-16034369D01*
X8497524Y-16034369D02*
X8507048Y-16072464D01*
X8507048Y-16072464D02*
X8507048Y-16120083D01*
X8507048Y-16120083D02*
X8497524Y-16158178D01*
X8497524Y-16158178D02*
X8488000Y-16177226D01*
X8488000Y-16177226D02*
X8478476Y-16186750D01*
X8478476Y-16186750D02*
X8459429Y-16196274D01*
X8459429Y-16196274D02*
X8440381Y-16196274D01*
X8440381Y-16196274D02*
X8421333Y-16186750D01*
X8421333Y-16186750D02*
X8411810Y-16177226D01*
X8411810Y-16177226D02*
X8402286Y-16158178D01*
X8402286Y-16158178D02*
X8392762Y-16120083D01*
X8392762Y-16120083D02*
X8392762Y-16072464D01*
X8392762Y-16072464D02*
X8402286Y-16034369D01*
X8402286Y-16034369D02*
X8411810Y-16015321D01*
X8411810Y-16015321D02*
X8421333Y-16005798D01*
X8421333Y-16005798D02*
X8440381Y-15996274D01*
X8592762Y-16196274D02*
X8592762Y-16062940D01*
X8592762Y-16081988D02*
X8602286Y-16072464D01*
X8602286Y-16072464D02*
X8621333Y-16062940D01*
X8621333Y-16062940D02*
X8649905Y-16062940D01*
X8649905Y-16062940D02*
X8668952Y-16072464D01*
X8668952Y-16072464D02*
X8678476Y-16091512D01*
X8678476Y-16091512D02*
X8678476Y-16196274D01*
X8678476Y-16091512D02*
X8688000Y-16072464D01*
X8688000Y-16072464D02*
X8707048Y-16062940D01*
X8707048Y-16062940D02*
X8735619Y-16062940D01*
X8735619Y-16062940D02*
X8754667Y-16072464D01*
X8754667Y-16072464D02*
X8764191Y-16091512D01*
X8764191Y-16091512D02*
X8764191Y-16196274D01*
X8859429Y-16196274D02*
X8859429Y-16062940D01*
X8859429Y-16081988D02*
X8868952Y-16072464D01*
X8868952Y-16072464D02*
X8888000Y-16062940D01*
X8888000Y-16062940D02*
X8916572Y-16062940D01*
X8916572Y-16062940D02*
X8935619Y-16072464D01*
X8935619Y-16072464D02*
X8945143Y-16091512D01*
X8945143Y-16091512D02*
X8945143Y-16196274D01*
X8945143Y-16091512D02*
X8954667Y-16072464D01*
X8954667Y-16072464D02*
X8973714Y-16062940D01*
X8973714Y-16062940D02*
X9002286Y-16062940D01*
X9002286Y-16062940D02*
X9021333Y-16072464D01*
X9021333Y-16072464D02*
X9030857Y-16091512D01*
X9030857Y-16091512D02*
X9030857Y-16196274D01*
X9421333Y-15986750D02*
X9249905Y-16243893D01*
X9678476Y-15996274D02*
X9697524Y-15996274D01*
X9697524Y-15996274D02*
X9716572Y-16005798D01*
X9716572Y-16005798D02*
X9726095Y-16015321D01*
X9726095Y-16015321D02*
X9735619Y-16034369D01*
X9735619Y-16034369D02*
X9745143Y-16072464D01*
X9745143Y-16072464D02*
X9745143Y-16120083D01*
X9745143Y-16120083D02*
X9735619Y-16158178D01*
X9735619Y-16158178D02*
X9726095Y-16177226D01*
X9726095Y-16177226D02*
X9716572Y-16186750D01*
X9716572Y-16186750D02*
X9697524Y-16196274D01*
X9697524Y-16196274D02*
X9678476Y-16196274D01*
X9678476Y-16196274D02*
X9659429Y-16186750D01*
X9659429Y-16186750D02*
X9649905Y-16177226D01*
X9649905Y-16177226D02*
X9640381Y-16158178D01*
X9640381Y-16158178D02*
X9630857Y-16120083D01*
X9630857Y-16120083D02*
X9630857Y-16072464D01*
X9630857Y-16072464D02*
X9640381Y-16034369D01*
X9640381Y-16034369D02*
X9649905Y-16015321D01*
X9649905Y-16015321D02*
X9659429Y-16005798D01*
X9659429Y-16005798D02*
X9678476Y-15996274D01*
X9830857Y-16177226D02*
X9840381Y-16186750D01*
X9840381Y-16186750D02*
X9830857Y-16196274D01*
X9830857Y-16196274D02*
X9821334Y-16186750D01*
X9821334Y-16186750D02*
X9830857Y-16177226D01*
X9830857Y-16177226D02*
X9830857Y-16196274D01*
X9964191Y-15996274D02*
X9983238Y-15996274D01*
X9983238Y-15996274D02*
X10002286Y-16005798D01*
X10002286Y-16005798D02*
X10011810Y-16015321D01*
X10011810Y-16015321D02*
X10021334Y-16034369D01*
X10021334Y-16034369D02*
X10030857Y-16072464D01*
X10030857Y-16072464D02*
X10030857Y-16120083D01*
X10030857Y-16120083D02*
X10021334Y-16158178D01*
X10021334Y-16158178D02*
X10011810Y-16177226D01*
X10011810Y-16177226D02*
X10002286Y-16186750D01*
X10002286Y-16186750D02*
X9983238Y-16196274D01*
X9983238Y-16196274D02*
X9964191Y-16196274D01*
X9964191Y-16196274D02*
X9945143Y-16186750D01*
X9945143Y-16186750D02*
X9935619Y-16177226D01*
X9935619Y-16177226D02*
X9926095Y-16158178D01*
X9926095Y-16158178D02*
X9916572Y-16120083D01*
X9916572Y-16120083D02*
X9916572Y-16072464D01*
X9916572Y-16072464D02*
X9926095Y-16034369D01*
X9926095Y-16034369D02*
X9935619Y-16015321D01*
X9935619Y-16015321D02*
X9945143Y-16005798D01*
X9945143Y-16005798D02*
X9964191Y-15996274D01*
X10126095Y-16196274D02*
X10164191Y-16196274D01*
X10164191Y-16196274D02*
X10183238Y-16186750D01*
X10183238Y-16186750D02*
X10192762Y-16177226D01*
X10192762Y-16177226D02*
X10211810Y-16148655D01*
X10211810Y-16148655D02*
X10221334Y-16110559D01*
X10221334Y-16110559D02*
X10221334Y-16034369D01*
X10221334Y-16034369D02*
X10211810Y-16015321D01*
X10211810Y-16015321D02*
X10202286Y-16005798D01*
X10202286Y-16005798D02*
X10183238Y-15996274D01*
X10183238Y-15996274D02*
X10145143Y-15996274D01*
X10145143Y-15996274D02*
X10126095Y-16005798D01*
X10126095Y-16005798D02*
X10116572Y-16015321D01*
X10116572Y-16015321D02*
X10107048Y-16034369D01*
X10107048Y-16034369D02*
X10107048Y-16081988D01*
X10107048Y-16081988D02*
X10116572Y-16101036D01*
X10116572Y-16101036D02*
X10126095Y-16110559D01*
X10126095Y-16110559D02*
X10145143Y-16120083D01*
X10145143Y-16120083D02*
X10183238Y-16120083D01*
X10183238Y-16120083D02*
X10202286Y-16110559D01*
X10202286Y-16110559D02*
X10211810Y-16101036D01*
X10211810Y-16101036D02*
X10221334Y-16081988D01*
X10335619Y-16081988D02*
X10316572Y-16072464D01*
X10316572Y-16072464D02*
X10307048Y-16062940D01*
X10307048Y-16062940D02*
X10297524Y-16043893D01*
X10297524Y-16043893D02*
X10297524Y-16034369D01*
X10297524Y-16034369D02*
X10307048Y-16015321D01*
X10307048Y-16015321D02*
X10316572Y-16005798D01*
X10316572Y-16005798D02*
X10335619Y-15996274D01*
X10335619Y-15996274D02*
X10373715Y-15996274D01*
X10373715Y-15996274D02*
X10392762Y-16005798D01*
X10392762Y-16005798D02*
X10402286Y-16015321D01*
X10402286Y-16015321D02*
X10411810Y-16034369D01*
X10411810Y-16034369D02*
X10411810Y-16043893D01*
X10411810Y-16043893D02*
X10402286Y-16062940D01*
X10402286Y-16062940D02*
X10392762Y-16072464D01*
X10392762Y-16072464D02*
X10373715Y-16081988D01*
X10373715Y-16081988D02*
X10335619Y-16081988D01*
X10335619Y-16081988D02*
X10316572Y-16091512D01*
X10316572Y-16091512D02*
X10307048Y-16101036D01*
X10307048Y-16101036D02*
X10297524Y-16120083D01*
X10297524Y-16120083D02*
X10297524Y-16158178D01*
X10297524Y-16158178D02*
X10307048Y-16177226D01*
X10307048Y-16177226D02*
X10316572Y-16186750D01*
X10316572Y-16186750D02*
X10335619Y-16196274D01*
X10335619Y-16196274D02*
X10373715Y-16196274D01*
X10373715Y-16196274D02*
X10392762Y-16186750D01*
X10392762Y-16186750D02*
X10402286Y-16177226D01*
X10402286Y-16177226D02*
X10411810Y-16158178D01*
X10411810Y-16158178D02*
X10411810Y-16120083D01*
X10411810Y-16120083D02*
X10402286Y-16101036D01*
X10402286Y-16101036D02*
X10392762Y-16091512D01*
X10392762Y-16091512D02*
X10373715Y-16081988D01*
X10583238Y-16062940D02*
X10583238Y-16196274D01*
X10535619Y-15986750D02*
X10488000Y-16129607D01*
X10488000Y-16129607D02*
X10611810Y-16129607D01*
X10678476Y-15996274D02*
X10678476Y-16034369D01*
X10754667Y-15996274D02*
X10754667Y-16034369D01*
X11049905Y-16272464D02*
X11040381Y-16262940D01*
X11040381Y-16262940D02*
X11021334Y-16234369D01*
X11021334Y-16234369D02*
X11011810Y-16215321D01*
X11011810Y-16215321D02*
X11002286Y-16186750D01*
X11002286Y-16186750D02*
X10992762Y-16139131D01*
X10992762Y-16139131D02*
X10992762Y-16101036D01*
X10992762Y-16101036D02*
X11002286Y-16053417D01*
X11002286Y-16053417D02*
X11011810Y-16024845D01*
X11011810Y-16024845D02*
X11021334Y-16005798D01*
X11021334Y-16005798D02*
X11040381Y-15977226D01*
X11040381Y-15977226D02*
X11049905Y-15967702D01*
X11211810Y-16062940D02*
X11211810Y-16196274D01*
X11164191Y-15986750D02*
X11116572Y-16129607D01*
X11116572Y-16129607D02*
X11240381Y-16129607D01*
X11468953Y-16196274D02*
X11468953Y-15996274D01*
X11554667Y-16196274D02*
X11554667Y-16091512D01*
X11554667Y-16091512D02*
X11545143Y-16072464D01*
X11545143Y-16072464D02*
X11526096Y-16062940D01*
X11526096Y-16062940D02*
X11497524Y-16062940D01*
X11497524Y-16062940D02*
X11478476Y-16072464D01*
X11478476Y-16072464D02*
X11468953Y-16081988D01*
X11678476Y-16196274D02*
X11659429Y-16186750D01*
X11659429Y-16186750D02*
X11649905Y-16177226D01*
X11649905Y-16177226D02*
X11640381Y-16158178D01*
X11640381Y-16158178D02*
X11640381Y-16101036D01*
X11640381Y-16101036D02*
X11649905Y-16081988D01*
X11649905Y-16081988D02*
X11659429Y-16072464D01*
X11659429Y-16072464D02*
X11678476Y-16062940D01*
X11678476Y-16062940D02*
X11707048Y-16062940D01*
X11707048Y-16062940D02*
X11726096Y-16072464D01*
X11726096Y-16072464D02*
X11735619Y-16081988D01*
X11735619Y-16081988D02*
X11745143Y-16101036D01*
X11745143Y-16101036D02*
X11745143Y-16158178D01*
X11745143Y-16158178D02*
X11735619Y-16177226D01*
X11735619Y-16177226D02*
X11726096Y-16186750D01*
X11726096Y-16186750D02*
X11707048Y-16196274D01*
X11707048Y-16196274D02*
X11678476Y-16196274D01*
X11859429Y-16196274D02*
X11840381Y-16186750D01*
X11840381Y-16186750D02*
X11830857Y-16167702D01*
X11830857Y-16167702D02*
X11830857Y-15996274D01*
X12011810Y-16186750D02*
X11992762Y-16196274D01*
X11992762Y-16196274D02*
X11954667Y-16196274D01*
X11954667Y-16196274D02*
X11935619Y-16186750D01*
X11935619Y-16186750D02*
X11926096Y-16167702D01*
X11926096Y-16167702D02*
X11926096Y-16091512D01*
X11926096Y-16091512D02*
X11935619Y-16072464D01*
X11935619Y-16072464D02*
X11954667Y-16062940D01*
X11954667Y-16062940D02*
X11992762Y-16062940D01*
X11992762Y-16062940D02*
X12011810Y-16072464D01*
X12011810Y-16072464D02*
X12021334Y-16091512D01*
X12021334Y-16091512D02*
X12021334Y-16110559D01*
X12021334Y-16110559D02*
X11926096Y-16129607D01*
X12097524Y-16186750D02*
X12116572Y-16196274D01*
X12116572Y-16196274D02*
X12154667Y-16196274D01*
X12154667Y-16196274D02*
X12173715Y-16186750D01*
X12173715Y-16186750D02*
X12183238Y-16167702D01*
X12183238Y-16167702D02*
X12183238Y-16158178D01*
X12183238Y-16158178D02*
X12173715Y-16139131D01*
X12173715Y-16139131D02*
X12154667Y-16129607D01*
X12154667Y-16129607D02*
X12126096Y-16129607D01*
X12126096Y-16129607D02*
X12107048Y-16120083D01*
X12107048Y-16120083D02*
X12097524Y-16101036D01*
X12097524Y-16101036D02*
X12097524Y-16091512D01*
X12097524Y-16091512D02*
X12107048Y-16072464D01*
X12107048Y-16072464D02*
X12126096Y-16062940D01*
X12126096Y-16062940D02*
X12154667Y-16062940D01*
X12154667Y-16062940D02*
X12173715Y-16072464D01*
X12249905Y-16272464D02*
X12259429Y-16262940D01*
X12259429Y-16262940D02*
X12278477Y-16234369D01*
X12278477Y-16234369D02*
X12288000Y-16215321D01*
X12288000Y-16215321D02*
X12297524Y-16186750D01*
X12297524Y-16186750D02*
X12307048Y-16139131D01*
X12307048Y-16139131D02*
X12307048Y-16101036D01*
X12307048Y-16101036D02*
X12297524Y-16053417D01*
X12297524Y-16053417D02*
X12288000Y-16024845D01*
X12288000Y-16024845D02*
X12278477Y-16005798D01*
X12278477Y-16005798D02*
X12259429Y-15977226D01*
X12259429Y-15977226D02*
X12249905Y-15967702D01*
X7288000Y-16323750D02*
X7488000Y-16523750D01*
X7488000Y-16323750D02*
X7288000Y-16523750D01*
X7458711Y-16494461D02*
X7458711Y-16353039D01*
X7317289Y-16353039D01*
X7317289Y-16494461D01*
X7458711Y-16494461D01*
X7716571Y-16316274D02*
X7840381Y-16316274D01*
X7840381Y-16316274D02*
X7773714Y-16392464D01*
X7773714Y-16392464D02*
X7802286Y-16392464D01*
X7802286Y-16392464D02*
X7821333Y-16401988D01*
X7821333Y-16401988D02*
X7830857Y-16411512D01*
X7830857Y-16411512D02*
X7840381Y-16430559D01*
X7840381Y-16430559D02*
X7840381Y-16478178D01*
X7840381Y-16478178D02*
X7830857Y-16497226D01*
X7830857Y-16497226D02*
X7821333Y-16506750D01*
X7821333Y-16506750D02*
X7802286Y-16516274D01*
X7802286Y-16516274D02*
X7745143Y-16516274D01*
X7745143Y-16516274D02*
X7726095Y-16506750D01*
X7726095Y-16506750D02*
X7716571Y-16497226D01*
X7926095Y-16497226D02*
X7935619Y-16506750D01*
X7935619Y-16506750D02*
X7926095Y-16516274D01*
X7926095Y-16516274D02*
X7916571Y-16506750D01*
X7916571Y-16506750D02*
X7926095Y-16497226D01*
X7926095Y-16497226D02*
X7926095Y-16516274D01*
X8116571Y-16316274D02*
X8021333Y-16316274D01*
X8021333Y-16316274D02*
X8011809Y-16411512D01*
X8011809Y-16411512D02*
X8021333Y-16401988D01*
X8021333Y-16401988D02*
X8040381Y-16392464D01*
X8040381Y-16392464D02*
X8088000Y-16392464D01*
X8088000Y-16392464D02*
X8107048Y-16401988D01*
X8107048Y-16401988D02*
X8116571Y-16411512D01*
X8116571Y-16411512D02*
X8126095Y-16430559D01*
X8126095Y-16430559D02*
X8126095Y-16478178D01*
X8126095Y-16478178D02*
X8116571Y-16497226D01*
X8116571Y-16497226D02*
X8107048Y-16506750D01*
X8107048Y-16506750D02*
X8088000Y-16516274D01*
X8088000Y-16516274D02*
X8040381Y-16516274D01*
X8040381Y-16516274D02*
X8021333Y-16506750D01*
X8021333Y-16506750D02*
X8011809Y-16497226D01*
X8249905Y-16316274D02*
X8268952Y-16316274D01*
X8268952Y-16316274D02*
X8288000Y-16325798D01*
X8288000Y-16325798D02*
X8297524Y-16335321D01*
X8297524Y-16335321D02*
X8307048Y-16354369D01*
X8307048Y-16354369D02*
X8316571Y-16392464D01*
X8316571Y-16392464D02*
X8316571Y-16440083D01*
X8316571Y-16440083D02*
X8307048Y-16478178D01*
X8307048Y-16478178D02*
X8297524Y-16497226D01*
X8297524Y-16497226D02*
X8288000Y-16506750D01*
X8288000Y-16506750D02*
X8268952Y-16516274D01*
X8268952Y-16516274D02*
X8249905Y-16516274D01*
X8249905Y-16516274D02*
X8230857Y-16506750D01*
X8230857Y-16506750D02*
X8221333Y-16497226D01*
X8221333Y-16497226D02*
X8211809Y-16478178D01*
X8211809Y-16478178D02*
X8202286Y-16440083D01*
X8202286Y-16440083D02*
X8202286Y-16392464D01*
X8202286Y-16392464D02*
X8211809Y-16354369D01*
X8211809Y-16354369D02*
X8221333Y-16335321D01*
X8221333Y-16335321D02*
X8230857Y-16325798D01*
X8230857Y-16325798D02*
X8249905Y-16316274D01*
X8440381Y-16316274D02*
X8459429Y-16316274D01*
X8459429Y-16316274D02*
X8478476Y-16325798D01*
X8478476Y-16325798D02*
X8488000Y-16335321D01*
X8488000Y-16335321D02*
X8497524Y-16354369D01*
X8497524Y-16354369D02*
X8507048Y-16392464D01*
X8507048Y-16392464D02*
X8507048Y-16440083D01*
X8507048Y-16440083D02*
X8497524Y-16478178D01*
X8497524Y-16478178D02*
X8488000Y-16497226D01*
X8488000Y-16497226D02*
X8478476Y-16506750D01*
X8478476Y-16506750D02*
X8459429Y-16516274D01*
X8459429Y-16516274D02*
X8440381Y-16516274D01*
X8440381Y-16516274D02*
X8421333Y-16506750D01*
X8421333Y-16506750D02*
X8411810Y-16497226D01*
X8411810Y-16497226D02*
X8402286Y-16478178D01*
X8402286Y-16478178D02*
X8392762Y-16440083D01*
X8392762Y-16440083D02*
X8392762Y-16392464D01*
X8392762Y-16392464D02*
X8402286Y-16354369D01*
X8402286Y-16354369D02*
X8411810Y-16335321D01*
X8411810Y-16335321D02*
X8421333Y-16325798D01*
X8421333Y-16325798D02*
X8440381Y-16316274D01*
X8592762Y-16516274D02*
X8592762Y-16382940D01*
X8592762Y-16401988D02*
X8602286Y-16392464D01*
X8602286Y-16392464D02*
X8621333Y-16382940D01*
X8621333Y-16382940D02*
X8649905Y-16382940D01*
X8649905Y-16382940D02*
X8668952Y-16392464D01*
X8668952Y-16392464D02*
X8678476Y-16411512D01*
X8678476Y-16411512D02*
X8678476Y-16516274D01*
X8678476Y-16411512D02*
X8688000Y-16392464D01*
X8688000Y-16392464D02*
X8707048Y-16382940D01*
X8707048Y-16382940D02*
X8735619Y-16382940D01*
X8735619Y-16382940D02*
X8754667Y-16392464D01*
X8754667Y-16392464D02*
X8764191Y-16411512D01*
X8764191Y-16411512D02*
X8764191Y-16516274D01*
X8859429Y-16516274D02*
X8859429Y-16382940D01*
X8859429Y-16401988D02*
X8868952Y-16392464D01*
X8868952Y-16392464D02*
X8888000Y-16382940D01*
X8888000Y-16382940D02*
X8916572Y-16382940D01*
X8916572Y-16382940D02*
X8935619Y-16392464D01*
X8935619Y-16392464D02*
X8945143Y-16411512D01*
X8945143Y-16411512D02*
X8945143Y-16516274D01*
X8945143Y-16411512D02*
X8954667Y-16392464D01*
X8954667Y-16392464D02*
X8973714Y-16382940D01*
X8973714Y-16382940D02*
X9002286Y-16382940D01*
X9002286Y-16382940D02*
X9021333Y-16392464D01*
X9021333Y-16392464D02*
X9030857Y-16411512D01*
X9030857Y-16411512D02*
X9030857Y-16516274D01*
X9421333Y-16306750D02*
X9249905Y-16563893D01*
X9678476Y-16316274D02*
X9697524Y-16316274D01*
X9697524Y-16316274D02*
X9716572Y-16325798D01*
X9716572Y-16325798D02*
X9726095Y-16335321D01*
X9726095Y-16335321D02*
X9735619Y-16354369D01*
X9735619Y-16354369D02*
X9745143Y-16392464D01*
X9745143Y-16392464D02*
X9745143Y-16440083D01*
X9745143Y-16440083D02*
X9735619Y-16478178D01*
X9735619Y-16478178D02*
X9726095Y-16497226D01*
X9726095Y-16497226D02*
X9716572Y-16506750D01*
X9716572Y-16506750D02*
X9697524Y-16516274D01*
X9697524Y-16516274D02*
X9678476Y-16516274D01*
X9678476Y-16516274D02*
X9659429Y-16506750D01*
X9659429Y-16506750D02*
X9649905Y-16497226D01*
X9649905Y-16497226D02*
X9640381Y-16478178D01*
X9640381Y-16478178D02*
X9630857Y-16440083D01*
X9630857Y-16440083D02*
X9630857Y-16392464D01*
X9630857Y-16392464D02*
X9640381Y-16354369D01*
X9640381Y-16354369D02*
X9649905Y-16335321D01*
X9649905Y-16335321D02*
X9659429Y-16325798D01*
X9659429Y-16325798D02*
X9678476Y-16316274D01*
X9830857Y-16497226D02*
X9840381Y-16506750D01*
X9840381Y-16506750D02*
X9830857Y-16516274D01*
X9830857Y-16516274D02*
X9821334Y-16506750D01*
X9821334Y-16506750D02*
X9830857Y-16497226D01*
X9830857Y-16497226D02*
X9830857Y-16516274D01*
X10030857Y-16516274D02*
X9916572Y-16516274D01*
X9973714Y-16516274D02*
X9973714Y-16316274D01*
X9973714Y-16316274D02*
X9954667Y-16344845D01*
X9954667Y-16344845D02*
X9935619Y-16363893D01*
X9935619Y-16363893D02*
X9916572Y-16373417D01*
X10097524Y-16316274D02*
X10221334Y-16316274D01*
X10221334Y-16316274D02*
X10154667Y-16392464D01*
X10154667Y-16392464D02*
X10183238Y-16392464D01*
X10183238Y-16392464D02*
X10202286Y-16401988D01*
X10202286Y-16401988D02*
X10211810Y-16411512D01*
X10211810Y-16411512D02*
X10221334Y-16430559D01*
X10221334Y-16430559D02*
X10221334Y-16478178D01*
X10221334Y-16478178D02*
X10211810Y-16497226D01*
X10211810Y-16497226D02*
X10202286Y-16506750D01*
X10202286Y-16506750D02*
X10183238Y-16516274D01*
X10183238Y-16516274D02*
X10126095Y-16516274D01*
X10126095Y-16516274D02*
X10107048Y-16506750D01*
X10107048Y-16506750D02*
X10097524Y-16497226D01*
X10288000Y-16316274D02*
X10421334Y-16316274D01*
X10421334Y-16316274D02*
X10335619Y-16516274D01*
X10526095Y-16401988D02*
X10507048Y-16392464D01*
X10507048Y-16392464D02*
X10497524Y-16382940D01*
X10497524Y-16382940D02*
X10488000Y-16363893D01*
X10488000Y-16363893D02*
X10488000Y-16354369D01*
X10488000Y-16354369D02*
X10497524Y-16335321D01*
X10497524Y-16335321D02*
X10507048Y-16325798D01*
X10507048Y-16325798D02*
X10526095Y-16316274D01*
X10526095Y-16316274D02*
X10564191Y-16316274D01*
X10564191Y-16316274D02*
X10583238Y-16325798D01*
X10583238Y-16325798D02*
X10592762Y-16335321D01*
X10592762Y-16335321D02*
X10602286Y-16354369D01*
X10602286Y-16354369D02*
X10602286Y-16363893D01*
X10602286Y-16363893D02*
X10592762Y-16382940D01*
X10592762Y-16382940D02*
X10583238Y-16392464D01*
X10583238Y-16392464D02*
X10564191Y-16401988D01*
X10564191Y-16401988D02*
X10526095Y-16401988D01*
X10526095Y-16401988D02*
X10507048Y-16411512D01*
X10507048Y-16411512D02*
X10497524Y-16421036D01*
X10497524Y-16421036D02*
X10488000Y-16440083D01*
X10488000Y-16440083D02*
X10488000Y-16478178D01*
X10488000Y-16478178D02*
X10497524Y-16497226D01*
X10497524Y-16497226D02*
X10507048Y-16506750D01*
X10507048Y-16506750D02*
X10526095Y-16516274D01*
X10526095Y-16516274D02*
X10564191Y-16516274D01*
X10564191Y-16516274D02*
X10583238Y-16506750D01*
X10583238Y-16506750D02*
X10592762Y-16497226D01*
X10592762Y-16497226D02*
X10602286Y-16478178D01*
X10602286Y-16478178D02*
X10602286Y-16440083D01*
X10602286Y-16440083D02*
X10592762Y-16421036D01*
X10592762Y-16421036D02*
X10583238Y-16411512D01*
X10583238Y-16411512D02*
X10564191Y-16401988D01*
X10678476Y-16316274D02*
X10678476Y-16354369D01*
X10754667Y-16316274D02*
X10754667Y-16354369D01*
X11049905Y-16592464D02*
X11040381Y-16582940D01*
X11040381Y-16582940D02*
X11021334Y-16554369D01*
X11021334Y-16554369D02*
X11011810Y-16535321D01*
X11011810Y-16535321D02*
X11002286Y-16506750D01*
X11002286Y-16506750D02*
X10992762Y-16459131D01*
X10992762Y-16459131D02*
X10992762Y-16421036D01*
X10992762Y-16421036D02*
X11002286Y-16373417D01*
X11002286Y-16373417D02*
X11011810Y-16344845D01*
X11011810Y-16344845D02*
X11021334Y-16325798D01*
X11021334Y-16325798D02*
X11040381Y-16297226D01*
X11040381Y-16297226D02*
X11049905Y-16287702D01*
X11211810Y-16382940D02*
X11211810Y-16516274D01*
X11164191Y-16306750D02*
X11116572Y-16449607D01*
X11116572Y-16449607D02*
X11240381Y-16449607D01*
X11468953Y-16516274D02*
X11468953Y-16316274D01*
X11554667Y-16516274D02*
X11554667Y-16411512D01*
X11554667Y-16411512D02*
X11545143Y-16392464D01*
X11545143Y-16392464D02*
X11526096Y-16382940D01*
X11526096Y-16382940D02*
X11497524Y-16382940D01*
X11497524Y-16382940D02*
X11478476Y-16392464D01*
X11478476Y-16392464D02*
X11468953Y-16401988D01*
X11678476Y-16516274D02*
X11659429Y-16506750D01*
X11659429Y-16506750D02*
X11649905Y-16497226D01*
X11649905Y-16497226D02*
X11640381Y-16478178D01*
X11640381Y-16478178D02*
X11640381Y-16421036D01*
X11640381Y-16421036D02*
X11649905Y-16401988D01*
X11649905Y-16401988D02*
X11659429Y-16392464D01*
X11659429Y-16392464D02*
X11678476Y-16382940D01*
X11678476Y-16382940D02*
X11707048Y-16382940D01*
X11707048Y-16382940D02*
X11726096Y-16392464D01*
X11726096Y-16392464D02*
X11735619Y-16401988D01*
X11735619Y-16401988D02*
X11745143Y-16421036D01*
X11745143Y-16421036D02*
X11745143Y-16478178D01*
X11745143Y-16478178D02*
X11735619Y-16497226D01*
X11735619Y-16497226D02*
X11726096Y-16506750D01*
X11726096Y-16506750D02*
X11707048Y-16516274D01*
X11707048Y-16516274D02*
X11678476Y-16516274D01*
X11859429Y-16516274D02*
X11840381Y-16506750D01*
X11840381Y-16506750D02*
X11830857Y-16487702D01*
X11830857Y-16487702D02*
X11830857Y-16316274D01*
X12011810Y-16506750D02*
X11992762Y-16516274D01*
X11992762Y-16516274D02*
X11954667Y-16516274D01*
X11954667Y-16516274D02*
X11935619Y-16506750D01*
X11935619Y-16506750D02*
X11926096Y-16487702D01*
X11926096Y-16487702D02*
X11926096Y-16411512D01*
X11926096Y-16411512D02*
X11935619Y-16392464D01*
X11935619Y-16392464D02*
X11954667Y-16382940D01*
X11954667Y-16382940D02*
X11992762Y-16382940D01*
X11992762Y-16382940D02*
X12011810Y-16392464D01*
X12011810Y-16392464D02*
X12021334Y-16411512D01*
X12021334Y-16411512D02*
X12021334Y-16430559D01*
X12021334Y-16430559D02*
X11926096Y-16449607D01*
X12097524Y-16506750D02*
X12116572Y-16516274D01*
X12116572Y-16516274D02*
X12154667Y-16516274D01*
X12154667Y-16516274D02*
X12173715Y-16506750D01*
X12173715Y-16506750D02*
X12183238Y-16487702D01*
X12183238Y-16487702D02*
X12183238Y-16478178D01*
X12183238Y-16478178D02*
X12173715Y-16459131D01*
X12173715Y-16459131D02*
X12154667Y-16449607D01*
X12154667Y-16449607D02*
X12126096Y-16449607D01*
X12126096Y-16449607D02*
X12107048Y-16440083D01*
X12107048Y-16440083D02*
X12097524Y-16421036D01*
X12097524Y-16421036D02*
X12097524Y-16411512D01*
X12097524Y-16411512D02*
X12107048Y-16392464D01*
X12107048Y-16392464D02*
X12126096Y-16382940D01*
X12126096Y-16382940D02*
X12154667Y-16382940D01*
X12154667Y-16382940D02*
X12173715Y-16392464D01*
X12249905Y-16592464D02*
X12259429Y-16582940D01*
X12259429Y-16582940D02*
X12278477Y-16554369D01*
X12278477Y-16554369D02*
X12288000Y-16535321D01*
X12288000Y-16535321D02*
X12297524Y-16506750D01*
X12297524Y-16506750D02*
X12307048Y-16459131D01*
X12307048Y-16459131D02*
X12307048Y-16421036D01*
X12307048Y-16421036D02*
X12297524Y-16373417D01*
X12297524Y-16373417D02*
X12288000Y-16344845D01*
X12288000Y-16344845D02*
X12278477Y-16325798D01*
X12278477Y-16325798D02*
X12259429Y-16297226D01*
X12259429Y-16297226D02*
X12249905Y-16287702D01*
M02*
