%TF.GenerationSoftware,KiCad,Pcbnew,7.0.2*%
%TF.CreationDate,2023-05-13T16:56:26+02:00*%
%TF.ProjectId,pid_controller,7069645f-636f-46e7-9472-6f6c6c65722e,2.0*%
%TF.SameCoordinates,Original*%
%TF.FileFunction,Drillmap*%
%TF.FilePolarity,Positive*%
%FSLAX45Y45*%
G04 Gerber Fmt 4.5, Leading zero omitted, Abs format (unit mm)*
G04 Created by KiCad (PCBNEW 7.0.2) date 2023-05-13 16:56:26*
%MOMM*%
%LPD*%
G01*
G04 APERTURE LIST*
%ADD10C,0.100000*%
%ADD11C,0.200000*%
G04 APERTURE END LIST*
D10*
X7493000Y-6851650D02*
X19888200Y-6851650D01*
X19888200Y-13874750D01*
X7493000Y-13874750D01*
X7493000Y-6851650D01*
D11*
X7735619Y-14192274D02*
X7735619Y-13992274D01*
X7735619Y-13992274D02*
X7783238Y-13992274D01*
X7783238Y-13992274D02*
X7811809Y-14001798D01*
X7811809Y-14001798D02*
X7830857Y-14020845D01*
X7830857Y-14020845D02*
X7840381Y-14039893D01*
X7840381Y-14039893D02*
X7849905Y-14077988D01*
X7849905Y-14077988D02*
X7849905Y-14106559D01*
X7849905Y-14106559D02*
X7840381Y-14144655D01*
X7840381Y-14144655D02*
X7830857Y-14163702D01*
X7830857Y-14163702D02*
X7811809Y-14182750D01*
X7811809Y-14182750D02*
X7783238Y-14192274D01*
X7783238Y-14192274D02*
X7735619Y-14192274D01*
X7935619Y-14192274D02*
X7935619Y-14058940D01*
X7935619Y-14097036D02*
X7945143Y-14077988D01*
X7945143Y-14077988D02*
X7954667Y-14068464D01*
X7954667Y-14068464D02*
X7973714Y-14058940D01*
X7973714Y-14058940D02*
X7992762Y-14058940D01*
X8059428Y-14192274D02*
X8059428Y-14058940D01*
X8059428Y-13992274D02*
X8049905Y-14001798D01*
X8049905Y-14001798D02*
X8059428Y-14011321D01*
X8059428Y-14011321D02*
X8068952Y-14001798D01*
X8068952Y-14001798D02*
X8059428Y-13992274D01*
X8059428Y-13992274D02*
X8059428Y-14011321D01*
X8183238Y-14192274D02*
X8164190Y-14182750D01*
X8164190Y-14182750D02*
X8154667Y-14163702D01*
X8154667Y-14163702D02*
X8154667Y-13992274D01*
X8288000Y-14192274D02*
X8268952Y-14182750D01*
X8268952Y-14182750D02*
X8259428Y-14163702D01*
X8259428Y-14163702D02*
X8259428Y-13992274D01*
X8516571Y-14192274D02*
X8516571Y-13992274D01*
X8516571Y-13992274D02*
X8583238Y-14135131D01*
X8583238Y-14135131D02*
X8649905Y-13992274D01*
X8649905Y-13992274D02*
X8649905Y-14192274D01*
X8830857Y-14192274D02*
X8830857Y-14087512D01*
X8830857Y-14087512D02*
X8821333Y-14068464D01*
X8821333Y-14068464D02*
X8802286Y-14058940D01*
X8802286Y-14058940D02*
X8764190Y-14058940D01*
X8764190Y-14058940D02*
X8745143Y-14068464D01*
X8830857Y-14182750D02*
X8811810Y-14192274D01*
X8811810Y-14192274D02*
X8764190Y-14192274D01*
X8764190Y-14192274D02*
X8745143Y-14182750D01*
X8745143Y-14182750D02*
X8735619Y-14163702D01*
X8735619Y-14163702D02*
X8735619Y-14144655D01*
X8735619Y-14144655D02*
X8745143Y-14125607D01*
X8745143Y-14125607D02*
X8764190Y-14116083D01*
X8764190Y-14116083D02*
X8811810Y-14116083D01*
X8811810Y-14116083D02*
X8830857Y-14106559D01*
X8926095Y-14058940D02*
X8926095Y-14258940D01*
X8926095Y-14068464D02*
X8945143Y-14058940D01*
X8945143Y-14058940D02*
X8983238Y-14058940D01*
X8983238Y-14058940D02*
X9002286Y-14068464D01*
X9002286Y-14068464D02*
X9011810Y-14077988D01*
X9011810Y-14077988D02*
X9021333Y-14097036D01*
X9021333Y-14097036D02*
X9021333Y-14154178D01*
X9021333Y-14154178D02*
X9011810Y-14173226D01*
X9011810Y-14173226D02*
X9002286Y-14182750D01*
X9002286Y-14182750D02*
X8983238Y-14192274D01*
X8983238Y-14192274D02*
X8945143Y-14192274D01*
X8945143Y-14192274D02*
X8926095Y-14182750D01*
X9107048Y-14173226D02*
X9116571Y-14182750D01*
X9116571Y-14182750D02*
X9107048Y-14192274D01*
X9107048Y-14192274D02*
X9097524Y-14182750D01*
X9097524Y-14182750D02*
X9107048Y-14173226D01*
X9107048Y-14173226D02*
X9107048Y-14192274D01*
X9107048Y-14068464D02*
X9116571Y-14077988D01*
X9116571Y-14077988D02*
X9107048Y-14087512D01*
X9107048Y-14087512D02*
X9097524Y-14077988D01*
X9097524Y-14077988D02*
X9107048Y-14068464D01*
X9107048Y-14068464D02*
X9107048Y-14087512D01*
M02*
