0
SECTION
2
ENTITIES
0
LINE
8
FCrtYd
62
7
10
150.727018
20
-81.104991
11
150.727018
21
-71.004991
0
LINE
8
FCrtYd
62
7
10
144.077018
20
-81.104991
11
150.727018
21
-81.104991
0
LINE
8
FCrtYd
62
7
10
144.077018
20
-71.004991
11
144.077018
21
-81.104991
0
LINE
8
FCrtYd
62
7
10
150.727018
20
-71.004991
11
144.077018
21
-71.004991
0
LINE
8
FFab
62
5
10
150.282018
20
-72.549991
11
148.113018
21
-72.548991
0
LINE
8
FFab
62
5
10
150.282018
20
-72.549991
11
148.113018
21
-72.548991
0
LINE
8
FFab
62
5
10
150.467018
20
-71.279991
11
144.367018
21
-71.279991
0
LINE
8
FFab
62
5
10
144.367018
20
-80.809991
11
150.467018
21
-80.809991
0
LINE
8
FFab
62
5
10
150.467018
20
-80.809991
11
150.467018
21
-71.279991
0
LINE
8
FFab
62
5
10
144.367018
20
-71.279991
11
144.367018
21
-80.809991
0
CIRCLE
8
FFab
62
5
10
149.197018
20
-72.549991
40
1.095
0
CIRCLE
8
FCrtYd
62
7
10
137.394
20
-97.536
40
3.4
0
LINE
8
FFab
62
5
10
135.015028
20
-95.8475
11
135.015028
21
-96.4775
0
LINE
8
FFab
62
5
10
134.700028
20
-96.1625
11
135.330028
21
-96.1625
0
CIRCLE
8
FFab
62
5
10
137.394
20
-97.536
40
3.15
0
LINE
8
FCrtYd
62
7
10
186.062
20
-93.704
11
186.062
21
-82.514
0
LINE
8
FCrtYd
62
7
10
199.002
20
-82.514
11
186.062
21
-82.514
0
LINE
8
FCrtYd
62
7
10
186.062
20
-93.704
11
199.002
21
-93.704
0
LINE
8
FCrtYd
62
7
10
199.002
20
-82.514
11
199.002
21
-93.704
0
LINE
8
FFab
62
5
10
196.982
20
-83.724
11
197.612
21
-86.784
0
LINE
8
FFab
62
5
10
192.782
20
-92.394
11
192.782
21
-92.014
0
LINE
8
FFab
62
5
10
192.782
20
-87.004
11
192.782
21
-83.704
0
LINE
8
FFab
62
5
10
189.992
20
-84.084
11
192.782
21
-84.084
0
LINE
8
FFab
62
5
10
193.172
20
-82.764
11
193.172
21
-83.704
0
LINE
8
FFab
62
5
10
188.722
20
-93.454
11
188.472
21
-92.954
0
LINE
8
FFab
62
5
10
195.702
20
-82.764
11
198.752
21
-82.764
0
LINE
8
FFab
62
5
10
189.992
20
-91.624
11
192.782
21
-91.624
0
LINE
8
FFab
62
5
10
193.172
20
-92.954
11
188.472
21
-92.954
0
LINE
8
FFab
62
5
10
192.782
20
-83.324
11
192.782
21
-83.704
0
LINE
8
FFab
62
5
10
188.852
20
-88.704
11
192.022
21
-88.704
0
LINE
8
FFab
62
5
10
192.022
20
-83.704
11
192.022
21
-84.084
0
LINE
8
FFab
62
5
10
188.212
20
-88.324
11
188.212
21
-92.394
0
LINE
8
FFab
62
5
10
186.312
20
-92.394
11
186.312
21
-92.954
0
LINE
8
FFab
62
5
10
193.172
20
-92.014
11
193.172
21
-88.704
0
LINE
8
FFab
62
5
10
189.992
20
-89.084
11
192.782
21
-89.084
0
LINE
8
FFab
62
5
10
188.852
20
-83.704
11
192.022
21
-83.704
0
LINE
8
FFab
62
5
10
192.782
20
-88.324
11
192.782
21
-88.704
0
LINE
8
FFab
62
5
10
188.212
20
-92.394
11
186.312
21
-92.394
0
LINE
8
FFab
62
5
10
186.312
20
-82.764
11
186.312
21
-83.324
0
LINE
8
FFab
62
5
10
188.852
20
-92.014
11
192.022
21
-92.014
0
LINE
8
FFab
62
5
10
192.782
20
-88.704
11
192.782
21
-92.014
0
LINE
8
FFab
62
5
10
193.172
20
-87.004
11
193.172
21
-88.704
0
LINE
8
FFab
62
5
10
188.212
20
-88.324
11
192.782
21
-88.324
0
LINE
8
FFab
62
5
10
189.992
20
-84.084
11
189.992
21
-86.624
0
LINE
8
FFab
62
5
10
192.782
20
-84.084
11
192.782
21
-86.624
0
LINE
8
FFab
62
5
10
192.782
20
-92.394
11
188.212
21
-92.394
0
LINE
8
FFab
62
5
10
187.072
20
-93.454
11
187.322
21
-92.954
0
LINE
8
FFab
62
5
10
186.312
20
-82.764
11
193.172
21
-82.764
0
LINE
8
FFab
62
5
10
193.172
20
-82.764
11
195.702
21
-82.764
0
LINE
8
FFab
62
5
10
188.212
20
-83.324
11
186.312
21
-83.324
0
LINE
8
FFab
62
5
10
193.932
20
-93.454
11
194.182
21
-92.954
0
LINE
8
FFab
62
5
10
198.502
20
-92.394
11
195.962
21
-92.394
0
LINE
8
FFab
62
5
10
187.322
20
-92.954
11
186.312
21
-92.954
0
LINE
8
FFab
62
5
10
189.992
20
-86.624
11
192.782
21
-86.624
0
LINE
8
FFab
62
5
10
198.752
20
-92.954
11
198.752
21
-82.764
0
LINE
8
FFab
62
5
10
195.702
20
-92.954
11
194.182
21
-92.954
0
LINE
8
FFab
62
5
10
193.172
20
-83.704
11
193.172
21
-87.004
0
LINE
8
FFab
62
5
10
196.852
20
-88.864
11
197.482
21
-91.904
0
LINE
8
FFab
62
5
10
188.852
20
-92.014
11
188.852
21
-88.704
0
LINE
8
FFab
62
5
10
186.312
20
-87.384
11
186.312
21
-88.324
0
LINE
8
FFab
62
5
10
186.312
20
-83.324
11
186.312
21
-87.384
0
LINE
8
FFab
62
5
10
192.022
20
-92.014
11
192.022
21
-91.624
0
LINE
8
FFab
62
5
10
194.182
20
-92.954
11
193.172
21
-92.954
0
LINE
8
FFab
62
5
10
188.472
20
-92.954
11
187.322
21
-92.954
0
LINE
8
FFab
62
5
10
189.992
20
-89.084
11
189.992
21
-91.624
0
LINE
8
FFab
62
5
10
188.852
20
-87.004
11
192.022
21
-87.004
0
LINE
8
FFab
62
5
10
198.502
20
-88.324
11
198.502
21
-92.394
0
LINE
8
FFab
62
5
10
188.212
20
-87.384
11
192.782
21
-87.384
0
LINE
8
FFab
62
5
10
186.312
20
-88.324
11
188.212
21
-88.324
0
LINE
8
FFab
62
5
10
195.962
20
-88.324
11
198.502
21
-88.324
0
LINE
8
FFab
62
5
10
195.962
20
-92.394
11
195.962
21
-88.324
0
LINE
8
FFab
62
5
10
195.962
20
-83.324
11
198.502
21
-83.324
0
LINE
8
FFab
62
5
10
193.172
20
-92.954
11
193.172
21
-92.014
0
LINE
8
FFab
62
5
10
198.752
20
-93.454
11
193.932
21
-93.454
0
LINE
8
FFab
62
5
10
192.782
20
-83.324
11
188.212
21
-83.324
0
LINE
8
FFab
62
5
10
198.752
20
-92.954
11
198.752
21
-93.454
0
LINE
8
FFab
62
5
10
186.312
20
-87.384
11
188.212
21
-87.384
0
LINE
8
FFab
62
5
10
192.022
20
-87.004
11
192.022
21
-86.624
0
LINE
8
FFab
62
5
10
195.962
20
-87.384
11
195.962
21
-83.324
0
LINE
8
FFab
62
5
10
188.212
20
-87.384
11
188.212
21
-83.324
0
LINE
8
FFab
62
5
10
198.752
20
-92.954
11
195.702
21
-92.954
0
LINE
8
FFab
62
5
10
195.702
20
-82.764
11
195.702
21
-92.954
0
LINE
8
FFab
62
5
10
196.982
20
-88.734
11
197.612
21
-91.784
0
LINE
8
FFab
62
5
10
198.502
20
-87.384
11
198.502
21
-83.324
0
LINE
8
FFab
62
5
10
188.852
20
-87.004
11
188.852
21
-83.704
0
LINE
8
FFab
62
5
10
196.852
20
-83.854
11
197.482
21
-86.904
0
LINE
8
FFab
62
5
10
192.782
20
-89.084
11
192.782
21
-91.624
0
LINE
8
FFab
62
5
10
188.722
20
-93.454
11
187.072
21
-93.454
0
LINE
8
FFab
62
5
10
186.312
20
-88.324
11
186.312
21
-92.394
0
LINE
8
FFab
62
5
10
192.022
20
-88.704
11
192.022
21
-89.084
0
LINE
8
FFab
62
5
10
195.962
20
-87.384
11
198.502
21
-87.384
0
LINE
8
FFab
62
5
10
192.782
20
-87.384
11
192.782
21
-87.004
0
ARC
8
FFab
62
5
10
197.122
20
-91.374
30
0.0
40
0.686804
50
127.484791
51
36.984791
0
ARC
8
FFab
62
5
10
197.182
20
-84.214
30
0.0
40
0.595399
50
-163.80497
51
-268.00497
0
ARC
8
FFab
62
5
10
198.602
20
-85.404
30
0.0
40
2.442007
50
95.631348
51
171.131348
0
ARC
8
FFab
62
5
10
196.242
20
-90.334
30
0.0
40
2.055262
50
136.106218
51
36.106218
0
ARC
8
FFab
62
5
10
198.602
20
-90.414
30
0.0
40
2.436001
50
55.797633
51
131.297633
0
ARC
8
FFab
62
5
10
197.182
20
-89.214
30
0.0
40
0.595399
50
139.68475
51
35.48475
0
ARC
8
FFab
62
5
10
197.122
20
-86.374
30
0.0
40
0.679412
50
165.127788
51
74.627788
0
ARC
8
FFab
62
5
10
196.242
20
-85.334
30
0.0
40
2.063056
50
-169.400205
51
-269.400205
0
LINE
8
FCrtYd
62
7
10
136.454
20
-63.156
11
133.294
21
-63.156
0
LINE
8
FCrtYd
62
7
10
133.294
20
-58.256
11
136.454
21
-58.256
0
LINE
8
FCrtYd
62
7
10
136.454
20
-58.256
11
136.454
21
-63.156
0
LINE
8
FCrtYd
62
7
10
133.294
20
-63.156
11
133.294
21
-58.256
0
LINE
8
FFab
62
5
10
133.624
20
-62.306
11
133.624
21
-59.106
0
LINE
8
FFab
62
5
10
133.624
20
-59.106
11
136.124
21
-59.106
0
LINE
8
FFab
62
5
10
136.124
20
-59.106
11
136.124
21
-62.306
0
LINE
8
FFab
62
5
10
136.124
20
-62.306
11
133.624
21
-62.306
0
LINE
8
FCrtYd
62
7
10
144.277018
20
-81.414991
11
144.277018
21
-96.864991
0
LINE
8
FCrtYd
62
7
10
144.277018
20
-96.864991
11
149.697018
21
-96.864991
0
LINE
8
FCrtYd
62
7
10
149.697018
20
-96.864991
11
149.697018
21
-81.414991
0
LINE
8
FCrtYd
62
7
10
149.697018
20
-81.414991
11
144.277018
21
-81.414991
0
LINE
8
FFab
62
5
10
149.447018
20
-87.024991
11
148.177018
21
-87.024991
0
LINE
8
FFab
62
5
10
149.447018
20
-81.669991
11
144.647018
21
-81.669991
0
LINE
8
FFab
62
5
10
149.447018
20
-96.609991
11
149.447018
21
-81.669991
0
LINE
8
FFab
62
5
10
144.647018
20
-81.669991
11
144.647018
21
-96.609991
0
LINE
8
FFab
62
5
10
144.647018
20
-96.609991
11
149.447018
21
-96.609991
0
LINE
8
FFab
62
5
10
148.177018
20
-81.669991
11
148.177018
21
-96.609991
0
LINE
8
FFab
62
5
10
149.447018
20
-91.254991
11
148.177018
21
-91.254991
0
LINE
8
FCrtYd
62
7
10
155.758
20
-93.382
11
152.598
21
-93.382
0
LINE
8
FCrtYd
62
7
10
155.758
20
-88.482
11
155.758
21
-93.382
0
LINE
8
FCrtYd
62
7
10
152.598
20
-93.382
11
152.598
21
-88.482
0
LINE
8
FCrtYd
62
7
10
152.598
20
-88.482
11
155.758
21
-88.482
0
LINE
8
FFab
62
5
10
155.428
20
-89.332
11
155.428
21
-92.532
0
LINE
8
FFab
62
5
10
152.928
20
-89.332
11
155.428
21
-89.332
0
LINE
8
FFab
62
5
10
155.428
20
-92.532
11
152.928
21
-92.532
0
LINE
8
FFab
62
5
10
152.928
20
-92.532
11
152.928
21
-89.332
0
LINE
8
FCrtYd
62
7
10
82.516
20
-90.75
11
97.316
21
-90.75
0
LINE
8
FCrtYd
62
7
10
82.516
20
-87.05
11
82.516
21
-90.75
0
LINE
8
FCrtYd
62
7
10
97.316
20
-87.05
11
82.516
21
-87.05
0
LINE
8
FCrtYd
62
7
10
97.316
20
-90.75
11
97.316
21
-87.05
0
LINE
8
FFab
62
5
10
83.566
20
-88.9
11
85.416
21
-88.9
0
LINE
8
FFab
62
5
10
85.416
20
-87.3
11
85.416
21
-90.5
0
LINE
8
FFab
62
5
10
85.416
20
-90.5
11
94.416
21
-90.5
0
LINE
8
FFab
62
5
10
96.266
20
-88.9
11
94.416
21
-88.9
0
LINE
8
FFab
62
5
10
94.416
20
-87.3
11
85.416
21
-87.3
0
LINE
8
FFab
62
5
10
94.416
20
-90.5
11
94.416
21
-87.3
0
LINE
8
FCrtYd
62
7
10
166.95
20
-88.358
11
163.25
21
-88.358
0
LINE
8
FCrtYd
62
7
10
166.95
20
-103.158
11
166.95
21
-88.358
0
LINE
8
FCrtYd
62
7
10
163.25
20
-88.358
11
163.25
21
-103.158
0
LINE
8
FCrtYd
62
7
10
163.25
20
-103.158
11
166.95
21
-103.158
0
LINE
8
FFab
62
5
10
165.1
20
-89.408
11
165.1
21
-91.258
0
LINE
8
FFab
62
5
10
165.1
20
-102.108
11
165.1
21
-100.258
0
LINE
8
FFab
62
5
10
163.5
20
-91.258
11
163.5
21
-100.258
0
LINE
8
FFab
62
5
10
166.7
20
-100.258
11
166.7
21
-91.258
0
LINE
8
FFab
62
5
10
166.7
20
-91.258
11
163.5
21
-91.258
0
LINE
8
FFab
62
5
10
163.5
20
-100.258
11
166.7
21
-100.258
0
LINE
8
FCrtYd
62
7
10
159.964
20
-88.736
11
163.124
21
-88.736
0
LINE
8
FCrtYd
62
7
10
159.964
20
-93.636
11
159.964
21
-88.736
0
LINE
8
FCrtYd
62
7
10
163.124
20
-93.636
11
159.964
21
-93.636
0
LINE
8
FCrtYd
62
7
10
163.124
20
-88.736
11
163.124
21
-93.636
0
LINE
8
FFab
62
5
10
160.294
20
-92.786
11
160.294
21
-89.586
0
LINE
8
FFab
62
5
10
162.794
20
-89.586
11
162.794
21
-92.786
0
LINE
8
FFab
62
5
10
162.794
20
-92.786
11
160.294
21
-92.786
0
LINE
8
FFab
62
5
10
160.294
20
-89.586
11
162.794
21
-89.586
0
LINE
8
FCrtYd
62
7
10
83.8735
20
-106.116
11
88.7735
21
-106.116
0
LINE
8
FCrtYd
62
7
10
83.8735
20
-109.276
11
83.8735
21
-106.116
0
LINE
8
FCrtYd
62
7
10
88.7735
20
-109.276
11
83.8735
21
-109.276
0
LINE
8
FCrtYd
62
7
10
88.7735
20
-106.116
11
88.7735
21
-109.276
0
LINE
8
FFab
62
5
10
87.9235
20
-108.946
11
84.7235
21
-108.946
0
LINE
8
FFab
62
5
10
87.9235
20
-106.446
11
87.9235
21
-108.946
0
LINE
8
FFab
62
5
10
84.7235
20
-108.946
11
84.7235
21
-106.446
0
LINE
8
FFab
62
5
10
84.7235
20
-106.446
11
87.9235
21
-106.446
0
CIRCLE
8
FCrtYd
62
7
10
157.48
20
-62.972
40
3.4
0
LINE
8
FFab
62
5
10
158.8535
20
-60.278028
11
158.8535
21
-60.908028
0
LINE
8
FFab
62
5
10
159.1685
20
-60.593028
11
158.5385
21
-60.593028
0
CIRCLE
8
FFab
62
5
10
157.48
20
-62.972
40
3.15
0
LINE
8
FCrtYd
62
7
10
87.54
20
-83.51
11
87.54
21
-86.67
0
LINE
8
FCrtYd
62
7
10
87.54
20
-86.67
11
82.64
21
-86.67
0
LINE
8
FCrtYd
62
7
10
82.64
20
-86.67
11
82.64
21
-83.51
0
LINE
8
FCrtYd
62
7
10
82.64
20
-83.51
11
87.54
21
-83.51
0
LINE
8
FFab
62
5
10
83.49
20
-83.84
11
86.69
21
-83.84
0
LINE
8
FFab
62
5
10
86.69
20
-83.84
11
86.69
21
-86.34
0
LINE
8
FFab
62
5
10
83.49
20
-86.34
11
83.49
21
-83.84
0
LINE
8
FFab
62
5
10
86.69
20
-86.34
11
83.49
21
-86.34
0
LINE
8
FCrtYd
62
7
10
93.957018
20
-91.778991
11
93.957018
21
-73.498991
0
LINE
8
FCrtYd
62
7
10
93.957018
20
-91.778991
11
140.177018
21
-91.778991
0
LINE
8
FCrtYd
62
7
10
140.177018
20
-73.498991
11
140.177018
21
-91.778991
0
LINE
8
FCrtYd
62
7
10
140.177018
20
-73.498991
11
93.957018
21
-73.498991
0
LINE
8
FFab
62
5
10
94.207018
20
-78.838991
11
104.367018
21
-78.838991
0
LINE
8
FFab
62
5
10
94.207018
20
-86.458991
11
94.207018
21
-78.838991
0
LINE
8
FFab
62
5
10
139.927018
20
-91.538991
11
96.747018
21
-91.538991
0
LINE
8
FFab
62
5
10
96.747018
20
-91.538991
11
96.747018
21
-73.758991
0
LINE
8
FFab
62
5
10
138.657018
20
-73.758991
11
139.927018
21
-75.028991
0
LINE
8
FFab
62
5
10
104.367018
20
-86.458991
11
94.207018
21
-86.458991
0
LINE
8
FFab
62
5
10
96.747018
20
-73.758991
11
138.657018
21
-73.758991
0
LINE
8
FFab
62
5
10
104.367018
20
-78.838991
11
104.367018
21
-86.458991
0
LINE
8
FFab
62
5
10
139.927018
20
-75.028991
11
139.927018
21
-91.538991
0
LINE
8
FCrtYd
62
7
10
105.645018
20
-92.786991
11
105.645018
21
-96.386991
0
LINE
8
FCrtYd
62
7
10
114.295018
20
-92.786991
11
105.645018
21
-92.786991
0
LINE
8
FCrtYd
62
7
10
105.645018
20
-96.386991
11
114.295018
21
-96.386991
0
LINE
8
FCrtYd
62
7
10
114.295018
20
-96.386991
11
114.295018
21
-92.786991
0
LINE
8
FFab
62
5
10
113.130018
20
-93.316991
11
113.765018
21
-93.951991
0
LINE
8
FFab
62
5
10
106.145018
20
-95.856991
11
106.145018
21
-93.316991
0
LINE
8
FFab
62
5
10
106.145018
20
-93.316991
11
113.130018
21
-93.316991
0
LINE
8
FFab
62
5
10
113.765018
20
-93.951991
11
113.765018
21
-95.856991
0
LINE
8
FFab
62
5
10
113.765018
20
-95.856991
11
106.145018
21
-95.856991
0
LINE
8
FCrtYd
62
7
10
151.956
20
-60.426
11
142.156
21
-60.426
0
LINE
8
FCrtYd
62
7
10
142.156
20
-66.076
11
151.956
21
-66.076
0
LINE
8
FCrtYd
62
7
10
151.956
20
-66.076
11
151.956
21
-60.426
0
LINE
8
FCrtYd
62
7
10
142.156
20
-60.426
11
142.156
21
-66.076
0
LINE
8
FFab
62
5
10
143.891
20
-61.706
11
144.891
21
-60.706
0
LINE
8
FFab
62
5
10
150.241
20
-60.706
11
150.241
21
-65.786
0
LINE
8
FFab
62
5
10
150.241
20
-65.786
11
143.891
21
-65.786
0
LINE
8
FFab
62
5
10
143.891
20
-65.786
11
143.891
21
-61.706
0
LINE
8
FFab
62
5
10
144.891
20
-60.706
11
150.241
21
-60.706
0
LINE
8
FCrtYd
62
7
10
159.584
20
-88.358
11
155.884
21
-88.358
0
LINE
8
FCrtYd
62
7
10
155.884
20
-103.158
11
159.584
21
-103.158
0
LINE
8
FCrtYd
62
7
10
155.884
20
-88.358
11
155.884
21
-103.158
0
LINE
8
FCrtYd
62
7
10
159.584
20
-103.158
11
159.584
21
-88.358
0
LINE
8
FFab
62
5
10
157.734
20
-102.108
11
157.734
21
-100.258
0
LINE
8
FFab
62
5
10
156.134
20
-100.258
11
159.334
21
-100.258
0
LINE
8
FFab
62
5
10
159.334
20
-91.258
11
156.134
21
-91.258
0
LINE
8
FFab
62
5
10
159.334
20
-100.258
11
159.334
21
-91.258
0
LINE
8
FFab
62
5
10
157.734
20
-89.408
11
157.734
21
-91.258
0
LINE
8
FFab
62
5
10
156.134
20
-91.258
11
156.134
21
-100.258
0
LINE
8
FCrtYd
62
7
10
82.64
20
-75.636
11
87.54
21
-75.636
0
LINE
8
FCrtYd
62
7
10
82.64
20
-78.796
11
82.64
21
-75.636
0
LINE
8
FCrtYd
62
7
10
87.54
20
-75.636
11
87.54
21
-78.796
0
LINE
8
FCrtYd
62
7
10
87.54
20
-78.796
11
82.64
21
-78.796
0
LINE
8
FFab
62
5
10
83.49
20
-78.466
11
83.49
21
-75.966
0
LINE
8
FFab
62
5
10
86.69
20
-75.966
11
86.69
21
-78.466
0
LINE
8
FFab
62
5
10
83.49
20
-75.966
11
86.69
21
-75.966
0
LINE
8
FFab
62
5
10
86.69
20
-78.466
11
83.49
21
-78.466
0
LINE
8
FCrtYd
62
7
10
97.316
20
-64.698
11
82.516
21
-64.698
0
LINE
8
FCrtYd
62
7
10
82.516
20
-68.398
11
97.316
21
-68.398
0
LINE
8
FCrtYd
62
7
10
97.316
20
-68.398
11
97.316
21
-64.698
0
LINE
8
FCrtYd
62
7
10
82.516
20
-64.698
11
82.516
21
-68.398
0
LINE
8
FFab
62
5
10
85.416
20
-68.148
11
94.416
21
-68.148
0
LINE
8
FFab
62
5
10
83.566
20
-66.548
11
85.416
21
-66.548
0
LINE
8
FFab
62
5
10
94.416
20
-68.148
11
94.416
21
-64.948
0
LINE
8
FFab
62
5
10
96.266
20
-66.548
11
94.416
21
-66.548
0
LINE
8
FFab
62
5
10
94.416
20
-64.948
11
85.416
21
-64.948
0
LINE
8
FFab
62
5
10
85.416
20
-64.948
11
85.416
21
-68.148
0
LINE
8
FCrtYd
62
7
10
82.64
20
-90.876
11
87.54
21
-90.876
0
LINE
8
FCrtYd
62
7
10
82.64
20
-94.036
11
82.64
21
-90.876
0
LINE
8
FCrtYd
62
7
10
87.54
20
-94.036
11
82.64
21
-94.036
0
LINE
8
FCrtYd
62
7
10
87.54
20
-90.876
11
87.54
21
-94.036
0
LINE
8
FFab
62
5
10
83.49
20
-91.206
11
86.69
21
-91.206
0
LINE
8
FFab
62
5
10
86.69
20
-91.206
11
86.69
21
-93.706
0
LINE
8
FFab
62
5
10
83.49
20
-93.706
11
83.49
21
-91.206
0
LINE
8
FFab
62
5
10
86.69
20
-93.706
11
83.49
21
-93.706
0
LINE
8
FCrtYd
62
7
10
136.58
20
-58.132
11
136.58
21
-72.932
0
LINE
8
FCrtYd
62
7
10
136.58
20
-72.932
11
140.28
21
-72.932
0
LINE
8
FCrtYd
62
7
10
140.28
20
-72.932
11
140.28
21
-58.132
0
LINE
8
FCrtYd
62
7
10
140.28
20
-58.132
11
136.58
21
-58.132
0
LINE
8
FFab
62
5
10
140.03
20
-70.032
11
140.03
21
-61.032
0
LINE
8
FFab
62
5
10
136.83
20
-61.032
11
136.83
21
-70.032
0
LINE
8
FFab
62
5
10
138.43
20
-59.182
11
138.43
21
-61.032
0
LINE
8
FFab
62
5
10
138.43
20
-71.882
11
138.43
21
-70.032
0
LINE
8
FFab
62
5
10
136.83
20
-70.032
11
140.03
21
-70.032
0
LINE
8
FFab
62
5
10
140.03
20
-61.032
11
136.83
21
-61.032
0
LINE
8
FCrtYd
62
7
10
149.45
20
-107.866
11
149.45
21
-97.366
0
LINE
8
FCrtYd
62
7
10
144.54
20
-97.366
11
144.54
21
-107.866
0
LINE
8
FCrtYd
62
7
10
149.45
20
-97.366
11
144.54
21
-97.366
0
LINE
8
FCrtYd
62
7
10
144.54
20
-107.866
11
149.45
21
-107.866
0
LINE
8
FFab
62
5
10
149.2
20
-107.616
11
149.2
21
-97.616
0
LINE
8
FFab
62
5
10
149.2
20
-104.466
11
147.93
21
-104.466
0
LINE
8
FFab
62
5
10
144.8
20
-97.616
11
144.8
21
-107.616
0
LINE
8
FFab
62
5
10
147.93
20
-97.616
11
147.93
21
-107.616
0
LINE
8
FFab
62
5
10
144.8
20
-107.616
11
149.2
21
-107.616
0
LINE
8
FFab
62
5
10
149.2
20
-100.766
11
147.93
21
-100.766
0
LINE
8
FFab
62
5
10
149.2
20
-97.616
11
144.8
21
-97.616
0
LINE
8
FCrtYd
62
7
10
82.516
20
-79.684
11
82.516
21
-83.384
0
LINE
8
FCrtYd
62
7
10
97.316
20
-79.684
11
82.516
21
-79.684
0
LINE
8
FCrtYd
62
7
10
82.516
20
-83.384
11
97.316
21
-83.384
0
LINE
8
FCrtYd
62
7
10
97.316
20
-83.384
11
97.316
21
-79.684
0
LINE
8
FFab
62
5
10
94.416
20
-83.134
11
94.416
21
-79.934
0
LINE
8
FFab
62
5
10
94.416
20
-79.934
11
85.416
21
-79.934
0
LINE
8
FFab
62
5
10
85.416
20
-83.134
11
94.416
21
-83.134
0
LINE
8
FFab
62
5
10
96.266
20
-81.534
11
94.416
21
-81.534
0
LINE
8
FFab
62
5
10
85.416
20
-79.934
11
85.416
21
-83.134
0
LINE
8
FFab
62
5
10
83.566
20
-81.534
11
85.416
21
-81.534
0
LINE
8
FCrtYd
62
7
10
96.486
20
-105.99
11
111.286
21
-105.99
0
LINE
8
FCrtYd
62
7
10
96.486
20
-102.29
11
96.486
21
-105.99
0
LINE
8
FCrtYd
62
7
10
111.286
20
-105.99
11
111.286
21
-102.29
0
LINE
8
FCrtYd
62
7
10
111.286
20
-102.29
11
96.486
21
-102.29
0
LINE
8
FFab
62
5
10
97.536
20
-104.14
11
99.386
21
-104.14
0
LINE
8
FFab
62
5
10
108.386
20
-102.54
11
99.386
21
-102.54
0
LINE
8
FFab
62
5
10
99.386
20
-102.54
11
99.386
21
-105.74
0
LINE
8
FFab
62
5
10
99.386
20
-105.74
11
108.386
21
-105.74
0
LINE
8
FFab
62
5
10
110.236
20
-104.14
11
108.386
21
-104.14
0
LINE
8
FFab
62
5
10
108.386
20
-105.74
11
108.386
21
-102.54
0
LINE
8
FCrtYd
62
7
10
97.316
20
-71.81
11
82.516
21
-71.81
0
LINE
8
FCrtYd
62
7
10
82.516
20
-75.51
11
97.316
21
-75.51
0
LINE
8
FCrtYd
62
7
10
82.516
20
-71.81
11
82.516
21
-75.51
0
LINE
8
FCrtYd
62
7
10
97.316
20
-75.51
11
97.316
21
-71.81
0
LINE
8
FFab
62
5
10
83.566
20
-73.66
11
85.416
21
-73.66
0
LINE
8
FFab
62
5
10
85.416
20
-75.26
11
94.416
21
-75.26
0
LINE
8
FFab
62
5
10
94.416
20
-75.26
11
94.416
21
-72.06
0
LINE
8
FFab
62
5
10
85.416
20
-72.06
11
85.416
21
-75.26
0
LINE
8
FFab
62
5
10
94.416
20
-72.06
11
85.416
21
-72.06
0
LINE
8
FFab
62
5
10
96.266
20
-73.66
11
94.416
21
-73.66
0
LINE
8
FCrtYd
62
7
10
82.64
20
-71.684
11
82.64
21
-68.524
0
LINE
8
FCrtYd
62
7
10
87.54
20
-68.524
11
87.54
21
-71.684
0
LINE
8
FCrtYd
62
7
10
87.54
20
-71.684
11
82.64
21
-71.684
0
LINE
8
FCrtYd
62
7
10
82.64
20
-68.524
11
87.54
21
-68.524
0
LINE
8
FFab
62
5
10
86.69
20
-68.854
11
86.69
21
-71.354
0
LINE
8
FFab
62
5
10
83.49
20
-68.854
11
86.69
21
-68.854
0
LINE
8
FFab
62
5
10
83.49
20
-71.354
11
83.49
21
-68.854
0
LINE
8
FFab
62
5
10
86.69
20
-71.354
11
83.49
21
-71.354
0
LINE
8
FCrtYd
62
7
10
147.298
20
-115.182
11
136.108
21
-115.182
0
LINE
8
FCrtYd
62
7
10
136.108
20
-102.242
11
147.298
21
-102.242
0
LINE
8
FCrtYd
62
7
10
147.298
20
-115.182
11
147.298
21
-102.242
0
LINE
8
FCrtYd
62
7
10
136.108
20
-102.242
11
136.108
21
-115.182
0
LINE
8
FFab
62
5
10
147.048
20
-112.522
11
146.548
21
-112.772
0
LINE
8
FFab
62
5
10
141.918
20
-108.462
11
142.298
21
-108.462
0
LINE
8
FFab
62
5
10
136.358
20
-108.072
11
136.358
21
-105.542
0
LINE
8
FFab
62
5
10
142.458
20
-104.392
11
145.498
21
-103.762
0
LINE
8
FFab
62
5
10
142.678
20
-111.252
11
145.218
21
-111.252
0
LINE
8
FFab
62
5
10
147.048
20
-112.522
11
147.048
21
-114.172
0
LINE
8
FFab
62
5
10
141.918
20
-105.282
11
141.918
21
-102.742
0
LINE
8
FFab
62
5
10
136.358
20
-108.072
11
137.298
21
-108.072
0
LINE
8
FFab
62
5
10
136.918
20
-105.282
11
136.918
21
-102.742
0
LINE
8
FFab
62
5
10
146.548
20
-112.772
11
146.548
21
-113.922
0
LINE
8
FFab
62
5
10
141.918
20
-114.932
11
145.988
21
-114.932
0
LINE
8
FFab
62
5
10
141.918
20
-114.932
11
141.918
21
-113.032
0
LINE
8
FFab
62
5
10
137.298
20
-109.222
11
137.678
21
-109.222
0
LINE
8
FFab
62
5
10
137.678
20
-108.462
11
140.218
21
-108.462
0
LINE
8
FFab
62
5
10
136.358
20
-105.542
11
136.358
21
-102.492
0
LINE
8
FFab
62
5
10
145.988
20
-105.282
11
141.918
21
-105.282
0
LINE
8
FFab
62
5
10
137.448
20
-104.392
11
140.498
21
-103.762
0
LINE
8
FFab
62
5
10
136.918
20
-108.462
11
137.298
21
-108.462
0
LINE
8
FFab
62
5
10
147.048
20
-114.172
11
146.548
21
-113.922
0
LINE
8
FFab
62
5
10
147.048
20
-107.312
11
146.548
21
-107.062
0
LINE
8
FFab
62
5
10
136.918
20
-113.032
11
136.918
21
-114.932
0
LINE
8
FFab
62
5
10
136.358
20
-114.932
11
136.918
21
-114.932
0
LINE
8
FFab
62
5
10
136.918
20
-114.932
11
140.978
21
-114.932
0
LINE
8
FFab
62
5
10
142.328
20
-104.262
11
145.378
21
-103.632
0
LINE
8
FFab
62
5
10
140.598
20
-109.222
11
140.218
21
-109.222
0
LINE
8
FFab
62
5
10
140.978
20
-105.282
11
136.918
21
-105.282
0
LINE
8
FFab
62
5
10
140.978
20
-113.032
11
140.978
21
-108.462
0
LINE
8
FFab
62
5
10
142.298
20
-109.222
11
142.678
21
-109.222
0
LINE
8
FFab
62
5
10
140.978
20
-114.932
11
141.918
21
-114.932
0
LINE
8
FFab
62
5
10
140.978
20
-102.742
11
136.918
21
-102.742
0
LINE
8
FFab
62
5
10
145.988
20
-113.032
11
145.988
21
-114.932
0
LINE
8
FFab
62
5
10
145.608
20
-108.072
11
142.298
21
-108.072
0
LINE
8
FFab
62
5
10
142.678
20
-108.462
11
145.218
21
-108.462
0
LINE
8
FFab
62
5
10
146.548
20
-102.492
11
146.548
21
-105.542
0
LINE
8
FFab
62
5
10
141.918
20
-113.032
11
145.988
21
-113.032
0
LINE
8
FFab
62
5
10
142.298
20
-112.392
11
142.298
21
-109.222
0
LINE
8
FFab
62
5
10
146.548
20
-102.492
11
147.048
21
-102.492
0
LINE
8
FFab
62
5
10
136.358
20
-105.542
11
146.548
21
-105.542
0
LINE
8
FFab
62
5
10
142.298
20
-108.462
11
145.608
21
-108.462
0
LINE
8
FFab
62
5
10
137.298
20
-112.392
11
137.298
21
-109.222
0
LINE
8
FFab
62
5
10
145.608
20
-112.392
11
142.298
21
-112.392
0
LINE
8
FFab
62
5
10
145.608
20
-112.392
11
145.608
21
-109.222
0
LINE
8
FFab
62
5
10
136.918
20
-108.462
11
136.918
21
-113.032
0
LINE
8
FFab
62
5
10
145.608
20
-109.222
11
145.218
21
-109.222
0
LINE
8
FFab
62
5
10
146.548
20
-113.922
11
146.548
21
-114.932
0
LINE
8
FFab
62
5
10
141.918
20
-113.032
11
141.918
21
-108.462
0
LINE
8
FFab
62
5
10
146.548
20
-102.492
11
136.358
21
-102.492
0
LINE
8
FFab
62
5
10
137.678
20
-111.252
11
137.678
21
-108.462
0
LINE
8
FFab
62
5
10
145.988
20
-108.462
11
145.988
21
-113.032
0
LINE
8
FFab
62
5
10
145.988
20
-102.742
11
145.988
21
-105.282
0
LINE
8
FFab
62
5
10
137.298
20
-108.072
11
140.598
21
-108.072
0
LINE
8
FFab
62
5
10
140.978
20
-114.932
11
140.978
21
-113.032
0
LINE
8
FFab
62
5
10
141.918
20
-102.742
11
145.988
21
-102.742
0
LINE
8
FFab
62
5
10
140.218
20
-111.252
11
140.218
21
-108.462
0
LINE
8
FFab
62
5
10
140.978
20
-105.282
11
140.978
21
-102.742
0
LINE
8
FFab
62
5
10
137.318
20
-104.262
11
140.378
21
-103.632
0
LINE
8
FFab
62
5
10
140.598
20
-108.462
11
137.298
21
-108.462
0
LINE
8
FFab
62
5
10
146.548
20
-107.062
11
146.548
21
-108.072
0
LINE
8
FFab
62
5
10
145.988
20
-114.932
11
146.548
21
-114.932
0
LINE
8
FFab
62
5
10
145.988
20
-108.462
11
145.608
21
-108.462
0
LINE
8
FFab
62
5
10
140.598
20
-108.072
11
142.298
21
-108.072
0
LINE
8
FFab
62
5
10
140.598
20
-112.392
11
140.598
21
-109.222
0
LINE
8
FFab
62
5
10
140.598
20
-112.392
11
137.298
21
-112.392
0
LINE
8
FFab
62
5
10
142.678
20
-111.252
11
142.678
21
-108.462
0
LINE
8
FFab
62
5
10
145.218
20
-111.252
11
145.218
21
-108.462
0
LINE
8
FFab
62
5
10
140.978
20
-108.462
11
140.598
21
-108.462
0
LINE
8
FFab
62
5
10
146.548
20
-108.072
11
146.548
21
-112.772
0
LINE
8
FFab
62
5
10
146.548
20
-108.072
11
145.608
21
-108.072
0
LINE
8
FFab
62
5
10
146.548
20
-105.542
11
146.548
21
-107.062
0
LINE
8
FFab
62
5
10
137.678
20
-111.252
11
140.218
21
-111.252
0
LINE
8
FFab
62
5
10
147.048
20
-102.492
11
147.048
21
-107.312
0
LINE
8
FFab
62
5
10
140.978
20
-113.032
11
136.918
21
-113.032
0
LINE
8
FFab
62
5
10
136.358
20
-114.932
11
136.358
21
-108.072
0
ARC
8
FFab
62
5
10
143.928
20
-105.002
30
0.0
40
2.055262
50
-133.893782
51
-233.893782
0
ARC
8
FFab
62
5
10
142.808
20
-104.062
30
0.0
40
0.595399
50
-130.31525
51
-234.51525
0
ARC
8
FFab
62
5
10
144.008
20
-102.642
30
0.0
40
2.436001
50
-138.702367
51
-214.202367
0
ARC
8
FFab
62
5
10
138.998
20
-102.642
30
0.0
40
2.442007
50
-98.868652
51
-174.368652
0
ARC
8
FFab
62
5
10
137.808
20
-104.062
30
0.0
40
0.595399
50
-73.80497
51
-178.00497
0
ARC
8
FFab
62
5
10
144.968
20
-104.122
30
0.0
40
0.686804
50
-142.515209
51
-233.015209
0
ARC
8
FFab
62
5
10
139.968
20
-104.122
30
0.0
40
0.679412
50
-104.872212
51
-195.372212
0
ARC
8
FFab
62
5
10
138.928
20
-105.002
30
0.0
40
2.063056
50
-79.400205
51
-179.400205
0
LINE
8
BCrtYd
62
8
10
100.572
20
-101.882
11
114.272
21
-101.882
0
LINE
8
BCrtYd
62
8
10
114.272
20
-114.182
11
100.572
21
-114.182
0
LINE
8
BCrtYd
62
8
10
100.572
20
-114.182
11
100.572
21
-101.882
0
LINE
8
BCrtYd
62
8
10
114.272
20
-101.882
11
114.272
21
-114.182
0
LINE
8
BFab
62
6
10
104.602
20
-103.632
11
105.202
21
-103.632
0
LINE
8
BFab
62
6
10
107.742
20
-103.632
11
107.742
21
-105.152
0
LINE
8
BFab
62
6
10
110.282
20
-103.632
11
110.282
21
-105.152
0
LINE
8
BFab
62
6
10
102.662
20
-103.632
11
102.662
21
-105.152
0
LINE
8
BFab
62
6
10
112.222
20
-105.152
11
112.222
21
-103.632
0
LINE
8
BFab
62
6
10
113.792
20
-113.662
11
113.792
21
-106.122
0
LINE
8
BFab
62
6
10
112.822
20
-105.152
11
101.092
21
-105.152
0
LINE
8
BFab
62
6
10
109.682
20
-105.152
11
109.682
21
-103.632
0
LINE
8
BFab
62
6
10
101.092
20
-113.662
11
113.792
21
-113.662
0
LINE
8
BFab
62
6
10
102.062
20
-103.632
11
102.662
21
-103.632
0
LINE
8
BFab
62
6
10
107.142
20
-103.632
11
107.742
21
-103.632
0
LINE
8
BFab
62
6
10
112.222
20
-103.632
11
112.822
21
-103.632
0
LINE
8
BFab
62
6
10
102.062
20
-105.152
11
102.062
21
-103.632
0
LINE
8
BFab
62
6
10
112.822
20
-103.632
11
112.822
21
-105.152
0
LINE
8
BFab
62
6
10
113.792
20
-106.122
11
112.822
21
-105.152
0
LINE
8
BFab
62
6
10
109.682
20
-103.632
11
110.282
21
-103.632
0
LINE
8
BFab
62
6
10
104.602
20
-105.152
11
104.602
21
-103.632
0
LINE
8
BFab
62
6
10
107.142
20
-105.152
11
107.142
21
-103.632
0
LINE
8
BFab
62
6
10
101.092
20
-105.152
11
101.092
21
-113.662
0
LINE
8
BFab
62
6
10
105.202
20
-103.632
11
105.202
21
-105.152
0
LINE
8
BCrtYd
62
8
10
116.774
20
-109.49
11
116.774
21
-98.79
0
LINE
8
BCrtYd
62
8
10
127.574
20
-109.49
11
116.774
21
-109.49
0
LINE
8
BCrtYd
62
8
10
116.774
20
-98.79
11
127.574
21
-98.79
0
LINE
8
BCrtYd
62
8
10
127.574
20
-98.79
11
127.574
21
-109.49
0
LINE
8
BFab
62
6
10
117.034
20
-99.06
11
127.314
21
-99.06
0
LINE
8
BFab
62
6
10
127.314
20
-109.22
11
117.034
21
-109.22
0
LINE
8
BFab
62
6
10
117.034
20
-109.22
11
117.034
21
-99.06
0
LINE
8
BFab
62
6
10
126.254
20
-107.315
11
127.254
21
-106.315
0
LINE
8
BFab
62
6
10
127.254
20
-100.965
11
117.094
21
-100.965
0
LINE
8
BFab
62
6
10
127.254
20
-106.315
11
127.254
21
-100.965
0
LINE
8
BFab
62
6
10
117.094
20
-107.315
11
126.254
21
-107.315
0
LINE
8
BFab
62
6
10
127.314
20
-99.06
11
127.314
21
-109.22
0
LINE
8
BFab
62
6
10
117.094
20
-100.965
11
117.094
21
-107.315
0
LINE
8
BCrtYd
62
8
10
55.374
20
-62.694
11
177.874
21
-62.694
0
LINE
8
BCrtYd
62
8
10
177.874
20
-62.694
11
177.874
21
-18.194
0
LINE
8
BCrtYd
62
8
10
55.374
20
-62.694
11
55.374
21
-18.194
0
LINE
8
BCrtYd
62
8
10
55.374
20
-18.194
11
177.874
21
-18.194
0
LINE
8
BFab
62
6
10
55.624
20
-18.444
11
177.624
21
-18.444
0
LINE
8
BFab
62
6
10
177.624
20
-18.444
11
177.624
21
-62.444
0
LINE
8
BFab
62
6
10
55.624
20
-62.444
11
55.624
21
-18.444
0
LINE
8
BFab
62
6
10
128.524
20
-61.444
11
127.524
21
-62.444
0
LINE
8
BFab
62
6
10
177.624
20
-62.444
11
129.524
21
-62.444
0
LINE
8
BFab
62
6
10
127.524
20
-62.444
11
55.624
21
-62.444
0
LINE
8
BFab
62
6
10
129.524
20
-62.444
11
128.524
21
-61.444
0
LINE
8
BFab
62
6
10
77.724
20
-54.61
11
77.724
21
-47.927579
0
LINE
8
BFab
62
6
10
203.708
20
-54.61
11
203.708
21
-47.927579
0
LINE
8
BFab
62
6
10
203.708
20
-48.514
11
77.724
21
-48.514
0
LINE
8
BFab
62
6
10
77.724
20
-48.514
11
78.850504
21
-47.927579
0
LINE
8
BFab
62
6
10
77.724
20
-48.514
11
78.850504
21
-49.100421
0
LINE
8
BFab
62
6
10
203.708
20
-48.514
11
202.581496
21
-47.927579
0
LINE
8
BFab
62
6
10
203.708
20
-48.514
11
202.581496
21
-49.100421
0
LINE
8
BFab
62
6
10
203.708
20
-116.078
11
205.818421
21
-116.078
0
LINE
8
BFab
62
6
10
203.708
20
-54.61
11
205.818421
21
-54.61
0
LINE
8
BFab
62
6
10
205.232
20
-54.61
11
205.232
21
-116.078
0
LINE
8
BFab
62
6
10
205.232
20
-116.078
11
204.645579
21
-114.951496
0
LINE
8
BFab
62
6
10
205.232
20
-116.078
11
205.818421
21
-114.951496
0
LINE
8
BFab
62
6
10
205.232
20
-54.61
11
204.645579
21
-55.736504
0
LINE
8
BFab
62
6
10
205.232
20
-54.61
11
205.818421
21
-55.736504
0
ENDSEC
0
EOF
