%TF.GenerationSoftware,KiCad,Pcbnew,7.0.2*%
%TF.CreationDate,2023-05-13T16:33:46+02:00*%
%TF.ProjectId,pid_controller,7069645f-636f-46e7-9472-6f6c6c65722e,2.0*%
%TF.SameCoordinates,Original*%
%TF.FileFunction,Legend,Bot*%
%TF.FilePolarity,Positive*%
%FSLAX46Y46*%
G04 Gerber Fmt 4.6, Leading zero omitted, Abs format (unit mm)*
G04 Created by KiCad (PCBNEW 7.0.2) date 2023-05-13 16:33:46*
%MOMM*%
%LPD*%
G01*
G04 APERTURE LIST*
%ADD10C,0.300000*%
%ADD11C,0.150000*%
%ADD12C,0.120000*%
G04 APERTURE END LIST*
D10*
X174117142Y-134912857D02*
X174260000Y-134841428D01*
X174260000Y-134841428D02*
X174474285Y-134841428D01*
X174474285Y-134841428D02*
X174688571Y-134912857D01*
X174688571Y-134912857D02*
X174831428Y-135055714D01*
X174831428Y-135055714D02*
X174902857Y-135198571D01*
X174902857Y-135198571D02*
X174974285Y-135484285D01*
X174974285Y-135484285D02*
X174974285Y-135698571D01*
X174974285Y-135698571D02*
X174902857Y-135984285D01*
X174902857Y-135984285D02*
X174831428Y-136127142D01*
X174831428Y-136127142D02*
X174688571Y-136270000D01*
X174688571Y-136270000D02*
X174474285Y-136341428D01*
X174474285Y-136341428D02*
X174331428Y-136341428D01*
X174331428Y-136341428D02*
X174117142Y-136270000D01*
X174117142Y-136270000D02*
X174045714Y-136198571D01*
X174045714Y-136198571D02*
X174045714Y-135698571D01*
X174045714Y-135698571D02*
X174331428Y-135698571D01*
X173402857Y-136341428D02*
X173402857Y-134841428D01*
X173402857Y-134841428D02*
X172545714Y-136341428D01*
X172545714Y-136341428D02*
X172545714Y-134841428D01*
X171831428Y-136341428D02*
X171831428Y-134841428D01*
X171831428Y-134841428D02*
X171474285Y-134841428D01*
X171474285Y-134841428D02*
X171259999Y-134912857D01*
X171259999Y-134912857D02*
X171117142Y-135055714D01*
X171117142Y-135055714D02*
X171045713Y-135198571D01*
X171045713Y-135198571D02*
X170974285Y-135484285D01*
X170974285Y-135484285D02*
X170974285Y-135698571D01*
X170974285Y-135698571D02*
X171045713Y-135984285D01*
X171045713Y-135984285D02*
X171117142Y-136127142D01*
X171117142Y-136127142D02*
X171259999Y-136270000D01*
X171259999Y-136270000D02*
X171474285Y-136341428D01*
X171474285Y-136341428D02*
X171831428Y-136341428D01*
X173632857Y-138119428D02*
X173632857Y-136619428D01*
X173632857Y-137333714D02*
X172775714Y-137333714D01*
X172775714Y-138119428D02*
X172775714Y-136619428D01*
X171489999Y-138048000D02*
X171632856Y-138119428D01*
X171632856Y-138119428D02*
X171918571Y-138119428D01*
X171918571Y-138119428D02*
X172061428Y-138048000D01*
X172061428Y-138048000D02*
X172132856Y-137905142D01*
X172132856Y-137905142D02*
X172132856Y-137333714D01*
X172132856Y-137333714D02*
X172061428Y-137190857D01*
X172061428Y-137190857D02*
X171918571Y-137119428D01*
X171918571Y-137119428D02*
X171632856Y-137119428D01*
X171632856Y-137119428D02*
X171489999Y-137190857D01*
X171489999Y-137190857D02*
X171418571Y-137333714D01*
X171418571Y-137333714D02*
X171418571Y-137476571D01*
X171418571Y-137476571D02*
X172132856Y-137619428D01*
X170132857Y-138119428D02*
X170132857Y-137333714D01*
X170132857Y-137333714D02*
X170204285Y-137190857D01*
X170204285Y-137190857D02*
X170347142Y-137119428D01*
X170347142Y-137119428D02*
X170632857Y-137119428D01*
X170632857Y-137119428D02*
X170775714Y-137190857D01*
X170132857Y-138048000D02*
X170275714Y-138119428D01*
X170275714Y-138119428D02*
X170632857Y-138119428D01*
X170632857Y-138119428D02*
X170775714Y-138048000D01*
X170775714Y-138048000D02*
X170847142Y-137905142D01*
X170847142Y-137905142D02*
X170847142Y-137762285D01*
X170847142Y-137762285D02*
X170775714Y-137619428D01*
X170775714Y-137619428D02*
X170632857Y-137548000D01*
X170632857Y-137548000D02*
X170275714Y-137548000D01*
X170275714Y-137548000D02*
X170132857Y-137476571D01*
X169632856Y-137119428D02*
X169061428Y-137119428D01*
X169418571Y-136619428D02*
X169418571Y-137905142D01*
X169418571Y-137905142D02*
X169347142Y-138048000D01*
X169347142Y-138048000D02*
X169204285Y-138119428D01*
X169204285Y-138119428D02*
X169061428Y-138119428D01*
X167989999Y-138048000D02*
X168132856Y-138119428D01*
X168132856Y-138119428D02*
X168418571Y-138119428D01*
X168418571Y-138119428D02*
X168561428Y-138048000D01*
X168561428Y-138048000D02*
X168632856Y-137905142D01*
X168632856Y-137905142D02*
X168632856Y-137333714D01*
X168632856Y-137333714D02*
X168561428Y-137190857D01*
X168561428Y-137190857D02*
X168418571Y-137119428D01*
X168418571Y-137119428D02*
X168132856Y-137119428D01*
X168132856Y-137119428D02*
X167989999Y-137190857D01*
X167989999Y-137190857D02*
X167918571Y-137333714D01*
X167918571Y-137333714D02*
X167918571Y-137476571D01*
X167918571Y-137476571D02*
X168632856Y-137619428D01*
X167275714Y-138119428D02*
X167275714Y-137119428D01*
X167275714Y-137405142D02*
X167204285Y-137262285D01*
X167204285Y-137262285D02*
X167132857Y-137190857D01*
X167132857Y-137190857D02*
X166989999Y-137119428D01*
X166989999Y-137119428D02*
X166847142Y-137119428D01*
D11*
%TO.C,R9*%
X100496666Y-117810619D02*
X100829999Y-117334428D01*
X101068094Y-117810619D02*
X101068094Y-116810619D01*
X101068094Y-116810619D02*
X100687142Y-116810619D01*
X100687142Y-116810619D02*
X100591904Y-116858238D01*
X100591904Y-116858238D02*
X100544285Y-116905857D01*
X100544285Y-116905857D02*
X100496666Y-117001095D01*
X100496666Y-117001095D02*
X100496666Y-117143952D01*
X100496666Y-117143952D02*
X100544285Y-117239190D01*
X100544285Y-117239190D02*
X100591904Y-117286809D01*
X100591904Y-117286809D02*
X100687142Y-117334428D01*
X100687142Y-117334428D02*
X101068094Y-117334428D01*
X100020475Y-117810619D02*
X99829999Y-117810619D01*
X99829999Y-117810619D02*
X99734761Y-117763000D01*
X99734761Y-117763000D02*
X99687142Y-117715380D01*
X99687142Y-117715380D02*
X99591904Y-117572523D01*
X99591904Y-117572523D02*
X99544285Y-117382047D01*
X99544285Y-117382047D02*
X99544285Y-117001095D01*
X99544285Y-117001095D02*
X99591904Y-116905857D01*
X99591904Y-116905857D02*
X99639523Y-116858238D01*
X99639523Y-116858238D02*
X99734761Y-116810619D01*
X99734761Y-116810619D02*
X99925237Y-116810619D01*
X99925237Y-116810619D02*
X100020475Y-116858238D01*
X100020475Y-116858238D02*
X100068094Y-116905857D01*
X100068094Y-116905857D02*
X100115713Y-117001095D01*
X100115713Y-117001095D02*
X100115713Y-117239190D01*
X100115713Y-117239190D02*
X100068094Y-117334428D01*
X100068094Y-117334428D02*
X100020475Y-117382047D01*
X100020475Y-117382047D02*
X99925237Y-117429666D01*
X99925237Y-117429666D02*
X99734761Y-117429666D01*
X99734761Y-117429666D02*
X99639523Y-117382047D01*
X99639523Y-117382047D02*
X99591904Y-117334428D01*
X99591904Y-117334428D02*
X99544285Y-117239190D01*
%TO.C,R13*%
X108592857Y-117556619D02*
X108926190Y-117080428D01*
X109164285Y-117556619D02*
X109164285Y-116556619D01*
X109164285Y-116556619D02*
X108783333Y-116556619D01*
X108783333Y-116556619D02*
X108688095Y-116604238D01*
X108688095Y-116604238D02*
X108640476Y-116651857D01*
X108640476Y-116651857D02*
X108592857Y-116747095D01*
X108592857Y-116747095D02*
X108592857Y-116889952D01*
X108592857Y-116889952D02*
X108640476Y-116985190D01*
X108640476Y-116985190D02*
X108688095Y-117032809D01*
X108688095Y-117032809D02*
X108783333Y-117080428D01*
X108783333Y-117080428D02*
X109164285Y-117080428D01*
X107640476Y-117556619D02*
X108211904Y-117556619D01*
X107926190Y-117556619D02*
X107926190Y-116556619D01*
X107926190Y-116556619D02*
X108021428Y-116699476D01*
X108021428Y-116699476D02*
X108116666Y-116794714D01*
X108116666Y-116794714D02*
X108211904Y-116842333D01*
X107307142Y-116556619D02*
X106688095Y-116556619D01*
X106688095Y-116556619D02*
X107021428Y-116937571D01*
X107021428Y-116937571D02*
X106878571Y-116937571D01*
X106878571Y-116937571D02*
X106783333Y-116985190D01*
X106783333Y-116985190D02*
X106735714Y-117032809D01*
X106735714Y-117032809D02*
X106688095Y-117128047D01*
X106688095Y-117128047D02*
X106688095Y-117366142D01*
X106688095Y-117366142D02*
X106735714Y-117461380D01*
X106735714Y-117461380D02*
X106783333Y-117509000D01*
X106783333Y-117509000D02*
X106878571Y-117556619D01*
X106878571Y-117556619D02*
X107164285Y-117556619D01*
X107164285Y-117556619D02*
X107259523Y-117509000D01*
X107259523Y-117509000D02*
X107307142Y-117461380D01*
%TO.C,R3*%
X89066666Y-117810619D02*
X89399999Y-117334428D01*
X89638094Y-117810619D02*
X89638094Y-116810619D01*
X89638094Y-116810619D02*
X89257142Y-116810619D01*
X89257142Y-116810619D02*
X89161904Y-116858238D01*
X89161904Y-116858238D02*
X89114285Y-116905857D01*
X89114285Y-116905857D02*
X89066666Y-117001095D01*
X89066666Y-117001095D02*
X89066666Y-117143952D01*
X89066666Y-117143952D02*
X89114285Y-117239190D01*
X89114285Y-117239190D02*
X89161904Y-117286809D01*
X89161904Y-117286809D02*
X89257142Y-117334428D01*
X89257142Y-117334428D02*
X89638094Y-117334428D01*
X88733332Y-116810619D02*
X88114285Y-116810619D01*
X88114285Y-116810619D02*
X88447618Y-117191571D01*
X88447618Y-117191571D02*
X88304761Y-117191571D01*
X88304761Y-117191571D02*
X88209523Y-117239190D01*
X88209523Y-117239190D02*
X88161904Y-117286809D01*
X88161904Y-117286809D02*
X88114285Y-117382047D01*
X88114285Y-117382047D02*
X88114285Y-117620142D01*
X88114285Y-117620142D02*
X88161904Y-117715380D01*
X88161904Y-117715380D02*
X88209523Y-117763000D01*
X88209523Y-117763000D02*
X88304761Y-117810619D01*
X88304761Y-117810619D02*
X88590475Y-117810619D01*
X88590475Y-117810619D02*
X88685713Y-117763000D01*
X88685713Y-117763000D02*
X88733332Y-117715380D01*
%TO.C,R11*%
X104782857Y-117556619D02*
X105116190Y-117080428D01*
X105354285Y-117556619D02*
X105354285Y-116556619D01*
X105354285Y-116556619D02*
X104973333Y-116556619D01*
X104973333Y-116556619D02*
X104878095Y-116604238D01*
X104878095Y-116604238D02*
X104830476Y-116651857D01*
X104830476Y-116651857D02*
X104782857Y-116747095D01*
X104782857Y-116747095D02*
X104782857Y-116889952D01*
X104782857Y-116889952D02*
X104830476Y-116985190D01*
X104830476Y-116985190D02*
X104878095Y-117032809D01*
X104878095Y-117032809D02*
X104973333Y-117080428D01*
X104973333Y-117080428D02*
X105354285Y-117080428D01*
X103830476Y-117556619D02*
X104401904Y-117556619D01*
X104116190Y-117556619D02*
X104116190Y-116556619D01*
X104116190Y-116556619D02*
X104211428Y-116699476D01*
X104211428Y-116699476D02*
X104306666Y-116794714D01*
X104306666Y-116794714D02*
X104401904Y-116842333D01*
X102878095Y-117556619D02*
X103449523Y-117556619D01*
X103163809Y-117556619D02*
X103163809Y-116556619D01*
X103163809Y-116556619D02*
X103259047Y-116699476D01*
X103259047Y-116699476D02*
X103354285Y-116794714D01*
X103354285Y-116794714D02*
X103449523Y-116842333D01*
%TO.C,R17*%
X161244619Y-73271142D02*
X160768428Y-72937809D01*
X161244619Y-72699714D02*
X160244619Y-72699714D01*
X160244619Y-72699714D02*
X160244619Y-73080666D01*
X160244619Y-73080666D02*
X160292238Y-73175904D01*
X160292238Y-73175904D02*
X160339857Y-73223523D01*
X160339857Y-73223523D02*
X160435095Y-73271142D01*
X160435095Y-73271142D02*
X160577952Y-73271142D01*
X160577952Y-73271142D02*
X160673190Y-73223523D01*
X160673190Y-73223523D02*
X160720809Y-73175904D01*
X160720809Y-73175904D02*
X160768428Y-73080666D01*
X160768428Y-73080666D02*
X160768428Y-72699714D01*
X161244619Y-74223523D02*
X161244619Y-73652095D01*
X161244619Y-73937809D02*
X160244619Y-73937809D01*
X160244619Y-73937809D02*
X160387476Y-73842571D01*
X160387476Y-73842571D02*
X160482714Y-73747333D01*
X160482714Y-73747333D02*
X160530333Y-73652095D01*
X160244619Y-74556857D02*
X160244619Y-75223523D01*
X160244619Y-75223523D02*
X161244619Y-74794952D01*
%TO.C,R18*%
X116212857Y-117556619D02*
X116546190Y-117080428D01*
X116784285Y-117556619D02*
X116784285Y-116556619D01*
X116784285Y-116556619D02*
X116403333Y-116556619D01*
X116403333Y-116556619D02*
X116308095Y-116604238D01*
X116308095Y-116604238D02*
X116260476Y-116651857D01*
X116260476Y-116651857D02*
X116212857Y-116747095D01*
X116212857Y-116747095D02*
X116212857Y-116889952D01*
X116212857Y-116889952D02*
X116260476Y-116985190D01*
X116260476Y-116985190D02*
X116308095Y-117032809D01*
X116308095Y-117032809D02*
X116403333Y-117080428D01*
X116403333Y-117080428D02*
X116784285Y-117080428D01*
X115260476Y-117556619D02*
X115831904Y-117556619D01*
X115546190Y-117556619D02*
X115546190Y-116556619D01*
X115546190Y-116556619D02*
X115641428Y-116699476D01*
X115641428Y-116699476D02*
X115736666Y-116794714D01*
X115736666Y-116794714D02*
X115831904Y-116842333D01*
X114689047Y-116985190D02*
X114784285Y-116937571D01*
X114784285Y-116937571D02*
X114831904Y-116889952D01*
X114831904Y-116889952D02*
X114879523Y-116794714D01*
X114879523Y-116794714D02*
X114879523Y-116747095D01*
X114879523Y-116747095D02*
X114831904Y-116651857D01*
X114831904Y-116651857D02*
X114784285Y-116604238D01*
X114784285Y-116604238D02*
X114689047Y-116556619D01*
X114689047Y-116556619D02*
X114498571Y-116556619D01*
X114498571Y-116556619D02*
X114403333Y-116604238D01*
X114403333Y-116604238D02*
X114355714Y-116651857D01*
X114355714Y-116651857D02*
X114308095Y-116747095D01*
X114308095Y-116747095D02*
X114308095Y-116794714D01*
X114308095Y-116794714D02*
X114355714Y-116889952D01*
X114355714Y-116889952D02*
X114403333Y-116937571D01*
X114403333Y-116937571D02*
X114498571Y-116985190D01*
X114498571Y-116985190D02*
X114689047Y-116985190D01*
X114689047Y-116985190D02*
X114784285Y-117032809D01*
X114784285Y-117032809D02*
X114831904Y-117080428D01*
X114831904Y-117080428D02*
X114879523Y-117175666D01*
X114879523Y-117175666D02*
X114879523Y-117366142D01*
X114879523Y-117366142D02*
X114831904Y-117461380D01*
X114831904Y-117461380D02*
X114784285Y-117509000D01*
X114784285Y-117509000D02*
X114689047Y-117556619D01*
X114689047Y-117556619D02*
X114498571Y-117556619D01*
X114498571Y-117556619D02*
X114403333Y-117509000D01*
X114403333Y-117509000D02*
X114355714Y-117461380D01*
X114355714Y-117461380D02*
X114308095Y-117366142D01*
X114308095Y-117366142D02*
X114308095Y-117175666D01*
X114308095Y-117175666D02*
X114355714Y-117080428D01*
X114355714Y-117080428D02*
X114403333Y-117032809D01*
X114403333Y-117032809D02*
X114498571Y-116985190D01*
%TO.C,Q4*%
X179419238Y-99155857D02*
X179514476Y-99108238D01*
X179514476Y-99108238D02*
X179609714Y-99013000D01*
X179609714Y-99013000D02*
X179752571Y-98870142D01*
X179752571Y-98870142D02*
X179847809Y-98822523D01*
X179847809Y-98822523D02*
X179943047Y-98822523D01*
X179895428Y-99060619D02*
X179990666Y-99013000D01*
X179990666Y-99013000D02*
X180085904Y-98917761D01*
X180085904Y-98917761D02*
X180133523Y-98727285D01*
X180133523Y-98727285D02*
X180133523Y-98393952D01*
X180133523Y-98393952D02*
X180085904Y-98203476D01*
X180085904Y-98203476D02*
X179990666Y-98108238D01*
X179990666Y-98108238D02*
X179895428Y-98060619D01*
X179895428Y-98060619D02*
X179704952Y-98060619D01*
X179704952Y-98060619D02*
X179609714Y-98108238D01*
X179609714Y-98108238D02*
X179514476Y-98203476D01*
X179514476Y-98203476D02*
X179466857Y-98393952D01*
X179466857Y-98393952D02*
X179466857Y-98727285D01*
X179466857Y-98727285D02*
X179514476Y-98917761D01*
X179514476Y-98917761D02*
X179609714Y-99013000D01*
X179609714Y-99013000D02*
X179704952Y-99060619D01*
X179704952Y-99060619D02*
X179895428Y-99060619D01*
X178609714Y-98393952D02*
X178609714Y-99060619D01*
X178847809Y-98013000D02*
X179085904Y-98727285D01*
X179085904Y-98727285D02*
X178466857Y-98727285D01*
%TO.C,Q2*%
X145891238Y-114603857D02*
X145986476Y-114556238D01*
X145986476Y-114556238D02*
X146081714Y-114461000D01*
X146081714Y-114461000D02*
X146224571Y-114318142D01*
X146224571Y-114318142D02*
X146319809Y-114270523D01*
X146319809Y-114270523D02*
X146415047Y-114270523D01*
X146367428Y-114508619D02*
X146462666Y-114461000D01*
X146462666Y-114461000D02*
X146557904Y-114365761D01*
X146557904Y-114365761D02*
X146605523Y-114175285D01*
X146605523Y-114175285D02*
X146605523Y-113841952D01*
X146605523Y-113841952D02*
X146557904Y-113651476D01*
X146557904Y-113651476D02*
X146462666Y-113556238D01*
X146462666Y-113556238D02*
X146367428Y-113508619D01*
X146367428Y-113508619D02*
X146176952Y-113508619D01*
X146176952Y-113508619D02*
X146081714Y-113556238D01*
X146081714Y-113556238D02*
X145986476Y-113651476D01*
X145986476Y-113651476D02*
X145938857Y-113841952D01*
X145938857Y-113841952D02*
X145938857Y-114175285D01*
X145938857Y-114175285D02*
X145986476Y-114365761D01*
X145986476Y-114365761D02*
X146081714Y-114461000D01*
X146081714Y-114461000D02*
X146176952Y-114508619D01*
X146176952Y-114508619D02*
X146367428Y-114508619D01*
X145557904Y-113603857D02*
X145510285Y-113556238D01*
X145510285Y-113556238D02*
X145415047Y-113508619D01*
X145415047Y-113508619D02*
X145176952Y-113508619D01*
X145176952Y-113508619D02*
X145081714Y-113556238D01*
X145081714Y-113556238D02*
X145034095Y-113603857D01*
X145034095Y-113603857D02*
X144986476Y-113699095D01*
X144986476Y-113699095D02*
X144986476Y-113794333D01*
X144986476Y-113794333D02*
X145034095Y-113937190D01*
X145034095Y-113937190D02*
X145605523Y-114508619D01*
X145605523Y-114508619D02*
X144986476Y-114508619D01*
%TO.C,DS1*%
X197584285Y-70405119D02*
X197584285Y-69405119D01*
X197584285Y-69405119D02*
X197346190Y-69405119D01*
X197346190Y-69405119D02*
X197203333Y-69452738D01*
X197203333Y-69452738D02*
X197108095Y-69547976D01*
X197108095Y-69547976D02*
X197060476Y-69643214D01*
X197060476Y-69643214D02*
X197012857Y-69833690D01*
X197012857Y-69833690D02*
X197012857Y-69976547D01*
X197012857Y-69976547D02*
X197060476Y-70167023D01*
X197060476Y-70167023D02*
X197108095Y-70262261D01*
X197108095Y-70262261D02*
X197203333Y-70357500D01*
X197203333Y-70357500D02*
X197346190Y-70405119D01*
X197346190Y-70405119D02*
X197584285Y-70405119D01*
X196631904Y-70357500D02*
X196489047Y-70405119D01*
X196489047Y-70405119D02*
X196250952Y-70405119D01*
X196250952Y-70405119D02*
X196155714Y-70357500D01*
X196155714Y-70357500D02*
X196108095Y-70309880D01*
X196108095Y-70309880D02*
X196060476Y-70214642D01*
X196060476Y-70214642D02*
X196060476Y-70119404D01*
X196060476Y-70119404D02*
X196108095Y-70024166D01*
X196108095Y-70024166D02*
X196155714Y-69976547D01*
X196155714Y-69976547D02*
X196250952Y-69928928D01*
X196250952Y-69928928D02*
X196441428Y-69881309D01*
X196441428Y-69881309D02*
X196536666Y-69833690D01*
X196536666Y-69833690D02*
X196584285Y-69786071D01*
X196584285Y-69786071D02*
X196631904Y-69690833D01*
X196631904Y-69690833D02*
X196631904Y-69595595D01*
X196631904Y-69595595D02*
X196584285Y-69500357D01*
X196584285Y-69500357D02*
X196536666Y-69452738D01*
X196536666Y-69452738D02*
X196441428Y-69405119D01*
X196441428Y-69405119D02*
X196203333Y-69405119D01*
X196203333Y-69405119D02*
X196060476Y-69452738D01*
X195108095Y-70405119D02*
X195679523Y-70405119D01*
X195393809Y-70405119D02*
X195393809Y-69405119D01*
X195393809Y-69405119D02*
X195489047Y-69547976D01*
X195489047Y-69547976D02*
X195584285Y-69643214D01*
X195584285Y-69643214D02*
X195679523Y-69690833D01*
%TO.C,R1*%
X85306666Y-117810619D02*
X85639999Y-117334428D01*
X85878094Y-117810619D02*
X85878094Y-116810619D01*
X85878094Y-116810619D02*
X85497142Y-116810619D01*
X85497142Y-116810619D02*
X85401904Y-116858238D01*
X85401904Y-116858238D02*
X85354285Y-116905857D01*
X85354285Y-116905857D02*
X85306666Y-117001095D01*
X85306666Y-117001095D02*
X85306666Y-117143952D01*
X85306666Y-117143952D02*
X85354285Y-117239190D01*
X85354285Y-117239190D02*
X85401904Y-117286809D01*
X85401904Y-117286809D02*
X85497142Y-117334428D01*
X85497142Y-117334428D02*
X85878094Y-117334428D01*
X84354285Y-117810619D02*
X84925713Y-117810619D01*
X84639999Y-117810619D02*
X84639999Y-116810619D01*
X84639999Y-116810619D02*
X84735237Y-116953476D01*
X84735237Y-116953476D02*
X84830475Y-117048714D01*
X84830475Y-117048714D02*
X84925713Y-117096333D01*
%TO.C,R5*%
X92876666Y-117810619D02*
X93209999Y-117334428D01*
X93448094Y-117810619D02*
X93448094Y-116810619D01*
X93448094Y-116810619D02*
X93067142Y-116810619D01*
X93067142Y-116810619D02*
X92971904Y-116858238D01*
X92971904Y-116858238D02*
X92924285Y-116905857D01*
X92924285Y-116905857D02*
X92876666Y-117001095D01*
X92876666Y-117001095D02*
X92876666Y-117143952D01*
X92876666Y-117143952D02*
X92924285Y-117239190D01*
X92924285Y-117239190D02*
X92971904Y-117286809D01*
X92971904Y-117286809D02*
X93067142Y-117334428D01*
X93067142Y-117334428D02*
X93448094Y-117334428D01*
X91971904Y-116810619D02*
X92448094Y-116810619D01*
X92448094Y-116810619D02*
X92495713Y-117286809D01*
X92495713Y-117286809D02*
X92448094Y-117239190D01*
X92448094Y-117239190D02*
X92352856Y-117191571D01*
X92352856Y-117191571D02*
X92114761Y-117191571D01*
X92114761Y-117191571D02*
X92019523Y-117239190D01*
X92019523Y-117239190D02*
X91971904Y-117286809D01*
X91971904Y-117286809D02*
X91924285Y-117382047D01*
X91924285Y-117382047D02*
X91924285Y-117620142D01*
X91924285Y-117620142D02*
X91971904Y-117715380D01*
X91971904Y-117715380D02*
X92019523Y-117763000D01*
X92019523Y-117763000D02*
X92114761Y-117810619D01*
X92114761Y-117810619D02*
X92352856Y-117810619D01*
X92352856Y-117810619D02*
X92448094Y-117763000D01*
X92448094Y-117763000D02*
X92495713Y-117715380D01*
%TO.C,R15*%
X112402857Y-117556619D02*
X112736190Y-117080428D01*
X112974285Y-117556619D02*
X112974285Y-116556619D01*
X112974285Y-116556619D02*
X112593333Y-116556619D01*
X112593333Y-116556619D02*
X112498095Y-116604238D01*
X112498095Y-116604238D02*
X112450476Y-116651857D01*
X112450476Y-116651857D02*
X112402857Y-116747095D01*
X112402857Y-116747095D02*
X112402857Y-116889952D01*
X112402857Y-116889952D02*
X112450476Y-116985190D01*
X112450476Y-116985190D02*
X112498095Y-117032809D01*
X112498095Y-117032809D02*
X112593333Y-117080428D01*
X112593333Y-117080428D02*
X112974285Y-117080428D01*
X111450476Y-117556619D02*
X112021904Y-117556619D01*
X111736190Y-117556619D02*
X111736190Y-116556619D01*
X111736190Y-116556619D02*
X111831428Y-116699476D01*
X111831428Y-116699476D02*
X111926666Y-116794714D01*
X111926666Y-116794714D02*
X112021904Y-116842333D01*
X110545714Y-116556619D02*
X111021904Y-116556619D01*
X111021904Y-116556619D02*
X111069523Y-117032809D01*
X111069523Y-117032809D02*
X111021904Y-116985190D01*
X111021904Y-116985190D02*
X110926666Y-116937571D01*
X110926666Y-116937571D02*
X110688571Y-116937571D01*
X110688571Y-116937571D02*
X110593333Y-116985190D01*
X110593333Y-116985190D02*
X110545714Y-117032809D01*
X110545714Y-117032809D02*
X110498095Y-117128047D01*
X110498095Y-117128047D02*
X110498095Y-117366142D01*
X110498095Y-117366142D02*
X110545714Y-117461380D01*
X110545714Y-117461380D02*
X110593333Y-117509000D01*
X110593333Y-117509000D02*
X110688571Y-117556619D01*
X110688571Y-117556619D02*
X110926666Y-117556619D01*
X110926666Y-117556619D02*
X111021904Y-117509000D01*
X111021904Y-117509000D02*
X111069523Y-117461380D01*
%TO.C,U4*%
X117826619Y-100330095D02*
X118636142Y-100330095D01*
X118636142Y-100330095D02*
X118731380Y-100377714D01*
X118731380Y-100377714D02*
X118779000Y-100425333D01*
X118779000Y-100425333D02*
X118826619Y-100520571D01*
X118826619Y-100520571D02*
X118826619Y-100711047D01*
X118826619Y-100711047D02*
X118779000Y-100806285D01*
X118779000Y-100806285D02*
X118731380Y-100853904D01*
X118731380Y-100853904D02*
X118636142Y-100901523D01*
X118636142Y-100901523D02*
X117826619Y-100901523D01*
X118159952Y-101806285D02*
X118826619Y-101806285D01*
X117779000Y-101568190D02*
X118493285Y-101330095D01*
X118493285Y-101330095D02*
X118493285Y-101949142D01*
%TO.C,R7*%
X96686666Y-117810619D02*
X97019999Y-117334428D01*
X97258094Y-117810619D02*
X97258094Y-116810619D01*
X97258094Y-116810619D02*
X96877142Y-116810619D01*
X96877142Y-116810619D02*
X96781904Y-116858238D01*
X96781904Y-116858238D02*
X96734285Y-116905857D01*
X96734285Y-116905857D02*
X96686666Y-117001095D01*
X96686666Y-117001095D02*
X96686666Y-117143952D01*
X96686666Y-117143952D02*
X96734285Y-117239190D01*
X96734285Y-117239190D02*
X96781904Y-117286809D01*
X96781904Y-117286809D02*
X96877142Y-117334428D01*
X96877142Y-117334428D02*
X97258094Y-117334428D01*
X96353332Y-116810619D02*
X95686666Y-116810619D01*
X95686666Y-116810619D02*
X96115237Y-117810619D01*
D12*
%TO.C,R9*%
X98975000Y-121504737D02*
X98975000Y-120057263D01*
X101685000Y-121504737D02*
X101685000Y-120057263D01*
%TO.C,R13*%
X106595000Y-121312237D02*
X106595000Y-119864763D01*
X109305000Y-121312237D02*
X109305000Y-119864763D01*
%TO.C,R3*%
X87545000Y-121312237D02*
X87545000Y-119864763D01*
X90255000Y-121312237D02*
X90255000Y-119864763D01*
%TO.C,R11*%
X102785000Y-121312237D02*
X102785000Y-119864763D01*
X105495000Y-121312237D02*
X105495000Y-119864763D01*
%TO.C,R17*%
X158396237Y-75269000D02*
X156948763Y-75269000D01*
X158396237Y-72559000D02*
X156948763Y-72559000D01*
%TO.C,R18*%
X114215000Y-121312237D02*
X114215000Y-119864763D01*
X116925000Y-121312237D02*
X116925000Y-119864763D01*
%TO.C,Q4*%
X174499000Y-86748000D02*
X174499000Y-88558000D01*
X174499000Y-88558000D02*
X173399000Y-88558000D01*
X174499000Y-95338000D02*
X169374000Y-95338000D01*
X174499000Y-97148000D02*
X174499000Y-95338000D01*
X175999000Y-86748000D02*
X174499000Y-86748000D01*
X175999000Y-97148000D02*
X174499000Y-97148000D01*
%TO.C,Q2*%
X150458000Y-126377000D02*
X150458000Y-124567000D01*
X150458000Y-124567000D02*
X151558000Y-124567000D01*
X150458000Y-117787000D02*
X155583000Y-117787000D01*
X150458000Y-115977000D02*
X150458000Y-117787000D01*
X148958000Y-126377000D02*
X150458000Y-126377000D01*
X148958000Y-115977000D02*
X150458000Y-115977000D01*
%TO.C,DS1*%
X198300000Y-114992500D02*
X76020000Y-114992500D01*
X198300000Y-70712500D02*
X198300000Y-114992500D01*
D11*
X190137000Y-78305500D02*
X190137000Y-111833500D01*
X189375000Y-112595500D02*
X189375000Y-111833500D01*
X189375000Y-112595500D02*
X85235000Y-112595500D01*
X189375000Y-111833500D02*
X190137000Y-111833500D01*
X189375000Y-78305500D02*
X190137000Y-78305500D01*
X189375000Y-77543500D02*
X189375000Y-78305500D01*
X188359000Y-111325500D02*
X188105000Y-111579500D01*
X188359000Y-78813500D02*
X188105000Y-79067500D01*
X188105000Y-111579500D02*
X86505000Y-111579500D01*
X188105000Y-111071500D02*
X188359000Y-111325500D01*
X188105000Y-79067500D02*
X86505000Y-79067500D01*
X188105000Y-78559500D02*
X188359000Y-78813500D01*
X186835000Y-106245500D02*
X186835000Y-83893500D01*
X186835000Y-83893500D02*
X186073000Y-83131500D01*
X186073000Y-107007500D02*
X186835000Y-106245500D01*
X186073000Y-83131500D02*
X88537000Y-83131500D01*
D12*
X121160000Y-70352500D02*
X119160000Y-70352500D01*
D11*
X88537000Y-107007500D02*
X186073000Y-107007500D01*
X88537000Y-83131500D02*
X87775000Y-83893500D01*
X87775000Y-106245500D02*
X88537000Y-107007500D01*
X87775000Y-83893500D02*
X87775000Y-106245500D01*
X86505000Y-111579500D02*
X86251000Y-111325500D01*
X86505000Y-111071500D02*
X188105000Y-111071500D01*
X86505000Y-78559500D02*
X188105000Y-78559500D01*
X86505000Y-78559500D02*
X86251000Y-78813500D01*
X86251000Y-111325500D02*
X86505000Y-111071500D01*
X86251000Y-78813500D02*
X86505000Y-79067500D01*
X85235000Y-111833500D02*
X85235000Y-112595500D01*
X85235000Y-78305500D02*
X84473000Y-78305500D01*
X85235000Y-77543500D02*
X189375000Y-77543500D01*
X85235000Y-77543500D02*
X85235000Y-78305500D01*
X84473000Y-111833500D02*
X85235000Y-111833500D01*
X84473000Y-111833500D02*
X84473000Y-78305500D01*
D12*
X76020000Y-70712500D02*
X198300000Y-70712500D01*
X76020000Y-70712500D02*
X76020000Y-114992500D01*
%TO.C,R1*%
X83735000Y-121312237D02*
X83735000Y-119864763D01*
X86445000Y-121312237D02*
X86445000Y-119864763D01*
%TO.C,R5*%
X91355000Y-121504737D02*
X91355000Y-120057263D01*
X94065000Y-121504737D02*
X94065000Y-120057263D01*
%TO.C,R15*%
X110405000Y-121312237D02*
X110405000Y-119864763D01*
X113115000Y-121312237D02*
X113115000Y-119864763D01*
D11*
%TO.C,U4*%
X115555000Y-105445000D02*
X115555000Y-105300000D01*
X115555000Y-105445000D02*
X111405000Y-105445000D01*
X115555000Y-100345000D02*
X116955000Y-100345000D01*
X115555000Y-100295000D02*
X115555000Y-100345000D01*
X115555000Y-100295000D02*
X111405000Y-100295000D01*
X111405000Y-105445000D02*
X111405000Y-105300000D01*
X111405000Y-100295000D02*
X111405000Y-100440000D01*
D12*
%TO.C,R7*%
X95165000Y-121312237D02*
X95165000Y-119864763D01*
X97875000Y-121312237D02*
X97875000Y-119864763D01*
%TD*%
M02*
