%TF.GenerationSoftware,KiCad,Pcbnew,7.0.2*%
%TF.CreationDate,2023-05-13T16:33:46+02:00*%
%TF.ProjectId,pid_controller,7069645f-636f-46e7-9472-6f6c6c65722e,2.0*%
%TF.SameCoordinates,Original*%
%TF.FileFunction,Copper,L1,Top*%
%TF.FilePolarity,Positive*%
%FSLAX46Y46*%
G04 Gerber Fmt 4.6, Leading zero omitted, Abs format (unit mm)*
G04 Created by KiCad (PCBNEW 7.0.2) date 2023-05-13 16:33:46*
%MOMM*%
%LPD*%
G01*
G04 APERTURE LIST*
%TA.AperFunction,ComponentPad*%
%ADD10R,1.905000X2.000000*%
%TD*%
%TA.AperFunction,ComponentPad*%
%ADD11O,1.905000X2.000000*%
%TD*%
%TA.AperFunction,ComponentPad*%
%ADD12C,1.600000*%
%TD*%
%TA.AperFunction,ComponentPad*%
%ADD13O,1.600000X1.600000*%
%TD*%
%TA.AperFunction,ComponentPad*%
%ADD14R,1.980000X3.960000*%
%TD*%
%TA.AperFunction,ComponentPad*%
%ADD15O,1.980000X3.960000*%
%TD*%
%TA.AperFunction,ComponentPad*%
%ADD16R,2.000000X1.905000*%
%TD*%
%TA.AperFunction,ComponentPad*%
%ADD17O,2.000000X1.905000*%
%TD*%
%TA.AperFunction,ComponentPad*%
%ADD18R,1.700000X1.700000*%
%TD*%
%TA.AperFunction,ComponentPad*%
%ADD19O,1.700000X1.700000*%
%TD*%
%TA.AperFunction,ComponentPad*%
%ADD20C,1.440000*%
%TD*%
%TA.AperFunction,ComponentPad*%
%ADD21R,3.960000X1.980000*%
%TD*%
%TA.AperFunction,ComponentPad*%
%ADD22O,3.960000X1.980000*%
%TD*%
%TA.AperFunction,ComponentPad*%
%ADD23R,1.600000X1.600000*%
%TD*%
%TA.AperFunction,ComponentPad*%
%ADD24R,3.900000X6.000000*%
%TD*%
%TA.AperFunction,ComponentPad*%
%ADD25R,1.800000X1.800000*%
%TD*%
%TA.AperFunction,ComponentPad*%
%ADD26O,1.800000X1.800000*%
%TD*%
%TA.AperFunction,ComponentPad*%
%ADD27R,2.200000X2.200000*%
%TD*%
%TA.AperFunction,ComponentPad*%
%ADD28O,2.200000X2.200000*%
%TD*%
%TA.AperFunction,ComponentPad*%
%ADD29R,1.600000X2.400000*%
%TD*%
%TA.AperFunction,ComponentPad*%
%ADD30O,1.600000X2.400000*%
%TD*%
%TA.AperFunction,ComponentPad*%
%ADD31C,6.500000*%
%TD*%
%TA.AperFunction,ComponentPad*%
%ADD32R,1.500000X3.000000*%
%TD*%
%TA.AperFunction,ComponentPad*%
%ADD33O,1.500000X3.000000*%
%TD*%
%TA.AperFunction,ComponentPad*%
%ADD34R,2.000000X2.000000*%
%TD*%
%TA.AperFunction,ViaPad*%
%ADD35C,0.600000*%
%TD*%
%TA.AperFunction,Conductor*%
%ADD36C,0.750000*%
%TD*%
%TA.AperFunction,Conductor*%
%ADD37C,2.000000*%
%TD*%
%TA.AperFunction,Conductor*%
%ADD38C,1.500000*%
%TD*%
%TA.AperFunction,Conductor*%
%ADD39C,2.200000*%
%TD*%
%TA.AperFunction,Conductor*%
%ADD40C,1.000000*%
%TD*%
G04 APERTURE END LIST*
D10*
%TO.P,Q3,1,G*%
%TO.N,Net-(Q3-G)*%
X159258000Y-103124000D03*
D11*
%TO.P,Q3,2,D*%
%TO.N,Net-(D2-A)*%
X156718000Y-103124000D03*
%TO.P,Q3,3,S*%
%TO.N,GND*%
X154178000Y-103124000D03*
%TD*%
D12*
%TO.P,R14,1*%
%TO.N,+5V*%
X107950000Y-127123000D03*
D13*
%TO.P,R14,2*%
%TO.N,SCL*%
X107950000Y-114423000D03*
%TD*%
D12*
%TO.P,R2,1*%
%TO.N,+24V*%
X85140000Y-127123000D03*
D13*
%TO.P,R2,2*%
%TO.N,Net-(R1-Pad2)*%
X85140000Y-114423000D03*
%TD*%
D14*
%TO.P,J2,1,Pin_1*%
%TO.N,/HeaterPowerOut*%
X167720000Y-132207000D03*
D15*
%TO.P,J2,2,Pin_2*%
%TO.N,GND*%
X172720000Y-132207000D03*
%TD*%
D16*
%TO.P,Q1,1,G*%
%TO.N,Net-(Q1-G)*%
X159766000Y-131826000D03*
D17*
%TO.P,Q1,2,D*%
%TO.N,+12V*%
X159766000Y-129286000D03*
%TO.P,Q1,3,S*%
%TO.N,/HeaterPowerOut*%
X159766000Y-126746000D03*
%TD*%
D18*
%TO.P,M1,1,+*%
%TO.N,+12V*%
X139192000Y-131826000D03*
D19*
%TO.P,M1,2,-*%
%TO.N,Net-(D2-A)*%
X136652000Y-131826000D03*
%TD*%
D10*
%TO.P,U1,1,IN*%
%TO.N,+12V*%
X154178000Y-80518000D03*
D11*
%TO.P,U1,2,GND*%
%TO.N,GND*%
X156718000Y-80518000D03*
%TO.P,U1,3,OUT*%
%TO.N,+5V*%
X159258000Y-80518000D03*
%TD*%
D18*
%TO.P,RV2,1,1*%
%TO.N,+5V*%
X159258000Y-96520000D03*
D19*
%TO.P,RV2,2,2*%
%TO.N,/PWM*%
X156718000Y-96520000D03*
%TO.P,RV2,3,3*%
%TO.N,GND*%
X154178000Y-96520000D03*
%TD*%
D20*
%TO.P,RV1,1,1*%
%TO.N,+5V*%
X159268000Y-87013000D03*
%TO.P,RV1,2,2*%
%TO.N,Net-(DS1-Vo)*%
X156728000Y-87013000D03*
%TO.P,RV1,3,3*%
%TO.N,GND*%
X154188000Y-87013000D03*
%TD*%
D21*
%TO.P,J1,1,Pin_1*%
%TO.N,+12V*%
X191770000Y-120171000D03*
D22*
%TO.P,J1,2,Pin_2*%
%TO.N,GND*%
X191770000Y-125171000D03*
%TD*%
D18*
%TO.P,J4,1,Pin_1*%
%TO.N,/A*%
X132842000Y-128270000D03*
D19*
%TO.P,J4,2,Pin_2*%
%TO.N,/ROTARY_DATA*%
X130302000Y-128270000D03*
%TO.P,J4,3,Pin_3*%
%TO.N,/ROTARY_SWITCH*%
X127762000Y-128270000D03*
%TO.P,J4,4,Pin_4*%
%TO.N,GND*%
X125222000Y-128270000D03*
%TD*%
D12*
%TO.P,R12,1*%
%TO.N,+5V*%
X104140000Y-127123000D03*
D13*
%TO.P,R12,2*%
%TO.N,/A*%
X104140000Y-114423000D03*
%TD*%
D12*
%TO.P,R6,1*%
%TO.N,Net-(R5-Pad1)*%
X92710000Y-127123000D03*
D13*
%TO.P,R6,2*%
%TO.N,PWM_Signal*%
X92710000Y-114423000D03*
%TD*%
D12*
%TO.P,R19,1*%
%TO.N,/PWM*%
X115570000Y-127123000D03*
D13*
%TO.P,R19,2*%
%TO.N,Net-(Q3-G)*%
X115570000Y-114423000D03*
%TD*%
D23*
%TO.P,U5,1*%
%TO.N,Net-(R5-Pad1)*%
X106035000Y-105415000D03*
D13*
%TO.P,U5,2*%
%TO.N,GND*%
X106035000Y-102875000D03*
%TO.P,U5,3*%
X98415000Y-102875000D03*
%TO.P,U5,4*%
%TO.N,Net-(R1-Pad2)*%
X98415000Y-105415000D03*
%TD*%
D24*
%TO.P,U3,1,+Vin*%
%TO.N,+12V*%
X143400000Y-76424000D03*
%TO.P,U3,2,-Vin*%
%TO.N,GND*%
X134366000Y-76424000D03*
%TO.P,U3,3,+Vout*%
%TO.N,+24V*%
X143400000Y-105156000D03*
%TO.P,U3,4,-Vout*%
%TO.N,GND*%
X134620000Y-105156000D03*
%TD*%
D23*
%TO.P,A1,1,D1/TX*%
%TO.N,unconnected-(A1-D1{slash}TX-Pad1)*%
X124206000Y-78740000D03*
D13*
%TO.P,A1,2,D0/RX*%
%TO.N,unconnected-(A1-D0{slash}RX-Pad2)*%
X121666000Y-78740000D03*
%TO.P,A1,3,~{RESET}*%
%TO.N,unconnected-(A1-~{RESET}-Pad3)*%
X119126000Y-78740000D03*
%TO.P,A1,4,GND*%
%TO.N,GND*%
X116586000Y-78740000D03*
%TO.P,A1,5,D2*%
%TO.N,EN*%
X114046000Y-78740000D03*
%TO.P,A1,6,D3*%
%TO.N,PWM_Signal*%
X111506000Y-78740000D03*
%TO.P,A1,7,D4*%
%TO.N,D4*%
X108966000Y-78740000D03*
%TO.P,A1,8,D5*%
%TO.N,D5*%
X106426000Y-78740000D03*
%TO.P,A1,9,D6*%
%TO.N,D6*%
X103886000Y-78740000D03*
%TO.P,A1,10,D7*%
%TO.N,D7*%
X101346000Y-78740000D03*
%TO.P,A1,11,D8*%
%TO.N,/A*%
X98806000Y-78740000D03*
%TO.P,A1,12,D9*%
%TO.N,/ROTARY_DATA*%
X96266000Y-78740000D03*
%TO.P,A1,13,D10*%
%TO.N,RS*%
X93726000Y-78740000D03*
%TO.P,A1,14,D11*%
%TO.N,/ROTARY_SWITCH*%
X91186000Y-78740000D03*
%TO.P,A1,15,D12*%
%TO.N,unconnected-(A1-D12-Pad15)*%
X88646000Y-78740000D03*
%TO.P,A1,16,D13*%
%TO.N,unconnected-(A1-D13-Pad16)*%
X88646000Y-93980000D03*
%TO.P,A1,17,3V3*%
%TO.N,unconnected-(A1-3V3-Pad17)*%
X91186000Y-93980000D03*
%TO.P,A1,18,AREF*%
%TO.N,unconnected-(A1-AREF-Pad18)*%
X93726000Y-93980000D03*
%TO.P,A1,19,A0*%
%TO.N,Net-(A1-A0)*%
X96266000Y-93980000D03*
%TO.P,A1,20,A1*%
%TO.N,unconnected-(A1-A1-Pad20)*%
X98806000Y-93980000D03*
%TO.P,A1,21,A2*%
%TO.N,unconnected-(A1-A2-Pad21)*%
X101346000Y-93980000D03*
%TO.P,A1,22,A3*%
%TO.N,unconnected-(A1-A3-Pad22)*%
X103886000Y-93980000D03*
%TO.P,A1,23,A4*%
%TO.N,SDA*%
X106426000Y-93980000D03*
%TO.P,A1,24,A5*%
%TO.N,SCL*%
X108966000Y-93980000D03*
%TO.P,A1,25,A6*%
%TO.N,unconnected-(A1-A6-Pad25)*%
X111506000Y-93980000D03*
%TO.P,A1,26,A7*%
%TO.N,unconnected-(A1-A7-Pad26)*%
X114046000Y-93980000D03*
%TO.P,A1,27,+5V*%
%TO.N,Net-(A1-+5V)*%
X116586000Y-93980000D03*
%TO.P,A1,28,~{RESET}*%
%TO.N,unconnected-(A1-~{RESET}-Pad28)*%
X119126000Y-93980000D03*
%TO.P,A1,29,GND*%
%TO.N,GND*%
X121666000Y-93980000D03*
%TO.P,A1,30,VIN*%
%TO.N,+12V*%
X124206000Y-93980000D03*
%TD*%
D23*
%TO.P,C2,1*%
%TO.N,+5V*%
X167005000Y-118531000D03*
D12*
%TO.P,C2,2*%
%TO.N,GND*%
X167005000Y-121031000D03*
%TD*%
%TO.P,R10,1*%
%TO.N,+5V*%
X100330000Y-127123000D03*
D13*
%TO.P,R10,2*%
%TO.N,/ROTARY_DATA*%
X100330000Y-114423000D03*
%TD*%
D18*
%TO.P,J3,1,Pin_1*%
%TO.N,+5V*%
X174498000Y-80518000D03*
D19*
%TO.P,J3,2,Pin_2*%
X177038000Y-80518000D03*
%TO.P,J3,3,Pin_3*%
%TO.N,GND*%
X174498000Y-83058000D03*
%TO.P,J3,4,Pin_4*%
X177038000Y-83058000D03*
%TD*%
D25*
%TO.P,D1,1,K*%
%TO.N,+5V*%
X166116000Y-80801000D03*
D26*
%TO.P,D1,2,A*%
%TO.N,Net-(A1-+5V)*%
X166116000Y-85881000D03*
%TD*%
D27*
%TO.P,D2,1,K*%
%TO.N,+12V*%
X177800000Y-101600000D03*
D28*
%TO.P,D2,2,A*%
%TO.N,Net-(D2-A)*%
X167640000Y-101600000D03*
%TD*%
D23*
%TO.P,C1,1*%
%TO.N,+12V*%
X177292000Y-118404000D03*
D12*
%TO.P,C1,2*%
%TO.N,GND*%
X177292000Y-120904000D03*
%TD*%
%TO.P,R16,1*%
%TO.N,+5V*%
X111760000Y-127123000D03*
D13*
%TO.P,R16,2*%
%TO.N,SDA*%
X111760000Y-114423000D03*
%TD*%
D12*
%TO.P,R4,1*%
%TO.N,Net-(Q1-G)*%
X88900000Y-127123000D03*
D13*
%TO.P,R4,2*%
%TO.N,Net-(R1-Pad2)*%
X88900000Y-114423000D03*
%TD*%
D29*
%TO.P,U6,1,A0*%
%TO.N,GND*%
X118110000Y-97790000D03*
D30*
%TO.P,U6,2,A1*%
X115570000Y-97790000D03*
%TO.P,U6,3,A2*%
%TO.N,unconnected-(U6-A2-Pad3)*%
X113030000Y-97790000D03*
%TO.P,U6,4,GND*%
%TO.N,GND*%
X110490000Y-97790000D03*
%TO.P,U6,5,SDA*%
%TO.N,SDA*%
X110490000Y-107950000D03*
%TO.P,U6,6,SCL*%
%TO.N,SCL*%
X113030000Y-107950000D03*
%TO.P,U6,7,WP*%
%TO.N,GND*%
X115570000Y-107950000D03*
%TO.P,U6,8,VCC*%
%TO.N,+5V*%
X118110000Y-107950000D03*
%TD*%
D12*
%TO.P,R8,1*%
%TO.N,+5V*%
X96520000Y-127123000D03*
D13*
%TO.P,R8,2*%
%TO.N,/ROTARY_SWITCH*%
X96520000Y-114423000D03*
%TD*%
D18*
%TO.P,U2,1,+VS*%
%TO.N,+5V*%
X116332000Y-132080000D03*
D19*
%TO.P,U2,2,Vout*%
%TO.N,Net-(A1-A0)*%
X118872000Y-132080000D03*
%TO.P,U2,3,GND*%
%TO.N,GND*%
X121412000Y-132080000D03*
%TD*%
D31*
%TO.P,DS1,*%
%TO.N,*%
X194660000Y-111352500D03*
X194660000Y-74352500D03*
X79660000Y-111352500D03*
X79660000Y-74352500D03*
D32*
%TO.P,DS1,1,LEDK*%
%TO.N,GND*%
X120160000Y-73352500D03*
D33*
%TO.P,DS1,2,LEDA*%
%TO.N,Net-(DS1-LEDA)*%
X117620000Y-73352500D03*
%TO.P,DS1,3,VSS*%
%TO.N,GND*%
X115080000Y-73352500D03*
%TO.P,DS1,4,VDD*%
%TO.N,+5V*%
X112540000Y-73352500D03*
%TO.P,DS1,5,Vo*%
%TO.N,Net-(DS1-Vo)*%
X110000000Y-73352500D03*
%TO.P,DS1,6,RS*%
%TO.N,RS*%
X107460000Y-73352500D03*
%TO.P,DS1,7,R/~{W}*%
%TO.N,GND*%
X104920000Y-73352500D03*
%TO.P,DS1,8,E*%
%TO.N,EN*%
X102380000Y-73352500D03*
%TO.P,DS1,9,DB0*%
%TO.N,unconnected-(DS1-DB0-Pad9)*%
X99840000Y-73352500D03*
%TO.P,DS1,10,DB1*%
%TO.N,unconnected-(DS1-DB1-Pad10)*%
X97300000Y-73352500D03*
%TO.P,DS1,11,DB2*%
%TO.N,unconnected-(DS1-DB2-Pad11)*%
X94760000Y-73352500D03*
%TO.P,DS1,12,DB3*%
%TO.N,unconnected-(DS1-DB3-Pad12)*%
X92220000Y-73352500D03*
%TO.P,DS1,13,DB4*%
%TO.N,D4*%
X89680000Y-73352500D03*
%TO.P,DS1,14,DB5*%
%TO.N,D5*%
X87140000Y-73352500D03*
%TO.P,DS1,15,DB6*%
%TO.N,D6*%
X122700000Y-73352500D03*
%TO.P,DS1,16,DB7*%
%TO.N,D7*%
X125240000Y-73352500D03*
D34*
%TO.P,DS1,A1*%
%TO.N,N/C*%
X195660000Y-87352500D03*
%TO.P,DS1,A2*%
X195660000Y-98352500D03*
%TO.P,DS1,K1*%
X195660000Y-91352500D03*
%TO.P,DS1,K2*%
X195660000Y-102352500D03*
%TD*%
D35*
%TO.N,+5V*%
X113792000Y-100838000D03*
%TO.N,PWM_Signal*%
X82804000Y-102870000D03*
%TO.N,Net-(Q3-G)*%
X169672000Y-92710000D03*
%TD*%
D36*
%TO.N,GND*%
X163957000Y-118433000D02*
X166555000Y-121031000D01*
X155702000Y-100076000D02*
X160528000Y-100076000D01*
X166497000Y-121031000D02*
X167005000Y-121031000D01*
D37*
X191770000Y-125171000D02*
X181432000Y-125171000D01*
D36*
X177038000Y-83058000D02*
X174498000Y-83058000D01*
X156718000Y-80518000D02*
X156718000Y-84483000D01*
X159845828Y-88408000D02*
X155583000Y-88408000D01*
X165195828Y-83058000D02*
X159845828Y-88408000D01*
X154178000Y-101600000D02*
X155702000Y-100076000D01*
X156718000Y-84483000D02*
X154188000Y-87013000D01*
X166555000Y-121031000D02*
X167005000Y-121031000D01*
X154188000Y-96510000D02*
X154178000Y-96520000D01*
X151130000Y-100076000D02*
X154178000Y-103124000D01*
X154178000Y-103124000D02*
X154178000Y-101600000D01*
D37*
X177292000Y-120904000D02*
X167132000Y-120904000D01*
D36*
X160528000Y-100076000D02*
X163957000Y-103505000D01*
D37*
X181432000Y-125171000D02*
X177292000Y-121031000D01*
D36*
X139700000Y-100076000D02*
X151130000Y-100076000D01*
X128633000Y-87013000D02*
X121666000Y-93980000D01*
D37*
X177292000Y-121031000D02*
X177292000Y-120904000D01*
D36*
X134620000Y-105156000D02*
X139700000Y-100076000D01*
X154188000Y-87013000D02*
X128633000Y-87013000D01*
X155583000Y-88408000D02*
X154188000Y-87013000D01*
X174498000Y-83058000D02*
X165195828Y-83058000D01*
X154178000Y-96520000D02*
X154178000Y-103124000D01*
D37*
X167132000Y-120904000D02*
X167005000Y-121031000D01*
D36*
X163957000Y-103505000D02*
X163957000Y-118433000D01*
%TO.N,/A*%
X122043676Y-130555000D02*
X107949000Y-130555000D01*
X107949000Y-130555000D02*
X105615000Y-128221000D01*
X105615000Y-126512034D02*
X98855000Y-119752034D01*
X132578000Y-129229000D02*
X131053000Y-130754000D01*
X98855000Y-119752034D02*
X98855000Y-113812034D01*
X122242676Y-130754000D02*
X122043676Y-130555000D01*
X132578000Y-128534000D02*
X132842000Y-128270000D01*
X131053000Y-130754000D02*
X122242676Y-130754000D01*
X98855000Y-113812034D02*
X99719034Y-112948000D01*
X99719034Y-112948000D02*
X102665000Y-112948000D01*
X132578000Y-129229000D02*
X132578000Y-128534000D01*
X105615000Y-128221000D02*
X105615000Y-126512034D01*
X102665000Y-112948000D02*
X104140000Y-114423000D01*
%TO.N,+5V*%
X112540000Y-73352500D02*
X112540000Y-73127246D01*
X111760000Y-127123000D02*
X113235000Y-125648000D01*
X177038000Y-80518000D02*
X174498000Y-80518000D01*
X166399000Y-80518000D02*
X166116000Y-80801000D01*
X135348000Y-90712000D02*
X171540676Y-90712000D01*
X127296754Y-72644000D02*
X151384000Y-72644000D01*
X178563000Y-83689676D02*
X178563000Y-82043000D01*
X118110000Y-107950000D02*
X135348000Y-90712000D01*
X159258000Y-96520000D02*
X166878000Y-104140000D01*
X114489746Y-71177500D02*
X125830254Y-71177500D01*
X112540000Y-73127246D02*
X114489746Y-71177500D01*
X113235000Y-112825000D02*
X118110000Y-107950000D01*
X151384000Y-72644000D02*
X159258000Y-80518000D01*
X118110000Y-107950000D02*
X118110000Y-105156000D01*
X166878000Y-118404000D02*
X167005000Y-118531000D01*
X125830254Y-71177500D02*
X127296754Y-72644000D01*
X166878000Y-104140000D02*
X166878000Y-118404000D01*
X178563000Y-82043000D02*
X177038000Y-80518000D01*
X174498000Y-80518000D02*
X166399000Y-80518000D01*
X113235000Y-125648000D02*
X113235000Y-112825000D01*
X118110000Y-105156000D02*
X113792000Y-100838000D01*
X171540676Y-90712000D02*
X178563000Y-83689676D01*
%TO.N,PWM_Signal*%
X88289034Y-115898000D02*
X86614000Y-114222966D01*
X91235000Y-115898000D02*
X88289034Y-115898000D01*
X92710000Y-114423000D02*
X91235000Y-115898000D01*
X86614000Y-114222966D02*
X86614000Y-106680000D01*
X86614000Y-106680000D02*
X82804000Y-102870000D01*
D38*
%TO.N,+24V*%
X91997000Y-133980000D02*
X85140000Y-127123000D01*
X143400000Y-105156000D02*
X135128000Y-113428000D01*
X135128000Y-113428000D02*
X135128000Y-129540000D01*
X131627000Y-133980000D02*
X91997000Y-133980000D01*
X135128000Y-129540000D02*
X133096000Y-131572000D01*
X133096000Y-132511000D02*
X131627000Y-133980000D01*
X133096000Y-131572000D02*
X133096000Y-132511000D01*
D36*
%TO.N,Net-(Q1-G)*%
X88900000Y-127123000D02*
X87425000Y-125648000D01*
X84529034Y-125648000D02*
X83665000Y-126512034D01*
X87425000Y-125648000D02*
X84529034Y-125648000D01*
X83665000Y-127733966D02*
X91336034Y-135405000D01*
X156187000Y-135405000D02*
X159766000Y-131826000D01*
X83665000Y-126512034D02*
X83665000Y-127733966D01*
X91336034Y-135405000D02*
X156187000Y-135405000D01*
%TO.N,SCL*%
X113030000Y-101854000D02*
X110841000Y-99665000D01*
X107950000Y-114423000D02*
X107950000Y-113030000D01*
X109879035Y-99665000D02*
X108966000Y-98751965D01*
X113030000Y-107950000D02*
X113030000Y-101854000D01*
X110841000Y-99665000D02*
X109879035Y-99665000D01*
X107950000Y-113030000D02*
X113030000Y-107950000D01*
X108966000Y-98751965D02*
X108966000Y-93980000D01*
D39*
%TO.N,+12V*%
X191770000Y-120171000D02*
X190003000Y-118404000D01*
X190003000Y-118404000D02*
X177292000Y-118404000D01*
X177800000Y-117896000D02*
X177292000Y-118404000D01*
X177800000Y-101600000D02*
X177800000Y-117896000D01*
X139192000Y-131826000D02*
X141732000Y-129286000D01*
X141732000Y-129286000D02*
X159766000Y-129286000D01*
D36*
%TO.N,/PWM*%
X115570000Y-117906000D02*
X139750000Y-93726000D01*
X153924000Y-93726000D02*
X156718000Y-96520000D01*
X139750000Y-93726000D02*
X153924000Y-93726000D01*
X115570000Y-127123000D02*
X115570000Y-117906000D01*
%TO.N,Net-(Q3-G)*%
X169638000Y-92676000D02*
X169672000Y-92710000D01*
X137317000Y-92676000D02*
X169638000Y-92676000D01*
X115570000Y-114423000D02*
X137317000Y-92676000D01*
%TO.N,RS*%
X93726000Y-78740000D02*
X96251000Y-76215000D01*
X107460000Y-73127246D02*
X107460000Y-73352500D01*
X107460000Y-73577754D02*
X107460000Y-73352500D01*
X96251000Y-76215000D02*
X104822754Y-76215000D01*
X104822754Y-76215000D02*
X107460000Y-73577754D01*
X93726000Y-78740000D02*
X93357322Y-78740000D01*
%TO.N,Net-(DS1-Vo)*%
X126265178Y-70127500D02*
X127511678Y-71374000D01*
X152463133Y-71374000D02*
X160885500Y-79796367D01*
X110000000Y-73352500D02*
X110000000Y-73127246D01*
X112999746Y-70127500D02*
X126265178Y-70127500D01*
X160885500Y-79796367D02*
X160885500Y-82855500D01*
X110000000Y-73127246D02*
X112999746Y-70127500D01*
X160885500Y-82855500D02*
X156728000Y-87013000D01*
X127511678Y-71374000D02*
X152463133Y-71374000D01*
%TO.N,D7*%
X105698000Y-83092000D02*
X124386924Y-83092000D01*
X101346000Y-78740000D02*
X105698000Y-83092000D01*
X124386924Y-83092000D02*
X126731000Y-80747924D01*
X126731000Y-80747924D02*
X126731000Y-74843500D01*
X126731000Y-74843500D02*
X125240000Y-73352500D01*
%TO.N,D6*%
X125681000Y-80313000D02*
X123952000Y-82042000D01*
X122700000Y-73352500D02*
X122700000Y-74102500D01*
X123952000Y-82042000D02*
X107188000Y-82042000D01*
X122700000Y-74102500D02*
X125681000Y-77083500D01*
X107188000Y-82042000D02*
X103886000Y-78740000D01*
X125681000Y-77083500D02*
X125681000Y-80313000D01*
%TO.N,D4*%
X89680000Y-73352500D02*
X89680000Y-73577754D01*
%TO.N,Net-(R5-Pad1)*%
X94185000Y-114672034D02*
X94185000Y-125648000D01*
X103442034Y-105415000D02*
X94185000Y-114672034D01*
X94185000Y-125648000D02*
X92710000Y-127123000D01*
X106035000Y-105415000D02*
X103442034Y-105415000D01*
%TO.N,Net-(R1-Pad2)*%
X97908000Y-105415000D02*
X98415000Y-105415000D01*
X88900000Y-114423000D02*
X97908000Y-105415000D01*
%TO.N,/ROTARY_DATA*%
X122801324Y-128534000D02*
X124590324Y-126745000D01*
X122801324Y-129229000D02*
X110941000Y-129229000D01*
X128777000Y-126745000D02*
X130302000Y-128270000D01*
X109425000Y-127713000D02*
X109425000Y-123518000D01*
X124590324Y-126745000D02*
X128777000Y-126745000D01*
X110941000Y-129229000D02*
X109425000Y-127713000D01*
X109425000Y-123518000D02*
X100330000Y-114423000D01*
X122801324Y-129229000D02*
X122801324Y-128534000D01*
%TO.N,Net-(A1-+5V)*%
X118061000Y-95455000D02*
X116586000Y-93980000D01*
X130609966Y-89662000D02*
X124816966Y-95455000D01*
X166116000Y-85881000D02*
X162335000Y-89662000D01*
X162335000Y-89662000D02*
X130609966Y-89662000D01*
X124816966Y-95455000D02*
X118061000Y-95455000D01*
D40*
%TO.N,Net-(D2-A)*%
X136652000Y-130623919D02*
X156718000Y-110557919D01*
X156718000Y-110557919D02*
X156718000Y-103124000D01*
X136652000Y-131826000D02*
X136652000Y-130623919D01*
D36*
%TO.N,SDA*%
X110105000Y-116078000D02*
X111760000Y-114423000D01*
X110490000Y-107950000D02*
X106475000Y-111965000D01*
X106475000Y-111965000D02*
X106475000Y-115033966D01*
X107519034Y-116078000D02*
X110105000Y-116078000D01*
X106475000Y-115033966D02*
X107519034Y-116078000D01*
X107510000Y-104970000D02*
X110490000Y-107950000D01*
X107510000Y-95064000D02*
X107510000Y-104970000D01*
X106426000Y-93980000D02*
X107510000Y-95064000D01*
%TD*%
%TA.AperFunction,Conductor*%
%TO.N,GND*%
G36*
X116836000Y-80018871D02*
G01*
X117032326Y-79966266D01*
X117238480Y-79870134D01*
X117424819Y-79739658D01*
X117585658Y-79578819D01*
X117716133Y-79392481D01*
X117738927Y-79343600D01*
X117785098Y-79291160D01*
X117852292Y-79272007D01*
X117919173Y-79292222D01*
X117963692Y-79343598D01*
X117988475Y-79396746D01*
X117988476Y-79396748D01*
X117988477Y-79396749D01*
X118119802Y-79584300D01*
X118281700Y-79746198D01*
X118469251Y-79877523D01*
X118676757Y-79974284D01*
X118897913Y-80033543D01*
X119040629Y-80046029D01*
X119125999Y-80053498D01*
X119125999Y-80053497D01*
X119126000Y-80053498D01*
X119354087Y-80033543D01*
X119575243Y-79974284D01*
X119782749Y-79877523D01*
X119970300Y-79746198D01*
X120132198Y-79584300D01*
X120263523Y-79396749D01*
X120283618Y-79353654D01*
X120329787Y-79301216D01*
X120396980Y-79282063D01*
X120463862Y-79302277D01*
X120508381Y-79353653D01*
X120528477Y-79396749D01*
X120659802Y-79584300D01*
X120821700Y-79746198D01*
X121009251Y-79877523D01*
X121216757Y-79974284D01*
X121437913Y-80033543D01*
X121580629Y-80046029D01*
X121665999Y-80053498D01*
X121665999Y-80053497D01*
X121666000Y-80053498D01*
X121894087Y-80033543D01*
X122115243Y-79974284D01*
X122322749Y-79877523D01*
X122510300Y-79746198D01*
X122672198Y-79584300D01*
X122677564Y-79576636D01*
X122732136Y-79533010D01*
X122801634Y-79525813D01*
X122863991Y-79557333D01*
X122899407Y-79617561D01*
X122902429Y-79634498D01*
X122904010Y-79649201D01*
X122955110Y-79786203D01*
X123042738Y-79903261D01*
X123159796Y-79990889D01*
X123296794Y-80041988D01*
X123296797Y-80041988D01*
X123296799Y-80041989D01*
X123357362Y-80048500D01*
X124396680Y-80048500D01*
X124463719Y-80068185D01*
X124509474Y-80120989D01*
X124519418Y-80190147D01*
X124490393Y-80253703D01*
X124484361Y-80260181D01*
X123622361Y-81122181D01*
X123561038Y-81155666D01*
X123534680Y-81158500D01*
X107605320Y-81158500D01*
X107538281Y-81138815D01*
X107517639Y-81122181D01*
X106628435Y-80232977D01*
X106594950Y-80171654D01*
X106599934Y-80101962D01*
X106641806Y-80046029D01*
X106684017Y-80025522D01*
X106875243Y-79974284D01*
X107082749Y-79877523D01*
X107270300Y-79746198D01*
X107432198Y-79584300D01*
X107563523Y-79396749D01*
X107583617Y-79353655D01*
X107629790Y-79301215D01*
X107696983Y-79282063D01*
X107763864Y-79302278D01*
X107808382Y-79353655D01*
X107828477Y-79396749D01*
X107959802Y-79584300D01*
X108121700Y-79746198D01*
X108309251Y-79877523D01*
X108516757Y-79974284D01*
X108737913Y-80033543D01*
X108966000Y-80053498D01*
X109194087Y-80033543D01*
X109415243Y-79974284D01*
X109622749Y-79877523D01*
X109810300Y-79746198D01*
X109972198Y-79584300D01*
X110103523Y-79396749D01*
X110123618Y-79353654D01*
X110169787Y-79301216D01*
X110236980Y-79282063D01*
X110303862Y-79302277D01*
X110348381Y-79353653D01*
X110368477Y-79396749D01*
X110499802Y-79584300D01*
X110661700Y-79746198D01*
X110849251Y-79877523D01*
X111056757Y-79974284D01*
X111277913Y-80033543D01*
X111506000Y-80053498D01*
X111734087Y-80033543D01*
X111955243Y-79974284D01*
X112162749Y-79877523D01*
X112350300Y-79746198D01*
X112512198Y-79584300D01*
X112643523Y-79396749D01*
X112663617Y-79353655D01*
X112709790Y-79301215D01*
X112776983Y-79282063D01*
X112843864Y-79302278D01*
X112888382Y-79353655D01*
X112908477Y-79396749D01*
X113039802Y-79584300D01*
X113201700Y-79746198D01*
X113389251Y-79877523D01*
X113596757Y-79974284D01*
X113817913Y-80033543D01*
X114046000Y-80053498D01*
X114274087Y-80033543D01*
X114495243Y-79974284D01*
X114702749Y-79877523D01*
X114890300Y-79746198D01*
X115052198Y-79584300D01*
X115183523Y-79396749D01*
X115208308Y-79343596D01*
X115254476Y-79291160D01*
X115321669Y-79272007D01*
X115388551Y-79292221D01*
X115433070Y-79343597D01*
X115455866Y-79392482D01*
X115586341Y-79578819D01*
X115747180Y-79739658D01*
X115933519Y-79870134D01*
X116139673Y-79966266D01*
X116335999Y-80018871D01*
X116336000Y-80018871D01*
X116336000Y-79175501D01*
X116443685Y-79224680D01*
X116550237Y-79240000D01*
X116621763Y-79240000D01*
X116728315Y-79224680D01*
X116836000Y-79175501D01*
X116836000Y-80018871D01*
G37*
%TD.AperFunction*%
%TA.AperFunction,Conductor*%
G36*
X120410000Y-75352500D02*
G01*
X120954518Y-75352500D01*
X120961132Y-75352145D01*
X121017371Y-75346099D01*
X121152089Y-75295852D01*
X121267188Y-75209688D01*
X121353352Y-75094589D01*
X121403599Y-74959871D01*
X121409645Y-74903632D01*
X121410000Y-74897018D01*
X121410000Y-74849689D01*
X121429685Y-74782650D01*
X121482489Y-74736895D01*
X121551647Y-74726951D01*
X121615203Y-74755976D01*
X121634316Y-74776801D01*
X121748429Y-74933863D01*
X121827692Y-75009646D01*
X121912165Y-75090412D01*
X122013606Y-75157372D01*
X122101226Y-75215209D01*
X122309530Y-75304243D01*
X122530385Y-75354651D01*
X122662713Y-75360593D01*
X122728800Y-75383265D01*
X122744829Y-75396787D01*
X123715734Y-76367692D01*
X124567862Y-77219819D01*
X124601347Y-77281142D01*
X124596363Y-77350834D01*
X124554491Y-77406767D01*
X124489027Y-77431184D01*
X124480181Y-77431500D01*
X123357362Y-77431500D01*
X123354082Y-77431852D01*
X123354075Y-77431853D01*
X123296794Y-77438011D01*
X123159796Y-77489110D01*
X123042738Y-77576738D01*
X122955110Y-77693796D01*
X122904009Y-77830799D01*
X122902429Y-77845501D01*
X122875690Y-77910052D01*
X122818296Y-77949898D01*
X122748471Y-77952390D01*
X122688383Y-77916737D01*
X122677564Y-77903364D01*
X122672197Y-77895699D01*
X122510303Y-77733805D01*
X122510302Y-77733804D01*
X122510300Y-77733802D01*
X122322749Y-77602477D01*
X122322746Y-77602476D01*
X122322744Y-77602474D01*
X122115246Y-77505717D01*
X122115243Y-77505716D01*
X121924022Y-77454478D01*
X121894084Y-77446456D01*
X121666000Y-77426501D01*
X121437915Y-77446456D01*
X121216753Y-77505717D01*
X121009255Y-77602474D01*
X121009250Y-77602477D01*
X121009251Y-77602477D01*
X120827539Y-77729714D01*
X120821696Y-77733805D01*
X120659805Y-77895696D01*
X120659802Y-77895699D01*
X120659802Y-77895700D01*
X120536053Y-78072432D01*
X120528475Y-78083254D01*
X120508380Y-78126347D01*
X120462207Y-78178785D01*
X120395013Y-78197936D01*
X120328132Y-78177719D01*
X120283618Y-78126345D01*
X120263523Y-78083251D01*
X120132198Y-77895700D01*
X119970300Y-77733802D01*
X119782749Y-77602477D01*
X119782746Y-77602476D01*
X119782744Y-77602474D01*
X119575246Y-77505717D01*
X119575243Y-77505716D01*
X119384022Y-77454478D01*
X119354084Y-77446456D01*
X119126000Y-77426501D01*
X118897915Y-77446456D01*
X118676753Y-77505717D01*
X118469255Y-77602474D01*
X118469250Y-77602477D01*
X118469251Y-77602477D01*
X118287539Y-77729714D01*
X118281696Y-77733805D01*
X118119805Y-77895696D01*
X118119802Y-77895699D01*
X118119802Y-77895700D01*
X117988477Y-78083251D01*
X117988477Y-78083252D01*
X117988474Y-78083256D01*
X117963691Y-78136402D01*
X117917518Y-78188841D01*
X117850325Y-78207992D01*
X117783444Y-78187775D01*
X117738927Y-78136400D01*
X117716132Y-78087516D01*
X117585658Y-77901180D01*
X117424819Y-77740341D01*
X117238480Y-77609865D01*
X117032326Y-77513733D01*
X116836000Y-77461126D01*
X116836000Y-78304498D01*
X116728315Y-78255320D01*
X116621763Y-78240000D01*
X116550237Y-78240000D01*
X116443685Y-78255320D01*
X116336000Y-78304498D01*
X116336000Y-77461127D01*
X116335999Y-77461126D01*
X116139673Y-77513733D01*
X115933519Y-77609865D01*
X115747180Y-77740341D01*
X115586341Y-77901180D01*
X115455864Y-78087520D01*
X115433069Y-78136403D01*
X115386896Y-78188841D01*
X115319702Y-78207992D01*
X115252821Y-78187775D01*
X115208307Y-78136401D01*
X115183523Y-78083251D01*
X115052198Y-77895700D01*
X114890300Y-77733802D01*
X114702749Y-77602477D01*
X114702746Y-77602476D01*
X114702744Y-77602474D01*
X114495246Y-77505717D01*
X114495243Y-77505716D01*
X114304022Y-77454478D01*
X114274084Y-77446456D01*
X114046000Y-77426501D01*
X113817915Y-77446456D01*
X113596753Y-77505717D01*
X113389255Y-77602474D01*
X113389250Y-77602477D01*
X113389251Y-77602477D01*
X113207539Y-77729714D01*
X113201696Y-77733805D01*
X113039805Y-77895696D01*
X113039802Y-77895699D01*
X113039802Y-77895700D01*
X112915832Y-78072748D01*
X112908476Y-78083253D01*
X112888382Y-78126345D01*
X112842209Y-78178784D01*
X112775016Y-78197936D01*
X112708135Y-78177720D01*
X112663618Y-78126345D01*
X112656314Y-78110682D01*
X112643523Y-78083251D01*
X112512198Y-77895700D01*
X112350300Y-77733802D01*
X112162749Y-77602477D01*
X112162746Y-77602476D01*
X112162744Y-77602474D01*
X111955246Y-77505717D01*
X111955243Y-77505716D01*
X111764022Y-77454478D01*
X111734084Y-77446456D01*
X111505999Y-77426501D01*
X111277915Y-77446456D01*
X111056753Y-77505717D01*
X110849255Y-77602474D01*
X110849250Y-77602477D01*
X110849251Y-77602477D01*
X110667539Y-77729714D01*
X110661696Y-77733805D01*
X110499805Y-77895696D01*
X110499802Y-77895699D01*
X110499802Y-77895700D01*
X110376053Y-78072432D01*
X110368475Y-78083254D01*
X110348380Y-78126347D01*
X110302207Y-78178785D01*
X110235013Y-78197936D01*
X110168132Y-78177719D01*
X110123618Y-78126345D01*
X110103523Y-78083251D01*
X109972198Y-77895700D01*
X109810300Y-77733802D01*
X109622749Y-77602477D01*
X109622746Y-77602476D01*
X109622744Y-77602474D01*
X109415246Y-77505717D01*
X109415243Y-77505716D01*
X109224022Y-77454478D01*
X109194084Y-77446456D01*
X108965999Y-77426501D01*
X108737915Y-77446456D01*
X108516753Y-77505717D01*
X108309255Y-77602474D01*
X108309250Y-77602477D01*
X108309251Y-77602477D01*
X108127539Y-77729714D01*
X108121696Y-77733805D01*
X107959805Y-77895696D01*
X107959802Y-77895699D01*
X107959802Y-77895700D01*
X107836053Y-78072432D01*
X107828475Y-78083254D01*
X107808380Y-78126347D01*
X107762207Y-78178785D01*
X107695013Y-78197936D01*
X107628132Y-78177719D01*
X107583618Y-78126345D01*
X107563523Y-78083251D01*
X107432198Y-77895700D01*
X107270300Y-77733802D01*
X107082749Y-77602477D01*
X107082746Y-77602476D01*
X107082744Y-77602474D01*
X106875246Y-77505717D01*
X106875243Y-77505716D01*
X106684022Y-77454478D01*
X106654084Y-77446456D01*
X106425999Y-77426501D01*
X106197915Y-77446456D01*
X105976753Y-77505717D01*
X105769255Y-77602474D01*
X105769250Y-77602477D01*
X105769251Y-77602477D01*
X105587539Y-77729714D01*
X105581696Y-77733805D01*
X105419805Y-77895696D01*
X105419802Y-77895699D01*
X105419802Y-77895700D01*
X105296053Y-78072432D01*
X105288475Y-78083254D01*
X105268380Y-78126347D01*
X105222207Y-78178785D01*
X105155013Y-78197936D01*
X105088132Y-78177719D01*
X105043618Y-78126345D01*
X105023523Y-78083251D01*
X104892198Y-77895700D01*
X104730300Y-77733802D01*
X104542749Y-77602477D01*
X104542746Y-77602476D01*
X104542744Y-77602474D01*
X104335246Y-77505717D01*
X104335243Y-77505716D01*
X104144022Y-77454478D01*
X104114084Y-77446456D01*
X103886000Y-77426501D01*
X103657915Y-77446456D01*
X103436753Y-77505717D01*
X103229255Y-77602474D01*
X103229250Y-77602477D01*
X103229251Y-77602477D01*
X103047539Y-77729714D01*
X103041696Y-77733805D01*
X102879805Y-77895696D01*
X102879802Y-77895699D01*
X102879802Y-77895700D01*
X102755832Y-78072748D01*
X102748476Y-78083253D01*
X102728382Y-78126345D01*
X102682209Y-78178784D01*
X102615016Y-78197936D01*
X102548135Y-78177720D01*
X102503618Y-78126345D01*
X102496314Y-78110682D01*
X102483523Y-78083251D01*
X102352198Y-77895700D01*
X102190300Y-77733802D01*
X102002749Y-77602477D01*
X102002746Y-77602476D01*
X102002744Y-77602474D01*
X101795246Y-77505717D01*
X101795243Y-77505716D01*
X101604022Y-77454478D01*
X101574084Y-77446456D01*
X101346000Y-77426501D01*
X101117915Y-77446456D01*
X100896753Y-77505717D01*
X100689255Y-77602474D01*
X100689250Y-77602477D01*
X100689251Y-77602477D01*
X100507539Y-77729714D01*
X100501696Y-77733805D01*
X100339805Y-77895696D01*
X100339802Y-77895699D01*
X100339802Y-77895700D01*
X100216053Y-78072432D01*
X100208475Y-78083254D01*
X100188380Y-78126347D01*
X100142207Y-78178785D01*
X100075013Y-78197936D01*
X100008132Y-78177719D01*
X99963618Y-78126345D01*
X99943523Y-78083251D01*
X99812198Y-77895700D01*
X99650300Y-77733802D01*
X99462749Y-77602477D01*
X99462746Y-77602476D01*
X99462744Y-77602474D01*
X99255246Y-77505717D01*
X99255243Y-77505716D01*
X99064022Y-77454478D01*
X99034084Y-77446456D01*
X98806000Y-77426501D01*
X98577915Y-77446456D01*
X98356753Y-77505717D01*
X98149255Y-77602474D01*
X98149250Y-77602477D01*
X98149251Y-77602477D01*
X97967539Y-77729714D01*
X97961696Y-77733805D01*
X97799805Y-77895696D01*
X97799802Y-77895699D01*
X97799802Y-77895700D01*
X97675832Y-78072748D01*
X97668476Y-78083253D01*
X97648382Y-78126345D01*
X97602209Y-78178784D01*
X97535016Y-78197936D01*
X97468135Y-78177720D01*
X97423618Y-78126345D01*
X97416314Y-78110682D01*
X97403523Y-78083251D01*
X97272198Y-77895700D01*
X97110300Y-77733802D01*
X96922749Y-77602477D01*
X96922746Y-77602476D01*
X96922744Y-77602474D01*
X96715246Y-77505717D01*
X96715243Y-77505716D01*
X96524022Y-77454478D01*
X96464362Y-77418112D01*
X96433833Y-77355265D01*
X96442128Y-77285890D01*
X96468431Y-77247025D01*
X96580640Y-77134816D01*
X96641962Y-77101334D01*
X96668320Y-77098500D01*
X104743459Y-77098500D01*
X104762857Y-77100026D01*
X104776261Y-77102150D01*
X104842661Y-77098669D01*
X104849151Y-77098500D01*
X104865806Y-77098500D01*
X104869060Y-77098500D01*
X104888868Y-77096417D01*
X104895319Y-77095909D01*
X104961725Y-77092430D01*
X104974837Y-77088916D01*
X104993952Y-77085373D01*
X105007456Y-77083954D01*
X105070706Y-77063401D01*
X105076875Y-77061574D01*
X105141117Y-77044362D01*
X105147543Y-77041087D01*
X105153201Y-77038205D01*
X105171182Y-77030756D01*
X105184085Y-77026564D01*
X105241704Y-76993296D01*
X105247342Y-76990236D01*
X105306593Y-76960047D01*
X105317137Y-76951508D01*
X105333177Y-76940485D01*
X105344923Y-76933704D01*
X105363178Y-76917267D01*
X105394333Y-76889213D01*
X105399244Y-76885019D01*
X105414740Y-76872472D01*
X105428826Y-76858384D01*
X105433516Y-76853932D01*
X105482939Y-76809434D01*
X105490923Y-76798443D01*
X105503548Y-76783662D01*
X106950595Y-75336615D01*
X107011916Y-75303132D01*
X107065866Y-75303407D01*
X107117541Y-75315201D01*
X107290385Y-75354651D01*
X107497234Y-75363941D01*
X107516689Y-75364815D01*
X107516689Y-75364814D01*
X107516691Y-75364815D01*
X107741175Y-75334406D01*
X107956621Y-75264403D01*
X108156106Y-75157056D01*
X108333218Y-75015814D01*
X108482263Y-74845218D01*
X108598453Y-74650750D01*
X108614220Y-74608737D01*
X108656206Y-74552889D01*
X108721720Y-74528605D01*
X108789962Y-74543596D01*
X108839267Y-74593102D01*
X108842034Y-74598506D01*
X108915273Y-74750590D01*
X108915274Y-74750592D01*
X108915275Y-74750593D01*
X109048429Y-74933863D01*
X109127692Y-75009646D01*
X109212165Y-75090412D01*
X109313606Y-75157372D01*
X109401226Y-75215209D01*
X109609530Y-75304243D01*
X109830385Y-75354651D01*
X110037234Y-75363941D01*
X110056689Y-75364815D01*
X110056689Y-75364814D01*
X110056691Y-75364815D01*
X110281175Y-75334406D01*
X110496621Y-75264403D01*
X110696106Y-75157056D01*
X110873218Y-75015814D01*
X111022263Y-74845218D01*
X111138453Y-74650750D01*
X111154220Y-74608737D01*
X111196206Y-74552889D01*
X111261720Y-74528605D01*
X111329962Y-74543596D01*
X111379267Y-74593102D01*
X111382034Y-74598506D01*
X111455273Y-74750590D01*
X111455274Y-74750592D01*
X111455275Y-74750593D01*
X111588429Y-74933863D01*
X111667692Y-75009646D01*
X111752165Y-75090412D01*
X111853606Y-75157372D01*
X111941226Y-75215209D01*
X112149530Y-75304243D01*
X112370385Y-75354651D01*
X112577234Y-75363941D01*
X112596689Y-75364815D01*
X112596689Y-75364814D01*
X112596691Y-75364815D01*
X112821175Y-75334406D01*
X113036621Y-75264403D01*
X113236106Y-75157056D01*
X113413218Y-75015814D01*
X113562263Y-74845218D01*
X113678453Y-74650750D01*
X113698353Y-74597724D01*
X113740337Y-74541878D01*
X113805851Y-74517594D01*
X113874094Y-74532585D01*
X113923399Y-74582090D01*
X113926166Y-74587495D01*
X114002599Y-74746212D01*
X114134855Y-74928245D01*
X114297491Y-75083741D01*
X114485271Y-75207693D01*
X114692166Y-75296125D01*
X114829999Y-75327584D01*
X114830000Y-75327584D01*
X114830000Y-73788001D01*
X114937685Y-73837180D01*
X115044237Y-73852500D01*
X115115763Y-73852500D01*
X115222315Y-73837180D01*
X115330000Y-73788001D01*
X115330000Y-75330049D01*
X115359274Y-75326085D01*
X115573265Y-75256555D01*
X115771407Y-75149930D01*
X115947318Y-75009646D01*
X116095359Y-74840200D01*
X116210763Y-74647047D01*
X116229118Y-74598141D01*
X116271103Y-74542293D01*
X116336617Y-74518009D01*
X116404859Y-74533000D01*
X116454164Y-74582506D01*
X116456931Y-74587910D01*
X116535272Y-74750590D01*
X116583610Y-74817120D01*
X116668429Y-74933863D01*
X116747692Y-75009646D01*
X116832165Y-75090412D01*
X116933606Y-75157372D01*
X117021226Y-75215209D01*
X117229530Y-75304243D01*
X117450385Y-75354651D01*
X117657234Y-75363941D01*
X117676689Y-75364815D01*
X117676689Y-75364814D01*
X117676691Y-75364815D01*
X117901175Y-75334406D01*
X118116621Y-75264403D01*
X118316106Y-75157056D01*
X118493218Y-75015814D01*
X118642263Y-74845218D01*
X118679554Y-74782802D01*
X118730835Y-74735352D01*
X118799632Y-74723157D01*
X118864101Y-74750092D01*
X118903774Y-74807606D01*
X118910000Y-74846405D01*
X118910000Y-74897018D01*
X118910354Y-74903632D01*
X118916400Y-74959871D01*
X118966647Y-75094589D01*
X119052811Y-75209688D01*
X119167910Y-75295852D01*
X119302628Y-75346099D01*
X119358867Y-75352145D01*
X119365482Y-75352500D01*
X119910000Y-75352500D01*
X119910000Y-73788001D01*
X120017685Y-73837180D01*
X120124237Y-73852500D01*
X120195763Y-73852500D01*
X120302315Y-73837180D01*
X120410000Y-73788001D01*
X120410000Y-75352500D01*
G37*
%TD.AperFunction*%
%TA.AperFunction,Conductor*%
G36*
X131767150Y-131405814D02*
G01*
X131818402Y-131453301D01*
X131835882Y-131514049D01*
X131837469Y-131584753D01*
X131837500Y-131587536D01*
X131837500Y-131938350D01*
X131817815Y-132005389D01*
X131801181Y-132026031D01*
X131142031Y-132685181D01*
X131080708Y-132718666D01*
X131054350Y-132721500D01*
X122797065Y-132721500D01*
X122730026Y-132701815D01*
X122684271Y-132649011D01*
X122674327Y-132579853D01*
X122684684Y-132545093D01*
X122685430Y-132543492D01*
X122742636Y-132330000D01*
X121845686Y-132330000D01*
X121871493Y-132289844D01*
X121912000Y-132151889D01*
X121912000Y-132008111D01*
X121871493Y-131870156D01*
X121845686Y-131830000D01*
X122742636Y-131830000D01*
X122742635Y-131829999D01*
X122732881Y-131793594D01*
X122734544Y-131723744D01*
X122773706Y-131665881D01*
X122837935Y-131638377D01*
X122852656Y-131637500D01*
X130973705Y-131637500D01*
X130993103Y-131639026D01*
X131006507Y-131641150D01*
X131072907Y-131637669D01*
X131079397Y-131637500D01*
X131096052Y-131637500D01*
X131099306Y-131637500D01*
X131119114Y-131635417D01*
X131125565Y-131634909D01*
X131191971Y-131631430D01*
X131205083Y-131627916D01*
X131224198Y-131624373D01*
X131237702Y-131622954D01*
X131300952Y-131602401D01*
X131307121Y-131600574D01*
X131371363Y-131583362D01*
X131377961Y-131580000D01*
X131383447Y-131577205D01*
X131401428Y-131569756D01*
X131414331Y-131565564D01*
X131471950Y-131532296D01*
X131477588Y-131529236D01*
X131536839Y-131499047D01*
X131547383Y-131490508D01*
X131563423Y-131479485D01*
X131575169Y-131472704D01*
X131613156Y-131438500D01*
X131624579Y-131428213D01*
X131629493Y-131424016D01*
X131633876Y-131420468D01*
X131698360Y-131393575D01*
X131767150Y-131405814D01*
G37*
%TD.AperFunction*%
%TA.AperFunction,Conductor*%
G36*
X125472000Y-129600633D02*
G01*
X125685490Y-129543430D01*
X125899576Y-129443600D01*
X126093081Y-129308106D01*
X126260106Y-129141081D01*
X126386868Y-128960048D01*
X126441445Y-128916424D01*
X126510944Y-128909231D01*
X126573298Y-128940753D01*
X126592252Y-128963351D01*
X126686276Y-129107267D01*
X126768573Y-129196664D01*
X126838760Y-129272906D01*
X127016424Y-129411189D01*
X127214426Y-129518342D01*
X127427365Y-129591444D01*
X127623609Y-129624191D01*
X127686494Y-129654641D01*
X127722933Y-129714256D01*
X127721358Y-129784108D01*
X127682268Y-129842020D01*
X127618075Y-129869604D01*
X127603199Y-129870500D01*
X123670677Y-129870500D01*
X123603638Y-129850815D01*
X123557883Y-129798011D01*
X123547939Y-129728853D01*
X123565650Y-129685217D01*
X123565370Y-129685093D01*
X123569123Y-129676661D01*
X123570362Y-129673611D01*
X123570423Y-129673525D01*
X123570672Y-129673184D01*
X123586966Y-129636585D01*
X123592849Y-129625038D01*
X123612888Y-129590331D01*
X123625268Y-129552224D01*
X123629915Y-129540118D01*
X123646211Y-129503521D01*
X123654540Y-129464333D01*
X123657899Y-129451798D01*
X123670278Y-129413701D01*
X123674464Y-129373864D01*
X123676491Y-129361057D01*
X123684824Y-129321860D01*
X123684824Y-129136140D01*
X123684824Y-128951317D01*
X123704509Y-128884279D01*
X123721138Y-128863642D01*
X123792413Y-128792367D01*
X123853734Y-128758884D01*
X123923426Y-128763868D01*
X123979359Y-128805740D01*
X123992474Y-128827645D01*
X124048399Y-128947576D01*
X124183893Y-129141081D01*
X124350918Y-129308106D01*
X124544423Y-129443600D01*
X124758509Y-129543430D01*
X124972000Y-129600634D01*
X124972000Y-128705501D01*
X125079685Y-128754680D01*
X125186237Y-128770000D01*
X125257763Y-128770000D01*
X125364315Y-128754680D01*
X125472000Y-128705501D01*
X125472000Y-129600633D01*
G37*
%TD.AperFunction*%
%TA.AperFunction,Conductor*%
G36*
X134032719Y-90565185D02*
G01*
X134078474Y-90617989D01*
X134088418Y-90687147D01*
X134059393Y-90750703D01*
X134053361Y-90757181D01*
X119205181Y-105605361D01*
X119143858Y-105638846D01*
X119074166Y-105633862D01*
X119018233Y-105591990D01*
X118993816Y-105526526D01*
X118993500Y-105517680D01*
X118993500Y-105235289D01*
X118995027Y-105215890D01*
X118995594Y-105212308D01*
X118997149Y-105202493D01*
X118993670Y-105136104D01*
X118993500Y-105129615D01*
X118993500Y-105112947D01*
X118993500Y-105109694D01*
X118991417Y-105089884D01*
X118990908Y-105083415D01*
X118987430Y-105017032D01*
X118987430Y-105017029D01*
X118983914Y-105003910D01*
X118980372Y-104984797D01*
X118978954Y-104971298D01*
X118958409Y-104908068D01*
X118956565Y-104901842D01*
X118939362Y-104837636D01*
X118933202Y-104825546D01*
X118925755Y-104807568D01*
X118921563Y-104794666D01*
X118888318Y-104737086D01*
X118885219Y-104731378D01*
X118855047Y-104672161D01*
X118846510Y-104661619D01*
X118835489Y-104645583D01*
X118828704Y-104633831D01*
X118784223Y-104584429D01*
X118780010Y-104579496D01*
X118769516Y-104566537D01*
X118769507Y-104566527D01*
X118767472Y-104564014D01*
X118753390Y-104549932D01*
X118748921Y-104545223D01*
X118704434Y-104495815D01*
X118693451Y-104487835D01*
X118678657Y-104475199D01*
X114386287Y-100182829D01*
X114383986Y-100180528D01*
X114275839Y-100092953D01*
X114275840Y-100092953D01*
X114275837Y-100092951D01*
X114110364Y-100008637D01*
X113930970Y-99960569D01*
X113763977Y-99951817D01*
X113745507Y-99950850D01*
X113745506Y-99950850D01*
X113745505Y-99950850D01*
X113562076Y-99979901D01*
X113416186Y-100035904D01*
X113388690Y-100046459D01*
X113388689Y-100046459D01*
X113388688Y-100046460D01*
X113232931Y-100147609D01*
X113101608Y-100278932D01*
X113028614Y-100391334D01*
X112975593Y-100436837D01*
X112906388Y-100446451D01*
X112842971Y-100417124D01*
X112836938Y-100411480D01*
X111548661Y-99123203D01*
X111515176Y-99061880D01*
X111520160Y-98992188D01*
X111534767Y-98964398D01*
X111620133Y-98842481D01*
X111642927Y-98793600D01*
X111689098Y-98741160D01*
X111756292Y-98722007D01*
X111823173Y-98742222D01*
X111867692Y-98793598D01*
X111892475Y-98846746D01*
X111892476Y-98846748D01*
X111892477Y-98846749D01*
X112023802Y-99034300D01*
X112185700Y-99196198D01*
X112373251Y-99327523D01*
X112580757Y-99424284D01*
X112801913Y-99483543D01*
X113030000Y-99503498D01*
X113258087Y-99483543D01*
X113479243Y-99424284D01*
X113686749Y-99327523D01*
X113874300Y-99196198D01*
X114036198Y-99034300D01*
X114167523Y-98846749D01*
X114192308Y-98793596D01*
X114238476Y-98741160D01*
X114305669Y-98722007D01*
X114372551Y-98742221D01*
X114417070Y-98793597D01*
X114439866Y-98842482D01*
X114570341Y-99028819D01*
X114731180Y-99189658D01*
X114917519Y-99320134D01*
X115123673Y-99416266D01*
X115319999Y-99468871D01*
X115320000Y-99468871D01*
X115320000Y-98105686D01*
X115331955Y-98117641D01*
X115444852Y-98175165D01*
X115538519Y-98190000D01*
X115601481Y-98190000D01*
X115695148Y-98175165D01*
X115808045Y-98117641D01*
X115819999Y-98105687D01*
X115819999Y-99468871D01*
X116016326Y-99416266D01*
X116222480Y-99320134D01*
X116408819Y-99189658D01*
X116569661Y-99028816D01*
X116587627Y-99003158D01*
X116642203Y-98959532D01*
X116711701Y-98952337D01*
X116774056Y-98983858D01*
X116809471Y-99044087D01*
X116812492Y-99061022D01*
X116816400Y-99097371D01*
X116866647Y-99232089D01*
X116952811Y-99347188D01*
X117067910Y-99433352D01*
X117202628Y-99483599D01*
X117258867Y-99489645D01*
X117265482Y-99490000D01*
X117860000Y-99490000D01*
X117860000Y-98105686D01*
X117871955Y-98117641D01*
X117984852Y-98175165D01*
X118078519Y-98190000D01*
X118141481Y-98190000D01*
X118235148Y-98175165D01*
X118348045Y-98117641D01*
X118360000Y-98105686D01*
X118360000Y-99490000D01*
X118954518Y-99490000D01*
X118961132Y-99489645D01*
X119017371Y-99483599D01*
X119152089Y-99433352D01*
X119267188Y-99347188D01*
X119353352Y-99232089D01*
X119403599Y-99097371D01*
X119409645Y-99041132D01*
X119410000Y-99034518D01*
X119410000Y-98040000D01*
X118425686Y-98040000D01*
X118437641Y-98028045D01*
X118495165Y-97915148D01*
X118514986Y-97790000D01*
X118495165Y-97664852D01*
X118437641Y-97551955D01*
X118425686Y-97540000D01*
X119410000Y-97540000D01*
X119410000Y-96545481D01*
X119409645Y-96538869D01*
X119402860Y-96475756D01*
X119415265Y-96406996D01*
X119462875Y-96355859D01*
X119526149Y-96338500D01*
X124737671Y-96338500D01*
X124757069Y-96340026D01*
X124770473Y-96342150D01*
X124836873Y-96338669D01*
X124843363Y-96338500D01*
X124860018Y-96338500D01*
X124863272Y-96338500D01*
X124883080Y-96336417D01*
X124889531Y-96335909D01*
X124955937Y-96332430D01*
X124969049Y-96328916D01*
X124988164Y-96325373D01*
X125001668Y-96323954D01*
X125064918Y-96303401D01*
X125071087Y-96301574D01*
X125135329Y-96284362D01*
X125141755Y-96281087D01*
X125147413Y-96278205D01*
X125165394Y-96270756D01*
X125178297Y-96266564D01*
X125235916Y-96233296D01*
X125241554Y-96230236D01*
X125300805Y-96200047D01*
X125311349Y-96191508D01*
X125327389Y-96180485D01*
X125339135Y-96173704D01*
X125369184Y-96146647D01*
X125388545Y-96129213D01*
X125393456Y-96125019D01*
X125408952Y-96112472D01*
X125423038Y-96098384D01*
X125427728Y-96093932D01*
X125477151Y-96049434D01*
X125485135Y-96038443D01*
X125497760Y-96023662D01*
X130939604Y-90581819D01*
X131000928Y-90548334D01*
X131027286Y-90545500D01*
X133965680Y-90545500D01*
X134032719Y-90565185D01*
G37*
%TD.AperFunction*%
%TA.AperFunction,Conductor*%
G36*
X114118703Y-102414606D02*
G01*
X114125167Y-102420625D01*
X115573785Y-103869242D01*
X117190181Y-105485638D01*
X117223666Y-105546961D01*
X117226500Y-105573319D01*
X117226500Y-106531639D01*
X117206815Y-106598678D01*
X117190182Y-106619320D01*
X117103802Y-106705699D01*
X117066274Y-106759295D01*
X116972477Y-106893251D01*
X116972477Y-106893252D01*
X116972474Y-106893256D01*
X116947691Y-106946402D01*
X116901518Y-106998841D01*
X116834325Y-107017992D01*
X116767444Y-106997775D01*
X116722927Y-106946400D01*
X116700132Y-106897516D01*
X116569658Y-106711180D01*
X116408819Y-106550341D01*
X116222480Y-106419865D01*
X116016326Y-106323733D01*
X115819999Y-106271127D01*
X115819999Y-107634313D01*
X115808045Y-107622359D01*
X115695148Y-107564835D01*
X115601481Y-107550000D01*
X115538519Y-107550000D01*
X115444852Y-107564835D01*
X115331955Y-107622359D01*
X115319999Y-107634314D01*
X115320000Y-106271127D01*
X115319999Y-106271126D01*
X115123673Y-106323733D01*
X114917519Y-106419865D01*
X114731180Y-106550341D01*
X114570341Y-106711180D01*
X114439864Y-106897520D01*
X114417069Y-106946403D01*
X114370896Y-106998841D01*
X114303702Y-107017992D01*
X114236821Y-106997775D01*
X114192307Y-106946401D01*
X114167523Y-106893251D01*
X114036198Y-106705700D01*
X113949818Y-106619320D01*
X113916334Y-106557996D01*
X113913500Y-106531639D01*
X113913500Y-102508319D01*
X113933185Y-102441280D01*
X113985989Y-102395525D01*
X114055147Y-102385581D01*
X114118703Y-102414606D01*
G37*
%TD.AperFunction*%
%TA.AperFunction,Conductor*%
G36*
X117782359Y-97551955D02*
G01*
X117724835Y-97664852D01*
X117705014Y-97790000D01*
X117724835Y-97915148D01*
X117782359Y-98028045D01*
X117794314Y-98040000D01*
X115885686Y-98040000D01*
X115897641Y-98028045D01*
X115955165Y-97915148D01*
X115974986Y-97790000D01*
X115955165Y-97664852D01*
X115897641Y-97551955D01*
X115885686Y-97540000D01*
X117794314Y-97540000D01*
X117782359Y-97551955D01*
G37*
%TD.AperFunction*%
%TA.AperFunction,Conductor*%
G36*
X115383864Y-94542278D02*
G01*
X115428382Y-94593655D01*
X115448477Y-94636749D01*
X115579802Y-94824300D01*
X115741700Y-94986198D01*
X115929251Y-95117523D01*
X115929254Y-95117524D01*
X115929255Y-95117525D01*
X115981346Y-95141815D01*
X116136757Y-95214284D01*
X116357913Y-95273543D01*
X116423080Y-95279244D01*
X116585995Y-95293498D01*
X116585997Y-95293497D01*
X116586000Y-95293498D01*
X116587276Y-95293386D01*
X116589250Y-95293782D01*
X116596808Y-95294444D01*
X116596734Y-95295286D01*
X116655776Y-95307146D01*
X116685774Y-95329232D01*
X117248508Y-95891966D01*
X117281993Y-95953289D01*
X117277009Y-96022981D01*
X117235137Y-96078914D01*
X117204161Y-96095829D01*
X117067910Y-96146647D01*
X116952811Y-96232811D01*
X116866647Y-96347910D01*
X116816400Y-96482628D01*
X116812492Y-96518977D01*
X116785753Y-96583528D01*
X116728360Y-96623375D01*
X116658535Y-96625868D01*
X116598446Y-96590214D01*
X116587628Y-96576843D01*
X116569660Y-96551182D01*
X116408819Y-96390341D01*
X116222480Y-96259865D01*
X116016326Y-96163733D01*
X115819999Y-96111127D01*
X115819999Y-97474313D01*
X115808045Y-97462359D01*
X115695148Y-97404835D01*
X115601481Y-97390000D01*
X115538519Y-97390000D01*
X115444852Y-97404835D01*
X115331955Y-97462359D01*
X115320000Y-97474314D01*
X115320000Y-96111127D01*
X115319999Y-96111126D01*
X115123673Y-96163733D01*
X114917519Y-96259865D01*
X114731180Y-96390341D01*
X114570341Y-96551180D01*
X114439864Y-96737520D01*
X114417069Y-96786403D01*
X114370896Y-96838841D01*
X114303702Y-96857992D01*
X114236821Y-96837775D01*
X114192307Y-96786401D01*
X114167523Y-96733251D01*
X114036198Y-96545700D01*
X113874300Y-96383802D01*
X113686749Y-96252477D01*
X113686746Y-96252476D01*
X113686744Y-96252474D01*
X113479246Y-96155717D01*
X113479243Y-96155716D01*
X113325480Y-96114515D01*
X113258084Y-96096456D01*
X113030000Y-96076501D01*
X112801915Y-96096456D01*
X112580753Y-96155717D01*
X112373255Y-96252474D01*
X112301942Y-96302408D01*
X112245187Y-96342149D01*
X112185696Y-96383805D01*
X112023805Y-96545696D01*
X112023802Y-96545699D01*
X112023802Y-96545700D01*
X111892477Y-96733251D01*
X111892477Y-96733252D01*
X111892474Y-96733256D01*
X111867691Y-96786402D01*
X111821518Y-96838841D01*
X111754325Y-96857992D01*
X111687444Y-96837775D01*
X111642927Y-96786400D01*
X111620132Y-96737516D01*
X111489658Y-96551180D01*
X111328819Y-96390341D01*
X111142480Y-96259865D01*
X110936326Y-96163733D01*
X110740000Y-96111126D01*
X110740000Y-97474314D01*
X110728045Y-97462359D01*
X110615148Y-97404835D01*
X110521481Y-97390000D01*
X110458519Y-97390000D01*
X110364852Y-97404835D01*
X110251955Y-97462359D01*
X110240000Y-97474314D01*
X110240000Y-96111127D01*
X110239999Y-96111126D01*
X110043673Y-96163733D01*
X110025905Y-96172019D01*
X109956827Y-96182511D01*
X109893043Y-96153991D01*
X109854804Y-96095515D01*
X109849500Y-96059637D01*
X109849500Y-95545110D01*
X109849500Y-94998356D01*
X109869183Y-94931321D01*
X109885809Y-94910688D01*
X109972198Y-94824300D01*
X110103523Y-94636749D01*
X110123618Y-94593654D01*
X110169787Y-94541216D01*
X110236980Y-94522063D01*
X110303862Y-94542277D01*
X110348381Y-94593653D01*
X110368477Y-94636749D01*
X110499802Y-94824300D01*
X110661700Y-94986198D01*
X110849251Y-95117523D01*
X110849254Y-95117524D01*
X110849255Y-95117525D01*
X110901346Y-95141815D01*
X111056757Y-95214284D01*
X111277913Y-95273543D01*
X111506000Y-95293498D01*
X111734087Y-95273543D01*
X111955243Y-95214284D01*
X112162749Y-95117523D01*
X112350300Y-94986198D01*
X112512198Y-94824300D01*
X112643523Y-94636749D01*
X112663617Y-94593655D01*
X112709790Y-94541215D01*
X112776983Y-94522063D01*
X112843864Y-94542278D01*
X112888382Y-94593655D01*
X112908477Y-94636749D01*
X113039802Y-94824300D01*
X113201700Y-94986198D01*
X113389251Y-95117523D01*
X113389254Y-95117524D01*
X113389255Y-95117525D01*
X113441346Y-95141815D01*
X113596757Y-95214284D01*
X113817913Y-95273543D01*
X114046000Y-95293498D01*
X114274087Y-95273543D01*
X114495243Y-95214284D01*
X114702749Y-95117523D01*
X114890300Y-94986198D01*
X115052198Y-94824300D01*
X115183523Y-94636749D01*
X115203617Y-94593655D01*
X115249790Y-94541215D01*
X115316983Y-94522063D01*
X115383864Y-94542278D01*
G37*
%TD.AperFunction*%
%TA.AperFunction,Conductor*%
G36*
X176578507Y-82848156D02*
G01*
X176538000Y-82986111D01*
X176538000Y-83129889D01*
X176578507Y-83267844D01*
X176604314Y-83308000D01*
X174931686Y-83308000D01*
X174957493Y-83267844D01*
X174998000Y-83129889D01*
X174998000Y-82986111D01*
X174957493Y-82848156D01*
X174931686Y-82808000D01*
X176604314Y-82808000D01*
X176578507Y-82848156D01*
G37*
%TD.AperFunction*%
%TA.AperFunction,Conductor*%
G36*
X198814539Y-68546685D02*
G01*
X198860294Y-68599489D01*
X198871500Y-68651000D01*
X198871500Y-138613000D01*
X198851815Y-138680039D01*
X198799011Y-138725794D01*
X198747500Y-138737000D01*
X126658000Y-138737000D01*
X75064373Y-138684136D01*
X74997354Y-138664383D01*
X74951653Y-138611532D01*
X74940500Y-138560136D01*
X74940500Y-111352500D01*
X75896670Y-111352500D01*
X75896829Y-111355635D01*
X75914843Y-111710864D01*
X75915978Y-111733230D01*
X75916454Y-111736342D01*
X75916455Y-111736344D01*
X75972384Y-112101428D01*
X75973706Y-112110053D01*
X75974492Y-112113090D01*
X75974493Y-112113093D01*
X76040410Y-112367683D01*
X76069259Y-112479102D01*
X76082438Y-112514686D01*
X76188790Y-112801848D01*
X76201658Y-112836591D01*
X76235427Y-112905433D01*
X76352383Y-113143865D01*
X76369545Y-113178851D01*
X76371204Y-113181512D01*
X76371207Y-113181518D01*
X76501352Y-113390316D01*
X76571196Y-113502371D01*
X76573119Y-113504855D01*
X76573123Y-113504861D01*
X76754716Y-113739459D01*
X76804543Y-113803830D01*
X76806704Y-113806103D01*
X76806708Y-113806108D01*
X76927908Y-113933610D01*
X77067190Y-114080134D01*
X77356443Y-114328450D01*
X77669334Y-114546228D01*
X77856400Y-114650059D01*
X77999910Y-114729714D01*
X77999915Y-114729716D01*
X78002651Y-114731235D01*
X78352976Y-114881571D01*
X78716712Y-114995694D01*
X78719780Y-114996324D01*
X78719782Y-114996325D01*
X78794433Y-115011666D01*
X79090127Y-115072432D01*
X79469390Y-115111000D01*
X79472532Y-115111000D01*
X79847468Y-115111000D01*
X79850610Y-115111000D01*
X80229873Y-115072432D01*
X80603288Y-114995694D01*
X80967024Y-114881571D01*
X81317349Y-114731235D01*
X81650666Y-114546228D01*
X81963557Y-114328450D01*
X82252810Y-114080134D01*
X82515457Y-113803830D01*
X82748804Y-113502371D01*
X82950455Y-113178851D01*
X83118342Y-112836591D01*
X83250741Y-112479102D01*
X83346294Y-112110053D01*
X83404022Y-111733230D01*
X83423330Y-111352500D01*
X83404022Y-110971770D01*
X83346294Y-110594947D01*
X83250741Y-110225898D01*
X83118342Y-109868409D01*
X82950455Y-109526149D01*
X82748804Y-109202629D01*
X82515457Y-108901170D01*
X82252810Y-108624866D01*
X81963557Y-108376550D01*
X81650666Y-108158772D01*
X81594345Y-108127511D01*
X81320089Y-107975285D01*
X81320076Y-107975278D01*
X81317349Y-107973765D01*
X81314470Y-107972529D01*
X81314467Y-107972528D01*
X80969915Y-107824669D01*
X80969904Y-107824665D01*
X80967024Y-107823429D01*
X80964026Y-107822488D01*
X80964017Y-107822485D01*
X80606284Y-107710246D01*
X80606283Y-107710245D01*
X80603288Y-107709306D01*
X80600233Y-107708678D01*
X80600217Y-107708674D01*
X80232941Y-107633198D01*
X80232931Y-107633196D01*
X80229873Y-107632568D01*
X80184027Y-107627905D01*
X79853733Y-107594317D01*
X79853721Y-107594316D01*
X79850610Y-107594000D01*
X79469390Y-107594000D01*
X79466279Y-107594316D01*
X79466266Y-107594317D01*
X79093244Y-107632251D01*
X79090127Y-107632568D01*
X79087071Y-107633195D01*
X79087058Y-107633198D01*
X78719782Y-107708674D01*
X78719761Y-107708679D01*
X78716712Y-107709306D01*
X78713720Y-107710244D01*
X78713715Y-107710246D01*
X78355982Y-107822485D01*
X78355966Y-107822490D01*
X78352976Y-107823429D01*
X78350101Y-107824662D01*
X78350084Y-107824669D01*
X78005532Y-107972528D01*
X78005521Y-107972533D01*
X78002651Y-107973765D01*
X77999931Y-107975274D01*
X77999910Y-107975285D01*
X77672077Y-108157249D01*
X77672069Y-108157253D01*
X77669334Y-108158772D01*
X77666765Y-108160559D01*
X77666757Y-108160565D01*
X77359024Y-108374753D01*
X77359016Y-108374758D01*
X77356443Y-108376550D01*
X77354064Y-108378591D01*
X77354054Y-108378600D01*
X77069574Y-108622819D01*
X77067190Y-108624866D01*
X77065030Y-108627137D01*
X77065025Y-108627143D01*
X76806708Y-108898891D01*
X76806695Y-108898905D01*
X76804543Y-108901170D01*
X76802625Y-108903647D01*
X76802618Y-108903656D01*
X76573123Y-109200138D01*
X76573112Y-109200153D01*
X76571196Y-109202629D01*
X76569535Y-109205293D01*
X76569530Y-109205301D01*
X76371207Y-109523481D01*
X76371199Y-109523495D01*
X76369545Y-109526149D01*
X76368168Y-109528956D01*
X76368162Y-109528967D01*
X76276004Y-109716844D01*
X76201658Y-109868409D01*
X76200567Y-109871353D01*
X76200563Y-109871364D01*
X76087553Y-110176503D01*
X76069259Y-110225898D01*
X76068478Y-110228913D01*
X76068474Y-110228927D01*
X75994552Y-110514433D01*
X75973706Y-110594947D01*
X75973231Y-110598046D01*
X75973229Y-110598057D01*
X75949091Y-110755620D01*
X75915978Y-110971770D01*
X75915819Y-110974905D01*
X75915818Y-110974915D01*
X75899784Y-111291103D01*
X75896670Y-111352500D01*
X74940500Y-111352500D01*
X74940500Y-102823506D01*
X81916850Y-102823506D01*
X81926569Y-103008970D01*
X81974637Y-103188364D01*
X82058951Y-103353837D01*
X82058953Y-103353839D01*
X82146528Y-103461986D01*
X82148828Y-103464286D01*
X82148829Y-103464287D01*
X85694181Y-107009638D01*
X85727666Y-107070961D01*
X85730500Y-107097319D01*
X85730500Y-113064965D01*
X85710815Y-113132004D01*
X85658011Y-113177759D01*
X85588853Y-113187703D01*
X85574406Y-113184740D01*
X85368084Y-113129456D01*
X85139999Y-113109501D01*
X84911915Y-113129456D01*
X84690753Y-113188717D01*
X84483255Y-113285474D01*
X84295696Y-113416805D01*
X84133805Y-113578696D01*
X84133802Y-113578699D01*
X84133802Y-113578700D01*
X84090298Y-113640830D01*
X84002474Y-113766255D01*
X83905717Y-113973753D01*
X83846456Y-114194915D01*
X83826501Y-114422999D01*
X83846456Y-114651084D01*
X83846457Y-114651087D01*
X83902008Y-114858406D01*
X83905717Y-114872246D01*
X84002474Y-115079744D01*
X84002476Y-115079746D01*
X84002477Y-115079749D01*
X84133802Y-115267300D01*
X84295700Y-115429198D01*
X84483251Y-115560523D01*
X84690757Y-115657284D01*
X84911913Y-115716543D01*
X85063970Y-115729846D01*
X85139999Y-115736498D01*
X85139999Y-115736497D01*
X85140000Y-115736498D01*
X85368087Y-115716543D01*
X85589243Y-115657284D01*
X85796749Y-115560523D01*
X85984300Y-115429198D01*
X86146198Y-115267300D01*
X86169617Y-115233852D01*
X86224191Y-115190229D01*
X86293690Y-115183035D01*
X86356045Y-115214557D01*
X86358872Y-115217296D01*
X87608231Y-116466654D01*
X87620866Y-116481447D01*
X87628849Y-116492434D01*
X87678287Y-116536948D01*
X87682976Y-116541399D01*
X87697049Y-116555472D01*
X87712503Y-116567986D01*
X87717441Y-116572203D01*
X87766864Y-116616704D01*
X87778615Y-116623488D01*
X87794651Y-116634508D01*
X87805195Y-116643047D01*
X87864422Y-116673224D01*
X87870120Y-116676318D01*
X87927700Y-116709563D01*
X87940602Y-116713755D01*
X87958580Y-116721202D01*
X87970670Y-116727362D01*
X88034876Y-116744565D01*
X88041102Y-116746409D01*
X88052305Y-116750049D01*
X88104332Y-116766954D01*
X88117831Y-116768372D01*
X88136944Y-116771914D01*
X88150063Y-116775430D01*
X88216470Y-116778909D01*
X88222918Y-116779417D01*
X88242728Y-116781500D01*
X88262637Y-116781500D01*
X88269126Y-116781669D01*
X88335527Y-116785150D01*
X88348930Y-116783027D01*
X88368329Y-116781500D01*
X91155705Y-116781500D01*
X91175103Y-116783026D01*
X91188507Y-116785150D01*
X91254907Y-116781669D01*
X91261397Y-116781500D01*
X91278052Y-116781500D01*
X91281306Y-116781500D01*
X91301114Y-116779417D01*
X91307565Y-116778909D01*
X91373971Y-116775430D01*
X91387083Y-116771916D01*
X91406198Y-116768373D01*
X91419702Y-116766954D01*
X91482952Y-116746401D01*
X91489121Y-116744574D01*
X91553363Y-116727362D01*
X91561902Y-116723011D01*
X91565447Y-116721205D01*
X91583428Y-116713756D01*
X91596331Y-116709564D01*
X91653950Y-116676296D01*
X91659588Y-116673236D01*
X91718839Y-116643047D01*
X91729383Y-116634508D01*
X91745423Y-116623485D01*
X91757169Y-116616704D01*
X91806592Y-116572203D01*
X91811490Y-116568019D01*
X91826986Y-116555472D01*
X91841072Y-116541384D01*
X91845766Y-116536930D01*
X91895185Y-116492434D01*
X91903169Y-116481443D01*
X91915794Y-116466662D01*
X92610226Y-115772230D01*
X92671547Y-115738747D01*
X92708720Y-115736386D01*
X92710000Y-115736498D01*
X92710001Y-115736497D01*
X92710002Y-115736498D01*
X92801234Y-115728516D01*
X92938087Y-115716543D01*
X93145408Y-115660991D01*
X93215256Y-115662654D01*
X93273118Y-115701816D01*
X93300623Y-115766044D01*
X93301500Y-115780766D01*
X93301500Y-125230679D01*
X93281815Y-125297718D01*
X93265181Y-125318360D01*
X92809773Y-125773767D01*
X92748450Y-125807252D01*
X92711284Y-125809614D01*
X92709999Y-125809501D01*
X92481915Y-125829456D01*
X92260753Y-125888717D01*
X92053255Y-125985474D01*
X91992242Y-126028196D01*
X91884115Y-126103908D01*
X91865696Y-126116805D01*
X91703805Y-126278696D01*
X91703802Y-126278699D01*
X91703802Y-126278700D01*
X91668722Y-126328800D01*
X91572474Y-126466255D01*
X91475717Y-126673753D01*
X91416456Y-126894915D01*
X91396501Y-127122999D01*
X91416456Y-127351084D01*
X91475717Y-127572246D01*
X91572474Y-127779744D01*
X91572476Y-127779746D01*
X91572477Y-127779749D01*
X91703802Y-127967300D01*
X91865700Y-128129198D01*
X92053251Y-128260523D01*
X92053254Y-128260524D01*
X92053255Y-128260525D01*
X92117181Y-128290334D01*
X92260757Y-128357284D01*
X92481913Y-128416543D01*
X92710000Y-128436498D01*
X92938087Y-128416543D01*
X93159243Y-128357284D01*
X93366749Y-128260523D01*
X93554300Y-128129198D01*
X93716198Y-127967300D01*
X93847523Y-127779749D01*
X93944284Y-127572243D01*
X94003543Y-127351087D01*
X94023498Y-127123000D01*
X95206501Y-127123000D01*
X95226456Y-127351084D01*
X95285717Y-127572246D01*
X95382474Y-127779744D01*
X95382476Y-127779746D01*
X95382477Y-127779749D01*
X95513802Y-127967300D01*
X95675700Y-128129198D01*
X95863251Y-128260523D01*
X95863254Y-128260524D01*
X95863255Y-128260525D01*
X95927181Y-128290334D01*
X96070757Y-128357284D01*
X96291913Y-128416543D01*
X96443971Y-128429846D01*
X96519999Y-128436498D01*
X96519999Y-128436497D01*
X96520000Y-128436498D01*
X96748087Y-128416543D01*
X96969243Y-128357284D01*
X97176749Y-128260523D01*
X97364300Y-128129198D01*
X97526198Y-127967300D01*
X97657523Y-127779749D01*
X97754284Y-127572243D01*
X97813543Y-127351087D01*
X97833498Y-127123000D01*
X97833498Y-127122999D01*
X99016501Y-127122999D01*
X99036456Y-127351084D01*
X99095717Y-127572246D01*
X99192474Y-127779744D01*
X99192476Y-127779746D01*
X99192477Y-127779749D01*
X99323802Y-127967300D01*
X99485700Y-128129198D01*
X99673251Y-128260523D01*
X99673254Y-128260524D01*
X99673255Y-128260525D01*
X99737181Y-128290334D01*
X99880757Y-128357284D01*
X100101913Y-128416543D01*
X100253970Y-128429846D01*
X100329999Y-128436498D01*
X100329999Y-128436497D01*
X100330000Y-128436498D01*
X100558087Y-128416543D01*
X100779243Y-128357284D01*
X100986749Y-128260523D01*
X101174300Y-128129198D01*
X101336198Y-127967300D01*
X101467523Y-127779749D01*
X101564284Y-127572243D01*
X101623543Y-127351087D01*
X101643498Y-127123000D01*
X101623543Y-126894913D01*
X101564284Y-126673757D01*
X101476562Y-126485635D01*
X101467525Y-126466255D01*
X101467524Y-126466253D01*
X101467523Y-126466251D01*
X101336198Y-126278700D01*
X101174300Y-126116802D01*
X100986749Y-125985477D01*
X100986746Y-125985476D01*
X100986744Y-125985474D01*
X100779246Y-125888717D01*
X100779243Y-125888716D01*
X100664050Y-125857850D01*
X100558084Y-125829456D01*
X100329999Y-125809501D01*
X100101915Y-125829456D01*
X99880753Y-125888717D01*
X99673255Y-125985474D01*
X99612242Y-126028196D01*
X99504115Y-126103908D01*
X99485696Y-126116805D01*
X99323805Y-126278696D01*
X99323802Y-126278699D01*
X99323802Y-126278700D01*
X99288722Y-126328800D01*
X99192474Y-126466255D01*
X99095717Y-126673753D01*
X99036456Y-126894915D01*
X99016501Y-127122999D01*
X97833498Y-127122999D01*
X97832000Y-127105883D01*
X97814991Y-126911469D01*
X97813543Y-126894913D01*
X97754284Y-126673757D01*
X97666562Y-126485635D01*
X97657525Y-126466255D01*
X97657524Y-126466253D01*
X97657523Y-126466251D01*
X97526198Y-126278700D01*
X97364300Y-126116802D01*
X97176749Y-125985477D01*
X97176746Y-125985476D01*
X97176744Y-125985474D01*
X96969246Y-125888717D01*
X96969243Y-125888716D01*
X96854050Y-125857850D01*
X96748084Y-125829456D01*
X96520000Y-125809501D01*
X96291915Y-125829456D01*
X96070753Y-125888717D01*
X95863255Y-125985474D01*
X95802242Y-126028196D01*
X95694115Y-126103908D01*
X95675696Y-126116805D01*
X95513805Y-126278696D01*
X95513802Y-126278699D01*
X95513802Y-126278700D01*
X95478722Y-126328800D01*
X95382474Y-126466255D01*
X95285717Y-126673753D01*
X95226456Y-126894915D01*
X95206501Y-127123000D01*
X94023498Y-127123000D01*
X94023386Y-127121721D01*
X94023783Y-127119744D01*
X94024444Y-127112192D01*
X94025285Y-127112265D01*
X94037147Y-127053221D01*
X94059229Y-127023227D01*
X94753662Y-126328794D01*
X94768451Y-126316163D01*
X94779434Y-126308185D01*
X94823932Y-126258762D01*
X94828387Y-126254070D01*
X94842472Y-126239986D01*
X94855019Y-126224490D01*
X94859213Y-126219579D01*
X94903704Y-126170169D01*
X94910485Y-126158422D01*
X94921508Y-126142383D01*
X94930047Y-126131839D01*
X94960236Y-126072588D01*
X94963296Y-126066950D01*
X94996564Y-126009331D01*
X95000756Y-125996428D01*
X95008205Y-125978447D01*
X95014360Y-125966366D01*
X95014362Y-125966363D01*
X95031574Y-125902121D01*
X95033407Y-125895935D01*
X95053954Y-125832702D01*
X95055373Y-125819198D01*
X95058916Y-125800083D01*
X95062430Y-125786971D01*
X95065909Y-125720565D01*
X95066417Y-125714114D01*
X95068500Y-125694306D01*
X95068500Y-125674397D01*
X95068670Y-125667907D01*
X95072150Y-125601507D01*
X95070024Y-125588086D01*
X95068499Y-125568716D01*
X95068499Y-115089352D01*
X95088184Y-115022314D01*
X95104813Y-115001677D01*
X95144128Y-114962362D01*
X95205449Y-114928879D01*
X95275141Y-114933863D01*
X95331074Y-114975735D01*
X95344189Y-114997640D01*
X95352051Y-115014500D01*
X95382477Y-115079749D01*
X95513802Y-115267300D01*
X95675700Y-115429198D01*
X95863251Y-115560523D01*
X96070757Y-115657284D01*
X96291913Y-115716543D01*
X96443971Y-115729846D01*
X96519999Y-115736498D01*
X96519999Y-115736497D01*
X96520000Y-115736498D01*
X96748087Y-115716543D01*
X96969243Y-115657284D01*
X97176749Y-115560523D01*
X97364300Y-115429198D01*
X97526198Y-115267300D01*
X97657523Y-115079749D01*
X97731627Y-114920832D01*
X97735118Y-114913345D01*
X97781290Y-114860905D01*
X97848483Y-114841753D01*
X97915365Y-114861968D01*
X97960699Y-114915134D01*
X97971500Y-114965749D01*
X97971500Y-119672738D01*
X97969973Y-119692136D01*
X97969637Y-119694261D01*
X97967850Y-119705541D01*
X97968049Y-119709329D01*
X97971330Y-119771941D01*
X97971500Y-119778431D01*
X97971500Y-119798340D01*
X97971837Y-119801552D01*
X97971839Y-119801579D01*
X97973580Y-119818147D01*
X97974089Y-119824609D01*
X97977569Y-119891004D01*
X97981083Y-119904118D01*
X97984627Y-119923243D01*
X97986045Y-119936736D01*
X98006585Y-119999952D01*
X98008428Y-120006174D01*
X98025637Y-120070395D01*
X98031798Y-120082488D01*
X98039242Y-120100460D01*
X98043434Y-120113362D01*
X98043436Y-120113365D01*
X98076681Y-120170948D01*
X98079770Y-120176637D01*
X98095559Y-120207624D01*
X98109953Y-120235873D01*
X98118490Y-120246415D01*
X98129506Y-120262443D01*
X98136296Y-120274203D01*
X98164499Y-120305526D01*
X98180777Y-120323605D01*
X98184990Y-120328538D01*
X98195475Y-120341486D01*
X98195484Y-120341496D01*
X98197528Y-120344020D01*
X98199833Y-120346325D01*
X98211608Y-120358100D01*
X98216077Y-120362809D01*
X98260566Y-120412219D01*
X98271545Y-120420196D01*
X98286340Y-120432832D01*
X100952594Y-123099086D01*
X103600635Y-125747126D01*
X103634120Y-125808449D01*
X103629136Y-125878141D01*
X103587264Y-125934074D01*
X103565359Y-125947189D01*
X103498327Y-125978447D01*
X103483251Y-125985477D01*
X103313069Y-126104640D01*
X103295696Y-126116805D01*
X103133805Y-126278696D01*
X103133802Y-126278699D01*
X103133802Y-126278700D01*
X103098722Y-126328800D01*
X103002474Y-126466255D01*
X102905717Y-126673753D01*
X102846456Y-126894915D01*
X102826501Y-127122999D01*
X102846456Y-127351084D01*
X102905717Y-127572246D01*
X103002474Y-127779744D01*
X103002476Y-127779746D01*
X103002477Y-127779749D01*
X103133802Y-127967300D01*
X103295700Y-128129198D01*
X103483251Y-128260523D01*
X103483254Y-128260524D01*
X103483255Y-128260525D01*
X103547181Y-128290334D01*
X103690757Y-128357284D01*
X103911913Y-128416543D01*
X104140000Y-128436498D01*
X104368087Y-128416543D01*
X104589243Y-128357284D01*
X104589243Y-128357283D01*
X104599722Y-128354476D01*
X104600400Y-128357009D01*
X104653803Y-128348898D01*
X104717587Y-128377416D01*
X104755064Y-128433456D01*
X104766586Y-128468919D01*
X104768428Y-128475140D01*
X104785637Y-128539361D01*
X104791798Y-128551454D01*
X104799242Y-128569426D01*
X104803434Y-128582328D01*
X104803436Y-128582331D01*
X104836681Y-128639914D01*
X104839770Y-128645603D01*
X104864915Y-128694952D01*
X104869953Y-128704839D01*
X104878490Y-128715381D01*
X104889506Y-128731409D01*
X104896296Y-128743169D01*
X104920455Y-128770000D01*
X104940777Y-128792571D01*
X104944990Y-128797504D01*
X104955475Y-128810452D01*
X104955484Y-128810462D01*
X104957528Y-128812986D01*
X104959833Y-128815291D01*
X104971608Y-128827066D01*
X104976077Y-128831775D01*
X105020566Y-128881185D01*
X105031545Y-128889162D01*
X105046340Y-128901798D01*
X107268201Y-131123659D01*
X107280839Y-131138456D01*
X107288814Y-131149434D01*
X107338223Y-131193921D01*
X107342932Y-131198390D01*
X107357014Y-131212472D01*
X107359531Y-131214510D01*
X107359532Y-131214511D01*
X107372487Y-131225001D01*
X107377428Y-131229221D01*
X107426831Y-131273704D01*
X107438578Y-131280486D01*
X107454612Y-131291506D01*
X107465157Y-131300045D01*
X107465158Y-131300045D01*
X107465160Y-131300047D01*
X107523082Y-131329560D01*
X107524399Y-131330231D01*
X107530104Y-131333329D01*
X107587665Y-131366562D01*
X107587666Y-131366562D01*
X107587669Y-131366564D01*
X107600566Y-131370754D01*
X107618547Y-131378202D01*
X107624432Y-131381200D01*
X107630637Y-131384362D01*
X107694872Y-131401573D01*
X107701038Y-131403399D01*
X107764298Y-131423954D01*
X107774965Y-131425074D01*
X107777792Y-131425372D01*
X107796927Y-131428918D01*
X107810028Y-131432429D01*
X107876417Y-131435907D01*
X107882865Y-131436415D01*
X107902694Y-131438500D01*
X107922621Y-131438500D01*
X107929110Y-131438669D01*
X107995493Y-131442149D01*
X108008890Y-131440027D01*
X108028289Y-131438500D01*
X114849500Y-131438500D01*
X114916539Y-131458185D01*
X114962294Y-131510989D01*
X114973500Y-131562500D01*
X114973500Y-132597500D01*
X114953815Y-132664539D01*
X114901011Y-132710294D01*
X114849500Y-132721500D01*
X92569649Y-132721500D01*
X92502610Y-132701815D01*
X92481968Y-132685181D01*
X89424310Y-129627523D01*
X88372706Y-128575918D01*
X88339222Y-128514597D01*
X88344206Y-128444905D01*
X88386078Y-128388972D01*
X88451542Y-128364555D01*
X88492480Y-128368463D01*
X88671913Y-128416543D01*
X88823970Y-128429846D01*
X88899999Y-128436498D01*
X88899999Y-128436497D01*
X88900000Y-128436498D01*
X89128087Y-128416543D01*
X89349243Y-128357284D01*
X89556749Y-128260523D01*
X89744300Y-128129198D01*
X89906198Y-127967300D01*
X90037523Y-127779749D01*
X90134284Y-127572243D01*
X90193543Y-127351087D01*
X90213498Y-127123000D01*
X90193543Y-126894913D01*
X90134284Y-126673757D01*
X90046562Y-126485635D01*
X90037525Y-126466255D01*
X90037524Y-126466253D01*
X90037523Y-126466251D01*
X89906198Y-126278700D01*
X89744300Y-126116802D01*
X89556749Y-125985477D01*
X89556746Y-125985476D01*
X89556744Y-125985474D01*
X89349246Y-125888717D01*
X89349243Y-125888716D01*
X89234050Y-125857850D01*
X89128084Y-125829456D01*
X88899999Y-125809501D01*
X88898712Y-125809614D01*
X88896727Y-125809215D01*
X88889193Y-125808556D01*
X88889266Y-125807715D01*
X88830213Y-125795847D01*
X88800225Y-125773767D01*
X88105798Y-125079340D01*
X88093159Y-125064542D01*
X88085185Y-125053566D01*
X88035774Y-125009076D01*
X88031066Y-125004608D01*
X88019291Y-124992833D01*
X88016986Y-124990528D01*
X88014462Y-124988484D01*
X88014452Y-124988475D01*
X88001504Y-124977990D01*
X87996571Y-124973777D01*
X87982876Y-124961446D01*
X87947169Y-124929296D01*
X87935409Y-124922506D01*
X87919381Y-124911490D01*
X87908839Y-124902953D01*
X87908837Y-124902952D01*
X87908836Y-124902951D01*
X87849603Y-124872770D01*
X87843914Y-124869681D01*
X87786331Y-124836436D01*
X87786332Y-124836436D01*
X87786328Y-124836434D01*
X87773426Y-124832242D01*
X87755454Y-124824798D01*
X87743361Y-124818637D01*
X87679140Y-124801428D01*
X87672918Y-124799585D01*
X87609702Y-124779045D01*
X87596209Y-124777627D01*
X87577084Y-124774083D01*
X87563970Y-124770569D01*
X87497575Y-124767089D01*
X87491113Y-124766580D01*
X87474545Y-124764839D01*
X87474518Y-124764837D01*
X87471306Y-124764500D01*
X87468063Y-124764500D01*
X87451397Y-124764500D01*
X87444907Y-124764330D01*
X87378507Y-124760850D01*
X87378506Y-124760850D01*
X87365103Y-124762973D01*
X87345705Y-124764500D01*
X84608329Y-124764500D01*
X84588930Y-124762973D01*
X84575527Y-124760850D01*
X84509127Y-124764330D01*
X84502637Y-124764500D01*
X84482728Y-124764500D01*
X84479515Y-124764837D01*
X84479508Y-124764838D01*
X84462921Y-124766581D01*
X84456459Y-124767089D01*
X84390060Y-124770570D01*
X84376946Y-124774083D01*
X84357830Y-124777626D01*
X84344332Y-124779045D01*
X84281121Y-124799584D01*
X84274898Y-124801428D01*
X84210666Y-124818639D01*
X84198579Y-124824798D01*
X84180610Y-124832241D01*
X84167706Y-124836434D01*
X84110142Y-124869668D01*
X84104440Y-124872764D01*
X84045192Y-124902953D01*
X84034648Y-124911492D01*
X84018618Y-124922510D01*
X84006865Y-124929296D01*
X83957460Y-124973779D01*
X83952532Y-124977988D01*
X83939569Y-124988485D01*
X83939544Y-124988506D01*
X83937049Y-124990528D01*
X83934777Y-124992799D01*
X83934749Y-124992825D01*
X83922960Y-125004614D01*
X83918258Y-125009076D01*
X83868850Y-125053563D01*
X83860868Y-125064550D01*
X83848233Y-125079342D01*
X83096340Y-125831234D01*
X83081552Y-125843865D01*
X83070568Y-125851846D01*
X83026086Y-125901248D01*
X83021621Y-125905953D01*
X83009822Y-125917751D01*
X83009796Y-125917779D01*
X83007528Y-125920048D01*
X83005500Y-125922551D01*
X83005492Y-125922561D01*
X82994993Y-125935526D01*
X82990784Y-125940454D01*
X82946294Y-125989866D01*
X82939510Y-126001617D01*
X82928496Y-126017642D01*
X82919953Y-126028192D01*
X82889769Y-126087431D01*
X82886673Y-126093133D01*
X82853435Y-126150704D01*
X82849241Y-126163610D01*
X82841802Y-126181570D01*
X82835637Y-126193670D01*
X82818427Y-126257898D01*
X82816584Y-126264121D01*
X82796045Y-126327332D01*
X82794626Y-126340830D01*
X82791083Y-126359946D01*
X82787570Y-126373060D01*
X82784089Y-126439459D01*
X82783581Y-126445921D01*
X82781840Y-126462492D01*
X82781500Y-126465728D01*
X82781500Y-126468971D01*
X82781500Y-126485635D01*
X82781330Y-126492125D01*
X82777850Y-126558527D01*
X82779973Y-126571931D01*
X82781500Y-126591329D01*
X82781500Y-127654670D01*
X82779973Y-127674068D01*
X82777850Y-127687471D01*
X82781330Y-127753873D01*
X82781500Y-127760363D01*
X82781500Y-127780272D01*
X82781837Y-127783484D01*
X82781839Y-127783511D01*
X82783580Y-127800079D01*
X82784089Y-127806541D01*
X82787569Y-127872936D01*
X82791083Y-127886050D01*
X82794627Y-127905175D01*
X82796045Y-127918668D01*
X82816585Y-127981884D01*
X82818428Y-127988106D01*
X82835637Y-128052327D01*
X82841798Y-128064420D01*
X82849242Y-128082392D01*
X82853434Y-128095294D01*
X82853436Y-128095297D01*
X82886681Y-128152880D01*
X82889770Y-128158569D01*
X82918847Y-128215635D01*
X82919953Y-128217805D01*
X82928490Y-128228347D01*
X82939506Y-128244375D01*
X82946296Y-128256135D01*
X82974072Y-128286984D01*
X82990777Y-128305537D01*
X82994990Y-128310470D01*
X83005475Y-128323418D01*
X83005484Y-128323428D01*
X83007528Y-128325952D01*
X83009833Y-128328257D01*
X83021608Y-128340032D01*
X83026077Y-128344741D01*
X83070566Y-128394151D01*
X83081545Y-128402128D01*
X83096340Y-128414764D01*
X90655235Y-135973659D01*
X90667873Y-135988456D01*
X90675848Y-135999434D01*
X90725257Y-136043921D01*
X90729963Y-136048387D01*
X90744048Y-136062472D01*
X90746561Y-136064507D01*
X90746571Y-136064516D01*
X90759530Y-136075010D01*
X90764463Y-136079223D01*
X90813865Y-136123704D01*
X90825617Y-136130489D01*
X90841651Y-136141508D01*
X90852195Y-136150047D01*
X90911422Y-136180224D01*
X90917120Y-136183318D01*
X90974700Y-136216563D01*
X90987602Y-136220755D01*
X91005580Y-136228202D01*
X91017670Y-136234362D01*
X91081868Y-136251563D01*
X91088094Y-136253407D01*
X91151331Y-136273954D01*
X91164826Y-136275372D01*
X91183962Y-136278918D01*
X91197063Y-136282429D01*
X91263451Y-136285907D01*
X91269899Y-136286415D01*
X91289728Y-136288500D01*
X91309656Y-136288500D01*
X91316145Y-136288669D01*
X91382527Y-136292149D01*
X91395924Y-136290027D01*
X91415323Y-136288500D01*
X156107705Y-136288500D01*
X156127103Y-136290026D01*
X156140507Y-136292150D01*
X156206907Y-136288669D01*
X156213397Y-136288500D01*
X156230052Y-136288500D01*
X156233306Y-136288500D01*
X156253114Y-136286417D01*
X156259565Y-136285909D01*
X156325971Y-136282430D01*
X156339083Y-136278916D01*
X156358198Y-136275373D01*
X156371702Y-136273954D01*
X156434952Y-136253401D01*
X156441121Y-136251574D01*
X156505363Y-136234362D01*
X156511789Y-136231087D01*
X156517447Y-136228205D01*
X156535428Y-136220756D01*
X156548331Y-136216564D01*
X156605950Y-136183296D01*
X156611588Y-136180236D01*
X156670839Y-136150047D01*
X156681383Y-136141508D01*
X156697423Y-136130485D01*
X156709169Y-136123704D01*
X156709168Y-136123704D01*
X156758579Y-136079213D01*
X156763490Y-136075019D01*
X156778986Y-136062472D01*
X156793072Y-136048384D01*
X156797762Y-136043932D01*
X156847185Y-135999434D01*
X156855169Y-135988443D01*
X156867794Y-135973662D01*
X158605819Y-134235638D01*
X166221500Y-134235638D01*
X166221852Y-134238918D01*
X166221853Y-134238924D01*
X166228011Y-134296205D01*
X166279110Y-134433203D01*
X166366738Y-134550261D01*
X166483796Y-134637889D01*
X166620794Y-134688988D01*
X166620797Y-134688988D01*
X166620799Y-134688989D01*
X166681362Y-134695500D01*
X166684672Y-134695500D01*
X168755328Y-134695500D01*
X168758638Y-134695500D01*
X168819201Y-134688989D01*
X168819203Y-134688988D01*
X168819205Y-134688988D01*
X168933503Y-134646356D01*
X168956204Y-134637889D01*
X169073261Y-134550261D01*
X169160889Y-134433204D01*
X169211989Y-134296201D01*
X169218500Y-134235638D01*
X169218500Y-133256062D01*
X171230000Y-133256062D01*
X171230211Y-133261178D01*
X171245284Y-133443086D01*
X171305903Y-133682463D01*
X171405093Y-133908592D01*
X171540150Y-134115312D01*
X171707391Y-134296985D01*
X171902253Y-134448651D01*
X172119426Y-134566180D01*
X172352971Y-134646356D01*
X172469999Y-134665885D01*
X172470000Y-134665884D01*
X172470000Y-132818057D01*
X172560892Y-132852528D01*
X172680081Y-132867000D01*
X172759919Y-132867000D01*
X172879108Y-132852528D01*
X172970000Y-132818057D01*
X172970000Y-134665885D01*
X173087028Y-134646356D01*
X173320573Y-134566180D01*
X173537746Y-134448651D01*
X173732608Y-134296985D01*
X173899849Y-134115312D01*
X174034906Y-133908592D01*
X174134096Y-133682463D01*
X174194715Y-133443086D01*
X174209788Y-133261178D01*
X174210000Y-133256062D01*
X174210000Y-132457000D01*
X173334168Y-132457000D01*
X173341643Y-132442758D01*
X173380000Y-132287138D01*
X173380000Y-132126862D01*
X173341643Y-131971242D01*
X173334168Y-131957000D01*
X174210000Y-131957000D01*
X174210000Y-131157936D01*
X174209788Y-131152821D01*
X174194715Y-130970913D01*
X174134096Y-130731536D01*
X174034906Y-130505407D01*
X173899849Y-130298687D01*
X173732608Y-130117014D01*
X173537746Y-129965348D01*
X173320573Y-129847819D01*
X173087030Y-129767643D01*
X172970000Y-129748114D01*
X172970000Y-131595942D01*
X172879108Y-131561472D01*
X172759919Y-131547000D01*
X172680081Y-131547000D01*
X172560892Y-131561472D01*
X172470000Y-131595942D01*
X172470000Y-129748114D01*
X172469999Y-129748114D01*
X172352969Y-129767643D01*
X172119426Y-129847819D01*
X171902253Y-129965348D01*
X171707391Y-130117014D01*
X171540150Y-130298687D01*
X171405093Y-130505407D01*
X171305903Y-130731536D01*
X171245284Y-130970913D01*
X171230211Y-131152821D01*
X171230000Y-131157936D01*
X171230000Y-131957000D01*
X172105832Y-131957000D01*
X172098357Y-131971242D01*
X172060000Y-132126862D01*
X172060000Y-132287138D01*
X172098357Y-132442758D01*
X172105832Y-132457000D01*
X171230000Y-132457000D01*
X171230000Y-133256062D01*
X169218500Y-133256062D01*
X169218500Y-130178362D01*
X169211989Y-130117799D01*
X169211988Y-130117797D01*
X169211988Y-130117794D01*
X169160889Y-129980796D01*
X169073261Y-129863738D01*
X168956203Y-129776110D01*
X168819205Y-129725011D01*
X168761924Y-129718853D01*
X168761918Y-129718852D01*
X168758638Y-129718500D01*
X166681362Y-129718500D01*
X166678082Y-129718852D01*
X166678075Y-129718853D01*
X166620794Y-129725011D01*
X166483796Y-129776110D01*
X166366738Y-129863738D01*
X166279110Y-129980796D01*
X166228011Y-130117794D01*
X166221853Y-130175075D01*
X166221500Y-130178362D01*
X166221500Y-134235638D01*
X158605819Y-134235638D01*
X159518138Y-133323319D01*
X159579462Y-133289834D01*
X159605820Y-133287000D01*
X160811328Y-133287000D01*
X160814638Y-133287000D01*
X160875201Y-133280489D01*
X160875203Y-133280488D01*
X160875205Y-133280488D01*
X160999809Y-133234012D01*
X161012204Y-133229389D01*
X161129261Y-133141761D01*
X161216889Y-133024704D01*
X161267989Y-132887701D01*
X161274500Y-132827138D01*
X161274500Y-130824862D01*
X161267989Y-130764299D01*
X161267988Y-130764297D01*
X161267988Y-130764294D01*
X161216889Y-130627296D01*
X161129261Y-130510238D01*
X161056061Y-130455442D01*
X161014189Y-130399509D01*
X161009205Y-130329817D01*
X161036080Y-130275645D01*
X161071328Y-130234376D01*
X161203616Y-130018502D01*
X161300505Y-129784591D01*
X161359609Y-129538403D01*
X161379474Y-129286000D01*
X161359609Y-129033597D01*
X161300505Y-128787409D01*
X161203616Y-128553498D01*
X161071328Y-128337624D01*
X160906898Y-128145102D01*
X160776645Y-128033855D01*
X160738453Y-127975349D01*
X160737955Y-127905481D01*
X160773194Y-127848338D01*
X160892076Y-127738900D01*
X161040792Y-127547830D01*
X161156030Y-127334888D01*
X161195338Y-127220385D01*
X161234648Y-127105885D01*
X161269852Y-126894915D01*
X161274500Y-126867062D01*
X161274500Y-126624938D01*
X161252338Y-126492125D01*
X161234648Y-126386114D01*
X161162631Y-126176340D01*
X161156030Y-126157112D01*
X161040792Y-125944170D01*
X160892076Y-125753100D01*
X160713940Y-125589114D01*
X160511242Y-125456685D01*
X160429889Y-125421000D01*
X160289513Y-125359425D01*
X160054798Y-125299987D01*
X159981860Y-125293943D01*
X159873927Y-125285000D01*
X159658073Y-125285000D01*
X159655526Y-125285211D01*
X159655527Y-125285211D01*
X159477201Y-125299987D01*
X159242486Y-125359425D01*
X159020757Y-125456685D01*
X158818061Y-125589113D01*
X158818059Y-125589114D01*
X158818060Y-125589114D01*
X158646414Y-125747126D01*
X158639921Y-125753103D01*
X158499066Y-125934074D01*
X158491208Y-125944170D01*
X158455945Y-126009331D01*
X158375969Y-126157113D01*
X158297351Y-126386114D01*
X158257500Y-126624938D01*
X158257500Y-126867061D01*
X158297351Y-127105885D01*
X158375969Y-127334886D01*
X158462338Y-127494483D01*
X158476933Y-127562811D01*
X158452270Y-127628183D01*
X158396179Y-127669844D01*
X158353283Y-127677500D01*
X141800065Y-127677500D01*
X141790338Y-127677118D01*
X141751581Y-127674068D01*
X141732000Y-127672527D01*
X141731999Y-127672527D01*
X141668816Y-127677499D01*
X141666354Y-127677668D01*
X141479601Y-127692389D01*
X141288849Y-127738184D01*
X141219067Y-127734693D01*
X141162250Y-127694029D01*
X141136437Y-127629102D01*
X141149823Y-127560527D01*
X141172219Y-127529932D01*
X143781152Y-124920999D01*
X189311114Y-124920999D01*
X189311116Y-124921000D01*
X191155832Y-124921000D01*
X191148357Y-124935242D01*
X191110000Y-125090862D01*
X191110000Y-125251138D01*
X191148357Y-125406758D01*
X191155832Y-125421000D01*
X189311115Y-125421000D01*
X189330643Y-125538028D01*
X189410819Y-125771573D01*
X189528348Y-125988746D01*
X189680014Y-126183608D01*
X189861687Y-126350849D01*
X190068407Y-126485906D01*
X190294536Y-126585096D01*
X190533913Y-126645715D01*
X190715821Y-126660788D01*
X190720937Y-126661000D01*
X191520000Y-126661000D01*
X191520000Y-125782057D01*
X191610892Y-125816528D01*
X191730081Y-125831000D01*
X191809919Y-125831000D01*
X191929108Y-125816528D01*
X192020000Y-125782057D01*
X192020000Y-126661000D01*
X192819063Y-126661000D01*
X192824178Y-126660788D01*
X193006086Y-126645715D01*
X193245463Y-126585096D01*
X193471592Y-126485906D01*
X193678312Y-126350849D01*
X193859985Y-126183608D01*
X194011651Y-125988746D01*
X194129180Y-125771573D01*
X194209356Y-125538028D01*
X194228885Y-125421000D01*
X192384168Y-125421000D01*
X192391643Y-125406758D01*
X192430000Y-125251138D01*
X192430000Y-125090862D01*
X192391643Y-124935242D01*
X192384168Y-124921000D01*
X194228884Y-124921000D01*
X194228885Y-124920999D01*
X194209356Y-124803971D01*
X194129180Y-124570426D01*
X194011651Y-124353253D01*
X193859985Y-124158391D01*
X193678312Y-123991150D01*
X193471592Y-123856093D01*
X193245463Y-123756903D01*
X193006086Y-123696284D01*
X192824178Y-123681211D01*
X192819063Y-123681000D01*
X192020000Y-123681000D01*
X192020000Y-124559942D01*
X191929108Y-124525472D01*
X191809919Y-124511000D01*
X191730081Y-124511000D01*
X191610892Y-124525472D01*
X191520000Y-124559942D01*
X191520000Y-123681000D01*
X190720937Y-123681000D01*
X190715821Y-123681211D01*
X190533913Y-123696284D01*
X190294536Y-123756903D01*
X190068407Y-123856093D01*
X189861687Y-123991150D01*
X189680014Y-124158391D01*
X189528348Y-124353253D01*
X189410819Y-124570426D01*
X189330643Y-124803971D01*
X189311114Y-124920999D01*
X143781152Y-124920999D01*
X157391781Y-111310370D01*
X157400776Y-111302218D01*
X157434568Y-111274487D01*
X157560595Y-111120923D01*
X157654241Y-110945723D01*
X157711908Y-110755620D01*
X157726500Y-110607466D01*
X157731380Y-110557919D01*
X157727097Y-110514433D01*
X157726500Y-110502279D01*
X157726500Y-104571628D01*
X157746185Y-104504589D01*
X157798989Y-104458834D01*
X157868147Y-104448890D01*
X157931703Y-104477915D01*
X157936187Y-104482731D01*
X158059296Y-104574889D01*
X158196294Y-104625988D01*
X158196297Y-104625988D01*
X158196299Y-104625989D01*
X158256862Y-104632500D01*
X158260172Y-104632500D01*
X160255828Y-104632500D01*
X160259138Y-104632500D01*
X160319701Y-104625989D01*
X160319703Y-104625988D01*
X160319705Y-104625988D01*
X160427885Y-104585638D01*
X160456704Y-104574889D01*
X160573761Y-104487261D01*
X160661389Y-104370204D01*
X160691796Y-104288680D01*
X160712488Y-104233205D01*
X160712488Y-104233203D01*
X160712489Y-104233201D01*
X160719000Y-104172638D01*
X160719000Y-102075362D01*
X160712489Y-102014799D01*
X160712488Y-102014797D01*
X160712488Y-102014794D01*
X160661389Y-101877796D01*
X160573761Y-101760738D01*
X160456703Y-101673110D01*
X160319705Y-101622011D01*
X160262424Y-101615853D01*
X160262418Y-101615852D01*
X160259138Y-101615500D01*
X158256862Y-101615500D01*
X158253582Y-101615852D01*
X158253575Y-101615853D01*
X158196294Y-101622011D01*
X158059296Y-101673110D01*
X157942238Y-101760738D01*
X157854611Y-101877795D01*
X157846587Y-101899308D01*
X157804714Y-101955241D01*
X157739249Y-101979656D01*
X157670977Y-101964803D01*
X157654244Y-101953826D01*
X157519829Y-101849207D01*
X157306886Y-101733969D01*
X157077885Y-101655351D01*
X156839062Y-101615500D01*
X156596938Y-101615500D01*
X156358114Y-101655351D01*
X156129113Y-101733969D01*
X156079647Y-101760739D01*
X155916170Y-101849208D01*
X155916168Y-101849209D01*
X155916167Y-101849210D01*
X155725099Y-101997923D01*
X155561113Y-102176058D01*
X155546731Y-102198073D01*
X155493585Y-102243430D01*
X155424353Y-102252853D01*
X155361018Y-102223351D01*
X155339114Y-102198073D01*
X155328153Y-102181297D01*
X155165122Y-102004198D01*
X154975164Y-101856348D01*
X154763460Y-101741780D01*
X154535792Y-101663619D01*
X154428000Y-101645633D01*
X154428000Y-102632316D01*
X154399181Y-102614791D01*
X154253596Y-102574000D01*
X154140378Y-102574000D01*
X154028217Y-102589416D01*
X153928000Y-102632946D01*
X153928000Y-101645633D01*
X153927999Y-101645633D01*
X153820207Y-101663619D01*
X153592539Y-101741780D01*
X153380835Y-101856348D01*
X153190873Y-102004201D01*
X153027848Y-102181292D01*
X152896184Y-102382819D01*
X152799493Y-102603255D01*
X152740400Y-102836606D01*
X152737302Y-102874000D01*
X153683148Y-102874000D01*
X153634441Y-103011047D01*
X153624123Y-103161886D01*
X153654884Y-103309915D01*
X153688090Y-103374000D01*
X152737303Y-103374000D01*
X152740400Y-103411393D01*
X152799493Y-103644744D01*
X152896184Y-103865180D01*
X153027848Y-104066707D01*
X153190873Y-104243798D01*
X153380835Y-104391651D01*
X153592539Y-104506219D01*
X153820208Y-104584379D01*
X153928000Y-104602366D01*
X153928000Y-103615683D01*
X153956819Y-103633209D01*
X154102404Y-103674000D01*
X154215622Y-103674000D01*
X154327783Y-103658584D01*
X154428000Y-103615053D01*
X154428000Y-104602365D01*
X154535791Y-104584379D01*
X154763460Y-104506219D01*
X154975164Y-104391651D01*
X155165122Y-104243801D01*
X155328154Y-104066702D01*
X155339113Y-104049928D01*
X155392259Y-104004571D01*
X155461490Y-103995146D01*
X155524826Y-104024647D01*
X155546732Y-104049927D01*
X155561113Y-104071939D01*
X155567247Y-104078602D01*
X155676730Y-104197532D01*
X155707652Y-104260183D01*
X155709500Y-104281513D01*
X155709500Y-110088822D01*
X155689815Y-110155861D01*
X155673181Y-110176503D01*
X136598181Y-129251503D01*
X136536858Y-129284988D01*
X136467166Y-129280004D01*
X136411233Y-129238132D01*
X136386816Y-129172668D01*
X136386500Y-129163822D01*
X136386500Y-114000649D01*
X136406185Y-113933610D01*
X136422814Y-113912973D01*
X141634968Y-108700819D01*
X141696292Y-108667334D01*
X141722650Y-108664500D01*
X145395328Y-108664500D01*
X145398638Y-108664500D01*
X145459201Y-108657989D01*
X145459203Y-108657988D01*
X145459205Y-108657988D01*
X145553494Y-108622819D01*
X145596204Y-108606889D01*
X145713261Y-108519261D01*
X145800889Y-108402204D01*
X145851989Y-108265201D01*
X145858500Y-108204638D01*
X145858500Y-102107362D01*
X145851989Y-102046799D01*
X145851988Y-102046797D01*
X145851988Y-102046794D01*
X145800889Y-101909796D01*
X145713261Y-101792738D01*
X145596203Y-101705110D01*
X145459205Y-101654011D01*
X145401924Y-101647853D01*
X145401918Y-101647852D01*
X145398638Y-101647500D01*
X141401362Y-101647500D01*
X141398082Y-101647852D01*
X141398075Y-101647853D01*
X141340794Y-101654011D01*
X141203796Y-101705110D01*
X141086738Y-101792738D01*
X140999110Y-101909796D01*
X140948011Y-102046794D01*
X140943210Y-102091453D01*
X140941500Y-102107362D01*
X140941500Y-102110671D01*
X140941500Y-105783349D01*
X140921815Y-105850388D01*
X140905181Y-105871030D01*
X134293005Y-112483205D01*
X134282641Y-112492468D01*
X134254783Y-112514685D01*
X134254782Y-112514686D01*
X134210882Y-112564932D01*
X134205199Y-112571011D01*
X134200104Y-112576106D01*
X134200084Y-112576126D01*
X134198139Y-112578073D01*
X134196373Y-112580187D01*
X134196365Y-112580197D01*
X134171836Y-112609578D01*
X134170030Y-112611692D01*
X134105733Y-112685285D01*
X134103444Y-112689117D01*
X134092200Y-112704965D01*
X134089333Y-112708399D01*
X134041089Y-112793420D01*
X134039690Y-112795821D01*
X133989546Y-112879750D01*
X133987972Y-112883943D01*
X133979738Y-112901544D01*
X133977531Y-112905433D01*
X133945234Y-112997730D01*
X133944287Y-113000343D01*
X133909946Y-113091844D01*
X133909148Y-113096244D01*
X133904187Y-113115038D01*
X133902713Y-113119251D01*
X133887424Y-113215777D01*
X133886959Y-113218517D01*
X133869499Y-113314734D01*
X133869500Y-113319194D01*
X133867973Y-113338592D01*
X133867275Y-113343000D01*
X133869469Y-113440754D01*
X133869500Y-113443536D01*
X133869500Y-126787760D01*
X133849815Y-126854799D01*
X133797011Y-126900554D01*
X133739478Y-126911469D01*
X133740638Y-126911500D01*
X131943362Y-126911500D01*
X131940082Y-126911852D01*
X131940075Y-126911853D01*
X131882794Y-126918011D01*
X131745796Y-126969110D01*
X131628738Y-127056738D01*
X131541110Y-127173796D01*
X131495861Y-127295110D01*
X131453989Y-127351043D01*
X131388524Y-127375459D01*
X131320252Y-127360606D01*
X131288451Y-127335758D01*
X131225242Y-127267096D01*
X131225241Y-127267095D01*
X131225240Y-127267094D01*
X131047576Y-127128811D01*
X130849574Y-127021658D01*
X130849573Y-127021657D01*
X130849572Y-127021657D01*
X130636636Y-126948556D01*
X130414569Y-126911500D01*
X130244319Y-126911500D01*
X130177280Y-126891815D01*
X130156638Y-126875181D01*
X129813273Y-126531816D01*
X129457798Y-126176340D01*
X129445159Y-126161542D01*
X129442893Y-126158423D01*
X129437185Y-126150566D01*
X129387775Y-126106077D01*
X129383066Y-126101608D01*
X129371291Y-126089833D01*
X129368986Y-126087528D01*
X129366462Y-126085484D01*
X129366452Y-126085475D01*
X129353504Y-126074990D01*
X129348571Y-126070777D01*
X129334876Y-126058446D01*
X129299169Y-126026296D01*
X129287409Y-126019506D01*
X129271381Y-126008490D01*
X129260839Y-125999953D01*
X129260837Y-125999952D01*
X129260836Y-125999951D01*
X129201603Y-125969770D01*
X129195914Y-125966681D01*
X129150495Y-125940459D01*
X129138328Y-125933434D01*
X129125426Y-125929242D01*
X129107454Y-125921798D01*
X129095361Y-125915637D01*
X129031140Y-125898428D01*
X129024918Y-125896585D01*
X128961702Y-125876045D01*
X128948209Y-125874627D01*
X128929084Y-125871083D01*
X128915970Y-125867569D01*
X128849575Y-125864089D01*
X128843113Y-125863580D01*
X128826545Y-125861839D01*
X128826518Y-125861837D01*
X128823306Y-125861500D01*
X128820063Y-125861500D01*
X128803397Y-125861500D01*
X128796907Y-125861330D01*
X128730507Y-125857850D01*
X128730506Y-125857850D01*
X128717103Y-125859973D01*
X128697705Y-125861500D01*
X124669619Y-125861500D01*
X124650220Y-125859973D01*
X124636817Y-125857850D01*
X124570417Y-125861330D01*
X124563927Y-125861500D01*
X124544018Y-125861500D01*
X124540805Y-125861837D01*
X124540798Y-125861838D01*
X124524211Y-125863581D01*
X124517749Y-125864089D01*
X124451350Y-125867570D01*
X124438236Y-125871083D01*
X124419120Y-125874626D01*
X124405622Y-125876045D01*
X124342411Y-125896584D01*
X124336188Y-125898427D01*
X124271960Y-125915637D01*
X124259860Y-125921802D01*
X124241900Y-125929241D01*
X124228994Y-125933435D01*
X124171423Y-125966673D01*
X124165721Y-125969769D01*
X124106482Y-125999953D01*
X124095932Y-126008496D01*
X124079907Y-126019510D01*
X124068156Y-126026294D01*
X124018744Y-126070784D01*
X124013816Y-126074993D01*
X124000851Y-126085492D01*
X124000841Y-126085500D01*
X123998338Y-126087528D01*
X123996069Y-126089796D01*
X123996041Y-126089822D01*
X123984243Y-126101621D01*
X123979538Y-126106086D01*
X123930136Y-126150568D01*
X123922155Y-126161552D01*
X123909524Y-126176340D01*
X122232662Y-127853202D01*
X122217870Y-127865837D01*
X122206887Y-127873816D01*
X122162409Y-127923214D01*
X122157947Y-127927916D01*
X122146148Y-127939716D01*
X122146131Y-127939734D01*
X122143852Y-127942014D01*
X122141824Y-127944517D01*
X122141816Y-127944527D01*
X122131317Y-127957492D01*
X122127108Y-127962420D01*
X122082618Y-128011832D01*
X122075834Y-128023583D01*
X122064820Y-128039608D01*
X122056277Y-128050158D01*
X122026093Y-128109397D01*
X122022997Y-128115099D01*
X121989759Y-128172670D01*
X121985565Y-128185576D01*
X121978126Y-128203536D01*
X121971962Y-128215635D01*
X121961790Y-128253596D01*
X121925424Y-128313256D01*
X121862577Y-128343784D01*
X121842016Y-128345500D01*
X116497360Y-128345500D01*
X116430321Y-128325815D01*
X116384566Y-128273011D01*
X116374622Y-128203853D01*
X116403647Y-128140297D01*
X116409679Y-128133819D01*
X116492313Y-128051185D01*
X116576198Y-127967300D01*
X116707523Y-127779749D01*
X116804284Y-127572243D01*
X116863543Y-127351087D01*
X116883498Y-127123000D01*
X116863543Y-126894913D01*
X116804284Y-126673757D01*
X116716562Y-126485635D01*
X116707525Y-126466255D01*
X116707524Y-126466253D01*
X116707523Y-126466251D01*
X116576198Y-126278700D01*
X116489818Y-126192320D01*
X116456334Y-126130998D01*
X116453500Y-126104640D01*
X116453500Y-118323319D01*
X116473185Y-118256280D01*
X116489814Y-118235643D01*
X131958322Y-102767135D01*
X132019641Y-102733653D01*
X132089333Y-102738637D01*
X132145266Y-102780509D01*
X132169683Y-102845973D01*
X132169999Y-102854819D01*
X132169999Y-104905999D01*
X132170001Y-104906000D01*
X133394916Y-104906000D01*
X133376307Y-104987530D01*
X133366212Y-105212308D01*
X133392449Y-105406000D01*
X132170000Y-105406000D01*
X132170000Y-108200518D01*
X132170354Y-108207132D01*
X132176400Y-108263371D01*
X132226647Y-108398089D01*
X132312811Y-108513188D01*
X132427910Y-108599352D01*
X132562628Y-108649599D01*
X132618867Y-108655645D01*
X132625482Y-108656000D01*
X134370000Y-108656000D01*
X134370000Y-106381047D01*
X134507498Y-106406000D01*
X134676133Y-106406000D01*
X134844098Y-106390883D01*
X134870000Y-106383734D01*
X134870000Y-108656000D01*
X136614518Y-108656000D01*
X136621132Y-108655645D01*
X136677371Y-108649599D01*
X136812089Y-108599352D01*
X136927188Y-108513188D01*
X137013352Y-108398089D01*
X137063599Y-108263371D01*
X137069645Y-108207132D01*
X137070000Y-108200518D01*
X137070000Y-105406000D01*
X135845084Y-105406000D01*
X135863693Y-105324470D01*
X135873788Y-105099692D01*
X135847551Y-104906000D01*
X137070000Y-104906000D01*
X137070000Y-102111481D01*
X137069645Y-102104867D01*
X137063599Y-102048628D01*
X137013352Y-101913910D01*
X136927188Y-101798811D01*
X136812089Y-101712647D01*
X136677371Y-101662400D01*
X136621132Y-101656354D01*
X136614518Y-101656000D01*
X134870000Y-101656000D01*
X134870000Y-103930952D01*
X134732502Y-103906000D01*
X134563867Y-103906000D01*
X134395902Y-103921117D01*
X134370000Y-103928265D01*
X134370000Y-101656000D01*
X133368820Y-101656000D01*
X133301781Y-101636315D01*
X133256026Y-101583511D01*
X133246082Y-101514353D01*
X133275107Y-101450797D01*
X133281139Y-101444319D01*
X140079639Y-94645819D01*
X140140962Y-94612334D01*
X140167320Y-94609500D01*
X153506680Y-94609500D01*
X153573719Y-94629185D01*
X153594361Y-94645819D01*
X153941679Y-94993137D01*
X153975164Y-95054460D01*
X153970180Y-95124152D01*
X153928308Y-95180085D01*
X153886092Y-95200593D01*
X153714507Y-95246569D01*
X153500421Y-95346400D01*
X153306921Y-95481890D01*
X153139890Y-95648921D01*
X153004400Y-95842421D01*
X152904569Y-96056507D01*
X152847364Y-96269999D01*
X152847364Y-96270000D01*
X153744314Y-96270000D01*
X153718507Y-96310156D01*
X153678000Y-96448111D01*
X153678000Y-96591889D01*
X153718507Y-96729844D01*
X153744314Y-96770000D01*
X152847364Y-96770000D01*
X152904569Y-96983492D01*
X153004399Y-97197576D01*
X153139893Y-97391081D01*
X153306918Y-97558106D01*
X153500423Y-97693600D01*
X153714509Y-97793430D01*
X153928000Y-97850634D01*
X153928000Y-96955501D01*
X154035685Y-97004680D01*
X154142237Y-97020000D01*
X154213763Y-97020000D01*
X154320315Y-97004680D01*
X154428000Y-96955501D01*
X154428000Y-97850633D01*
X154641490Y-97793430D01*
X154855576Y-97693600D01*
X155049081Y-97558106D01*
X155216106Y-97391081D01*
X155342868Y-97210048D01*
X155397445Y-97166424D01*
X155466944Y-97159231D01*
X155529298Y-97190753D01*
X155548252Y-97213351D01*
X155642276Y-97357267D01*
X155724573Y-97446663D01*
X155794760Y-97522906D01*
X155972424Y-97661189D01*
X156170426Y-97768342D01*
X156383365Y-97841444D01*
X156605431Y-97878500D01*
X156830569Y-97878500D01*
X157052635Y-97841444D01*
X157265574Y-97768342D01*
X157463576Y-97661189D01*
X157641240Y-97522906D01*
X157704452Y-97454239D01*
X157764337Y-97418251D01*
X157834175Y-97420351D01*
X157891791Y-97459875D01*
X157911861Y-97494889D01*
X157957110Y-97616204D01*
X158044738Y-97733261D01*
X158161796Y-97820889D01*
X158298794Y-97871988D01*
X158298797Y-97871988D01*
X158298799Y-97871989D01*
X158359362Y-97878500D01*
X159315680Y-97878500D01*
X159382719Y-97898185D01*
X159403361Y-97914819D01*
X165958181Y-104469639D01*
X165991666Y-104530962D01*
X165994500Y-104557320D01*
X165994500Y-117191313D01*
X165974815Y-117258352D01*
X165944811Y-117290580D01*
X165841737Y-117367740D01*
X165754110Y-117484796D01*
X165703011Y-117621794D01*
X165697668Y-117671496D01*
X165696500Y-117682362D01*
X165696500Y-119379638D01*
X165696852Y-119382918D01*
X165696853Y-119382924D01*
X165703011Y-119440205D01*
X165754110Y-119577203D01*
X165841738Y-119694261D01*
X165958796Y-119781889D01*
X166095794Y-119832988D01*
X166095797Y-119832988D01*
X166095799Y-119832989D01*
X166156362Y-119839500D01*
X166159695Y-119839500D01*
X166160683Y-119839553D01*
X166226574Y-119862793D01*
X166269441Y-119917967D01*
X166273492Y-119945939D01*
X166960600Y-120633046D01*
X166879852Y-120645835D01*
X166766955Y-120703359D01*
X166677359Y-120792955D01*
X166619835Y-120905852D01*
X166607046Y-120986599D01*
X165925973Y-120305526D01*
X165925973Y-120305527D01*
X165874865Y-120378516D01*
X165778733Y-120584672D01*
X165719858Y-120804397D01*
X165700033Y-121030999D01*
X165719858Y-121257602D01*
X165778733Y-121477326D01*
X165874866Y-121683484D01*
X165925972Y-121756471D01*
X165925974Y-121756472D01*
X166607046Y-121075399D01*
X166619835Y-121156148D01*
X166677359Y-121269045D01*
X166766955Y-121358641D01*
X166879852Y-121416165D01*
X166960599Y-121428953D01*
X166279526Y-122110025D01*
X166279526Y-122110026D01*
X166352515Y-122161133D01*
X166558673Y-122257266D01*
X166778397Y-122316141D01*
X167004999Y-122335966D01*
X167231602Y-122316141D01*
X167451326Y-122257266D01*
X167657480Y-122161134D01*
X167730472Y-122110025D01*
X167049401Y-121428953D01*
X167130148Y-121416165D01*
X167243045Y-121358641D01*
X167332641Y-121269045D01*
X167390165Y-121156148D01*
X167402953Y-121075400D01*
X168084025Y-121756472D01*
X168135134Y-121683480D01*
X168231266Y-121477326D01*
X168290141Y-121257602D01*
X168309966Y-121030999D01*
X168290141Y-120804397D01*
X168231266Y-120584673D01*
X168135133Y-120378515D01*
X168084025Y-120305526D01*
X167402953Y-120986598D01*
X167390165Y-120905852D01*
X167332641Y-120792955D01*
X167243045Y-120703359D01*
X167130148Y-120645835D01*
X167049400Y-120633046D01*
X167738489Y-119943956D01*
X167746181Y-119905685D01*
X167794795Y-119855501D01*
X167849317Y-119839553D01*
X167850307Y-119839500D01*
X167853638Y-119839500D01*
X167914201Y-119832989D01*
X167914203Y-119832988D01*
X167914205Y-119832988D01*
X167998414Y-119801579D01*
X168051204Y-119781889D01*
X168168261Y-119694261D01*
X168255889Y-119577204D01*
X168306989Y-119440201D01*
X168313500Y-119379638D01*
X168313500Y-118404000D01*
X175678526Y-118404000D01*
X175698391Y-118656404D01*
X175757494Y-118902590D01*
X175805939Y-119019546D01*
X175854384Y-119136502D01*
X175986672Y-119352376D01*
X175994099Y-119361072D01*
X176004306Y-119373023D01*
X176026196Y-119410218D01*
X176041111Y-119450204D01*
X176128738Y-119567261D01*
X176245793Y-119654887D01*
X176245796Y-119654889D01*
X176285779Y-119669801D01*
X176322975Y-119691692D01*
X176343625Y-119709329D01*
X176559494Y-119841614D01*
X176559496Y-119841614D01*
X176559498Y-119841616D01*
X176577118Y-119848914D01*
X176617349Y-119875795D01*
X177247599Y-120506046D01*
X177166852Y-120518835D01*
X177053955Y-120576359D01*
X176964359Y-120665955D01*
X176906835Y-120778852D01*
X176894046Y-120859598D01*
X176212973Y-120178527D01*
X176161865Y-120251516D01*
X176065733Y-120457672D01*
X176006858Y-120677397D01*
X175987033Y-120904000D01*
X176006858Y-121130602D01*
X176065733Y-121350326D01*
X176161866Y-121556484D01*
X176212972Y-121629471D01*
X176212973Y-121629472D01*
X176894046Y-120948399D01*
X176906835Y-121029148D01*
X176964359Y-121142045D01*
X177053955Y-121231641D01*
X177166852Y-121289165D01*
X177247599Y-121301953D01*
X176566526Y-121983025D01*
X176566526Y-121983026D01*
X176639515Y-122034133D01*
X176845673Y-122130266D01*
X177065397Y-122189141D01*
X177292000Y-122208966D01*
X177518602Y-122189141D01*
X177738326Y-122130266D01*
X177944480Y-122034134D01*
X178017472Y-121983025D01*
X177336401Y-121301953D01*
X177417148Y-121289165D01*
X177530045Y-121231641D01*
X177619641Y-121142045D01*
X177677165Y-121029148D01*
X177689953Y-120948400D01*
X178371025Y-121629472D01*
X178422134Y-121556480D01*
X178518266Y-121350326D01*
X178577141Y-121130602D01*
X178596966Y-120904000D01*
X178577141Y-120677397D01*
X178518266Y-120457673D01*
X178422134Y-120251519D01*
X178391399Y-120207624D01*
X178369072Y-120141417D01*
X178386082Y-120073650D01*
X178437030Y-120025837D01*
X178492974Y-120012500D01*
X189157500Y-120012500D01*
X189224539Y-120032185D01*
X189270294Y-120084989D01*
X189281500Y-120136500D01*
X189281499Y-121206328D01*
X189281500Y-121206346D01*
X189281500Y-121209638D01*
X189281852Y-121212918D01*
X189281853Y-121212924D01*
X189288011Y-121270205D01*
X189339110Y-121407203D01*
X189426738Y-121524261D01*
X189543796Y-121611889D01*
X189680794Y-121662988D01*
X189680797Y-121662988D01*
X189680799Y-121662989D01*
X189741362Y-121669500D01*
X191159820Y-121669500D01*
X191207272Y-121678938D01*
X191271409Y-121705505D01*
X191517597Y-121764609D01*
X191770000Y-121784473D01*
X192022403Y-121764609D01*
X192268591Y-121705505D01*
X192332727Y-121678938D01*
X192380180Y-121669500D01*
X193795328Y-121669500D01*
X193798638Y-121669500D01*
X193859201Y-121662989D01*
X193859203Y-121662988D01*
X193859205Y-121662988D01*
X193937124Y-121633924D01*
X193996204Y-121611889D01*
X194113261Y-121524261D01*
X194200889Y-121407204D01*
X194222924Y-121348124D01*
X194251988Y-121270205D01*
X194251988Y-121270203D01*
X194251989Y-121270201D01*
X194258500Y-121209638D01*
X194258500Y-119132362D01*
X194251989Y-119071799D01*
X194251988Y-119071797D01*
X194251988Y-119071794D01*
X194200889Y-118934796D01*
X194113261Y-118817738D01*
X193996203Y-118730110D01*
X193859205Y-118679011D01*
X193801924Y-118672853D01*
X193801918Y-118672852D01*
X193798638Y-118672500D01*
X193795328Y-118672500D01*
X192597624Y-118672500D01*
X192530585Y-118652815D01*
X192509943Y-118636181D01*
X191859057Y-117985295D01*
X191188511Y-117314748D01*
X191181902Y-117307599D01*
X191167366Y-117290580D01*
X191143898Y-117263102D01*
X191117714Y-117240739D01*
X191097316Y-117223317D01*
X191095698Y-117221935D01*
X191095693Y-117221930D01*
X190951376Y-117098672D01*
X190735502Y-116966384D01*
X190593010Y-116907362D01*
X190501590Y-116869494D01*
X190254449Y-116810162D01*
X190250548Y-116810009D01*
X190066205Y-116795500D01*
X190066183Y-116795499D01*
X190003000Y-116790527D01*
X189944662Y-116795118D01*
X189934935Y-116795500D01*
X179532500Y-116795500D01*
X179465461Y-116775815D01*
X179419706Y-116723011D01*
X179408500Y-116671500D01*
X179408500Y-111352500D01*
X190896670Y-111352500D01*
X190896829Y-111355635D01*
X190914843Y-111710864D01*
X190915978Y-111733230D01*
X190916454Y-111736342D01*
X190916455Y-111736344D01*
X190972384Y-112101428D01*
X190973706Y-112110053D01*
X190974492Y-112113090D01*
X190974493Y-112113093D01*
X191040410Y-112367683D01*
X191069259Y-112479102D01*
X191082438Y-112514686D01*
X191188790Y-112801848D01*
X191201658Y-112836591D01*
X191235427Y-112905433D01*
X191352383Y-113143865D01*
X191369545Y-113178851D01*
X191371204Y-113181512D01*
X191371207Y-113181518D01*
X191501352Y-113390316D01*
X191571196Y-113502371D01*
X191573119Y-113504855D01*
X191573123Y-113504861D01*
X191754716Y-113739459D01*
X191804543Y-113803830D01*
X191806704Y-113806103D01*
X191806708Y-113806108D01*
X191927908Y-113933610D01*
X192067190Y-114080134D01*
X192356443Y-114328450D01*
X192669334Y-114546228D01*
X192856400Y-114650059D01*
X192999910Y-114729714D01*
X192999915Y-114729716D01*
X193002651Y-114731235D01*
X193352976Y-114881571D01*
X193716712Y-114995694D01*
X193719780Y-114996324D01*
X193719782Y-114996325D01*
X193794433Y-115011666D01*
X194090127Y-115072432D01*
X194469390Y-115111000D01*
X194472532Y-115111000D01*
X194847468Y-115111000D01*
X194850610Y-115111000D01*
X195229873Y-115072432D01*
X195603288Y-114995694D01*
X195967024Y-114881571D01*
X196317349Y-114731235D01*
X196650666Y-114546228D01*
X196963557Y-114328450D01*
X197252810Y-114080134D01*
X197515457Y-113803830D01*
X197748804Y-113502371D01*
X197950455Y-113178851D01*
X198118342Y-112836591D01*
X198250741Y-112479102D01*
X198346294Y-112110053D01*
X198404022Y-111733230D01*
X198423330Y-111352500D01*
X198404022Y-110971770D01*
X198346294Y-110594947D01*
X198250741Y-110225898D01*
X198118342Y-109868409D01*
X197950455Y-109526149D01*
X197748804Y-109202629D01*
X197515457Y-108901170D01*
X197252810Y-108624866D01*
X196963557Y-108376550D01*
X196650666Y-108158772D01*
X196594345Y-108127511D01*
X196320089Y-107975285D01*
X196320076Y-107975278D01*
X196317349Y-107973765D01*
X196314470Y-107972529D01*
X196314467Y-107972528D01*
X195969915Y-107824669D01*
X195969904Y-107824665D01*
X195967024Y-107823429D01*
X195964026Y-107822488D01*
X195964017Y-107822485D01*
X195606284Y-107710246D01*
X195606283Y-107710245D01*
X195603288Y-107709306D01*
X195600233Y-107708678D01*
X195600217Y-107708674D01*
X195232941Y-107633198D01*
X195232931Y-107633196D01*
X195229873Y-107632568D01*
X195184027Y-107627905D01*
X194853733Y-107594317D01*
X194853721Y-107594316D01*
X194850610Y-107594000D01*
X194469390Y-107594000D01*
X194466279Y-107594316D01*
X194466266Y-107594317D01*
X194093244Y-107632251D01*
X194090127Y-107632568D01*
X194087071Y-107633195D01*
X194087058Y-107633198D01*
X193719782Y-107708674D01*
X193719761Y-107708679D01*
X193716712Y-107709306D01*
X193713720Y-107710244D01*
X193713715Y-107710246D01*
X193355982Y-107822485D01*
X193355966Y-107822490D01*
X193352976Y-107823429D01*
X193350101Y-107824662D01*
X193350084Y-107824669D01*
X193005532Y-107972528D01*
X193005521Y-107972533D01*
X193002651Y-107973765D01*
X192999931Y-107975274D01*
X192999910Y-107975285D01*
X192672077Y-108157249D01*
X192672069Y-108157253D01*
X192669334Y-108158772D01*
X192666765Y-108160559D01*
X192666757Y-108160565D01*
X192359024Y-108374753D01*
X192359016Y-108374758D01*
X192356443Y-108376550D01*
X192354064Y-108378591D01*
X192354054Y-108378600D01*
X192069574Y-108622819D01*
X192067190Y-108624866D01*
X192065030Y-108627137D01*
X192065025Y-108627143D01*
X191806708Y-108898891D01*
X191806695Y-108898905D01*
X191804543Y-108901170D01*
X191802625Y-108903647D01*
X191802618Y-108903656D01*
X191573123Y-109200138D01*
X191573112Y-109200153D01*
X191571196Y-109202629D01*
X191569535Y-109205293D01*
X191569530Y-109205301D01*
X191371207Y-109523481D01*
X191371199Y-109523495D01*
X191369545Y-109526149D01*
X191368168Y-109528956D01*
X191368162Y-109528967D01*
X191276004Y-109716844D01*
X191201658Y-109868409D01*
X191200567Y-109871353D01*
X191200563Y-109871364D01*
X191087553Y-110176503D01*
X191069259Y-110225898D01*
X191068478Y-110228913D01*
X191068474Y-110228927D01*
X190994552Y-110514433D01*
X190973706Y-110594947D01*
X190973231Y-110598046D01*
X190973229Y-110598057D01*
X190949091Y-110755620D01*
X190915978Y-110971770D01*
X190915819Y-110974905D01*
X190915818Y-110974915D01*
X190899784Y-111291103D01*
X190896670Y-111352500D01*
X179408500Y-111352500D01*
X179408500Y-103401138D01*
X194151500Y-103401138D01*
X194151852Y-103404418D01*
X194151853Y-103404424D01*
X194158011Y-103461705D01*
X194209110Y-103598703D01*
X194296738Y-103715761D01*
X194413796Y-103803389D01*
X194550794Y-103854488D01*
X194550797Y-103854488D01*
X194550799Y-103854489D01*
X194611362Y-103861000D01*
X194614672Y-103861000D01*
X196705328Y-103861000D01*
X196708638Y-103861000D01*
X196769201Y-103854489D01*
X196769203Y-103854488D01*
X196769205Y-103854488D01*
X196857282Y-103821636D01*
X196906204Y-103803389D01*
X197023261Y-103715761D01*
X197110889Y-103598704D01*
X197136804Y-103529223D01*
X197161988Y-103461705D01*
X197161988Y-103461703D01*
X197161989Y-103461701D01*
X197168500Y-103401138D01*
X197168500Y-101303862D01*
X197161989Y-101243299D01*
X197161988Y-101243297D01*
X197161988Y-101243294D01*
X197110889Y-101106296D01*
X197023261Y-100989238D01*
X196906203Y-100901610D01*
X196769205Y-100850511D01*
X196711924Y-100844353D01*
X196711918Y-100844352D01*
X196708638Y-100844000D01*
X194611362Y-100844000D01*
X194608082Y-100844352D01*
X194608075Y-100844353D01*
X194550794Y-100850511D01*
X194413796Y-100901610D01*
X194296738Y-100989238D01*
X194209110Y-101106296D01*
X194158011Y-101243294D01*
X194151853Y-101300575D01*
X194151500Y-101303862D01*
X194151500Y-103401138D01*
X179408500Y-103401138D01*
X179408500Y-100454671D01*
X179408500Y-100454670D01*
X179408500Y-100451362D01*
X179401989Y-100390799D01*
X179401988Y-100390797D01*
X179401988Y-100390794D01*
X179350889Y-100253796D01*
X179263261Y-100136738D01*
X179146203Y-100049110D01*
X179009205Y-99998011D01*
X178951924Y-99991853D01*
X178951918Y-99991852D01*
X178948638Y-99991500D01*
X178945328Y-99991500D01*
X177868074Y-99991500D01*
X177858346Y-99991118D01*
X177800000Y-99986526D01*
X177741654Y-99991118D01*
X177731926Y-99991500D01*
X176651362Y-99991500D01*
X176648082Y-99991852D01*
X176648075Y-99991853D01*
X176590794Y-99998011D01*
X176453796Y-100049110D01*
X176336738Y-100136738D01*
X176249110Y-100253796D01*
X176198011Y-100390794D01*
X176192028Y-100446451D01*
X176191500Y-100451362D01*
X176191500Y-100454670D01*
X176191500Y-100454671D01*
X176191500Y-117131686D01*
X176171815Y-117198725D01*
X176141812Y-117230952D01*
X176128739Y-117240737D01*
X176041110Y-117357796D01*
X176026196Y-117397782D01*
X176004306Y-117434977D01*
X175986671Y-117455625D01*
X175854385Y-117671496D01*
X175757494Y-117905409D01*
X175698391Y-118151595D01*
X175678526Y-118404000D01*
X168313500Y-118404000D01*
X168313500Y-117682362D01*
X168306989Y-117621799D01*
X168306988Y-117621797D01*
X168306988Y-117621794D01*
X168255889Y-117484796D01*
X168168261Y-117367738D01*
X168051203Y-117280110D01*
X167914201Y-117229010D01*
X167872244Y-117224499D01*
X167807693Y-117197761D01*
X167767845Y-117140368D01*
X167761500Y-117101210D01*
X167761500Y-104219289D01*
X167763027Y-104199890D01*
X167763401Y-104197529D01*
X167765149Y-104186493D01*
X167761670Y-104120109D01*
X167761500Y-104113620D01*
X167761500Y-104096948D01*
X167761500Y-104093694D01*
X167759415Y-104073865D01*
X167758907Y-104067407D01*
X167758870Y-104066707D01*
X167755429Y-104001029D01*
X167751918Y-103987928D01*
X167748372Y-103968792D01*
X167746954Y-103955297D01*
X167726407Y-103892060D01*
X167724563Y-103885834D01*
X167707362Y-103821636D01*
X167701202Y-103809546D01*
X167693755Y-103791568D01*
X167689563Y-103778666D01*
X167656318Y-103721086D01*
X167653219Y-103715378D01*
X167623047Y-103656161D01*
X167614510Y-103645619D01*
X167603489Y-103629583D01*
X167596704Y-103617831D01*
X167552223Y-103568429D01*
X167548010Y-103563496D01*
X167537516Y-103550537D01*
X167537507Y-103550527D01*
X167535472Y-103548014D01*
X167521390Y-103533932D01*
X167516921Y-103529223D01*
X167472434Y-103479815D01*
X167461451Y-103471835D01*
X167446657Y-103459199D01*
X167401094Y-103413636D01*
X167367609Y-103352313D01*
X167372593Y-103282621D01*
X167414465Y-103226688D01*
X167479929Y-103202271D01*
X167498493Y-103202336D01*
X167640000Y-103213474D01*
X167892403Y-103193609D01*
X168138591Y-103134505D01*
X168372502Y-103037616D01*
X168588376Y-102905328D01*
X168780898Y-102740898D01*
X168945328Y-102548376D01*
X169077616Y-102332502D01*
X169174505Y-102098591D01*
X169233609Y-101852403D01*
X169253474Y-101600000D01*
X169233609Y-101347597D01*
X169174505Y-101101409D01*
X169077616Y-100867498D01*
X168945328Y-100651624D01*
X168780898Y-100459102D01*
X168588376Y-100294672D01*
X168372502Y-100162384D01*
X168204876Y-100092951D01*
X168138590Y-100065494D01*
X167892404Y-100006391D01*
X167640000Y-99986526D01*
X167387595Y-100006391D01*
X167141409Y-100065494D01*
X166907496Y-100162385D01*
X166691625Y-100294671D01*
X166499102Y-100459102D01*
X166334671Y-100651625D01*
X166202385Y-100867496D01*
X166105494Y-101101409D01*
X166046391Y-101347595D01*
X166026526Y-101600000D01*
X166037662Y-101741496D01*
X166023297Y-101809873D01*
X165974246Y-101859629D01*
X165906081Y-101874968D01*
X165840444Y-101851019D01*
X165826363Y-101838905D01*
X163388596Y-99401138D01*
X194151500Y-99401138D01*
X194151852Y-99404418D01*
X194151853Y-99404424D01*
X194158011Y-99461705D01*
X194209110Y-99598703D01*
X194296738Y-99715761D01*
X194413796Y-99803389D01*
X194550794Y-99854488D01*
X194550797Y-99854488D01*
X194550799Y-99854489D01*
X194611362Y-99861000D01*
X194614672Y-99861000D01*
X196705328Y-99861000D01*
X196708638Y-99861000D01*
X196769201Y-99854489D01*
X196769203Y-99854488D01*
X196769205Y-99854488D01*
X196847124Y-99825424D01*
X196906204Y-99803389D01*
X197023261Y-99715761D01*
X197110889Y-99598704D01*
X197132924Y-99539624D01*
X197161988Y-99461705D01*
X197161988Y-99461703D01*
X197161989Y-99461701D01*
X197168500Y-99401138D01*
X197168500Y-97303862D01*
X197161989Y-97243299D01*
X197161988Y-97243297D01*
X197161988Y-97243294D01*
X197110889Y-97106296D01*
X197023261Y-96989238D01*
X196906203Y-96901610D01*
X196769205Y-96850511D01*
X196711924Y-96844353D01*
X196711918Y-96844352D01*
X196708638Y-96844000D01*
X194611362Y-96844000D01*
X194608082Y-96844352D01*
X194608075Y-96844353D01*
X194550794Y-96850511D01*
X194413796Y-96901610D01*
X194296738Y-96989238D01*
X194209110Y-97106296D01*
X194158011Y-97243294D01*
X194151853Y-97300575D01*
X194151500Y-97303862D01*
X194151500Y-99401138D01*
X163388596Y-99401138D01*
X163334646Y-99347188D01*
X160652819Y-96665360D01*
X160619334Y-96604037D01*
X160616500Y-96577679D01*
X160616500Y-95624671D01*
X160616500Y-95624670D01*
X160616500Y-95621362D01*
X160609989Y-95560799D01*
X160609988Y-95560797D01*
X160609988Y-95560794D01*
X160558889Y-95423796D01*
X160471261Y-95306738D01*
X160354203Y-95219110D01*
X160217205Y-95168011D01*
X160159924Y-95161853D01*
X160159918Y-95161852D01*
X160156638Y-95161500D01*
X158359362Y-95161500D01*
X158356082Y-95161852D01*
X158356075Y-95161853D01*
X158298794Y-95168011D01*
X158161796Y-95219110D01*
X158044738Y-95306738D01*
X157957110Y-95423796D01*
X157911861Y-95545110D01*
X157869989Y-95601043D01*
X157804524Y-95625459D01*
X157736252Y-95610606D01*
X157704451Y-95585758D01*
X157641242Y-95517096D01*
X157641241Y-95517095D01*
X157641240Y-95517094D01*
X157463576Y-95378811D01*
X157265574Y-95271658D01*
X157265573Y-95271657D01*
X157265572Y-95271657D01*
X157052636Y-95198556D01*
X156830569Y-95161500D01*
X156660319Y-95161500D01*
X156593280Y-95141815D01*
X156572638Y-95125181D01*
X155218639Y-93771181D01*
X155185154Y-93709858D01*
X155190138Y-93640166D01*
X155232010Y-93584233D01*
X155297474Y-93559816D01*
X155306320Y-93559500D01*
X169412467Y-93559500D01*
X169444560Y-93563725D01*
X169502258Y-93579185D01*
X169533029Y-93587430D01*
X169718493Y-93597149D01*
X169718493Y-93597148D01*
X169718494Y-93597149D01*
X169901921Y-93568098D01*
X169901922Y-93568097D01*
X169901925Y-93568097D01*
X170075309Y-93501541D01*
X170231067Y-93400391D01*
X170362391Y-93269067D01*
X170463541Y-93113309D01*
X170530096Y-92939926D01*
X170559149Y-92756493D01*
X170549430Y-92571029D01*
X170520136Y-92461701D01*
X170503908Y-92401138D01*
X194151500Y-92401138D01*
X194151852Y-92404418D01*
X194151853Y-92404424D01*
X194158011Y-92461705D01*
X194209110Y-92598703D01*
X194296738Y-92715761D01*
X194413796Y-92803389D01*
X194550794Y-92854488D01*
X194550797Y-92854488D01*
X194550799Y-92854489D01*
X194611362Y-92861000D01*
X194614672Y-92861000D01*
X196705328Y-92861000D01*
X196708638Y-92861000D01*
X196769201Y-92854489D01*
X196769203Y-92854488D01*
X196769205Y-92854488D01*
X196847124Y-92825424D01*
X196906204Y-92803389D01*
X197023261Y-92715761D01*
X197110889Y-92598704D01*
X197161989Y-92461701D01*
X197168500Y-92401138D01*
X197168500Y-90303862D01*
X197161989Y-90243299D01*
X197161988Y-90243297D01*
X197161988Y-90243294D01*
X197110889Y-90106296D01*
X197023261Y-89989238D01*
X196906203Y-89901610D01*
X196769205Y-89850511D01*
X196711924Y-89844353D01*
X196711918Y-89844352D01*
X196708638Y-89844000D01*
X194611362Y-89844000D01*
X194608082Y-89844352D01*
X194608075Y-89844353D01*
X194550794Y-89850511D01*
X194413796Y-89901610D01*
X194296738Y-89989238D01*
X194209110Y-90106296D01*
X194158011Y-90243294D01*
X194151853Y-90300575D01*
X194151500Y-90303862D01*
X194151500Y-92401138D01*
X170503908Y-92401138D01*
X170501362Y-92391635D01*
X170417048Y-92226162D01*
X170331513Y-92120535D01*
X170329472Y-92118014D01*
X170318798Y-92107340D01*
X170306159Y-92092542D01*
X170298186Y-92081568D01*
X170298185Y-92081566D01*
X170248775Y-92037077D01*
X170244066Y-92032608D01*
X170232291Y-92020833D01*
X170229986Y-92018528D01*
X170227462Y-92016484D01*
X170227452Y-92016475D01*
X170214504Y-92005990D01*
X170209571Y-92001777D01*
X170195876Y-91989446D01*
X170160169Y-91957296D01*
X170148409Y-91950506D01*
X170132381Y-91939490D01*
X170121839Y-91930953D01*
X170121837Y-91930952D01*
X170121836Y-91930951D01*
X170062603Y-91900770D01*
X170056914Y-91897681D01*
X169999331Y-91864436D01*
X169999332Y-91864436D01*
X169999328Y-91864434D01*
X169986426Y-91860242D01*
X169968454Y-91852798D01*
X169956365Y-91846638D01*
X169938289Y-91841795D01*
X169928882Y-91839274D01*
X169869223Y-91802910D01*
X169838694Y-91740063D01*
X169846989Y-91670687D01*
X169891474Y-91616809D01*
X169958026Y-91595535D01*
X169960977Y-91595500D01*
X171461381Y-91595500D01*
X171480779Y-91597026D01*
X171494183Y-91599150D01*
X171560583Y-91595669D01*
X171567073Y-91595500D01*
X171583728Y-91595500D01*
X171586982Y-91595500D01*
X171606790Y-91593417D01*
X171613241Y-91592909D01*
X171679647Y-91589430D01*
X171692759Y-91585916D01*
X171711874Y-91582373D01*
X171725378Y-91580954D01*
X171788628Y-91560401D01*
X171794797Y-91558574D01*
X171859039Y-91541362D01*
X171865465Y-91538087D01*
X171871123Y-91535205D01*
X171889104Y-91527756D01*
X171902007Y-91523564D01*
X171959626Y-91490296D01*
X171965264Y-91487236D01*
X172024515Y-91457047D01*
X172035059Y-91448508D01*
X172051099Y-91437485D01*
X172062845Y-91430704D01*
X172062844Y-91430703D01*
X172112255Y-91386213D01*
X172117166Y-91382019D01*
X172132662Y-91369472D01*
X172146748Y-91355384D01*
X172151438Y-91350932D01*
X172200861Y-91306434D01*
X172208845Y-91295443D01*
X172221470Y-91280662D01*
X175100994Y-88401138D01*
X194151500Y-88401138D01*
X194151852Y-88404418D01*
X194151853Y-88404424D01*
X194158011Y-88461705D01*
X194209110Y-88598703D01*
X194296738Y-88715761D01*
X194413796Y-88803389D01*
X194550794Y-88854488D01*
X194550797Y-88854488D01*
X194550799Y-88854489D01*
X194611362Y-88861000D01*
X194614672Y-88861000D01*
X196705328Y-88861000D01*
X196708638Y-88861000D01*
X196769201Y-88854489D01*
X196769203Y-88854488D01*
X196769205Y-88854488D01*
X196873929Y-88815427D01*
X196906204Y-88803389D01*
X197023261Y-88715761D01*
X197110889Y-88598704D01*
X197161989Y-88461701D01*
X197168500Y-88401138D01*
X197168500Y-86303862D01*
X197161989Y-86243299D01*
X197161988Y-86243297D01*
X197161988Y-86243294D01*
X197110889Y-86106296D01*
X197023261Y-85989238D01*
X196906203Y-85901610D01*
X196769205Y-85850511D01*
X196711924Y-85844353D01*
X196711918Y-85844352D01*
X196708638Y-85844000D01*
X194611362Y-85844000D01*
X194608082Y-85844352D01*
X194608075Y-85844353D01*
X194550794Y-85850511D01*
X194413796Y-85901610D01*
X194296738Y-85989238D01*
X194209110Y-86106296D01*
X194158011Y-86243294D01*
X194151853Y-86300575D01*
X194151500Y-86303862D01*
X194151500Y-88401138D01*
X175100994Y-88401138D01*
X179131660Y-84370471D01*
X179146451Y-84357839D01*
X179157434Y-84349861D01*
X179201941Y-84300428D01*
X179206396Y-84295736D01*
X179220472Y-84281661D01*
X179233016Y-84266168D01*
X179237195Y-84261275D01*
X179281704Y-84211845D01*
X179288492Y-84200085D01*
X179299508Y-84184059D01*
X179308047Y-84173515D01*
X179338236Y-84114264D01*
X179341296Y-84108626D01*
X179374564Y-84051007D01*
X179378756Y-84038104D01*
X179386205Y-84020123D01*
X179392360Y-84008042D01*
X179392362Y-84008039D01*
X179409574Y-83943797D01*
X179411407Y-83937611D01*
X179414179Y-83929081D01*
X179431954Y-83874378D01*
X179433373Y-83860874D01*
X179436916Y-83841759D01*
X179440430Y-83828647D01*
X179443909Y-83762241D01*
X179444417Y-83755790D01*
X179446500Y-83735982D01*
X179446499Y-83716073D01*
X179446669Y-83709582D01*
X179447583Y-83692150D01*
X179450150Y-83643183D01*
X179448026Y-83629777D01*
X179446500Y-83610381D01*
X179446500Y-82122295D01*
X179448027Y-82102897D01*
X179448242Y-82101538D01*
X179450150Y-82089493D01*
X179446668Y-82023089D01*
X179446499Y-82016595D01*
X179446499Y-82009761D01*
X179446500Y-81996694D01*
X179444417Y-81976884D01*
X179443909Y-81970426D01*
X179443828Y-81968889D01*
X179440430Y-81904029D01*
X179436914Y-81890910D01*
X179433372Y-81871797D01*
X179431954Y-81858298D01*
X179411409Y-81795068D01*
X179409565Y-81788841D01*
X179392363Y-81724641D01*
X179392362Y-81724637D01*
X179386199Y-81712543D01*
X179378757Y-81694575D01*
X179374564Y-81681669D01*
X179374562Y-81681665D01*
X179341323Y-81624094D01*
X179338224Y-81618387D01*
X179336093Y-81614204D01*
X179308048Y-81559161D01*
X179299504Y-81548611D01*
X179288486Y-81532578D01*
X179281704Y-81520831D01*
X179246890Y-81482166D01*
X179237219Y-81471425D01*
X179233004Y-81466490D01*
X179222514Y-81453536D01*
X179222508Y-81453530D01*
X179220472Y-81451015D01*
X179206399Y-81436942D01*
X179201948Y-81432253D01*
X179157434Y-81382815D01*
X179150977Y-81378123D01*
X179146447Y-81374832D01*
X179131654Y-81362197D01*
X178433096Y-80663638D01*
X178399611Y-80602315D01*
X178397201Y-80565720D01*
X178401156Y-80518000D01*
X178382564Y-80293632D01*
X178327296Y-80075384D01*
X178239691Y-79875662D01*
X178236861Y-79869211D01*
X178236860Y-79869209D01*
X178113722Y-79680732D01*
X177961240Y-79515094D01*
X177783576Y-79376811D01*
X177585574Y-79269658D01*
X177585573Y-79269657D01*
X177585572Y-79269657D01*
X177372636Y-79196556D01*
X177150569Y-79159500D01*
X176925431Y-79159500D01*
X176703363Y-79196556D01*
X176490427Y-79269657D01*
X176292424Y-79376811D01*
X176114757Y-79515096D01*
X176051548Y-79583759D01*
X175991661Y-79619750D01*
X175921823Y-79617649D01*
X175864207Y-79578125D01*
X175844137Y-79543110D01*
X175842134Y-79537739D01*
X175798889Y-79421796D01*
X175789156Y-79408794D01*
X175711261Y-79304738D01*
X175594203Y-79217110D01*
X175457205Y-79166011D01*
X175399924Y-79159853D01*
X175399918Y-79159852D01*
X175396638Y-79159500D01*
X173599362Y-79159500D01*
X173596082Y-79159852D01*
X173596075Y-79159853D01*
X173538794Y-79166011D01*
X173401796Y-79217110D01*
X173284738Y-79304738D01*
X173197110Y-79421796D01*
X173147862Y-79553834D01*
X173105991Y-79609768D01*
X173040526Y-79634184D01*
X173031681Y-79634500D01*
X167513766Y-79634500D01*
X167446727Y-79614815D01*
X167414499Y-79584811D01*
X167393929Y-79557333D01*
X167379261Y-79537739D01*
X167379259Y-79537738D01*
X167379259Y-79537737D01*
X167262203Y-79450110D01*
X167125205Y-79399011D01*
X167067924Y-79392853D01*
X167067918Y-79392852D01*
X167064638Y-79392500D01*
X165167362Y-79392500D01*
X165164082Y-79392852D01*
X165164075Y-79392853D01*
X165106794Y-79399011D01*
X164969796Y-79450110D01*
X164852738Y-79537738D01*
X164765110Y-79654796D01*
X164714011Y-79791794D01*
X164707853Y-79849075D01*
X164707500Y-79852362D01*
X164707500Y-81749638D01*
X164707852Y-81752918D01*
X164707853Y-81752924D01*
X164714011Y-81810205D01*
X164765110Y-81947203D01*
X164852738Y-82064261D01*
X164969796Y-82151889D01*
X165106794Y-82202988D01*
X165106797Y-82202988D01*
X165106799Y-82202989D01*
X165167362Y-82209500D01*
X165170672Y-82209500D01*
X167061328Y-82209500D01*
X167064638Y-82209500D01*
X167125201Y-82202989D01*
X167125203Y-82202988D01*
X167125205Y-82202988D01*
X167203124Y-82173924D01*
X167262204Y-82151889D01*
X167379261Y-82064261D01*
X167466889Y-81947204D01*
X167491485Y-81881261D01*
X167517988Y-81810205D01*
X167517988Y-81810203D01*
X167517989Y-81810201D01*
X167524500Y-81749638D01*
X167524500Y-81525499D01*
X167544185Y-81458461D01*
X167596989Y-81412706D01*
X167648500Y-81401500D01*
X173031681Y-81401500D01*
X173098720Y-81421185D01*
X173144475Y-81473989D01*
X173147862Y-81482166D01*
X173197110Y-81614203D01*
X173284738Y-81731261D01*
X173401793Y-81818887D01*
X173401796Y-81818889D01*
X173531382Y-81867222D01*
X173587313Y-81909093D01*
X173611730Y-81974557D01*
X173596878Y-82042830D01*
X173575728Y-82071084D01*
X173459888Y-82186924D01*
X173324400Y-82380421D01*
X173224569Y-82594507D01*
X173167364Y-82807999D01*
X173167364Y-82808000D01*
X174064314Y-82808000D01*
X174038507Y-82848156D01*
X173998000Y-82986111D01*
X173998000Y-83129889D01*
X174038507Y-83267844D01*
X174064314Y-83308000D01*
X173167364Y-83308000D01*
X173224569Y-83521492D01*
X173324399Y-83735576D01*
X173459893Y-83929081D01*
X173626918Y-84096106D01*
X173820423Y-84231600D01*
X174034509Y-84331430D01*
X174248000Y-84388634D01*
X174248000Y-83493501D01*
X174355685Y-83542680D01*
X174462237Y-83558000D01*
X174533763Y-83558000D01*
X174640315Y-83542680D01*
X174748000Y-83493501D01*
X174748000Y-84388633D01*
X174961490Y-84331430D01*
X175175576Y-84231600D01*
X175369081Y-84096106D01*
X175536109Y-83929078D01*
X175666424Y-83742969D01*
X175721001Y-83699344D01*
X175790499Y-83692150D01*
X175852854Y-83723673D01*
X175869574Y-83742968D01*
X175999892Y-83929080D01*
X176166918Y-84096106D01*
X176360423Y-84231600D01*
X176480352Y-84287525D01*
X176532791Y-84333698D01*
X176551943Y-84400891D01*
X176531727Y-84467772D01*
X176515628Y-84487588D01*
X171211037Y-89792181D01*
X171149714Y-89825666D01*
X171123356Y-89828500D01*
X163717320Y-89828500D01*
X163650281Y-89808815D01*
X163604526Y-89756011D01*
X163594582Y-89686853D01*
X163623607Y-89623297D01*
X163629639Y-89616819D01*
X165920638Y-87325819D01*
X165981961Y-87292334D01*
X166008319Y-87289500D01*
X166232712Y-87289500D01*
X166462953Y-87251080D01*
X166573339Y-87213183D01*
X166683727Y-87175287D01*
X166889017Y-87064190D01*
X167073220Y-86920818D01*
X167231314Y-86749083D01*
X167358984Y-86553669D01*
X167452749Y-86339907D01*
X167510051Y-86113626D01*
X167529327Y-85881000D01*
X167510051Y-85648374D01*
X167452749Y-85422093D01*
X167358984Y-85208331D01*
X167231314Y-85012917D01*
X167073220Y-84841182D01*
X166889017Y-84697810D01*
X166683727Y-84586713D01*
X166683726Y-84586712D01*
X166683725Y-84586712D01*
X166462953Y-84510919D01*
X166232712Y-84472500D01*
X165999288Y-84472500D01*
X165769046Y-84510919D01*
X165548274Y-84586712D01*
X165342983Y-84697810D01*
X165158780Y-84841181D01*
X165000684Y-85012918D01*
X164873016Y-85208330D01*
X164779251Y-85422091D01*
X164721948Y-85648378D01*
X164702672Y-85880994D01*
X164710466Y-85975050D01*
X164696384Y-86043486D01*
X164674570Y-86072970D01*
X162005361Y-88742181D01*
X161944038Y-88775666D01*
X161917680Y-88778500D01*
X130689255Y-88778500D01*
X130669857Y-88776973D01*
X130656459Y-88774851D01*
X130590071Y-88778330D01*
X130583582Y-88778500D01*
X130563660Y-88778500D01*
X130560452Y-88778837D01*
X130560435Y-88778838D01*
X130543848Y-88780582D01*
X130537378Y-88781091D01*
X130470991Y-88784570D01*
X130457877Y-88788083D01*
X130438762Y-88791626D01*
X130425264Y-88793045D01*
X130362053Y-88813584D01*
X130355830Y-88815427D01*
X130291602Y-88832637D01*
X130279502Y-88838802D01*
X130261542Y-88846241D01*
X130248636Y-88850435D01*
X130191065Y-88883673D01*
X130185363Y-88886769D01*
X130126124Y-88916953D01*
X130115574Y-88925496D01*
X130099549Y-88936510D01*
X130087798Y-88943294D01*
X130038386Y-88987784D01*
X130033458Y-88991993D01*
X130020493Y-89002492D01*
X130020483Y-89002500D01*
X130017980Y-89004528D01*
X130015711Y-89006796D01*
X130015683Y-89006822D01*
X130003885Y-89018621D01*
X129999180Y-89023086D01*
X129949778Y-89067568D01*
X129941797Y-89078552D01*
X129929166Y-89093340D01*
X125581872Y-93440634D01*
X125520549Y-93474119D01*
X125450857Y-93469135D01*
X125394924Y-93427263D01*
X125381814Y-93405367D01*
X125343523Y-93323251D01*
X125212198Y-93135700D01*
X125050300Y-92973802D01*
X124862749Y-92842477D01*
X124862746Y-92842476D01*
X124862744Y-92842474D01*
X124655246Y-92745717D01*
X124655243Y-92745716D01*
X124488832Y-92701126D01*
X124434084Y-92686456D01*
X124206000Y-92666501D01*
X123977915Y-92686456D01*
X123756753Y-92745717D01*
X123549255Y-92842474D01*
X123361696Y-92973805D01*
X123199805Y-93135696D01*
X123199802Y-93135699D01*
X123199802Y-93135700D01*
X123068477Y-93323251D01*
X123068477Y-93323252D01*
X123068474Y-93323256D01*
X123043691Y-93376402D01*
X122997518Y-93428841D01*
X122930325Y-93447992D01*
X122863444Y-93427775D01*
X122818927Y-93376400D01*
X122796132Y-93327516D01*
X122665658Y-93141180D01*
X122504819Y-92980341D01*
X122318480Y-92849865D01*
X122112326Y-92753733D01*
X121915999Y-92701127D01*
X121915999Y-93544498D01*
X121808315Y-93495320D01*
X121701763Y-93480000D01*
X121630237Y-93480000D01*
X121523685Y-93495320D01*
X121416000Y-93544498D01*
X121416000Y-92701127D01*
X121415999Y-92701126D01*
X121219673Y-92753733D01*
X121013519Y-92849865D01*
X120827180Y-92980341D01*
X120666341Y-93141180D01*
X120535864Y-93327520D01*
X120513069Y-93376403D01*
X120466896Y-93428841D01*
X120399702Y-93447992D01*
X120332821Y-93427775D01*
X120288307Y-93376401D01*
X120263523Y-93323251D01*
X120132198Y-93135700D01*
X119970300Y-92973802D01*
X119782749Y-92842477D01*
X119782746Y-92842476D01*
X119782744Y-92842474D01*
X119575246Y-92745717D01*
X119575243Y-92745716D01*
X119408832Y-92701126D01*
X119354084Y-92686456D01*
X119126000Y-92666501D01*
X118897915Y-92686456D01*
X118676753Y-92745717D01*
X118469255Y-92842474D01*
X118281696Y-92973805D01*
X118119805Y-93135696D01*
X117988476Y-93323253D01*
X117968382Y-93366345D01*
X117922209Y-93418784D01*
X117855016Y-93437936D01*
X117788135Y-93417720D01*
X117743618Y-93366345D01*
X117742214Y-93363334D01*
X117723523Y-93323251D01*
X117592198Y-93135700D01*
X117430300Y-92973802D01*
X117242749Y-92842477D01*
X117242746Y-92842476D01*
X117242744Y-92842474D01*
X117035246Y-92745717D01*
X117035243Y-92745716D01*
X116868832Y-92701126D01*
X116814084Y-92686456D01*
X116585999Y-92666501D01*
X116357915Y-92686456D01*
X116136753Y-92745717D01*
X115929255Y-92842474D01*
X115741696Y-92973805D01*
X115579805Y-93135696D01*
X115448475Y-93323254D01*
X115428380Y-93366347D01*
X115382207Y-93418785D01*
X115315013Y-93437936D01*
X115248132Y-93417719D01*
X115203618Y-93366345D01*
X115183523Y-93323251D01*
X115052198Y-93135700D01*
X114890300Y-92973802D01*
X114702749Y-92842477D01*
X114702746Y-92842476D01*
X114702744Y-92842474D01*
X114495246Y-92745717D01*
X114495243Y-92745716D01*
X114328832Y-92701126D01*
X114274084Y-92686456D01*
X114045999Y-92666501D01*
X113817915Y-92686456D01*
X113596753Y-92745717D01*
X113389255Y-92842474D01*
X113201696Y-92973805D01*
X113039805Y-93135696D01*
X112908476Y-93323253D01*
X112888382Y-93366345D01*
X112842209Y-93418784D01*
X112775016Y-93437936D01*
X112708135Y-93417720D01*
X112663618Y-93366345D01*
X112662214Y-93363334D01*
X112643523Y-93323251D01*
X112512198Y-93135700D01*
X112350300Y-92973802D01*
X112162749Y-92842477D01*
X112162746Y-92842476D01*
X112162744Y-92842474D01*
X111955246Y-92745717D01*
X111955243Y-92745716D01*
X111788832Y-92701126D01*
X111734084Y-92686456D01*
X111505999Y-92666501D01*
X111277915Y-92686456D01*
X111056753Y-92745717D01*
X110849255Y-92842474D01*
X110661696Y-92973805D01*
X110499805Y-93135696D01*
X110368476Y-93323253D01*
X110348382Y-93366345D01*
X110302209Y-93418784D01*
X110235016Y-93437936D01*
X110168135Y-93417720D01*
X110123618Y-93366345D01*
X110122214Y-93363334D01*
X110103523Y-93323251D01*
X109972198Y-93135700D01*
X109810300Y-92973802D01*
X109622749Y-92842477D01*
X109622746Y-92842476D01*
X109622744Y-92842474D01*
X109415246Y-92745717D01*
X109415243Y-92745716D01*
X109248832Y-92701126D01*
X109194084Y-92686456D01*
X108966000Y-92666501D01*
X108737915Y-92686456D01*
X108516753Y-92745717D01*
X108309255Y-92842474D01*
X108121696Y-92973805D01*
X107959805Y-93135696D01*
X107828476Y-93323253D01*
X107808382Y-93366345D01*
X107762209Y-93418784D01*
X107695016Y-93437936D01*
X107628135Y-93417720D01*
X107583618Y-93366345D01*
X107582214Y-93363334D01*
X107563523Y-93323251D01*
X107432198Y-93135700D01*
X107270300Y-92973802D01*
X107082749Y-92842477D01*
X107082746Y-92842476D01*
X107082744Y-92842474D01*
X106875246Y-92745717D01*
X106875243Y-92745716D01*
X106708832Y-92701126D01*
X106654084Y-92686456D01*
X106425999Y-92666501D01*
X106197915Y-92686456D01*
X105976753Y-92745717D01*
X105769255Y-92842474D01*
X105581696Y-92973805D01*
X105419805Y-93135696D01*
X105288476Y-93323253D01*
X105268382Y-93366345D01*
X105222209Y-93418784D01*
X105155016Y-93437936D01*
X105088135Y-93417720D01*
X105043618Y-93366345D01*
X105042214Y-93363334D01*
X105023523Y-93323251D01*
X104892198Y-93135700D01*
X104730300Y-92973802D01*
X104542749Y-92842477D01*
X104542746Y-92842476D01*
X104542744Y-92842474D01*
X104335246Y-92745717D01*
X104335243Y-92745716D01*
X104168832Y-92701126D01*
X104114084Y-92686456D01*
X103886000Y-92666501D01*
X103657915Y-92686456D01*
X103436753Y-92745717D01*
X103229255Y-92842474D01*
X103041696Y-92973805D01*
X102879805Y-93135696D01*
X102748476Y-93323253D01*
X102728382Y-93366345D01*
X102682209Y-93418784D01*
X102615016Y-93437936D01*
X102548135Y-93417720D01*
X102503618Y-93366345D01*
X102502214Y-93363334D01*
X102483523Y-93323251D01*
X102352198Y-93135700D01*
X102190300Y-92973802D01*
X102002749Y-92842477D01*
X102002746Y-92842476D01*
X102002744Y-92842474D01*
X101795246Y-92745717D01*
X101795243Y-92745716D01*
X101628832Y-92701126D01*
X101574084Y-92686456D01*
X101346000Y-92666501D01*
X101117915Y-92686456D01*
X100896753Y-92745717D01*
X100689255Y-92842474D01*
X100501696Y-92973805D01*
X100339805Y-93135696D01*
X100208476Y-93323253D01*
X100188382Y-93366345D01*
X100142209Y-93418784D01*
X100075016Y-93437936D01*
X100008135Y-93417720D01*
X99963618Y-93366345D01*
X99962214Y-93363334D01*
X99943523Y-93323251D01*
X99812198Y-93135700D01*
X99650300Y-92973802D01*
X99462749Y-92842477D01*
X99462746Y-92842476D01*
X99462744Y-92842474D01*
X99255246Y-92745717D01*
X99255243Y-92745716D01*
X99088832Y-92701126D01*
X99034084Y-92686456D01*
X98806000Y-92666501D01*
X98577915Y-92686456D01*
X98356753Y-92745717D01*
X98149255Y-92842474D01*
X97961696Y-92973805D01*
X97799805Y-93135696D01*
X97668476Y-93323253D01*
X97648382Y-93366345D01*
X97602209Y-93418784D01*
X97535016Y-93437936D01*
X97468135Y-93417720D01*
X97423618Y-93366345D01*
X97422214Y-93363334D01*
X97403523Y-93323251D01*
X97272198Y-93135700D01*
X97110300Y-92973802D01*
X96922749Y-92842477D01*
X96922746Y-92842476D01*
X96922744Y-92842474D01*
X96715246Y-92745717D01*
X96715243Y-92745716D01*
X96548832Y-92701126D01*
X96494084Y-92686456D01*
X96265999Y-92666501D01*
X96037915Y-92686456D01*
X95816753Y-92745717D01*
X95609255Y-92842474D01*
X95421696Y-92973805D01*
X95259805Y-93135696D01*
X95128475Y-93323254D01*
X95108380Y-93366347D01*
X95062207Y-93418785D01*
X94995013Y-93437936D01*
X94928132Y-93417719D01*
X94883618Y-93366345D01*
X94863523Y-93323251D01*
X94732198Y-93135700D01*
X94570300Y-92973802D01*
X94382749Y-92842477D01*
X94382746Y-92842476D01*
X94382744Y-92842474D01*
X94175246Y-92745717D01*
X94175243Y-92745716D01*
X94008832Y-92701126D01*
X93954084Y-92686456D01*
X93725999Y-92666501D01*
X93497915Y-92686456D01*
X93276753Y-92745717D01*
X93069255Y-92842474D01*
X92881696Y-92973805D01*
X92719805Y-93135696D01*
X92588476Y-93323253D01*
X92568382Y-93366345D01*
X92522209Y-93418784D01*
X92455016Y-93437936D01*
X92388135Y-93417720D01*
X92343618Y-93366345D01*
X92342214Y-93363334D01*
X92323523Y-93323251D01*
X92192198Y-93135700D01*
X92030300Y-92973802D01*
X91842749Y-92842477D01*
X91842746Y-92842476D01*
X91842744Y-92842474D01*
X91635246Y-92745717D01*
X91635243Y-92745716D01*
X91468832Y-92701126D01*
X91414084Y-92686456D01*
X91185999Y-92666501D01*
X90957915Y-92686456D01*
X90736753Y-92745717D01*
X90529255Y-92842474D01*
X90341696Y-92973805D01*
X90179805Y-93135696D01*
X90048476Y-93323253D01*
X90028382Y-93366345D01*
X89982209Y-93418784D01*
X89915016Y-93437936D01*
X89848135Y-93417720D01*
X89803618Y-93366345D01*
X89802214Y-93363334D01*
X89783523Y-93323251D01*
X89652198Y-93135700D01*
X89490300Y-92973802D01*
X89302749Y-92842477D01*
X89302746Y-92842476D01*
X89302744Y-92842474D01*
X89095246Y-92745717D01*
X89095243Y-92745716D01*
X88928832Y-92701126D01*
X88874084Y-92686456D01*
X88646000Y-92666501D01*
X88417915Y-92686456D01*
X88196753Y-92745717D01*
X87989255Y-92842474D01*
X87801696Y-92973805D01*
X87639805Y-93135696D01*
X87508474Y-93323255D01*
X87411717Y-93530753D01*
X87352456Y-93751915D01*
X87332501Y-93980000D01*
X87352456Y-94208084D01*
X87411717Y-94429246D01*
X87508474Y-94636744D01*
X87508476Y-94636746D01*
X87508477Y-94636749D01*
X87639802Y-94824300D01*
X87801700Y-94986198D01*
X87989251Y-95117523D01*
X87989254Y-95117524D01*
X87989255Y-95117525D01*
X88041346Y-95141815D01*
X88196757Y-95214284D01*
X88417913Y-95273543D01*
X88646000Y-95293498D01*
X88874087Y-95273543D01*
X89095243Y-95214284D01*
X89302749Y-95117523D01*
X89490300Y-94986198D01*
X89652198Y-94824300D01*
X89783523Y-94636749D01*
X89803618Y-94593654D01*
X89849787Y-94541216D01*
X89916980Y-94522063D01*
X89983862Y-94542277D01*
X90028381Y-94593653D01*
X90048477Y-94636749D01*
X90179802Y-94824300D01*
X90341700Y-94986198D01*
X90529251Y-95117523D01*
X90529254Y-95117524D01*
X90529255Y-95117525D01*
X90581346Y-95141815D01*
X90736757Y-95214284D01*
X90957913Y-95273543D01*
X91186000Y-95293498D01*
X91414087Y-95273543D01*
X91635243Y-95214284D01*
X91842749Y-95117523D01*
X92030300Y-94986198D01*
X92192198Y-94824300D01*
X92323523Y-94636749D01*
X92343617Y-94593655D01*
X92389790Y-94541215D01*
X92456983Y-94522063D01*
X92523864Y-94542278D01*
X92568382Y-94593655D01*
X92588477Y-94636749D01*
X92719802Y-94824300D01*
X92881700Y-94986198D01*
X93069251Y-95117523D01*
X93069254Y-95117524D01*
X93069255Y-95117525D01*
X93121346Y-95141815D01*
X93276757Y-95214284D01*
X93497913Y-95273543D01*
X93726000Y-95293498D01*
X93954087Y-95273543D01*
X94175243Y-95214284D01*
X94382749Y-95117523D01*
X94570300Y-94986198D01*
X94732198Y-94824300D01*
X94863523Y-94636749D01*
X94883617Y-94593655D01*
X94929790Y-94541215D01*
X94996983Y-94522063D01*
X95063864Y-94542278D01*
X95108382Y-94593655D01*
X95128477Y-94636749D01*
X95259802Y-94824300D01*
X95421700Y-94986198D01*
X95609251Y-95117523D01*
X95609254Y-95117524D01*
X95609255Y-95117525D01*
X95661346Y-95141815D01*
X95816757Y-95214284D01*
X96037913Y-95273543D01*
X96189970Y-95286846D01*
X96265999Y-95293498D01*
X96265999Y-95293497D01*
X96266000Y-95293498D01*
X96494087Y-95273543D01*
X96715243Y-95214284D01*
X96922749Y-95117523D01*
X97110300Y-94986198D01*
X97272198Y-94824300D01*
X97403523Y-94636749D01*
X97423617Y-94593655D01*
X97469790Y-94541215D01*
X97536983Y-94522063D01*
X97603864Y-94542278D01*
X97648382Y-94593655D01*
X97668477Y-94636749D01*
X97799802Y-94824300D01*
X97961700Y-94986198D01*
X98149251Y-95117523D01*
X98149254Y-95117524D01*
X98149255Y-95117525D01*
X98201346Y-95141815D01*
X98356757Y-95214284D01*
X98577913Y-95273543D01*
X98806000Y-95293498D01*
X99034087Y-95273543D01*
X99255243Y-95214284D01*
X99462749Y-95117523D01*
X99650300Y-94986198D01*
X99812198Y-94824300D01*
X99943523Y-94636749D01*
X99963618Y-94593654D01*
X100009787Y-94541216D01*
X100076980Y-94522063D01*
X100143862Y-94542277D01*
X100188381Y-94593653D01*
X100208477Y-94636749D01*
X100339802Y-94824300D01*
X100501700Y-94986198D01*
X100689251Y-95117523D01*
X100689254Y-95117524D01*
X100689255Y-95117525D01*
X100741346Y-95141815D01*
X100896757Y-95214284D01*
X101117913Y-95273543D01*
X101269971Y-95286846D01*
X101345999Y-95293498D01*
X101345999Y-95293497D01*
X101346000Y-95293498D01*
X101574087Y-95273543D01*
X101795243Y-95214284D01*
X102002749Y-95117523D01*
X102190300Y-94986198D01*
X102352198Y-94824300D01*
X102483523Y-94636749D01*
X102503617Y-94593655D01*
X102549790Y-94541215D01*
X102616983Y-94522063D01*
X102683864Y-94542278D01*
X102728382Y-94593655D01*
X102748477Y-94636749D01*
X102879802Y-94824300D01*
X103041700Y-94986198D01*
X103229251Y-95117523D01*
X103229254Y-95117524D01*
X103229255Y-95117525D01*
X103281346Y-95141815D01*
X103436757Y-95214284D01*
X103657913Y-95273543D01*
X103809971Y-95286846D01*
X103885999Y-95293498D01*
X103885999Y-95293497D01*
X103886000Y-95293498D01*
X104114087Y-95273543D01*
X104335243Y-95214284D01*
X104542749Y-95117523D01*
X104730300Y-94986198D01*
X104892198Y-94824300D01*
X105023523Y-94636749D01*
X105043617Y-94593655D01*
X105089790Y-94541215D01*
X105156983Y-94522063D01*
X105223864Y-94542278D01*
X105268382Y-94593655D01*
X105288477Y-94636749D01*
X105419802Y-94824300D01*
X105581700Y-94986198D01*
X105769251Y-95117523D01*
X105769254Y-95117524D01*
X105769255Y-95117525D01*
X105821346Y-95141815D01*
X105976757Y-95214284D01*
X106197913Y-95273543D01*
X106263080Y-95279244D01*
X106425995Y-95293498D01*
X106425997Y-95293497D01*
X106426000Y-95293498D01*
X106427276Y-95293386D01*
X106429250Y-95293782D01*
X106436808Y-95294444D01*
X106436734Y-95295286D01*
X106495776Y-95307146D01*
X106525774Y-95329232D01*
X106590180Y-95393638D01*
X106623665Y-95454961D01*
X106626499Y-95481319D01*
X106626499Y-101526032D01*
X106606814Y-101593071D01*
X106554010Y-101638826D01*
X106484852Y-101648770D01*
X106470405Y-101645807D01*
X106285000Y-101596126D01*
X106285000Y-102559314D01*
X106273045Y-102547359D01*
X106160148Y-102489835D01*
X106066481Y-102475000D01*
X106003519Y-102475000D01*
X105909852Y-102489835D01*
X105796955Y-102547359D01*
X105784999Y-102559315D01*
X105784999Y-101596127D01*
X105588673Y-101648733D01*
X105382519Y-101744865D01*
X105196180Y-101875341D01*
X105035341Y-102036180D01*
X104904865Y-102222519D01*
X104808733Y-102428673D01*
X104756128Y-102624999D01*
X104756128Y-102625000D01*
X105719314Y-102625000D01*
X105707359Y-102636955D01*
X105649835Y-102749852D01*
X105630014Y-102875000D01*
X105649835Y-103000148D01*
X105707359Y-103113045D01*
X105719314Y-103125000D01*
X104756128Y-103125000D01*
X104808733Y-103321326D01*
X104904865Y-103527480D01*
X105035341Y-103713819D01*
X105196181Y-103874659D01*
X105211211Y-103885183D01*
X105254837Y-103939760D01*
X105262031Y-104009258D01*
X105230509Y-104071613D01*
X105170280Y-104107028D01*
X105153346Y-104110048D01*
X105125798Y-104113010D01*
X104988796Y-104164110D01*
X104871738Y-104251738D01*
X104784110Y-104368795D01*
X104753511Y-104450835D01*
X104711639Y-104506768D01*
X104646175Y-104531184D01*
X104637330Y-104531500D01*
X103521329Y-104531500D01*
X103501930Y-104529973D01*
X103488527Y-104527850D01*
X103424913Y-104531184D01*
X103422127Y-104531330D01*
X103415637Y-104531500D01*
X103395728Y-104531500D01*
X103392515Y-104531837D01*
X103392508Y-104531838D01*
X103375921Y-104533581D01*
X103369459Y-104534089D01*
X103303060Y-104537570D01*
X103289946Y-104541083D01*
X103270830Y-104544626D01*
X103257332Y-104546045D01*
X103194121Y-104566584D01*
X103187898Y-104568427D01*
X103123670Y-104585637D01*
X103111570Y-104591802D01*
X103093610Y-104599241D01*
X103080704Y-104603435D01*
X103023133Y-104636673D01*
X103017431Y-104639769D01*
X102958192Y-104669953D01*
X102947642Y-104678496D01*
X102931617Y-104689510D01*
X102919866Y-104696294D01*
X102870454Y-104740784D01*
X102865526Y-104744993D01*
X102852561Y-104755492D01*
X102852551Y-104755500D01*
X102850048Y-104757528D01*
X102847779Y-104759796D01*
X102847751Y-104759822D01*
X102835953Y-104771621D01*
X102831248Y-104776086D01*
X102781846Y-104820568D01*
X102773865Y-104831552D01*
X102761234Y-104846340D01*
X93949464Y-113658110D01*
X93888141Y-113691595D01*
X93818449Y-113686611D01*
X93762516Y-113644739D01*
X93760209Y-113641553D01*
X93716198Y-113578700D01*
X93554303Y-113416805D01*
X93554303Y-113416804D01*
X93554300Y-113416802D01*
X93366749Y-113285477D01*
X93366746Y-113285476D01*
X93366744Y-113285474D01*
X93159246Y-113188717D01*
X93159243Y-113188716D01*
X93032063Y-113154638D01*
X92938084Y-113129456D01*
X92710000Y-113109501D01*
X92481915Y-113129456D01*
X92260753Y-113188717D01*
X92053255Y-113285474D01*
X91865696Y-113416805D01*
X91703805Y-113578696D01*
X91703802Y-113578699D01*
X91703802Y-113578700D01*
X91660298Y-113640830D01*
X91572474Y-113766255D01*
X91475717Y-113973753D01*
X91416456Y-114194915D01*
X91396501Y-114422999D01*
X91396614Y-114424284D01*
X91396215Y-114426265D01*
X91395556Y-114433807D01*
X91394715Y-114433733D01*
X91382848Y-114492784D01*
X91360767Y-114522773D01*
X90905361Y-114978181D01*
X90844038Y-115011666D01*
X90817680Y-115014500D01*
X90257766Y-115014500D01*
X90190727Y-114994815D01*
X90144972Y-114942011D01*
X90135028Y-114872853D01*
X90137988Y-114858416D01*
X90193543Y-114651087D01*
X90213498Y-114423000D01*
X90213385Y-114421720D01*
X90213783Y-114419741D01*
X90214444Y-114412192D01*
X90215285Y-114412265D01*
X90227148Y-114353219D01*
X90249231Y-114323225D01*
X97881550Y-106690905D01*
X97942871Y-106657422D01*
X98001319Y-106658812D01*
X98186913Y-106708543D01*
X98338971Y-106721846D01*
X98414999Y-106728498D01*
X98414999Y-106728497D01*
X98415000Y-106728498D01*
X98643087Y-106708543D01*
X98864243Y-106649284D01*
X99071749Y-106552523D01*
X99259300Y-106421198D01*
X99421198Y-106259300D01*
X99552523Y-106071749D01*
X99649284Y-105864243D01*
X99708543Y-105643087D01*
X99728498Y-105415000D01*
X99708543Y-105186913D01*
X99649284Y-104965757D01*
X99569505Y-104794669D01*
X99552525Y-104758255D01*
X99552523Y-104758252D01*
X99552523Y-104758251D01*
X99421198Y-104570700D01*
X99259300Y-104408802D01*
X99071749Y-104277477D01*
X99071748Y-104277476D01*
X99071746Y-104277475D01*
X99018598Y-104252692D01*
X98966159Y-104206519D01*
X98947007Y-104139325D01*
X98967223Y-104072444D01*
X99018600Y-104027927D01*
X99067481Y-104005133D01*
X99253819Y-103874658D01*
X99414658Y-103713819D01*
X99545134Y-103527480D01*
X99641266Y-103321326D01*
X99693872Y-103125000D01*
X98730686Y-103125000D01*
X98742641Y-103113045D01*
X98800165Y-103000148D01*
X98819986Y-102875000D01*
X98800165Y-102749852D01*
X98742641Y-102636955D01*
X98730686Y-102625000D01*
X99693872Y-102625000D01*
X99693871Y-102624999D01*
X99641266Y-102428673D01*
X99545134Y-102222519D01*
X99414658Y-102036180D01*
X99253819Y-101875341D01*
X99067480Y-101744865D01*
X98861326Y-101648733D01*
X98665000Y-101596126D01*
X98665000Y-102559313D01*
X98653045Y-102547359D01*
X98540148Y-102489835D01*
X98446481Y-102475000D01*
X98383519Y-102475000D01*
X98289852Y-102489835D01*
X98176955Y-102547359D01*
X98165000Y-102559314D01*
X98165000Y-101596127D01*
X98164999Y-101596126D01*
X97968673Y-101648733D01*
X97762519Y-101744865D01*
X97576180Y-101875341D01*
X97415341Y-102036180D01*
X97284865Y-102222519D01*
X97188733Y-102428673D01*
X97136128Y-102624999D01*
X97136128Y-102625000D01*
X98099314Y-102625000D01*
X98087359Y-102636955D01*
X98029835Y-102749852D01*
X98010014Y-102875000D01*
X98029835Y-103000148D01*
X98087359Y-103113045D01*
X98099314Y-103125000D01*
X97136128Y-103125000D01*
X97188733Y-103321326D01*
X97284865Y-103527480D01*
X97415341Y-103713819D01*
X97576180Y-103874658D01*
X97762516Y-104005132D01*
X97811400Y-104027927D01*
X97863839Y-104074099D01*
X97882992Y-104141292D01*
X97862777Y-104208174D01*
X97811402Y-104252691D01*
X97758256Y-104277474D01*
X97758255Y-104277475D01*
X97758251Y-104277477D01*
X97595194Y-104391651D01*
X97570696Y-104408805D01*
X97408805Y-104570696D01*
X97277476Y-104758252D01*
X97254545Y-104807426D01*
X97242493Y-104827889D01*
X97239847Y-104831532D01*
X97227199Y-104846342D01*
X88999774Y-113073767D01*
X88938451Y-113107252D01*
X88901286Y-113109614D01*
X88899999Y-113109501D01*
X88671915Y-113129456D01*
X88450753Y-113188717D01*
X88243255Y-113285474D01*
X88055696Y-113416805D01*
X87893805Y-113578696D01*
X87893802Y-113578699D01*
X87893802Y-113578700D01*
X87762477Y-113766251D01*
X87734717Y-113825784D01*
X87733882Y-113827574D01*
X87687710Y-113880013D01*
X87620516Y-113899165D01*
X87553635Y-113878949D01*
X87508301Y-113825784D01*
X87497500Y-113775169D01*
X87497500Y-106759295D01*
X87499027Y-106739896D01*
X87500832Y-106728498D01*
X87501150Y-106726493D01*
X87497670Y-106660090D01*
X87497500Y-106653601D01*
X87497500Y-106636948D01*
X87497500Y-106633694D01*
X87495417Y-106613884D01*
X87494909Y-106607426D01*
X87491430Y-106541033D01*
X87491430Y-106541029D01*
X87487914Y-106527910D01*
X87484372Y-106508797D01*
X87482954Y-106495298D01*
X87462409Y-106432068D01*
X87460565Y-106425841D01*
X87443363Y-106361641D01*
X87443362Y-106361637D01*
X87437199Y-106349543D01*
X87429757Y-106331575D01*
X87425564Y-106318669D01*
X87423859Y-106315716D01*
X87392323Y-106261094D01*
X87389224Y-106255387D01*
X87379602Y-106236502D01*
X87359048Y-106196161D01*
X87350504Y-106185611D01*
X87339486Y-106169578D01*
X87332704Y-106157831D01*
X87325514Y-106149845D01*
X87288219Y-106108425D01*
X87284004Y-106103490D01*
X87273514Y-106090536D01*
X87273508Y-106090530D01*
X87271472Y-106088015D01*
X87257399Y-106073942D01*
X87252948Y-106069253D01*
X87208434Y-106019815D01*
X87201977Y-106015123D01*
X87197447Y-106011832D01*
X87182654Y-105999197D01*
X85290485Y-104107028D01*
X83395986Y-102212528D01*
X83350711Y-102175866D01*
X83287837Y-102124951D01*
X83122364Y-102040637D01*
X82942970Y-101992569D01*
X82775977Y-101983817D01*
X82757507Y-101982850D01*
X82757506Y-101982850D01*
X82757505Y-101982850D01*
X82574076Y-102011901D01*
X82428186Y-102067903D01*
X82400690Y-102078459D01*
X82400689Y-102078459D01*
X82400688Y-102078460D01*
X82244931Y-102179609D01*
X82113608Y-102310932D01*
X82012457Y-102466690D01*
X81945904Y-102640072D01*
X81916850Y-102823506D01*
X74940500Y-102823506D01*
X74940500Y-74352500D01*
X75896670Y-74352500D01*
X75896829Y-74355635D01*
X75915659Y-74726951D01*
X75915978Y-74733230D01*
X75916454Y-74736342D01*
X75916455Y-74736344D01*
X75972780Y-75104013D01*
X75973706Y-75110053D01*
X75974492Y-75113090D01*
X75974493Y-75113093D01*
X76058694Y-75438300D01*
X76069259Y-75479102D01*
X76092906Y-75542950D01*
X76198946Y-75829270D01*
X76201658Y-75836591D01*
X76369545Y-76178851D01*
X76571196Y-76502371D01*
X76573119Y-76504855D01*
X76573123Y-76504861D01*
X76763196Y-76750415D01*
X76804543Y-76803830D01*
X76806704Y-76806103D01*
X76806708Y-76806108D01*
X76854221Y-76856091D01*
X77067190Y-77080134D01*
X77356443Y-77328450D01*
X77669334Y-77546228D01*
X77827151Y-77633824D01*
X77999910Y-77729714D01*
X77999915Y-77729716D01*
X78002651Y-77731235D01*
X78352976Y-77881571D01*
X78716712Y-77995694D01*
X78719780Y-77996324D01*
X78719782Y-77996325D01*
X78812590Y-78015397D01*
X79090127Y-78072432D01*
X79469390Y-78111000D01*
X79472532Y-78111000D01*
X79847468Y-78111000D01*
X79850610Y-78111000D01*
X80229873Y-78072432D01*
X80603288Y-77995694D01*
X80967024Y-77881571D01*
X81317349Y-77731235D01*
X81650666Y-77546228D01*
X81963557Y-77328450D01*
X82252810Y-77080134D01*
X82515457Y-76803830D01*
X82748804Y-76502371D01*
X82950455Y-76178851D01*
X83118342Y-75836591D01*
X83250741Y-75479102D01*
X83346294Y-75110053D01*
X83404022Y-74733230D01*
X83423330Y-74352500D01*
X83413518Y-74159022D01*
X85881500Y-74159022D01*
X85881747Y-74161770D01*
X85881748Y-74161785D01*
X85896719Y-74328124D01*
X85956986Y-74546494D01*
X86055272Y-74750590D01*
X86103610Y-74817120D01*
X86188429Y-74933863D01*
X86267692Y-75009646D01*
X86352165Y-75090412D01*
X86453606Y-75157372D01*
X86541226Y-75215209D01*
X86749530Y-75304243D01*
X86970385Y-75354651D01*
X87177234Y-75363941D01*
X87196689Y-75364815D01*
X87196689Y-75364814D01*
X87196691Y-75364815D01*
X87421175Y-75334406D01*
X87636621Y-75264403D01*
X87836106Y-75157056D01*
X88013218Y-75015814D01*
X88162263Y-74845218D01*
X88278453Y-74650750D01*
X88294220Y-74608737D01*
X88336206Y-74552889D01*
X88401720Y-74528605D01*
X88469962Y-74543596D01*
X88519267Y-74593102D01*
X88522034Y-74598506D01*
X88595273Y-74750590D01*
X88595274Y-74750592D01*
X88595275Y-74750593D01*
X88728429Y-74933863D01*
X88807692Y-75009646D01*
X88892165Y-75090412D01*
X88993606Y-75157372D01*
X89081226Y-75215209D01*
X89289530Y-75304243D01*
X89510385Y-75354651D01*
X89717234Y-75363941D01*
X89736689Y-75364815D01*
X89736689Y-75364814D01*
X89736691Y-75364815D01*
X89961175Y-75334406D01*
X90176621Y-75264403D01*
X90376106Y-75157056D01*
X90553218Y-75015814D01*
X90702263Y-74845218D01*
X90818453Y-74650750D01*
X90834220Y-74608737D01*
X90876206Y-74552889D01*
X90941720Y-74528605D01*
X91009962Y-74543596D01*
X91059267Y-74593102D01*
X91062034Y-74598506D01*
X91135273Y-74750590D01*
X91135274Y-74750592D01*
X91135275Y-74750593D01*
X91268429Y-74933863D01*
X91347692Y-75009646D01*
X91432165Y-75090412D01*
X91533606Y-75157372D01*
X91621226Y-75215209D01*
X91829530Y-75304243D01*
X92050385Y-75354651D01*
X92257234Y-75363941D01*
X92276689Y-75364815D01*
X92276689Y-75364814D01*
X92276691Y-75364815D01*
X92501175Y-75334406D01*
X92716621Y-75264403D01*
X92916106Y-75157056D01*
X93093218Y-75015814D01*
X93242263Y-74845218D01*
X93358453Y-74650750D01*
X93374220Y-74608737D01*
X93416206Y-74552889D01*
X93481720Y-74528605D01*
X93549962Y-74543596D01*
X93599267Y-74593102D01*
X93602034Y-74598506D01*
X93675273Y-74750590D01*
X93675274Y-74750592D01*
X93675275Y-74750593D01*
X93808429Y-74933863D01*
X93887692Y-75009646D01*
X93972165Y-75090412D01*
X94073606Y-75157372D01*
X94161226Y-75215209D01*
X94369530Y-75304243D01*
X94590385Y-75354651D01*
X94797234Y-75363941D01*
X94816689Y-75364815D01*
X94816689Y-75364814D01*
X94816691Y-75364815D01*
X95041175Y-75334406D01*
X95256621Y-75264403D01*
X95456106Y-75157056D01*
X95633218Y-75015814D01*
X95782263Y-74845218D01*
X95898453Y-74650750D01*
X95914220Y-74608737D01*
X95956206Y-74552889D01*
X96021720Y-74528605D01*
X96089962Y-74543596D01*
X96139267Y-74593102D01*
X96142034Y-74598506D01*
X96215273Y-74750590D01*
X96215274Y-74750592D01*
X96215275Y-74750593D01*
X96348429Y-74933863D01*
X96512166Y-75090412D01*
X96532771Y-75104013D01*
X96577876Y-75157372D01*
X96586973Y-75226647D01*
X96557173Y-75289843D01*
X96497937Y-75326896D01*
X96464460Y-75331500D01*
X96330289Y-75331500D01*
X96310891Y-75329973D01*
X96297493Y-75327851D01*
X96231105Y-75331330D01*
X96224616Y-75331500D01*
X96204694Y-75331500D01*
X96201486Y-75331837D01*
X96201469Y-75331838D01*
X96184882Y-75333582D01*
X96178412Y-75334091D01*
X96112025Y-75337570D01*
X96098911Y-75341083D01*
X96079796Y-75344626D01*
X96066298Y-75346045D01*
X96003087Y-75366584D01*
X95996864Y-75368427D01*
X95932636Y-75385637D01*
X95920536Y-75391802D01*
X95902576Y-75399241D01*
X95889670Y-75403435D01*
X95832099Y-75436673D01*
X95826397Y-75439769D01*
X95767158Y-75469953D01*
X95756608Y-75478496D01*
X95740583Y-75489510D01*
X95728832Y-75496294D01*
X95679420Y-75540784D01*
X95674492Y-75544993D01*
X95661527Y-75555492D01*
X95661517Y-75555500D01*
X95659014Y-75557528D01*
X95656745Y-75559796D01*
X95656717Y-75559822D01*
X95644919Y-75571621D01*
X95640214Y-75576086D01*
X95590812Y-75620568D01*
X95582831Y-75631552D01*
X95570200Y-75646340D01*
X93825773Y-77390767D01*
X93764450Y-77424252D01*
X93727284Y-77426614D01*
X93725999Y-77426501D01*
X93497915Y-77446456D01*
X93276753Y-77505717D01*
X93069255Y-77602474D01*
X93069250Y-77602477D01*
X93069251Y-77602477D01*
X92887539Y-77729714D01*
X92881696Y-77733805D01*
X92719805Y-77895696D01*
X92719802Y-77895699D01*
X92719802Y-77895700D01*
X92595832Y-78072748D01*
X92588476Y-78083253D01*
X92568382Y-78126345D01*
X92522209Y-78178784D01*
X92455016Y-78197936D01*
X92388135Y-78177720D01*
X92343618Y-78126345D01*
X92336314Y-78110682D01*
X92323523Y-78083251D01*
X92192198Y-77895700D01*
X92030300Y-77733802D01*
X91842749Y-77602477D01*
X91842746Y-77602476D01*
X91842744Y-77602474D01*
X91635246Y-77505717D01*
X91635243Y-77505716D01*
X91444022Y-77454478D01*
X91414084Y-77446456D01*
X91185999Y-77426501D01*
X90957915Y-77446456D01*
X90736753Y-77505717D01*
X90529255Y-77602474D01*
X90529250Y-77602477D01*
X90529251Y-77602477D01*
X90347539Y-77729714D01*
X90341696Y-77733805D01*
X90179805Y-77895696D01*
X90179802Y-77895699D01*
X90179802Y-77895700D01*
X90056053Y-78072432D01*
X90048475Y-78083254D01*
X90028380Y-78126347D01*
X89982207Y-78178785D01*
X89915013Y-78197936D01*
X89848132Y-78177719D01*
X89803618Y-78126345D01*
X89783523Y-78083251D01*
X89652198Y-77895700D01*
X89490300Y-77733802D01*
X89302749Y-77602477D01*
X89302746Y-77602476D01*
X89302744Y-77602474D01*
X89095246Y-77505717D01*
X89095243Y-77505716D01*
X88904022Y-77454478D01*
X88874084Y-77446456D01*
X88645999Y-77426501D01*
X88417915Y-77446456D01*
X88196753Y-77505717D01*
X87989255Y-77602474D01*
X87989250Y-77602477D01*
X87989251Y-77602477D01*
X87807539Y-77729714D01*
X87801696Y-77733805D01*
X87639805Y-77895696D01*
X87508474Y-78083255D01*
X87411717Y-78290753D01*
X87352456Y-78511915D01*
X87332501Y-78739999D01*
X87352456Y-78968084D01*
X87352457Y-78968087D01*
X87397497Y-79136179D01*
X87411717Y-79189246D01*
X87508474Y-79396744D01*
X87508476Y-79396746D01*
X87508477Y-79396749D01*
X87639802Y-79584300D01*
X87801700Y-79746198D01*
X87989251Y-79877523D01*
X88196757Y-79974284D01*
X88417913Y-80033543D01*
X88646000Y-80053498D01*
X88874087Y-80033543D01*
X89095243Y-79974284D01*
X89302749Y-79877523D01*
X89490300Y-79746198D01*
X89652198Y-79584300D01*
X89783523Y-79396749D01*
X89803618Y-79353654D01*
X89849787Y-79301216D01*
X89916980Y-79282063D01*
X89983862Y-79302277D01*
X90028381Y-79353653D01*
X90048477Y-79396749D01*
X90179802Y-79584300D01*
X90341700Y-79746198D01*
X90529251Y-79877523D01*
X90736757Y-79974284D01*
X90957913Y-80033543D01*
X91186000Y-80053498D01*
X91414087Y-80033543D01*
X91635243Y-79974284D01*
X91842749Y-79877523D01*
X92030300Y-79746198D01*
X92192198Y-79584300D01*
X92323523Y-79396749D01*
X92343617Y-79353655D01*
X92389790Y-79301215D01*
X92456983Y-79282063D01*
X92523864Y-79302278D01*
X92568382Y-79353655D01*
X92588477Y-79396749D01*
X92719802Y-79584300D01*
X92881700Y-79746198D01*
X93069251Y-79877523D01*
X93276757Y-79974284D01*
X93497913Y-80033543D01*
X93726000Y-80053498D01*
X93954087Y-80033543D01*
X94175243Y-79974284D01*
X94382749Y-79877523D01*
X94570300Y-79746198D01*
X94732198Y-79584300D01*
X94863523Y-79396749D01*
X94883617Y-79353655D01*
X94929790Y-79301215D01*
X94996983Y-79282063D01*
X95063864Y-79302278D01*
X95108382Y-79353655D01*
X95128477Y-79396749D01*
X95259802Y-79584300D01*
X95421700Y-79746198D01*
X95609251Y-79877523D01*
X95816757Y-79974284D01*
X96037913Y-80033543D01*
X96180629Y-80046029D01*
X96265999Y-80053498D01*
X96265999Y-80053497D01*
X96266000Y-80053498D01*
X96494087Y-80033543D01*
X96715243Y-79974284D01*
X96922749Y-79877523D01*
X97110300Y-79746198D01*
X97272198Y-79584300D01*
X97403523Y-79396749D01*
X97423617Y-79353655D01*
X97469790Y-79301215D01*
X97536983Y-79282063D01*
X97603864Y-79302278D01*
X97648382Y-79353655D01*
X97668477Y-79396749D01*
X97799802Y-79584300D01*
X97961700Y-79746198D01*
X98149251Y-79877523D01*
X98356757Y-79974284D01*
X98577913Y-80033543D01*
X98720629Y-80046029D01*
X98805999Y-80053498D01*
X98805999Y-80053497D01*
X98806000Y-80053498D01*
X99034087Y-80033543D01*
X99255243Y-79974284D01*
X99462749Y-79877523D01*
X99650300Y-79746198D01*
X99812198Y-79584300D01*
X99943523Y-79396749D01*
X99963618Y-79353654D01*
X100009787Y-79301216D01*
X100076980Y-79282063D01*
X100143862Y-79302277D01*
X100188381Y-79353653D01*
X100208477Y-79396749D01*
X100339802Y-79584300D01*
X100501700Y-79746198D01*
X100689251Y-79877523D01*
X100896757Y-79974284D01*
X101117913Y-80033543D01*
X101183080Y-80039244D01*
X101345995Y-80053498D01*
X101345997Y-80053497D01*
X101346000Y-80053498D01*
X101347276Y-80053386D01*
X101349250Y-80053782D01*
X101356808Y-80054444D01*
X101356734Y-80055286D01*
X101415776Y-80067146D01*
X101445774Y-80089232D01*
X105017201Y-83660659D01*
X105029839Y-83675456D01*
X105037814Y-83686434D01*
X105087223Y-83730921D01*
X105091929Y-83735387D01*
X105106014Y-83749472D01*
X105108531Y-83751510D01*
X105108532Y-83751511D01*
X105121487Y-83762001D01*
X105126428Y-83766221D01*
X105175831Y-83810704D01*
X105187578Y-83817486D01*
X105203612Y-83828506D01*
X105214157Y-83837045D01*
X105214158Y-83837045D01*
X105214160Y-83837047D01*
X105272134Y-83866586D01*
X105273399Y-83867231D01*
X105279104Y-83870329D01*
X105336665Y-83903562D01*
X105336666Y-83903562D01*
X105336669Y-83903564D01*
X105349566Y-83907754D01*
X105367547Y-83915202D01*
X105373525Y-83918248D01*
X105379637Y-83921362D01*
X105443872Y-83938573D01*
X105450038Y-83940399D01*
X105513298Y-83960954D01*
X105523965Y-83962074D01*
X105526792Y-83962372D01*
X105545927Y-83965918D01*
X105559028Y-83969429D01*
X105625417Y-83972907D01*
X105631865Y-83973415D01*
X105651694Y-83975500D01*
X105671621Y-83975500D01*
X105678110Y-83975669D01*
X105744493Y-83979149D01*
X105757890Y-83977027D01*
X105777289Y-83975500D01*
X124307629Y-83975500D01*
X124327027Y-83977026D01*
X124340431Y-83979150D01*
X124406831Y-83975669D01*
X124413321Y-83975500D01*
X124429976Y-83975500D01*
X124433230Y-83975500D01*
X124453038Y-83973417D01*
X124459489Y-83972909D01*
X124525895Y-83969430D01*
X124539007Y-83965916D01*
X124558122Y-83962373D01*
X124571626Y-83960954D01*
X124634876Y-83940401D01*
X124641045Y-83938574D01*
X124705287Y-83921362D01*
X124711713Y-83918087D01*
X124717371Y-83915205D01*
X124735352Y-83907756D01*
X124748255Y-83903564D01*
X124805874Y-83870296D01*
X124811522Y-83867231D01*
X124870763Y-83837047D01*
X124881310Y-83828506D01*
X124897347Y-83817485D01*
X124909093Y-83810704D01*
X124958503Y-83766213D01*
X124963414Y-83762019D01*
X124978910Y-83749472D01*
X124992996Y-83735384D01*
X124997686Y-83730932D01*
X125047109Y-83686434D01*
X125055093Y-83675443D01*
X125067718Y-83660662D01*
X127299662Y-81428718D01*
X127314451Y-81416087D01*
X127325434Y-81408109D01*
X127369932Y-81358686D01*
X127374387Y-81353994D01*
X127388472Y-81339910D01*
X127401019Y-81324414D01*
X127405213Y-81319503D01*
X127449704Y-81270093D01*
X127456485Y-81258346D01*
X127467508Y-81242307D01*
X127476047Y-81231763D01*
X127506236Y-81172512D01*
X127509296Y-81166874D01*
X127542564Y-81109255D01*
X127546756Y-81096352D01*
X127554205Y-81078371D01*
X127560360Y-81066290D01*
X127560362Y-81066287D01*
X127577574Y-81002045D01*
X127579407Y-80995859D01*
X127599954Y-80932626D01*
X127601373Y-80919122D01*
X127604916Y-80900007D01*
X127608430Y-80886895D01*
X127611909Y-80820489D01*
X127612417Y-80814038D01*
X127614500Y-80794230D01*
X127614500Y-80774321D01*
X127614670Y-80767831D01*
X127618150Y-80701431D01*
X127616027Y-80688026D01*
X127614500Y-80668628D01*
X127614500Y-74922789D01*
X127616027Y-74903390D01*
X127617036Y-74897018D01*
X127618149Y-74889993D01*
X127614670Y-74823609D01*
X127614500Y-74817120D01*
X127614500Y-74800448D01*
X127614500Y-74797194D01*
X127612415Y-74777365D01*
X127611907Y-74770907D01*
X127610842Y-74750590D01*
X127608429Y-74704528D01*
X127604918Y-74691427D01*
X127601372Y-74672292D01*
X127599954Y-74658799D01*
X127597339Y-74650750D01*
X127579399Y-74595538D01*
X127577573Y-74589372D01*
X127560362Y-74525137D01*
X127556730Y-74518009D01*
X127554202Y-74513047D01*
X127546754Y-74495066D01*
X127542564Y-74482169D01*
X127509329Y-74424604D01*
X127506231Y-74418899D01*
X127476045Y-74359657D01*
X127467506Y-74349112D01*
X127456486Y-74333078D01*
X127449704Y-74321331D01*
X127405221Y-74271928D01*
X127401001Y-74266987D01*
X127390511Y-74254032D01*
X127390510Y-74254031D01*
X127388472Y-74251514D01*
X127374390Y-74237432D01*
X127369921Y-74232723D01*
X127325434Y-74183315D01*
X127314451Y-74175335D01*
X127299657Y-74162699D01*
X126790116Y-73653158D01*
X126756631Y-73591835D01*
X126761615Y-73522143D01*
X126803487Y-73466210D01*
X126868951Y-73441793D01*
X126922411Y-73453422D01*
X126923025Y-73451536D01*
X126948322Y-73459755D01*
X126966300Y-73467202D01*
X126978390Y-73473362D01*
X127042596Y-73490565D01*
X127048822Y-73492409D01*
X127073262Y-73500350D01*
X127112052Y-73512954D01*
X127125551Y-73514372D01*
X127144664Y-73517914D01*
X127157783Y-73521430D01*
X127224174Y-73524908D01*
X127230638Y-73525417D01*
X127250448Y-73527500D01*
X127270370Y-73527500D01*
X127276859Y-73527670D01*
X127343247Y-73531149D01*
X127354691Y-73529336D01*
X127356653Y-73529026D01*
X127376048Y-73527500D01*
X131792000Y-73527500D01*
X131859039Y-73547185D01*
X131904794Y-73599989D01*
X131916000Y-73651500D01*
X131916000Y-76174000D01*
X133140916Y-76174000D01*
X133122307Y-76255530D01*
X133112212Y-76480308D01*
X133138449Y-76674000D01*
X131916000Y-76674000D01*
X131916000Y-79468518D01*
X131916354Y-79475132D01*
X131922400Y-79531371D01*
X131972647Y-79666089D01*
X132058811Y-79781188D01*
X132173910Y-79867352D01*
X132308628Y-79917599D01*
X132364867Y-79923645D01*
X132371482Y-79924000D01*
X134116000Y-79924000D01*
X134115999Y-77649047D01*
X134253498Y-77674000D01*
X134422133Y-77674000D01*
X134590098Y-77658883D01*
X134616000Y-77651734D01*
X134616000Y-79924000D01*
X136360518Y-79924000D01*
X136367132Y-79923645D01*
X136423371Y-79917599D01*
X136558089Y-79867352D01*
X136673188Y-79781188D01*
X136759352Y-79666089D01*
X136809599Y-79531371D01*
X136815645Y-79475132D01*
X136816000Y-79468518D01*
X136816000Y-76674000D01*
X135591084Y-76674000D01*
X135609693Y-76592470D01*
X135619788Y-76367692D01*
X135593551Y-76174000D01*
X136816000Y-76174000D01*
X136816000Y-73651500D01*
X136835685Y-73584461D01*
X136888489Y-73538706D01*
X136940000Y-73527500D01*
X140817500Y-73527500D01*
X140884539Y-73547185D01*
X140930294Y-73599989D01*
X140941500Y-73651500D01*
X140941500Y-79472638D01*
X140941852Y-79475918D01*
X140941853Y-79475924D01*
X140948011Y-79533205D01*
X140999110Y-79670203D01*
X141086738Y-79787261D01*
X141203796Y-79874889D01*
X141340794Y-79925988D01*
X141340797Y-79925988D01*
X141340799Y-79925989D01*
X141401362Y-79932500D01*
X141404672Y-79932500D01*
X145395328Y-79932500D01*
X145398638Y-79932500D01*
X145459201Y-79925989D01*
X145459203Y-79925988D01*
X145459205Y-79925988D01*
X145537124Y-79896924D01*
X145596204Y-79874889D01*
X145713261Y-79787261D01*
X145800889Y-79670204D01*
X145832929Y-79584303D01*
X145851988Y-79533205D01*
X145851988Y-79533203D01*
X145851989Y-79533201D01*
X145858500Y-79472638D01*
X145858500Y-73651499D01*
X145878185Y-73584461D01*
X145930989Y-73538706D01*
X145982500Y-73527500D01*
X150966680Y-73527500D01*
X151033719Y-73547185D01*
X151054361Y-73563819D01*
X154407809Y-76917267D01*
X156359666Y-78869123D01*
X156393151Y-78930446D01*
X156388167Y-79000138D01*
X156346295Y-79056071D01*
X156312248Y-79074085D01*
X156132539Y-79135780D01*
X155920835Y-79250347D01*
X155784869Y-79356174D01*
X155719875Y-79381816D01*
X155651335Y-79368249D01*
X155601010Y-79319781D01*
X155592527Y-79301660D01*
X155581389Y-79271796D01*
X155579788Y-79269657D01*
X155493761Y-79154738D01*
X155376703Y-79067110D01*
X155239705Y-79016011D01*
X155182424Y-79009853D01*
X155182418Y-79009852D01*
X155179138Y-79009500D01*
X153176862Y-79009500D01*
X153173582Y-79009852D01*
X153173575Y-79009853D01*
X153116294Y-79016011D01*
X152979296Y-79067110D01*
X152862238Y-79154738D01*
X152774610Y-79271796D01*
X152723511Y-79408794D01*
X152718305Y-79457219D01*
X152717000Y-79469362D01*
X152717000Y-81566638D01*
X152717352Y-81569918D01*
X152717353Y-81569924D01*
X152723511Y-81627205D01*
X152774610Y-81764203D01*
X152862238Y-81881261D01*
X152979296Y-81968889D01*
X153116294Y-82019988D01*
X153116297Y-82019988D01*
X153116299Y-82019989D01*
X153176862Y-82026500D01*
X153180172Y-82026500D01*
X155175828Y-82026500D01*
X155179138Y-82026500D01*
X155239701Y-82019989D01*
X155239703Y-82019988D01*
X155239705Y-82019988D01*
X155329091Y-81986648D01*
X155376704Y-81968889D01*
X155493761Y-81881261D01*
X155581389Y-81764204D01*
X155592526Y-81734342D01*
X155634396Y-81678412D01*
X155699860Y-81653994D01*
X155768133Y-81668845D01*
X155784870Y-81679825D01*
X155920835Y-81785651D01*
X156132539Y-81900219D01*
X156360208Y-81978379D01*
X156468000Y-81996366D01*
X156468000Y-81009683D01*
X156496819Y-81027209D01*
X156642404Y-81068000D01*
X156755622Y-81068000D01*
X156867783Y-81052584D01*
X156968000Y-81009053D01*
X156968000Y-81996365D01*
X157075791Y-81978379D01*
X157303460Y-81900219D01*
X157515164Y-81785651D01*
X157705122Y-81637801D01*
X157868154Y-81460702D01*
X157879113Y-81443928D01*
X157932259Y-81398571D01*
X158001490Y-81389146D01*
X158064826Y-81418647D01*
X158086731Y-81443926D01*
X158101111Y-81465936D01*
X158101114Y-81465940D01*
X158265100Y-81644076D01*
X158456170Y-81792792D01*
X158669112Y-81908030D01*
X158726363Y-81927684D01*
X158898114Y-81986648D01*
X159136938Y-82026500D01*
X159379062Y-82026500D01*
X159617883Y-81986648D01*
X159837739Y-81911170D01*
X159907535Y-81908021D01*
X159967957Y-81943107D01*
X159999817Y-82005289D01*
X160002000Y-82028452D01*
X160002000Y-82438179D01*
X159982315Y-82505218D01*
X159965681Y-82525860D01*
X156742088Y-85749452D01*
X156680765Y-85782937D01*
X156665215Y-85785299D01*
X156513860Y-85798541D01*
X156306221Y-85854178D01*
X156111402Y-85945024D01*
X155935317Y-86068319D01*
X155783319Y-86220317D01*
X155660024Y-86396402D01*
X155565692Y-86598697D01*
X155519519Y-86651136D01*
X155452326Y-86670288D01*
X155385444Y-86650072D01*
X155340928Y-86598697D01*
X155248586Y-86400669D01*
X155209583Y-86344967D01*
X154585953Y-86968598D01*
X154573165Y-86887852D01*
X154515641Y-86774955D01*
X154426045Y-86685359D01*
X154313148Y-86627835D01*
X154232401Y-86615046D01*
X154856031Y-85991416D01*
X154856030Y-85991415D01*
X154800326Y-85952410D01*
X154606861Y-85862197D01*
X154400657Y-85806944D01*
X154188000Y-85788339D01*
X153975342Y-85806944D01*
X153769138Y-85862197D01*
X153575672Y-85952411D01*
X153519967Y-85991414D01*
X154143599Y-86615046D01*
X154062852Y-86627835D01*
X153949955Y-86685359D01*
X153860359Y-86774955D01*
X153802835Y-86887852D01*
X153790046Y-86968599D01*
X153166414Y-86344967D01*
X153127411Y-86400672D01*
X153037197Y-86594138D01*
X152981944Y-86800342D01*
X152963339Y-87012999D01*
X152981944Y-87225657D01*
X153037197Y-87431861D01*
X153127410Y-87625326D01*
X153166415Y-87681030D01*
X153166416Y-87681031D01*
X153790046Y-87057400D01*
X153802835Y-87138148D01*
X153860359Y-87251045D01*
X153949955Y-87340641D01*
X154062852Y-87398165D01*
X154143599Y-87410953D01*
X153519967Y-88034583D01*
X153575670Y-88073587D01*
X153769138Y-88163802D01*
X153975342Y-88219055D01*
X154188000Y-88237660D01*
X154400657Y-88219055D01*
X154606861Y-88163802D01*
X154800325Y-88073589D01*
X154856030Y-88034583D01*
X154232401Y-87410953D01*
X154313148Y-87398165D01*
X154426045Y-87340641D01*
X154515641Y-87251045D01*
X154573165Y-87138148D01*
X154585953Y-87057400D01*
X155209583Y-87681030D01*
X155248589Y-87625325D01*
X155340928Y-87427303D01*
X155387100Y-87374863D01*
X155454293Y-87355711D01*
X155521175Y-87375926D01*
X155565692Y-87427302D01*
X155569178Y-87434777D01*
X155660024Y-87629597D01*
X155783319Y-87805681D01*
X155935319Y-87957681D01*
X156111403Y-88080976D01*
X156306223Y-88171822D01*
X156513858Y-88227458D01*
X156728000Y-88246193D01*
X156942142Y-88227458D01*
X157149777Y-88171822D01*
X157344597Y-88080976D01*
X157520681Y-87957681D01*
X157672681Y-87805681D01*
X157795976Y-87629597D01*
X157885617Y-87437359D01*
X157931790Y-87384920D01*
X157998984Y-87365768D01*
X158065865Y-87385984D01*
X158110382Y-87437359D01*
X158200024Y-87629597D01*
X158323319Y-87805681D01*
X158475319Y-87957681D01*
X158651403Y-88080976D01*
X158846223Y-88171822D01*
X159053858Y-88227458D01*
X159268000Y-88246193D01*
X159482142Y-88227458D01*
X159689777Y-88171822D01*
X159884597Y-88080976D01*
X160060681Y-87957681D01*
X160212681Y-87805681D01*
X160335976Y-87629597D01*
X160426822Y-87434777D01*
X160482458Y-87227142D01*
X160501193Y-87013000D01*
X160482458Y-86798858D01*
X160426822Y-86591223D01*
X160335976Y-86396404D01*
X160299960Y-86344967D01*
X160212683Y-86220321D01*
X160212679Y-86220317D01*
X160060681Y-86068319D01*
X159884597Y-85945024D01*
X159884596Y-85945024D01*
X159689778Y-85854178D01*
X159482134Y-85798539D01*
X159480161Y-85798367D01*
X159477273Y-85797237D01*
X159471663Y-85795734D01*
X159471830Y-85795107D01*
X159415094Y-85772910D01*
X159374119Y-85716317D01*
X159370246Y-85646554D01*
X159403293Y-85587163D01*
X161454160Y-83536295D01*
X161468951Y-83523663D01*
X161479934Y-83515685D01*
X161524441Y-83466252D01*
X161528896Y-83461560D01*
X161542972Y-83447485D01*
X161555516Y-83431992D01*
X161559695Y-83427099D01*
X161604204Y-83377669D01*
X161610992Y-83365909D01*
X161622008Y-83349883D01*
X161630547Y-83339339D01*
X161660736Y-83280088D01*
X161663796Y-83274450D01*
X161697064Y-83216831D01*
X161701256Y-83203928D01*
X161708705Y-83185947D01*
X161714860Y-83173866D01*
X161714862Y-83173863D01*
X161732074Y-83109621D01*
X161733907Y-83103435D01*
X161754454Y-83040202D01*
X161755873Y-83026698D01*
X161759416Y-83007583D01*
X161762930Y-82994471D01*
X161766409Y-82928065D01*
X161766917Y-82921614D01*
X161769000Y-82901806D01*
X161769000Y-82881897D01*
X161769170Y-82875407D01*
X161770598Y-82848156D01*
X161772650Y-82809007D01*
X161770527Y-82795602D01*
X161769000Y-82776204D01*
X161769000Y-79875662D01*
X161770527Y-79856263D01*
X161771145Y-79852362D01*
X161772650Y-79842860D01*
X161769170Y-79776457D01*
X161769000Y-79769968D01*
X161769000Y-79753315D01*
X161769000Y-79750061D01*
X161766917Y-79730251D01*
X161766409Y-79723793D01*
X161764152Y-79680730D01*
X161762930Y-79657396D01*
X161759414Y-79644277D01*
X161755872Y-79625164D01*
X161754454Y-79611665D01*
X161733909Y-79548435D01*
X161732065Y-79542208D01*
X161714863Y-79478008D01*
X161714862Y-79478004D01*
X161708699Y-79465910D01*
X161701257Y-79447942D01*
X161697064Y-79435036D01*
X161674957Y-79396746D01*
X161663823Y-79377461D01*
X161660724Y-79371754D01*
X161630548Y-79312528D01*
X161622004Y-79301978D01*
X161610986Y-79285945D01*
X161604204Y-79274198D01*
X161597014Y-79266212D01*
X161559719Y-79224792D01*
X161555504Y-79219857D01*
X161545014Y-79206903D01*
X161545008Y-79206897D01*
X161542972Y-79204382D01*
X161528899Y-79190309D01*
X161524448Y-79185620D01*
X161479934Y-79136182D01*
X161473477Y-79131490D01*
X161468947Y-79128199D01*
X161454154Y-79115564D01*
X156691091Y-74352500D01*
X190896670Y-74352500D01*
X190896829Y-74355635D01*
X190915659Y-74726951D01*
X190915978Y-74733230D01*
X190916454Y-74736342D01*
X190916455Y-74736344D01*
X190972780Y-75104013D01*
X190973706Y-75110053D01*
X190974492Y-75113090D01*
X190974493Y-75113093D01*
X191058694Y-75438300D01*
X191069259Y-75479102D01*
X191092906Y-75542950D01*
X191198946Y-75829270D01*
X191201658Y-75836591D01*
X191369545Y-76178851D01*
X191571196Y-76502371D01*
X191573119Y-76504855D01*
X191573123Y-76504861D01*
X191763196Y-76750415D01*
X191804543Y-76803830D01*
X191806704Y-76806103D01*
X191806708Y-76806108D01*
X191854221Y-76856091D01*
X192067190Y-77080134D01*
X192356443Y-77328450D01*
X192669334Y-77546228D01*
X192827151Y-77633824D01*
X192999910Y-77729714D01*
X192999915Y-77729716D01*
X193002651Y-77731235D01*
X193352976Y-77881571D01*
X193716712Y-77995694D01*
X193719780Y-77996324D01*
X193719782Y-77996325D01*
X193812590Y-78015397D01*
X194090127Y-78072432D01*
X194469390Y-78111000D01*
X194472532Y-78111000D01*
X194847468Y-78111000D01*
X194850610Y-78111000D01*
X195229873Y-78072432D01*
X195603288Y-77995694D01*
X195967024Y-77881571D01*
X196317349Y-77731235D01*
X196650666Y-77546228D01*
X196963557Y-77328450D01*
X197252810Y-77080134D01*
X197515457Y-76803830D01*
X197748804Y-76502371D01*
X197950455Y-76178851D01*
X198118342Y-75836591D01*
X198250741Y-75479102D01*
X198346294Y-75110053D01*
X198404022Y-74733230D01*
X198423330Y-74352500D01*
X198404022Y-73971770D01*
X198346294Y-73594947D01*
X198250741Y-73225898D01*
X198118342Y-72868409D01*
X197950455Y-72526149D01*
X197748804Y-72202629D01*
X197736698Y-72186990D01*
X197556667Y-71954409D01*
X197515457Y-71901170D01*
X197252810Y-71624866D01*
X196963557Y-71376550D01*
X196650666Y-71158772D01*
X196628550Y-71146496D01*
X196320089Y-70975285D01*
X196320076Y-70975278D01*
X196317349Y-70973765D01*
X196314470Y-70972529D01*
X196314467Y-70972528D01*
X195969915Y-70824669D01*
X195969904Y-70824665D01*
X195967024Y-70823429D01*
X195964026Y-70822488D01*
X195964017Y-70822485D01*
X195606284Y-70710246D01*
X195606283Y-70710245D01*
X195603288Y-70709306D01*
X195600233Y-70708678D01*
X195600217Y-70708674D01*
X195232941Y-70633198D01*
X195232931Y-70633196D01*
X195229873Y-70632568D01*
X195184027Y-70627905D01*
X194853733Y-70594317D01*
X194853721Y-70594316D01*
X194850610Y-70594000D01*
X194469390Y-70594000D01*
X194466279Y-70594316D01*
X194466266Y-70594317D01*
X194093244Y-70632251D01*
X194090127Y-70632568D01*
X194087071Y-70633195D01*
X194087058Y-70633198D01*
X193719782Y-70708674D01*
X193719761Y-70708679D01*
X193716712Y-70709306D01*
X193713720Y-70710244D01*
X193713715Y-70710246D01*
X193355982Y-70822485D01*
X193355966Y-70822490D01*
X193352976Y-70823429D01*
X193350101Y-70824662D01*
X193350084Y-70824669D01*
X193005532Y-70972528D01*
X193005521Y-70972533D01*
X193002651Y-70973765D01*
X192999931Y-70975274D01*
X192999910Y-70975285D01*
X192672077Y-71157249D01*
X192672069Y-71157253D01*
X192669334Y-71158772D01*
X192666765Y-71160559D01*
X192666757Y-71160565D01*
X192359024Y-71374753D01*
X192359016Y-71374758D01*
X192356443Y-71376550D01*
X192354064Y-71378591D01*
X192354054Y-71378600D01*
X192069574Y-71622819D01*
X192067190Y-71624866D01*
X192065030Y-71627137D01*
X192065025Y-71627143D01*
X191806708Y-71898891D01*
X191806695Y-71898905D01*
X191804543Y-71901170D01*
X191802625Y-71903647D01*
X191802618Y-71903656D01*
X191573123Y-72200138D01*
X191573112Y-72200153D01*
X191571196Y-72202629D01*
X191569535Y-72205293D01*
X191569530Y-72205301D01*
X191371207Y-72523481D01*
X191371199Y-72523495D01*
X191369545Y-72526149D01*
X191368168Y-72528956D01*
X191368162Y-72528967D01*
X191359818Y-72545978D01*
X191201658Y-72868409D01*
X191200567Y-72871353D01*
X191200563Y-72871364D01*
X191071606Y-73219561D01*
X191069259Y-73225898D01*
X191068478Y-73228913D01*
X191068474Y-73228927D01*
X190974493Y-73591906D01*
X190973706Y-73594947D01*
X190973231Y-73598046D01*
X190973229Y-73598057D01*
X190916455Y-73968655D01*
X190915978Y-73971770D01*
X190915819Y-73974905D01*
X190915818Y-73974915D01*
X190900878Y-74269517D01*
X190896670Y-74352500D01*
X156691091Y-74352500D01*
X153143931Y-70805340D01*
X153131292Y-70790542D01*
X153123318Y-70779566D01*
X153073908Y-70735077D01*
X153069199Y-70730608D01*
X153057424Y-70718833D01*
X153055119Y-70716528D01*
X153052595Y-70714484D01*
X153052585Y-70714475D01*
X153039637Y-70703990D01*
X153034704Y-70699777D01*
X153021009Y-70687446D01*
X152985302Y-70655296D01*
X152973542Y-70648506D01*
X152957514Y-70637490D01*
X152946972Y-70628953D01*
X152946970Y-70628952D01*
X152946969Y-70628951D01*
X152887736Y-70598770D01*
X152882047Y-70595681D01*
X152824464Y-70562436D01*
X152824465Y-70562436D01*
X152824461Y-70562434D01*
X152811559Y-70558242D01*
X152793587Y-70550798D01*
X152781494Y-70544637D01*
X152717273Y-70527428D01*
X152711051Y-70525585D01*
X152647835Y-70505045D01*
X152634342Y-70503627D01*
X152615217Y-70500083D01*
X152602103Y-70496569D01*
X152535708Y-70493089D01*
X152529246Y-70492580D01*
X152512678Y-70490839D01*
X152512651Y-70490837D01*
X152509439Y-70490500D01*
X152506196Y-70490500D01*
X152489530Y-70490500D01*
X152483040Y-70490330D01*
X152416640Y-70486850D01*
X152416639Y-70486850D01*
X152403236Y-70488973D01*
X152383838Y-70490500D01*
X127928998Y-70490500D01*
X127861959Y-70470815D01*
X127841317Y-70454181D01*
X126945976Y-69558840D01*
X126933337Y-69544042D01*
X126925364Y-69533068D01*
X126925363Y-69533066D01*
X126875953Y-69488577D01*
X126871244Y-69484108D01*
X126859469Y-69472333D01*
X126859466Y-69472330D01*
X126857164Y-69470028D01*
X126854640Y-69467984D01*
X126854630Y-69467975D01*
X126841682Y-69457490D01*
X126836749Y-69453277D01*
X126823054Y-69440946D01*
X126787347Y-69408796D01*
X126775587Y-69402006D01*
X126759559Y-69390990D01*
X126749017Y-69382453D01*
X126749015Y-69382452D01*
X126749014Y-69382451D01*
X126689781Y-69352270D01*
X126684092Y-69349181D01*
X126626509Y-69315936D01*
X126626510Y-69315936D01*
X126626506Y-69315934D01*
X126613604Y-69311742D01*
X126595632Y-69304298D01*
X126583539Y-69298137D01*
X126519318Y-69280928D01*
X126513096Y-69279085D01*
X126449880Y-69258545D01*
X126436387Y-69257127D01*
X126417262Y-69253583D01*
X126404148Y-69250069D01*
X126337753Y-69246589D01*
X126331291Y-69246080D01*
X126314723Y-69244339D01*
X126314696Y-69244337D01*
X126311484Y-69244000D01*
X126308241Y-69244000D01*
X126291575Y-69244000D01*
X126285085Y-69243830D01*
X126218685Y-69240350D01*
X126218684Y-69240350D01*
X126205281Y-69242473D01*
X126185883Y-69244000D01*
X113079035Y-69244000D01*
X113059637Y-69242473D01*
X113046239Y-69240351D01*
X113005750Y-69242473D01*
X112979857Y-69243830D01*
X112973367Y-69244000D01*
X112953440Y-69244000D01*
X112950227Y-69244337D01*
X112950220Y-69244338D01*
X112933614Y-69246083D01*
X112927152Y-69246591D01*
X112860771Y-69250070D01*
X112847662Y-69253583D01*
X112828539Y-69257127D01*
X112815045Y-69258545D01*
X112751802Y-69279093D01*
X112745597Y-69280931D01*
X112708535Y-69290862D01*
X112681378Y-69298139D01*
X112669288Y-69304299D01*
X112651324Y-69311740D01*
X112638419Y-69315933D01*
X112580849Y-69349170D01*
X112575150Y-69352264D01*
X112515905Y-69382452D01*
X112505353Y-69390997D01*
X112489330Y-69402009D01*
X112477579Y-69408794D01*
X112428175Y-69453277D01*
X112423242Y-69457490D01*
X112410286Y-69467981D01*
X112410270Y-69467995D01*
X112407760Y-69470028D01*
X112405474Y-69472313D01*
X112405456Y-69472330D01*
X112393665Y-69484121D01*
X112388960Y-69488586D01*
X112339558Y-69533068D01*
X112331577Y-69544052D01*
X112318946Y-69558840D01*
X110509404Y-71368382D01*
X110448081Y-71401867D01*
X110394131Y-71401592D01*
X110169615Y-71350349D01*
X109943310Y-71340184D01*
X109718825Y-71370593D01*
X109503379Y-71440597D01*
X109303890Y-71547946D01*
X109126783Y-71689184D01*
X108977736Y-71859782D01*
X108861546Y-72054250D01*
X108845777Y-72096265D01*
X108803791Y-72152112D01*
X108738277Y-72176394D01*
X108670034Y-72161402D01*
X108620731Y-72111895D01*
X108617988Y-72106541D01*
X108544725Y-71954407D01*
X108411571Y-71771137D01*
X108325855Y-71689184D01*
X108247834Y-71614587D01*
X108058774Y-71489791D01*
X107850469Y-71400756D01*
X107629615Y-71350349D01*
X107403310Y-71340184D01*
X107178825Y-71370593D01*
X106963379Y-71440597D01*
X106763890Y-71547946D01*
X106586783Y-71689184D01*
X106437736Y-71859782D01*
X106321547Y-72054248D01*
X106301646Y-72107274D01*
X106259660Y-72163122D01*
X106194146Y-72187405D01*
X106125903Y-72172413D01*
X106076599Y-72122907D01*
X106073833Y-72117504D01*
X105997399Y-71958787D01*
X105865144Y-71776754D01*
X105702508Y-71621258D01*
X105514728Y-71497306D01*
X105307834Y-71408875D01*
X105170000Y-71377415D01*
X105170000Y-72916998D01*
X105062315Y-72867820D01*
X104955763Y-72852500D01*
X104884237Y-72852500D01*
X104777685Y-72867820D01*
X104670000Y-72916998D01*
X104670000Y-71374949D01*
X104669998Y-71374948D01*
X104640727Y-71378914D01*
X104426734Y-71448444D01*
X104228592Y-71555069D01*
X104052681Y-71695353D01*
X103904640Y-71864799D01*
X103789235Y-72057954D01*
X103770880Y-72106860D01*
X103728894Y-72162708D01*
X103663380Y-72186990D01*
X103595138Y-72171998D01*
X103545834Y-72122491D01*
X103543068Y-72117089D01*
X103538341Y-72107274D01*
X103464725Y-71954407D01*
X103331571Y-71771137D01*
X103245855Y-71689184D01*
X103167834Y-71614587D01*
X102978774Y-71489791D01*
X102770469Y-71400756D01*
X102549615Y-71350349D01*
X102323310Y-71340184D01*
X102098825Y-71370593D01*
X101883379Y-71440597D01*
X101683890Y-71547946D01*
X101506783Y-71689184D01*
X101357736Y-71859782D01*
X101241546Y-72054250D01*
X101225777Y-72096265D01*
X101183791Y-72152112D01*
X101118277Y-72176394D01*
X101050034Y-72161402D01*
X101000731Y-72111895D01*
X100997988Y-72106541D01*
X100924725Y-71954407D01*
X100791571Y-71771137D01*
X100705855Y-71689184D01*
X100627834Y-71614587D01*
X100438774Y-71489791D01*
X100230469Y-71400756D01*
X100009615Y-71350349D01*
X99783310Y-71340184D01*
X99558825Y-71370593D01*
X99343379Y-71440597D01*
X99143890Y-71547946D01*
X98966783Y-71689184D01*
X98817736Y-71859782D01*
X98701546Y-72054250D01*
X98685777Y-72096265D01*
X98643791Y-72152112D01*
X98578277Y-72176394D01*
X98510034Y-72161402D01*
X98460731Y-72111895D01*
X98457988Y-72106541D01*
X98384725Y-71954407D01*
X98251571Y-71771137D01*
X98165855Y-71689184D01*
X98087834Y-71614587D01*
X97898774Y-71489791D01*
X97690469Y-71400756D01*
X97469615Y-71350349D01*
X97243310Y-71340184D01*
X97018825Y-71370593D01*
X96803379Y-71440597D01*
X96603890Y-71547946D01*
X96426783Y-71689184D01*
X96277736Y-71859782D01*
X96161546Y-72054250D01*
X96145777Y-72096265D01*
X96103791Y-72152112D01*
X96038277Y-72176394D01*
X95970034Y-72161402D01*
X95920731Y-72111895D01*
X95917988Y-72106541D01*
X95844725Y-71954407D01*
X95711571Y-71771137D01*
X95625855Y-71689184D01*
X95547834Y-71614587D01*
X95358774Y-71489791D01*
X95150469Y-71400756D01*
X94929615Y-71350349D01*
X94703310Y-71340184D01*
X94478825Y-71370593D01*
X94263379Y-71440597D01*
X94063890Y-71547946D01*
X93886783Y-71689184D01*
X93737736Y-71859782D01*
X93621546Y-72054250D01*
X93605777Y-72096265D01*
X93563791Y-72152112D01*
X93498277Y-72176394D01*
X93430034Y-72161402D01*
X93380731Y-72111895D01*
X93377988Y-72106541D01*
X93304725Y-71954407D01*
X93171571Y-71771137D01*
X93085855Y-71689184D01*
X93007834Y-71614587D01*
X92818774Y-71489791D01*
X92610469Y-71400756D01*
X92389615Y-71350349D01*
X92163310Y-71340184D01*
X91938825Y-71370593D01*
X91723379Y-71440597D01*
X91523890Y-71547946D01*
X91346783Y-71689184D01*
X91197736Y-71859782D01*
X91081546Y-72054250D01*
X91065777Y-72096265D01*
X91023791Y-72152112D01*
X90958277Y-72176394D01*
X90890034Y-72161402D01*
X90840731Y-72111895D01*
X90837988Y-72106541D01*
X90764725Y-71954407D01*
X90631571Y-71771137D01*
X90545855Y-71689184D01*
X90467834Y-71614587D01*
X90278774Y-71489791D01*
X90070469Y-71400756D01*
X89849615Y-71350349D01*
X89623310Y-71340184D01*
X89398825Y-71370593D01*
X89183379Y-71440597D01*
X88983890Y-71547946D01*
X88806783Y-71689184D01*
X88657736Y-71859782D01*
X88541546Y-72054250D01*
X88525777Y-72096265D01*
X88483791Y-72152112D01*
X88418277Y-72176394D01*
X88350034Y-72161402D01*
X88300731Y-72111895D01*
X88297988Y-72106541D01*
X88224725Y-71954407D01*
X88091571Y-71771137D01*
X88005855Y-71689184D01*
X87927834Y-71614587D01*
X87738774Y-71489791D01*
X87530469Y-71400756D01*
X87309615Y-71350349D01*
X87083310Y-71340184D01*
X86858825Y-71370593D01*
X86643379Y-71440597D01*
X86443890Y-71547946D01*
X86266783Y-71689184D01*
X86117736Y-71859782D01*
X86001546Y-72054250D01*
X85921948Y-72266338D01*
X85901889Y-72376878D01*
X85881500Y-72489233D01*
X85881500Y-74159022D01*
X83413518Y-74159022D01*
X83404022Y-73971770D01*
X83346294Y-73594947D01*
X83250741Y-73225898D01*
X83118342Y-72868409D01*
X82950455Y-72526149D01*
X82748804Y-72202629D01*
X82736698Y-72186990D01*
X82556667Y-71954409D01*
X82515457Y-71901170D01*
X82252810Y-71624866D01*
X81963557Y-71376550D01*
X81650666Y-71158772D01*
X81628550Y-71146496D01*
X81320089Y-70975285D01*
X81320076Y-70975278D01*
X81317349Y-70973765D01*
X81314470Y-70972529D01*
X81314467Y-70972528D01*
X80969915Y-70824669D01*
X80969904Y-70824665D01*
X80967024Y-70823429D01*
X80964026Y-70822488D01*
X80964017Y-70822485D01*
X80606284Y-70710246D01*
X80606283Y-70710245D01*
X80603288Y-70709306D01*
X80600233Y-70708678D01*
X80600217Y-70708674D01*
X80232941Y-70633198D01*
X80232931Y-70633196D01*
X80229873Y-70632568D01*
X80184027Y-70627905D01*
X79853733Y-70594317D01*
X79853721Y-70594316D01*
X79850610Y-70594000D01*
X79469390Y-70594000D01*
X79466279Y-70594316D01*
X79466266Y-70594317D01*
X79093244Y-70632251D01*
X79090127Y-70632568D01*
X79087071Y-70633195D01*
X79087058Y-70633198D01*
X78719782Y-70708674D01*
X78719761Y-70708679D01*
X78716712Y-70709306D01*
X78713720Y-70710244D01*
X78713715Y-70710246D01*
X78355982Y-70822485D01*
X78355966Y-70822490D01*
X78352976Y-70823429D01*
X78350101Y-70824662D01*
X78350084Y-70824669D01*
X78005532Y-70972528D01*
X78005521Y-70972533D01*
X78002651Y-70973765D01*
X77999931Y-70975274D01*
X77999910Y-70975285D01*
X77672077Y-71157249D01*
X77672069Y-71157253D01*
X77669334Y-71158772D01*
X77666765Y-71160559D01*
X77666757Y-71160565D01*
X77359024Y-71374753D01*
X77359016Y-71374758D01*
X77356443Y-71376550D01*
X77354064Y-71378591D01*
X77354054Y-71378600D01*
X77069574Y-71622819D01*
X77067190Y-71624866D01*
X77065030Y-71627137D01*
X77065025Y-71627143D01*
X76806708Y-71898891D01*
X76806695Y-71898905D01*
X76804543Y-71901170D01*
X76802625Y-71903647D01*
X76802618Y-71903656D01*
X76573123Y-72200138D01*
X76573112Y-72200153D01*
X76571196Y-72202629D01*
X76569535Y-72205293D01*
X76569530Y-72205301D01*
X76371207Y-72523481D01*
X76371199Y-72523495D01*
X76369545Y-72526149D01*
X76368168Y-72528956D01*
X76368162Y-72528967D01*
X76359818Y-72545978D01*
X76201658Y-72868409D01*
X76200567Y-72871353D01*
X76200563Y-72871364D01*
X76071606Y-73219561D01*
X76069259Y-73225898D01*
X76068478Y-73228913D01*
X76068474Y-73228927D01*
X75974493Y-73591906D01*
X75973706Y-73594947D01*
X75973231Y-73598046D01*
X75973229Y-73598057D01*
X75916455Y-73968655D01*
X75915978Y-73971770D01*
X75915819Y-73974905D01*
X75915818Y-73974915D01*
X75900878Y-74269517D01*
X75896670Y-74352500D01*
X74940500Y-74352500D01*
X74940500Y-68651000D01*
X74960185Y-68583961D01*
X75012989Y-68538206D01*
X75064500Y-68527000D01*
X198747500Y-68527000D01*
X198814539Y-68546685D01*
G37*
%TD.AperFunction*%
%TD*%
M02*
