%TF.GenerationSoftware,KiCad,Pcbnew,7.0.2*%
%TF.CreationDate,2023-05-13T16:33:46+02:00*%
%TF.ProjectId,pid_controller,7069645f-636f-46e7-9472-6f6c6c65722e,2.0*%
%TF.SameCoordinates,Original*%
%TF.FileFunction,Copper,L2,Bot*%
%TF.FilePolarity,Positive*%
%FSLAX46Y46*%
G04 Gerber Fmt 4.6, Leading zero omitted, Abs format (unit mm)*
G04 Created by KiCad (PCBNEW 7.0.2) date 2023-05-13 16:33:46*
%MOMM*%
%LPD*%
G01*
G04 APERTURE LIST*
G04 Aperture macros list*
%AMRoundRect*
0 Rectangle with rounded corners*
0 $1 Rounding radius*
0 $2 $3 $4 $5 $6 $7 $8 $9 X,Y pos of 4 corners*
0 Add a 4 corners polygon primitive as box body*
4,1,4,$2,$3,$4,$5,$6,$7,$8,$9,$2,$3,0*
0 Add four circle primitives for the rounded corners*
1,1,$1+$1,$2,$3*
1,1,$1+$1,$4,$5*
1,1,$1+$1,$6,$7*
1,1,$1+$1,$8,$9*
0 Add four rect primitives between the rounded corners*
20,1,$1+$1,$2,$3,$4,$5,0*
20,1,$1+$1,$4,$5,$6,$7,0*
20,1,$1+$1,$6,$7,$8,$9,0*
20,1,$1+$1,$8,$9,$2,$3,0*%
G04 Aperture macros list end*
%TA.AperFunction,ComponentPad*%
%ADD10R,1.905000X2.000000*%
%TD*%
%TA.AperFunction,ComponentPad*%
%ADD11O,1.905000X2.000000*%
%TD*%
%TA.AperFunction,ComponentPad*%
%ADD12C,1.600000*%
%TD*%
%TA.AperFunction,ComponentPad*%
%ADD13O,1.600000X1.600000*%
%TD*%
%TA.AperFunction,ComponentPad*%
%ADD14R,1.980000X3.960000*%
%TD*%
%TA.AperFunction,ComponentPad*%
%ADD15O,1.980000X3.960000*%
%TD*%
%TA.AperFunction,ComponentPad*%
%ADD16R,2.000000X1.905000*%
%TD*%
%TA.AperFunction,ComponentPad*%
%ADD17O,2.000000X1.905000*%
%TD*%
%TA.AperFunction,ComponentPad*%
%ADD18R,1.700000X1.700000*%
%TD*%
%TA.AperFunction,ComponentPad*%
%ADD19O,1.700000X1.700000*%
%TD*%
%TA.AperFunction,ComponentPad*%
%ADD20C,1.440000*%
%TD*%
%TA.AperFunction,ComponentPad*%
%ADD21R,3.960000X1.980000*%
%TD*%
%TA.AperFunction,ComponentPad*%
%ADD22O,3.960000X1.980000*%
%TD*%
%TA.AperFunction,ComponentPad*%
%ADD23R,1.600000X1.600000*%
%TD*%
%TA.AperFunction,ComponentPad*%
%ADD24R,3.900000X6.000000*%
%TD*%
%TA.AperFunction,ComponentPad*%
%ADD25R,1.800000X1.800000*%
%TD*%
%TA.AperFunction,ComponentPad*%
%ADD26O,1.800000X1.800000*%
%TD*%
%TA.AperFunction,ComponentPad*%
%ADD27R,2.200000X2.200000*%
%TD*%
%TA.AperFunction,ComponentPad*%
%ADD28O,2.200000X2.200000*%
%TD*%
%TA.AperFunction,ComponentPad*%
%ADD29R,1.600000X2.400000*%
%TD*%
%TA.AperFunction,ComponentPad*%
%ADD30O,1.600000X2.400000*%
%TD*%
%TA.AperFunction,SMDPad,CuDef*%
%ADD31RoundRect,0.250000X1.075000X-0.312500X1.075000X0.312500X-1.075000X0.312500X-1.075000X-0.312500X0*%
%TD*%
%TA.AperFunction,SMDPad,CuDef*%
%ADD32RoundRect,0.250000X0.312500X1.075000X-0.312500X1.075000X-0.312500X-1.075000X0.312500X-1.075000X0*%
%TD*%
%TA.AperFunction,SMDPad,CuDef*%
%ADD33RoundRect,0.250000X-2.050000X-0.300000X2.050000X-0.300000X2.050000X0.300000X-2.050000X0.300000X0*%
%TD*%
%TA.AperFunction,SMDPad,CuDef*%
%ADD34RoundRect,0.250000X-2.025000X-2.375000X2.025000X-2.375000X2.025000X2.375000X-2.025000X2.375000X0*%
%TD*%
%TA.AperFunction,SMDPad,CuDef*%
%ADD35RoundRect,0.250002X-4.449998X-5.149998X4.449998X-5.149998X4.449998X5.149998X-4.449998X5.149998X0*%
%TD*%
%TA.AperFunction,SMDPad,CuDef*%
%ADD36RoundRect,0.250000X2.050000X0.300000X-2.050000X0.300000X-2.050000X-0.300000X2.050000X-0.300000X0*%
%TD*%
%TA.AperFunction,SMDPad,CuDef*%
%ADD37RoundRect,0.250000X2.025000X2.375000X-2.025000X2.375000X-2.025000X-2.375000X2.025000X-2.375000X0*%
%TD*%
%TA.AperFunction,SMDPad,CuDef*%
%ADD38RoundRect,0.250002X4.449998X5.149998X-4.449998X5.149998X-4.449998X-5.149998X4.449998X-5.149998X0*%
%TD*%
%TA.AperFunction,ComponentPad*%
%ADD39C,6.500000*%
%TD*%
%TA.AperFunction,ComponentPad*%
%ADD40R,1.500000X3.000000*%
%TD*%
%TA.AperFunction,ComponentPad*%
%ADD41O,1.500000X3.000000*%
%TD*%
%TA.AperFunction,ComponentPad*%
%ADD42R,2.000000X2.000000*%
%TD*%
%TA.AperFunction,SMDPad,CuDef*%
%ADD43R,2.000000X0.600000*%
%TD*%
%TA.AperFunction,ViaPad*%
%ADD44C,0.600000*%
%TD*%
%TA.AperFunction,Conductor*%
%ADD45C,0.750000*%
%TD*%
%TA.AperFunction,Conductor*%
%ADD46C,2.200000*%
%TD*%
%TA.AperFunction,Conductor*%
%ADD47C,1.500000*%
%TD*%
%TA.AperFunction,Conductor*%
%ADD48C,2.000000*%
%TD*%
%TA.AperFunction,Conductor*%
%ADD49C,0.500000*%
%TD*%
G04 APERTURE END LIST*
D10*
%TO.P,Q3,1,G*%
%TO.N,Net-(Q3-G)*%
X159258000Y-103124000D03*
D11*
%TO.P,Q3,2,D*%
%TO.N,Net-(D2-A)*%
X156718000Y-103124000D03*
%TO.P,Q3,3,S*%
%TO.N,GND*%
X154178000Y-103124000D03*
%TD*%
D12*
%TO.P,R14,1*%
%TO.N,+5V*%
X107950000Y-127123000D03*
D13*
%TO.P,R14,2*%
%TO.N,SCL*%
X107950000Y-114423000D03*
%TD*%
D12*
%TO.P,R2,1*%
%TO.N,+24V*%
X85140000Y-127123000D03*
D13*
%TO.P,R2,2*%
%TO.N,Net-(R1-Pad2)*%
X85140000Y-114423000D03*
%TD*%
D14*
%TO.P,J2,1,Pin_1*%
%TO.N,/HeaterPowerOut*%
X167720000Y-132207000D03*
D15*
%TO.P,J2,2,Pin_2*%
%TO.N,GND*%
X172720000Y-132207000D03*
%TD*%
D16*
%TO.P,Q1,1,G*%
%TO.N,Net-(Q1-G)*%
X159766000Y-131826000D03*
D17*
%TO.P,Q1,2,D*%
%TO.N,+12V*%
X159766000Y-129286000D03*
%TO.P,Q1,3,S*%
%TO.N,/HeaterPowerOut*%
X159766000Y-126746000D03*
%TD*%
D18*
%TO.P,M1,1,+*%
%TO.N,+12V*%
X139192000Y-131826000D03*
D19*
%TO.P,M1,2,-*%
%TO.N,Net-(D2-A)*%
X136652000Y-131826000D03*
%TD*%
D10*
%TO.P,U1,1,IN*%
%TO.N,+12V*%
X154178000Y-80518000D03*
D11*
%TO.P,U1,2,GND*%
%TO.N,GND*%
X156718000Y-80518000D03*
%TO.P,U1,3,OUT*%
%TO.N,+5V*%
X159258000Y-80518000D03*
%TD*%
D18*
%TO.P,RV2,1,1*%
%TO.N,+5V*%
X159258000Y-96520000D03*
D19*
%TO.P,RV2,2,2*%
%TO.N,/PWM*%
X156718000Y-96520000D03*
%TO.P,RV2,3,3*%
%TO.N,GND*%
X154178000Y-96520000D03*
%TD*%
D20*
%TO.P,RV1,1,1*%
%TO.N,+5V*%
X159268000Y-87013000D03*
%TO.P,RV1,2,2*%
%TO.N,Net-(DS1-Vo)*%
X156728000Y-87013000D03*
%TO.P,RV1,3,3*%
%TO.N,GND*%
X154188000Y-87013000D03*
%TD*%
D21*
%TO.P,J1,1,Pin_1*%
%TO.N,+12V*%
X191770000Y-120171000D03*
D22*
%TO.P,J1,2,Pin_2*%
%TO.N,GND*%
X191770000Y-125171000D03*
%TD*%
D18*
%TO.P,J4,1,Pin_1*%
%TO.N,/A*%
X132842000Y-128270000D03*
D19*
%TO.P,J4,2,Pin_2*%
%TO.N,/ROTARY_DATA*%
X130302000Y-128270000D03*
%TO.P,J4,3,Pin_3*%
%TO.N,/ROTARY_SWITCH*%
X127762000Y-128270000D03*
%TO.P,J4,4,Pin_4*%
%TO.N,GND*%
X125222000Y-128270000D03*
%TD*%
D12*
%TO.P,R12,1*%
%TO.N,+5V*%
X104140000Y-127123000D03*
D13*
%TO.P,R12,2*%
%TO.N,/A*%
X104140000Y-114423000D03*
%TD*%
D12*
%TO.P,R6,1*%
%TO.N,Net-(R5-Pad1)*%
X92710000Y-127123000D03*
D13*
%TO.P,R6,2*%
%TO.N,PWM_Signal*%
X92710000Y-114423000D03*
%TD*%
D12*
%TO.P,R19,1*%
%TO.N,/PWM*%
X115570000Y-127123000D03*
D13*
%TO.P,R19,2*%
%TO.N,Net-(Q3-G)*%
X115570000Y-114423000D03*
%TD*%
D23*
%TO.P,U5,1*%
%TO.N,Net-(R5-Pad1)*%
X106035000Y-105415000D03*
D13*
%TO.P,U5,2*%
%TO.N,GND*%
X106035000Y-102875000D03*
%TO.P,U5,3*%
X98415000Y-102875000D03*
%TO.P,U5,4*%
%TO.N,Net-(R1-Pad2)*%
X98415000Y-105415000D03*
%TD*%
D24*
%TO.P,U3,1,+Vin*%
%TO.N,+12V*%
X143400000Y-76424000D03*
%TO.P,U3,2,-Vin*%
%TO.N,GND*%
X134366000Y-76424000D03*
%TO.P,U3,3,+Vout*%
%TO.N,+24V*%
X143400000Y-105156000D03*
%TO.P,U3,4,-Vout*%
%TO.N,GND*%
X134620000Y-105156000D03*
%TD*%
D23*
%TO.P,A1,1,D1/TX*%
%TO.N,unconnected-(A1-D1{slash}TX-Pad1)*%
X124206000Y-78740000D03*
D13*
%TO.P,A1,2,D0/RX*%
%TO.N,unconnected-(A1-D0{slash}RX-Pad2)*%
X121666000Y-78740000D03*
%TO.P,A1,3,~{RESET}*%
%TO.N,unconnected-(A1-~{RESET}-Pad3)*%
X119126000Y-78740000D03*
%TO.P,A1,4,GND*%
%TO.N,GND*%
X116586000Y-78740000D03*
%TO.P,A1,5,D2*%
%TO.N,EN*%
X114046000Y-78740000D03*
%TO.P,A1,6,D3*%
%TO.N,PWM_Signal*%
X111506000Y-78740000D03*
%TO.P,A1,7,D4*%
%TO.N,D4*%
X108966000Y-78740000D03*
%TO.P,A1,8,D5*%
%TO.N,D5*%
X106426000Y-78740000D03*
%TO.P,A1,9,D6*%
%TO.N,D6*%
X103886000Y-78740000D03*
%TO.P,A1,10,D7*%
%TO.N,D7*%
X101346000Y-78740000D03*
%TO.P,A1,11,D8*%
%TO.N,/A*%
X98806000Y-78740000D03*
%TO.P,A1,12,D9*%
%TO.N,/ROTARY_DATA*%
X96266000Y-78740000D03*
%TO.P,A1,13,D10*%
%TO.N,RS*%
X93726000Y-78740000D03*
%TO.P,A1,14,D11*%
%TO.N,/ROTARY_SWITCH*%
X91186000Y-78740000D03*
%TO.P,A1,15,D12*%
%TO.N,unconnected-(A1-D12-Pad15)*%
X88646000Y-78740000D03*
%TO.P,A1,16,D13*%
%TO.N,unconnected-(A1-D13-Pad16)*%
X88646000Y-93980000D03*
%TO.P,A1,17,3V3*%
%TO.N,unconnected-(A1-3V3-Pad17)*%
X91186000Y-93980000D03*
%TO.P,A1,18,AREF*%
%TO.N,unconnected-(A1-AREF-Pad18)*%
X93726000Y-93980000D03*
%TO.P,A1,19,A0*%
%TO.N,Net-(A1-A0)*%
X96266000Y-93980000D03*
%TO.P,A1,20,A1*%
%TO.N,unconnected-(A1-A1-Pad20)*%
X98806000Y-93980000D03*
%TO.P,A1,21,A2*%
%TO.N,unconnected-(A1-A2-Pad21)*%
X101346000Y-93980000D03*
%TO.P,A1,22,A3*%
%TO.N,unconnected-(A1-A3-Pad22)*%
X103886000Y-93980000D03*
%TO.P,A1,23,A4*%
%TO.N,SDA*%
X106426000Y-93980000D03*
%TO.P,A1,24,A5*%
%TO.N,SCL*%
X108966000Y-93980000D03*
%TO.P,A1,25,A6*%
%TO.N,unconnected-(A1-A6-Pad25)*%
X111506000Y-93980000D03*
%TO.P,A1,26,A7*%
%TO.N,unconnected-(A1-A7-Pad26)*%
X114046000Y-93980000D03*
%TO.P,A1,27,+5V*%
%TO.N,Net-(A1-+5V)*%
X116586000Y-93980000D03*
%TO.P,A1,28,~{RESET}*%
%TO.N,unconnected-(A1-~{RESET}-Pad28)*%
X119126000Y-93980000D03*
%TO.P,A1,29,GND*%
%TO.N,GND*%
X121666000Y-93980000D03*
%TO.P,A1,30,VIN*%
%TO.N,+12V*%
X124206000Y-93980000D03*
%TD*%
D23*
%TO.P,C2,1*%
%TO.N,+5V*%
X167005000Y-118531000D03*
D12*
%TO.P,C2,2*%
%TO.N,GND*%
X167005000Y-121031000D03*
%TD*%
%TO.P,R10,1*%
%TO.N,+5V*%
X100330000Y-127123000D03*
D13*
%TO.P,R10,2*%
%TO.N,/ROTARY_DATA*%
X100330000Y-114423000D03*
%TD*%
D18*
%TO.P,J3,1,Pin_1*%
%TO.N,+5V*%
X174498000Y-80518000D03*
D19*
%TO.P,J3,2,Pin_2*%
X177038000Y-80518000D03*
%TO.P,J3,3,Pin_3*%
%TO.N,GND*%
X174498000Y-83058000D03*
%TO.P,J3,4,Pin_4*%
X177038000Y-83058000D03*
%TD*%
D25*
%TO.P,D1,1,K*%
%TO.N,+5V*%
X166116000Y-80801000D03*
D26*
%TO.P,D1,2,A*%
%TO.N,Net-(A1-+5V)*%
X166116000Y-85881000D03*
%TD*%
D27*
%TO.P,D2,1,K*%
%TO.N,+12V*%
X177800000Y-101600000D03*
D28*
%TO.P,D2,2,A*%
%TO.N,Net-(D2-A)*%
X167640000Y-101600000D03*
%TD*%
D23*
%TO.P,C1,1*%
%TO.N,+12V*%
X177292000Y-118404000D03*
D12*
%TO.P,C1,2*%
%TO.N,GND*%
X177292000Y-120904000D03*
%TD*%
%TO.P,R16,1*%
%TO.N,+5V*%
X111760000Y-127123000D03*
D13*
%TO.P,R16,2*%
%TO.N,SDA*%
X111760000Y-114423000D03*
%TD*%
D12*
%TO.P,R4,1*%
%TO.N,Net-(Q1-G)*%
X88900000Y-127123000D03*
D13*
%TO.P,R4,2*%
%TO.N,Net-(R1-Pad2)*%
X88900000Y-114423000D03*
%TD*%
D29*
%TO.P,U6,1,A0*%
%TO.N,GND*%
X118110000Y-97790000D03*
D30*
%TO.P,U6,2,A1*%
X115570000Y-97790000D03*
%TO.P,U6,3,A2*%
%TO.N,unconnected-(U6-A2-Pad3)*%
X113030000Y-97790000D03*
%TO.P,U6,4,GND*%
%TO.N,GND*%
X110490000Y-97790000D03*
%TO.P,U6,5,SDA*%
%TO.N,SDA*%
X110490000Y-107950000D03*
%TO.P,U6,6,SCL*%
%TO.N,SCL*%
X113030000Y-107950000D03*
%TO.P,U6,7,WP*%
%TO.N,GND*%
X115570000Y-107950000D03*
%TO.P,U6,8,VCC*%
%TO.N,+5V*%
X118110000Y-107950000D03*
%TD*%
D12*
%TO.P,R8,1*%
%TO.N,+5V*%
X96520000Y-127123000D03*
D13*
%TO.P,R8,2*%
%TO.N,/ROTARY_SWITCH*%
X96520000Y-114423000D03*
%TD*%
D18*
%TO.P,U2,1,+VS*%
%TO.N,+5V*%
X116332000Y-132080000D03*
D19*
%TO.P,U2,2,Vout*%
%TO.N,Net-(A1-A0)*%
X118872000Y-132080000D03*
%TO.P,U2,3,GND*%
%TO.N,GND*%
X121412000Y-132080000D03*
%TD*%
D31*
%TO.P,R9,1*%
%TO.N,+5V*%
X100330000Y-122243500D03*
%TO.P,R9,2*%
%TO.N,/ROTARY_DATA*%
X100330000Y-119318500D03*
%TD*%
%TO.P,R13,1*%
%TO.N,+5V*%
X107950000Y-122051000D03*
%TO.P,R13,2*%
%TO.N,SCL*%
X107950000Y-119126000D03*
%TD*%
%TO.P,R3,1*%
%TO.N,Net-(Q1-G)*%
X88900000Y-122051000D03*
%TO.P,R3,2*%
%TO.N,Net-(R1-Pad2)*%
X88900000Y-119126000D03*
%TD*%
%TO.P,R11,1*%
%TO.N,+5V*%
X104140000Y-122051000D03*
%TO.P,R11,2*%
%TO.N,/A*%
X104140000Y-119126000D03*
%TD*%
D32*
%TO.P,R17,1*%
%TO.N,+5V*%
X159135000Y-73914000D03*
%TO.P,R17,2*%
%TO.N,Net-(DS1-LEDA)*%
X156210000Y-73914000D03*
%TD*%
D31*
%TO.P,R18,1*%
%TO.N,/PWM*%
X115570000Y-122051000D03*
%TO.P,R18,2*%
%TO.N,Net-(Q3-G)*%
X115570000Y-119126000D03*
%TD*%
D33*
%TO.P,Q4,1,G*%
%TO.N,Net-(Q3-G)*%
X171674000Y-94488000D03*
D34*
%TO.P,Q4,2,D*%
%TO.N,Net-(D2-A)*%
X178399000Y-89173000D03*
X178399000Y-94723000D03*
D35*
X180824000Y-91948000D03*
D34*
X183249000Y-89173000D03*
X183249000Y-94723000D03*
D33*
%TO.P,Q4,3,S*%
%TO.N,GND*%
X171674000Y-89408000D03*
%TD*%
D36*
%TO.P,Q2,1,G*%
%TO.N,Net-(Q1-G)*%
X153283000Y-118637000D03*
D37*
%TO.P,Q2,2,D*%
%TO.N,+12V*%
X146558000Y-123952000D03*
X146558000Y-118402000D03*
D38*
X144133000Y-121177000D03*
D37*
X141708000Y-123952000D03*
X141708000Y-118402000D03*
D36*
%TO.P,Q2,3,S*%
%TO.N,/HeaterPowerOut*%
X153283000Y-123717000D03*
%TD*%
D39*
%TO.P,DS1,*%
%TO.N,*%
X194660000Y-111352500D03*
X194660000Y-74352500D03*
X79660000Y-111352500D03*
X79660000Y-74352500D03*
D40*
%TO.P,DS1,1,LEDK*%
%TO.N,GND*%
X120160000Y-73352500D03*
D41*
%TO.P,DS1,2,LEDA*%
%TO.N,Net-(DS1-LEDA)*%
X117620000Y-73352500D03*
%TO.P,DS1,3,VSS*%
%TO.N,GND*%
X115080000Y-73352500D03*
%TO.P,DS1,4,VDD*%
%TO.N,+5V*%
X112540000Y-73352500D03*
%TO.P,DS1,5,Vo*%
%TO.N,Net-(DS1-Vo)*%
X110000000Y-73352500D03*
%TO.P,DS1,6,RS*%
%TO.N,RS*%
X107460000Y-73352500D03*
%TO.P,DS1,7,R/~{W}*%
%TO.N,GND*%
X104920000Y-73352500D03*
%TO.P,DS1,8,E*%
%TO.N,EN*%
X102380000Y-73352500D03*
%TO.P,DS1,9,DB0*%
%TO.N,unconnected-(DS1-DB0-Pad9)*%
X99840000Y-73352500D03*
%TO.P,DS1,10,DB1*%
%TO.N,unconnected-(DS1-DB1-Pad10)*%
X97300000Y-73352500D03*
%TO.P,DS1,11,DB2*%
%TO.N,unconnected-(DS1-DB2-Pad11)*%
X94760000Y-73352500D03*
%TO.P,DS1,12,DB3*%
%TO.N,unconnected-(DS1-DB3-Pad12)*%
X92220000Y-73352500D03*
%TO.P,DS1,13,DB4*%
%TO.N,D4*%
X89680000Y-73352500D03*
%TO.P,DS1,14,DB5*%
%TO.N,D5*%
X87140000Y-73352500D03*
%TO.P,DS1,15,DB6*%
%TO.N,D6*%
X122700000Y-73352500D03*
%TO.P,DS1,16,DB7*%
%TO.N,D7*%
X125240000Y-73352500D03*
D42*
%TO.P,DS1,A1*%
%TO.N,N/C*%
X195660000Y-87352500D03*
%TO.P,DS1,A2*%
X195660000Y-98352500D03*
%TO.P,DS1,K1*%
X195660000Y-91352500D03*
%TO.P,DS1,K2*%
X195660000Y-102352500D03*
%TD*%
D31*
%TO.P,R1,1*%
%TO.N,+24V*%
X85090000Y-122051000D03*
%TO.P,R1,2*%
%TO.N,Net-(R1-Pad2)*%
X85090000Y-119126000D03*
%TD*%
%TO.P,R5,1*%
%TO.N,Net-(R5-Pad1)*%
X92710000Y-122243500D03*
%TO.P,R5,2*%
%TO.N,PWM_Signal*%
X92710000Y-119318500D03*
%TD*%
%TO.P,R15,1*%
%TO.N,+5V*%
X111760000Y-122051000D03*
%TO.P,R15,2*%
%TO.N,SDA*%
X111760000Y-119126000D03*
%TD*%
D43*
%TO.P,U4,1,A0*%
%TO.N,GND*%
X116205000Y-100965000D03*
%TO.P,U4,2,A1*%
X116205000Y-102235000D03*
%TO.P,U4,3,A2*%
%TO.N,unconnected-(U4-A2-Pad3)*%
X116205000Y-103505000D03*
%TO.P,U4,4,GND*%
%TO.N,GND*%
X116205000Y-104775000D03*
%TO.P,U4,5,SDA*%
%TO.N,SDA*%
X110755000Y-104775000D03*
%TO.P,U4,6,SCL*%
%TO.N,SCL*%
X110755000Y-103505000D03*
%TO.P,U4,7,WP*%
%TO.N,GND*%
X110755000Y-102235000D03*
%TO.P,U4,8,VCC*%
%TO.N,+5V*%
X110755000Y-100965000D03*
%TD*%
D31*
%TO.P,R7,1*%
%TO.N,+5V*%
X96520000Y-122051000D03*
%TO.P,R7,2*%
%TO.N,/ROTARY_SWITCH*%
X96520000Y-119126000D03*
%TD*%
D44*
%TO.N,+5V*%
X113792000Y-100838000D03*
%TO.N,PWM_Signal*%
X82804000Y-102870000D03*
%TO.N,Net-(Q3-G)*%
X169672000Y-92710000D03*
%TD*%
D45*
%TO.N,/ROTARY_SWITCH*%
X93472000Y-112522000D02*
X95373000Y-114423000D01*
X84895517Y-112522000D02*
X87376000Y-112522000D01*
X96520000Y-114423000D02*
X96520000Y-119126000D01*
X89711000Y-80215000D02*
X91186000Y-78740000D01*
X91063000Y-136398000D02*
X83058000Y-128393000D01*
X127498000Y-129229000D02*
X120329000Y-136398000D01*
X95373000Y-114423000D02*
X96520000Y-114423000D01*
X120329000Y-136398000D02*
X91063000Y-136398000D01*
X79502000Y-104648000D02*
X79502000Y-85852000D01*
X127498000Y-128534000D02*
X127498000Y-129229000D01*
X87122000Y-112522000D02*
X93472000Y-112522000D01*
X127762000Y-128270000D02*
X127498000Y-128534000D01*
X87376000Y-112522000D02*
X79502000Y-104648000D01*
X79502000Y-85852000D02*
X85139000Y-80215000D01*
X83058000Y-114359517D02*
X84895517Y-112522000D01*
X85139000Y-80215000D02*
X89711000Y-80215000D01*
X83058000Y-128393000D02*
X83058000Y-114359517D01*
%TO.N,GND*%
X115570000Y-107950000D02*
X118364000Y-105156000D01*
X118364000Y-105156000D02*
X134620000Y-105156000D01*
X106869746Y-71177500D02*
X104920000Y-73127246D01*
X115080000Y-73352500D02*
X115080000Y-74102500D01*
X104920000Y-73127246D02*
X104920000Y-73352500D01*
X124958000Y-129229000D02*
X124958000Y-120240110D01*
X98415000Y-102875000D02*
X106035000Y-102875000D01*
X121666000Y-93980000D02*
X121666000Y-83820000D01*
X157897500Y-72455852D02*
X157897500Y-79338500D01*
D46*
X172847000Y-132334000D02*
X184607000Y-132334000D01*
D45*
X124958000Y-120240110D02*
X115570000Y-110852110D01*
D46*
X167005000Y-121031000D02*
X170891000Y-124917000D01*
D45*
X121920000Y-76424000D02*
X121418000Y-76424000D01*
X117401500Y-76424000D02*
X121920000Y-76424000D01*
X106675000Y-102235000D02*
X110755000Y-102235000D01*
X115080000Y-74102500D02*
X117401500Y-76424000D01*
X115080000Y-73352500D02*
X115080000Y-73127246D01*
X118110000Y-97536000D02*
X121666000Y-93980000D01*
X113695000Y-95915000D02*
X112365000Y-95915000D01*
X134366000Y-76424000D02*
X121920000Y-76424000D01*
X106035000Y-102875000D02*
X106035000Y-102245000D01*
X171674000Y-89408000D02*
X171674000Y-83209000D01*
X157897500Y-79338500D02*
X156718000Y-80518000D01*
X124958000Y-128534000D02*
X125222000Y-128270000D01*
X118110000Y-97790000D02*
X118110000Y-97536000D01*
X121418000Y-76424000D02*
X120160000Y-75166000D01*
X110755000Y-102235000D02*
X113284000Y-102235000D01*
D46*
X170891000Y-124917000D02*
X170891000Y-130378000D01*
D45*
X115080000Y-77234000D02*
X115080000Y-73352500D01*
X113792000Y-102235000D02*
X114530000Y-102973000D01*
X115080000Y-73127246D02*
X113130254Y-71177500D01*
X112365000Y-95915000D02*
X110490000Y-97790000D01*
X113130254Y-71177500D02*
X106869746Y-71177500D01*
D46*
X184607000Y-132334000D02*
X191770000Y-125171000D01*
D45*
X114530000Y-102973000D02*
X114530000Y-104480000D01*
X121666000Y-93980000D02*
X132842000Y-105156000D01*
X158439352Y-71914000D02*
X157897500Y-72455852D01*
X114530000Y-104480000D02*
X114825000Y-104775000D01*
X106035000Y-102245000D02*
X110490000Y-97790000D01*
X113284000Y-102235000D02*
X113792000Y-102235000D01*
X118110000Y-97790000D02*
X115570000Y-97790000D01*
X121412000Y-132080000D02*
X122107000Y-132080000D01*
X171674000Y-83209000D02*
X160379000Y-71914000D01*
D46*
X170891000Y-130378000D02*
X172847000Y-132334000D01*
D45*
X120160000Y-73352500D02*
X120160000Y-75166000D01*
X116586000Y-78740000D02*
X115080000Y-77234000D01*
X116205000Y-102235000D02*
X116205000Y-100965000D01*
X114825000Y-104775000D02*
X116205000Y-104775000D01*
X121666000Y-83820000D02*
X116586000Y-78740000D01*
X124958000Y-129229000D02*
X124958000Y-128534000D01*
X132842000Y-105156000D02*
X134620000Y-105156000D01*
X122107000Y-132080000D02*
X124958000Y-129229000D01*
X160379000Y-71914000D02*
X158439352Y-71914000D01*
X113284000Y-102235000D02*
X116205000Y-102235000D01*
X115570000Y-97790000D02*
X113695000Y-95915000D01*
X106035000Y-102875000D02*
X106675000Y-102235000D01*
X115570000Y-110852110D02*
X115570000Y-107950000D01*
%TO.N,/A*%
X81788000Y-86535848D02*
X81788000Y-103378000D01*
X99445000Y-109728000D02*
X104140000Y-114423000D01*
X81788000Y-103378000D02*
X88138000Y-109728000D01*
X84669924Y-83653924D02*
X81788000Y-86535848D01*
X98806000Y-78740000D02*
X93892076Y-83653924D01*
X104140000Y-114423000D02*
X104140000Y-119126000D01*
X88138000Y-109728000D02*
X99445000Y-109728000D01*
X93892076Y-83653924D02*
X84669924Y-83653924D01*
%TO.N,+5V*%
X110755000Y-100965000D02*
X113665000Y-100965000D01*
X107950000Y-127123000D02*
X107950000Y-122051000D01*
X166116000Y-80801000D02*
X159541000Y-80801000D01*
X159135000Y-80395000D02*
X159258000Y-80518000D01*
X96520000Y-122051000D02*
X96520000Y-127123000D01*
X159268000Y-96510000D02*
X159258000Y-96520000D01*
X96520000Y-127123000D02*
X111760000Y-127123000D01*
X159258000Y-87003000D02*
X159268000Y-87013000D01*
X113665000Y-100965000D02*
X113792000Y-100838000D01*
X159135000Y-73914000D02*
X159135000Y-80395000D01*
X159268000Y-87013000D02*
X159268000Y-96510000D01*
X159258000Y-80518000D02*
X159258000Y-87003000D01*
X100330000Y-127123000D02*
X100330000Y-122243500D01*
X111760000Y-122051000D02*
X96520000Y-122051000D01*
X104140000Y-127123000D02*
X104140000Y-122051000D01*
X105287000Y-132080000D02*
X100330000Y-127123000D01*
X111760000Y-127123000D02*
X111760000Y-122051000D01*
X159541000Y-80801000D02*
X159258000Y-80518000D01*
X116332000Y-132080000D02*
X105287000Y-132080000D01*
%TO.N,PWM_Signal*%
X111506000Y-78740000D02*
X109474000Y-80772000D01*
X92710000Y-114423000D02*
X92710000Y-119318500D01*
X85104848Y-84703924D02*
X82838000Y-86970772D01*
X98258924Y-80772000D02*
X94327000Y-84703924D01*
X94327000Y-84703924D02*
X85104848Y-84703924D01*
X82838000Y-86970772D02*
X82838000Y-102870000D01*
X109474000Y-80772000D02*
X98258924Y-80772000D01*
D47*
%TO.N,+24V*%
X85140000Y-122101000D02*
X85090000Y-122051000D01*
X85140000Y-127123000D02*
X85140000Y-122101000D01*
D45*
%TO.N,Net-(Q1-G)*%
X150308000Y-121612000D02*
X150308000Y-124400148D01*
X153283000Y-118637000D02*
X150308000Y-121612000D01*
X88900000Y-127123000D02*
X88900000Y-122051000D01*
X157733852Y-131826000D02*
X159766000Y-131826000D01*
X150308000Y-124400148D02*
X157733852Y-131826000D01*
%TO.N,SCL*%
X110755000Y-103505000D02*
X112135000Y-103505000D01*
X113030000Y-104400000D02*
X113030000Y-107950000D01*
X107950000Y-114423000D02*
X107950000Y-119126000D01*
X112135000Y-103505000D02*
X113030000Y-104400000D01*
D46*
%TO.N,+12V*%
X145429000Y-114681000D02*
X141708000Y-118402000D01*
D48*
X141732000Y-129286000D02*
X140335000Y-130683000D01*
D46*
X125844000Y-93980000D02*
X143400000Y-76424000D01*
X139192000Y-113030000D02*
X139192000Y-102178000D01*
X140335000Y-130683000D02*
X139192000Y-131826000D01*
X130994000Y-93980000D02*
X124206000Y-93980000D01*
X183094621Y-118197621D02*
X179578000Y-114681000D01*
X141708000Y-123952000D02*
X141708000Y-129310000D01*
X139192000Y-102178000D02*
X130994000Y-93980000D01*
X141708000Y-129310000D02*
X140335000Y-130683000D01*
X124206000Y-93980000D02*
X125844000Y-93980000D01*
X143400000Y-76424000D02*
X150084000Y-76424000D01*
X191770000Y-120171000D02*
X189796621Y-118197621D01*
X141708000Y-115546000D02*
X139192000Y-113030000D01*
X179578000Y-114681000D02*
X145429000Y-114681000D01*
X150084000Y-76424000D02*
X154178000Y-80518000D01*
X141708000Y-118402000D02*
X141708000Y-115546000D01*
X189796621Y-118197621D02*
X183094621Y-118197621D01*
D48*
%TO.N,/HeaterPowerOut*%
X153283000Y-123717000D02*
X156737000Y-123717000D01*
X162259000Y-126746000D02*
X167720000Y-132207000D01*
X156737000Y-123717000D02*
X159766000Y-126746000D01*
X159766000Y-126746000D02*
X162259000Y-126746000D01*
D45*
%TO.N,/PWM*%
X115570000Y-122051000D02*
X115570000Y-127123000D01*
%TO.N,Net-(Q3-G)*%
X169672000Y-92710000D02*
X169896000Y-92710000D01*
X115570000Y-114423000D02*
X115570000Y-119126000D01*
X159258000Y-103124000D02*
X159258000Y-101092000D01*
X169896000Y-92710000D02*
X171674000Y-94488000D01*
X159258000Y-101092000D02*
X165862000Y-94488000D01*
X165862000Y-94488000D02*
X171674000Y-94488000D01*
%TO.N,Net-(DS1-LEDA)*%
X117620000Y-72602500D02*
X117620000Y-73352500D01*
X119120000Y-71102500D02*
X117620000Y-72602500D01*
X156210000Y-73914000D02*
X153398500Y-71102500D01*
X153398500Y-71102500D02*
X119120000Y-71102500D01*
%TO.N,D5*%
X104582322Y-77265000D02*
X106057322Y-78740000D01*
X87140000Y-74102500D02*
X90302500Y-77265000D01*
X106057322Y-78740000D02*
X106426000Y-78740000D01*
X87140000Y-73352500D02*
X87140000Y-74102500D01*
X90302500Y-77265000D02*
X104582322Y-77265000D01*
D49*
%TO.N,D4*%
X89680000Y-74186000D02*
X89680000Y-73352500D01*
X106553500Y-76327500D02*
X91821500Y-76327500D01*
X91821500Y-76327500D02*
X89680000Y-74186000D01*
X108966000Y-78740000D02*
X106553500Y-76327500D01*
%TO.N,EN*%
X104329746Y-75527500D02*
X102380000Y-73577754D01*
D45*
X102380000Y-73577754D02*
X102380000Y-73352500D01*
D49*
X111506000Y-76200000D02*
X108712000Y-76200000D01*
X114046000Y-78740000D02*
X111506000Y-76200000D01*
X108039500Y-75527500D02*
X104329746Y-75527500D01*
X108712000Y-76200000D02*
X108039500Y-75527500D01*
D45*
%TO.N,Net-(R5-Pad1)*%
X92710000Y-127123000D02*
X92710000Y-122243500D01*
%TO.N,Net-(R1-Pad2)*%
X88900000Y-114423000D02*
X85140000Y-114423000D01*
X85090000Y-119126000D02*
X85090000Y-114473000D01*
X88900000Y-114423000D02*
X88900000Y-119126000D01*
X85090000Y-114473000D02*
X85140000Y-114423000D01*
%TO.N,/ROTARY_DATA*%
X85070462Y-81768462D02*
X80552000Y-86286924D01*
X80552000Y-86286924D02*
X80552000Y-104213076D01*
X93237538Y-81768462D02*
X85070462Y-81768462D01*
X100330000Y-114423000D02*
X100330000Y-119318500D01*
X96266000Y-78740000D02*
X93237538Y-81768462D01*
X80552000Y-104213076D02*
X87483462Y-111144538D01*
X97051538Y-111144538D02*
X100330000Y-114423000D01*
X87483462Y-111144538D02*
X97051538Y-111144538D01*
%TO.N,Net-(A1-A0)*%
X116180966Y-112948000D02*
X118872000Y-115639034D01*
X96266000Y-93980000D02*
X96266000Y-105351966D01*
X104290966Y-108678000D02*
X108560966Y-112948000D01*
X99592034Y-108678000D02*
X104290966Y-108678000D01*
X118872000Y-115639034D02*
X118872000Y-132080000D01*
X96266000Y-105351966D02*
X99592034Y-108678000D01*
X108560966Y-112948000D02*
X116180966Y-112948000D01*
D47*
%TO.N,Net-(D2-A)*%
X167640000Y-107696000D02*
X167640000Y-101600000D01*
X156718000Y-104779000D02*
X160905000Y-108966000D01*
X166370000Y-108966000D02*
X167640000Y-107696000D01*
X160905000Y-108966000D02*
X166370000Y-108966000D01*
X167640000Y-101600000D02*
X171522000Y-101600000D01*
X156718000Y-103124000D02*
X156718000Y-104779000D01*
X171522000Y-101600000D02*
X178399000Y-94723000D01*
D45*
%TO.N,SDA*%
X110755000Y-104775000D02*
X110755000Y-107685000D01*
X110755000Y-107685000D02*
X110490000Y-107950000D01*
X111760000Y-114423000D02*
X111760000Y-119126000D01*
%TD*%
M02*
