M48
; DRILL file {KiCad 7.0.2} date Sat May 13 16:33:50 2023
; FORMAT={-:-/ absolute / inch / decimal}
; #@! TF.CreationDate,2023-05-13T16:33:50+02:00
; #@! TF.GenerationSoftware,Kicad,Pcbnew,7.0.2
; #@! TF.FileFunction,Plated,1,2,PTH
FMAT,2
INCH
; #@! TA.AperFunction,Plated,PTH,ViaDrill
T1C0.0157
; #@! TA.AperFunction,Plated,PTH,ComponentDrill
T2C0.0315
; #@! TA.AperFunction,Plated,PTH,ComponentDrill
T3C0.0354
; #@! TA.AperFunction,Plated,PTH,ComponentDrill
T4C0.0394
; #@! TA.AperFunction,Plated,PTH,ComponentDrill
T5C0.0433
; #@! TA.AperFunction,Plated,PTH,ComponentDrill
T6C0.0520
; #@! TA.AperFunction,Plated,PTH,ComponentDrill
T7C0.0984
; #@! TA.AperFunction,Plated,PTH,ComponentDrill
T8C0.1378
%
G90
G05
T1
X3.26Y-4.05
X4.48Y-3.97
X6.68Y-3.65
T2
X3.352Y-4.5048
X3.352Y-5.0048
X3.5Y-4.5048
X3.5Y-5.0048
X3.65Y-4.5048
X3.65Y-5.0048
X3.8Y-4.5048
X3.8Y-5.0048
X3.8746Y-4.0502
X3.8746Y-4.1502
X3.95Y-4.5048
X3.95Y-5.0048
X4.1Y-4.5048
X4.1Y-5.0048
X4.1746Y-4.0502
X4.1746Y-4.1502
X4.25Y-4.5048
X4.25Y-5.0048
X4.35Y-3.85
X4.35Y-4.25
X4.4Y-4.5048
X4.4Y-5.0048
X4.45Y-3.85
X4.45Y-4.25
X4.55Y-3.85
X4.55Y-4.25
X4.55Y-4.5048
X4.55Y-5.0048
X4.65Y-3.85
X4.65Y-4.25
X6.0704Y-3.4257
X6.1704Y-3.4257
X6.2704Y-3.4257
X6.575Y-4.6666
X6.575Y-4.765
X6.98Y-4.6616
X6.98Y-4.76
T3
X6.54Y-3.1811
X6.54Y-3.3811
T4
X3.4307Y-2.8879
X3.49Y-3.1
X3.49Y-3.7
X3.5307Y-2.8879
X3.59Y-3.1
X3.59Y-3.7
X3.6307Y-2.8879
X3.69Y-3.1
X3.69Y-3.7
X3.7307Y-2.8879
X3.79Y-3.1
X3.79Y-3.7
X3.8307Y-2.8879
X3.89Y-3.1
X3.89Y-3.7
X3.9307Y-2.8879
X3.99Y-3.1
X3.99Y-3.7
X4.0307Y-2.8879
X4.09Y-3.1
X4.09Y-3.7
X4.1307Y-2.8879
X4.19Y-3.1
X4.19Y-3.7
X4.2307Y-2.8879
X4.29Y-3.1
X4.29Y-3.7
X4.3307Y-2.8879
X4.39Y-3.1
X4.39Y-3.7
X4.4307Y-2.8879
X4.49Y-3.1
X4.49Y-3.7
X4.5307Y-2.8879
X4.58Y-5.2
X4.59Y-3.1
X4.59Y-3.7
X4.6307Y-2.8879
X4.68Y-5.2
X4.69Y-3.1
X4.69Y-3.7
X4.7307Y-2.8879
X4.78Y-5.2
X4.79Y-3.1
X4.79Y-3.7
X4.8307Y-2.8879
X4.89Y-3.1
X4.89Y-3.7
X4.93Y-5.05
X4.9307Y-2.8879
X5.03Y-5.05
X5.13Y-5.05
X5.23Y-5.05
X5.38Y-5.19
X5.48Y-5.19
X6.07Y-3.8
X6.17Y-3.8
X6.27Y-3.8
X6.87Y-3.17
X6.87Y-3.27
X6.97Y-3.17
X6.97Y-3.27
X7.7031Y-3.4391
X7.7031Y-3.5966
X7.7031Y-3.8721
X7.7031Y-4.0296
T5
X6.07Y-3.17
X6.07Y-4.06
X6.17Y-3.17
X6.17Y-4.06
X6.27Y-3.17
X6.27Y-4.06
X6.29Y-4.99
X6.29Y-5.09
X6.29Y-5.19
X6.6Y-4.0
X7.0Y-4.0
T6
X6.6031Y-5.205
X6.8Y-5.205
X7.55Y-4.7311
X7.55Y-4.928
T7
X5.29Y-3.0088
X5.3Y-4.14
X5.6457Y-3.0088
X5.6457Y-4.14
T8
X3.1362Y-2.9273
X3.1362Y-4.384
X7.6638Y-2.9273
X7.6638Y-4.384
T0
M30
