%TF.GenerationSoftware,KiCad,Pcbnew,(6.0.5)*%
%TF.CreationDate,2022-05-15T12:42:04+02:00*%
%TF.ProjectId,pid_controller,7069645f-636f-46e7-9472-6f6c6c65722e,1.0*%
%TF.SameCoordinates,Original*%
%TF.FileFunction,Legend,Top*%
%TF.FilePolarity,Positive*%
%FSLAX46Y46*%
G04 Gerber Fmt 4.6, Leading zero omitted, Abs format (unit mm)*
G04 Created by KiCad (PCBNEW (6.0.5)) date 2022-05-15 12:42:04*
%MOMM*%
%LPD*%
G01*
G04 APERTURE LIST*
%ADD10C,0.300000*%
%ADD11C,0.150000*%
%ADD12C,0.250000*%
%ADD13C,0.120000*%
G04 APERTURE END LIST*
D10*
X179221142Y-60051142D02*
X180364000Y-60051142D01*
X179792571Y-60622571D02*
X179792571Y-59479714D01*
X181006857Y-59265428D02*
X181078285Y-59194000D01*
X181221142Y-59122571D01*
X181578285Y-59122571D01*
X181721142Y-59194000D01*
X181792571Y-59265428D01*
X181864000Y-59408285D01*
X181864000Y-59551142D01*
X181792571Y-59765428D01*
X180935428Y-60622571D01*
X181864000Y-60622571D01*
X183149714Y-59622571D02*
X183149714Y-60622571D01*
X182792571Y-59051142D02*
X182435428Y-60122571D01*
X183364000Y-60122571D01*
X183721142Y-59122571D02*
X184221142Y-60622571D01*
X184721142Y-59122571D01*
X115896971Y-97452571D02*
X115039828Y-97452571D01*
X115468400Y-97452571D02*
X115468400Y-95952571D01*
X115325542Y-96166857D01*
X115182685Y-96309714D01*
X115039828Y-96381142D01*
X127381141Y-110046500D02*
X127238284Y-109975071D01*
X127023999Y-109975071D01*
X126809713Y-110046500D01*
X126666856Y-110189357D01*
X126595427Y-110332214D01*
X126523999Y-110617928D01*
X126523999Y-110832214D01*
X126595427Y-111117928D01*
X126666856Y-111260785D01*
X126809713Y-111403642D01*
X127023999Y-111475071D01*
X127166856Y-111475071D01*
X127381141Y-111403642D01*
X127452570Y-111332214D01*
X127452570Y-110832214D01*
X127166856Y-110832214D01*
X128095427Y-111475071D02*
X128095427Y-109975071D01*
X128952570Y-111475071D01*
X128952570Y-109975071D01*
X129666856Y-111475071D02*
X129666856Y-109975071D01*
X130023999Y-109975071D01*
X130238284Y-110046500D01*
X130381141Y-110189357D01*
X130452570Y-110332214D01*
X130523999Y-110617928D01*
X130523999Y-110832214D01*
X130452570Y-111117928D01*
X130381141Y-111260785D01*
X130238284Y-111403642D01*
X130023999Y-111475071D01*
X129666856Y-111475071D01*
X192702571Y-80343428D02*
X192702571Y-81200571D01*
X192702571Y-80772000D02*
X191202571Y-80772000D01*
X191416857Y-80914857D01*
X191559714Y-81057714D01*
X191631142Y-81200571D01*
D11*
X105357561Y-115216000D02*
X105405180Y-115073142D01*
X105405180Y-114835047D01*
X105357561Y-114739809D01*
X105309942Y-114692190D01*
X105214704Y-114644571D01*
X105119466Y-114644571D01*
X105024228Y-114692190D01*
X104976609Y-114739809D01*
X104928990Y-114835047D01*
X104881371Y-115025523D01*
X104833752Y-115120761D01*
X104786133Y-115168380D01*
X104690895Y-115216000D01*
X104595657Y-115216000D01*
X104500419Y-115168380D01*
X104452800Y-115120761D01*
X104405180Y-115025523D01*
X104405180Y-114787428D01*
X104452800Y-114644571D01*
X104405180Y-114311238D02*
X105405180Y-114073142D01*
X104690895Y-113882666D01*
X105405180Y-113692190D01*
X104405180Y-113454095D01*
X105405180Y-113073142D02*
X104405180Y-113073142D01*
X104405180Y-112739809D02*
X104405180Y-112168380D01*
X105405180Y-112454095D02*
X104405180Y-112454095D01*
X105309942Y-111263619D02*
X105357561Y-111311238D01*
X105405180Y-111454095D01*
X105405180Y-111549333D01*
X105357561Y-111692190D01*
X105262323Y-111787428D01*
X105167085Y-111835047D01*
X104976609Y-111882666D01*
X104833752Y-111882666D01*
X104643276Y-111835047D01*
X104548038Y-111787428D01*
X104452800Y-111692190D01*
X104405180Y-111549333D01*
X104405180Y-111454095D01*
X104452800Y-111311238D01*
X104500419Y-111263619D01*
X105405180Y-110835047D02*
X104405180Y-110835047D01*
X104881371Y-110835047D02*
X104881371Y-110263619D01*
X105405180Y-110263619D02*
X104405180Y-110263619D01*
D12*
X151010647Y-109375380D02*
X151010647Y-108375380D01*
X151391600Y-108375380D01*
X151486838Y-108423000D01*
X151534457Y-108470619D01*
X151582076Y-108565857D01*
X151582076Y-108708714D01*
X151534457Y-108803952D01*
X151486838Y-108851571D01*
X151391600Y-108899190D01*
X151010647Y-108899190D01*
X152010647Y-109375380D02*
X152010647Y-108375380D01*
X152486838Y-109375380D02*
X152486838Y-108375380D01*
X152724933Y-108375380D01*
X152867790Y-108423000D01*
X152963028Y-108518238D01*
X153010647Y-108613476D01*
X153058266Y-108803952D01*
X153058266Y-108946809D01*
X153010647Y-109137285D01*
X152963028Y-109232523D01*
X152867790Y-109327761D01*
X152724933Y-109375380D01*
X152486838Y-109375380D01*
X154820171Y-109280142D02*
X154772552Y-109327761D01*
X154629695Y-109375380D01*
X154534457Y-109375380D01*
X154391600Y-109327761D01*
X154296361Y-109232523D01*
X154248742Y-109137285D01*
X154201123Y-108946809D01*
X154201123Y-108803952D01*
X154248742Y-108613476D01*
X154296361Y-108518238D01*
X154391600Y-108423000D01*
X154534457Y-108375380D01*
X154629695Y-108375380D01*
X154772552Y-108423000D01*
X154820171Y-108470619D01*
X155391600Y-109375380D02*
X155296361Y-109327761D01*
X155248742Y-109280142D01*
X155201123Y-109184904D01*
X155201123Y-108899190D01*
X155248742Y-108803952D01*
X155296361Y-108756333D01*
X155391600Y-108708714D01*
X155534457Y-108708714D01*
X155629695Y-108756333D01*
X155677314Y-108803952D01*
X155724933Y-108899190D01*
X155724933Y-109184904D01*
X155677314Y-109280142D01*
X155629695Y-109327761D01*
X155534457Y-109375380D01*
X155391600Y-109375380D01*
X156153504Y-108708714D02*
X156153504Y-109375380D01*
X156153504Y-108803952D02*
X156201123Y-108756333D01*
X156296361Y-108708714D01*
X156439219Y-108708714D01*
X156534457Y-108756333D01*
X156582076Y-108851571D01*
X156582076Y-109375380D01*
X156915409Y-108708714D02*
X157296361Y-108708714D01*
X157058266Y-108375380D02*
X157058266Y-109232523D01*
X157105885Y-109327761D01*
X157201123Y-109375380D01*
X157296361Y-109375380D01*
X157629695Y-109375380D02*
X157629695Y-108708714D01*
X157629695Y-108899190D02*
X157677314Y-108803952D01*
X157724933Y-108756333D01*
X157820171Y-108708714D01*
X157915409Y-108708714D01*
X158391600Y-109375380D02*
X158296361Y-109327761D01*
X158248742Y-109280142D01*
X158201123Y-109184904D01*
X158201123Y-108899190D01*
X158248742Y-108803952D01*
X158296361Y-108756333D01*
X158391600Y-108708714D01*
X158534457Y-108708714D01*
X158629695Y-108756333D01*
X158677314Y-108803952D01*
X158724933Y-108899190D01*
X158724933Y-109184904D01*
X158677314Y-109280142D01*
X158629695Y-109327761D01*
X158534457Y-109375380D01*
X158391600Y-109375380D01*
X159296361Y-109375380D02*
X159201123Y-109327761D01*
X159153504Y-109232523D01*
X159153504Y-108375380D01*
X159820171Y-109375380D02*
X159724933Y-109327761D01*
X159677314Y-109232523D01*
X159677314Y-108375380D01*
X160582076Y-109327761D02*
X160486838Y-109375380D01*
X160296361Y-109375380D01*
X160201123Y-109327761D01*
X160153504Y-109232523D01*
X160153504Y-108851571D01*
X160201123Y-108756333D01*
X160296361Y-108708714D01*
X160486838Y-108708714D01*
X160582076Y-108756333D01*
X160629695Y-108851571D01*
X160629695Y-108946809D01*
X160153504Y-109042047D01*
X161058266Y-109375380D02*
X161058266Y-108708714D01*
X161058266Y-108899190D02*
X161105885Y-108803952D01*
X161153504Y-108756333D01*
X161248742Y-108708714D01*
X161343980Y-108708714D01*
X162439219Y-108994428D02*
X163201123Y-108994428D01*
X164439219Y-109375380D02*
X164439219Y-108375380D01*
X164915409Y-108708714D02*
X164915409Y-109375380D01*
X164915409Y-108803952D02*
X164963028Y-108756333D01*
X165058266Y-108708714D01*
X165201123Y-108708714D01*
X165296361Y-108756333D01*
X165343980Y-108851571D01*
X165343980Y-109375380D01*
X166248742Y-109327761D02*
X166153504Y-109375380D01*
X165963028Y-109375380D01*
X165867790Y-109327761D01*
X165820171Y-109280142D01*
X165772552Y-109184904D01*
X165772552Y-108899190D01*
X165820171Y-108803952D01*
X165867790Y-108756333D01*
X165963028Y-108708714D01*
X166153504Y-108708714D01*
X166248742Y-108756333D01*
X167105885Y-108708714D02*
X167105885Y-109375380D01*
X166677314Y-108708714D02*
X166677314Y-109232523D01*
X166724933Y-109327761D01*
X166820171Y-109375380D01*
X166963028Y-109375380D01*
X167058266Y-109327761D01*
X167105885Y-109280142D01*
X167582076Y-109375380D02*
X167582076Y-108375380D01*
X167582076Y-108756333D02*
X167677314Y-108708714D01*
X167867790Y-108708714D01*
X167963028Y-108756333D01*
X168010647Y-108803952D01*
X168058266Y-108899190D01*
X168058266Y-109184904D01*
X168010647Y-109280142D01*
X167963028Y-109327761D01*
X167867790Y-109375380D01*
X167677314Y-109375380D01*
X167582076Y-109327761D01*
X168915409Y-109375380D02*
X168915409Y-108851571D01*
X168867790Y-108756333D01*
X168772552Y-108708714D01*
X168582076Y-108708714D01*
X168486838Y-108756333D01*
X168915409Y-109327761D02*
X168820171Y-109375380D01*
X168582076Y-109375380D01*
X168486838Y-109327761D01*
X168439219Y-109232523D01*
X168439219Y-109137285D01*
X168486838Y-109042047D01*
X168582076Y-108994428D01*
X168820171Y-108994428D01*
X168915409Y-108946809D01*
X169248742Y-108708714D02*
X169629695Y-108708714D01*
X169391600Y-108375380D02*
X169391600Y-109232523D01*
X169439219Y-109327761D01*
X169534457Y-109375380D01*
X169629695Y-109375380D01*
X170105885Y-109375380D02*
X170010647Y-109327761D01*
X169963028Y-109280142D01*
X169915409Y-109184904D01*
X169915409Y-108899190D01*
X169963028Y-108803952D01*
X170010647Y-108756333D01*
X170105885Y-108708714D01*
X170248742Y-108708714D01*
X170343980Y-108756333D01*
X170391600Y-108803952D01*
X170439219Y-108899190D01*
X170439219Y-109184904D01*
X170391600Y-109280142D01*
X170343980Y-109327761D01*
X170248742Y-109375380D01*
X170105885Y-109375380D01*
X170867790Y-109375380D02*
X170867790Y-108708714D01*
X170867790Y-108899190D02*
X170915409Y-108803952D01*
X170963028Y-108756333D01*
X171058266Y-108708714D01*
X171153504Y-108708714D01*
X156058266Y-110985380D02*
X156058266Y-109985380D01*
X156391600Y-110699666D01*
X156724933Y-109985380D01*
X156724933Y-110985380D01*
X157629695Y-110985380D02*
X157629695Y-110461571D01*
X157582076Y-110366333D01*
X157486838Y-110318714D01*
X157296361Y-110318714D01*
X157201123Y-110366333D01*
X157629695Y-110937761D02*
X157534457Y-110985380D01*
X157296361Y-110985380D01*
X157201123Y-110937761D01*
X157153504Y-110842523D01*
X157153504Y-110747285D01*
X157201123Y-110652047D01*
X157296361Y-110604428D01*
X157534457Y-110604428D01*
X157629695Y-110556809D01*
X158105885Y-110985380D02*
X158105885Y-110318714D01*
X158105885Y-110509190D02*
X158153504Y-110413952D01*
X158201123Y-110366333D01*
X158296361Y-110318714D01*
X158391600Y-110318714D01*
X158724933Y-110985380D02*
X158724933Y-110318714D01*
X158724933Y-109985380D02*
X158677314Y-110033000D01*
X158724933Y-110080619D01*
X158772552Y-110033000D01*
X158724933Y-109985380D01*
X158724933Y-110080619D01*
X159105885Y-110318714D02*
X159296361Y-110985380D01*
X159486838Y-110509190D01*
X159677314Y-110985380D01*
X159867790Y-110318714D01*
X160677314Y-110985380D02*
X160677314Y-110461571D01*
X160629695Y-110366333D01*
X160534457Y-110318714D01*
X160343980Y-110318714D01*
X160248742Y-110366333D01*
X160677314Y-110937761D02*
X160582076Y-110985380D01*
X160343980Y-110985380D01*
X160248742Y-110937761D01*
X160201123Y-110842523D01*
X160201123Y-110747285D01*
X160248742Y-110652047D01*
X160343980Y-110604428D01*
X160582076Y-110604428D01*
X160677314Y-110556809D01*
X161153504Y-110318714D02*
X161153504Y-110985380D01*
X161153504Y-110413952D02*
X161201123Y-110366333D01*
X161296361Y-110318714D01*
X161439219Y-110318714D01*
X161534457Y-110366333D01*
X161582076Y-110461571D01*
X161582076Y-110985380D01*
X163105885Y-109985380D02*
X163105885Y-110699666D01*
X163058266Y-110842523D01*
X162963028Y-110937761D01*
X162820171Y-110985380D01*
X162724933Y-110985380D01*
X164010647Y-110985380D02*
X164010647Y-110461571D01*
X163963028Y-110366333D01*
X163867790Y-110318714D01*
X163677314Y-110318714D01*
X163582076Y-110366333D01*
X164010647Y-110937761D02*
X163915409Y-110985380D01*
X163677314Y-110985380D01*
X163582076Y-110937761D01*
X163534457Y-110842523D01*
X163534457Y-110747285D01*
X163582076Y-110652047D01*
X163677314Y-110604428D01*
X163915409Y-110604428D01*
X164010647Y-110556809D01*
X164629695Y-110985380D02*
X164534457Y-110937761D01*
X164486838Y-110842523D01*
X164486838Y-109985380D01*
X165439219Y-110985380D02*
X165439219Y-110461571D01*
X165391600Y-110366333D01*
X165296361Y-110318714D01*
X165105885Y-110318714D01*
X165010647Y-110366333D01*
X165439219Y-110937761D02*
X165343980Y-110985380D01*
X165105885Y-110985380D01*
X165010647Y-110937761D01*
X164963028Y-110842523D01*
X164963028Y-110747285D01*
X165010647Y-110652047D01*
X165105885Y-110604428D01*
X165343980Y-110604428D01*
X165439219Y-110556809D01*
X166058266Y-110985380D02*
X165963028Y-110937761D01*
X165915409Y-110842523D01*
X165915409Y-109985380D01*
D10*
X145208571Y-73322571D02*
X144351428Y-73322571D01*
X144780000Y-73322571D02*
X144780000Y-71822571D01*
X144637142Y-72036857D01*
X144494285Y-72179714D01*
X144351428Y-72251142D01*
D11*
X112949028Y-99024914D02*
X112949028Y-98263009D01*
X113329980Y-98643961D02*
X112568076Y-98643961D01*
X112329980Y-97310628D02*
X112329980Y-97786819D01*
X112806171Y-97834438D01*
X112758552Y-97786819D01*
X112710933Y-97691580D01*
X112710933Y-97453485D01*
X112758552Y-97358247D01*
X112806171Y-97310628D01*
X112901409Y-97263009D01*
X113139504Y-97263009D01*
X113234742Y-97310628D01*
X113282361Y-97358247D01*
X113329980Y-97453485D01*
X113329980Y-97691580D01*
X113282361Y-97786819D01*
X113234742Y-97834438D01*
X112329980Y-96977295D02*
X113329980Y-96643961D01*
X112329980Y-96310628D01*
X101608000Y-113537904D02*
X101560380Y-113633142D01*
X101560380Y-113776000D01*
X101608000Y-113918857D01*
X101703238Y-114014095D01*
X101798476Y-114061714D01*
X101988952Y-114109333D01*
X102131809Y-114109333D01*
X102322285Y-114061714D01*
X102417523Y-114014095D01*
X102512761Y-113918857D01*
X102560380Y-113776000D01*
X102560380Y-113680761D01*
X102512761Y-113537904D01*
X102465142Y-113490285D01*
X102131809Y-113490285D01*
X102131809Y-113680761D01*
X102560380Y-113061714D02*
X101560380Y-113061714D01*
X102560380Y-112490285D01*
X101560380Y-112490285D01*
X102560380Y-112014095D02*
X101560380Y-112014095D01*
X101560380Y-111776000D01*
X101608000Y-111633142D01*
X101703238Y-111537904D01*
X101798476Y-111490285D01*
X101988952Y-111442666D01*
X102131809Y-111442666D01*
X102322285Y-111490285D01*
X102417523Y-111537904D01*
X102512761Y-111633142D01*
X102560380Y-111776000D01*
X102560380Y-112014095D01*
X107145200Y-98805904D02*
X107097580Y-98901142D01*
X107097580Y-99044000D01*
X107145200Y-99186857D01*
X107240438Y-99282095D01*
X107335676Y-99329714D01*
X107526152Y-99377333D01*
X107669009Y-99377333D01*
X107859485Y-99329714D01*
X107954723Y-99282095D01*
X108049961Y-99186857D01*
X108097580Y-99044000D01*
X108097580Y-98948761D01*
X108049961Y-98805904D01*
X108002342Y-98758285D01*
X107669009Y-98758285D01*
X107669009Y-98948761D01*
X108097580Y-98329714D02*
X107097580Y-98329714D01*
X108097580Y-97758285D01*
X107097580Y-97758285D01*
X108097580Y-97282095D02*
X107097580Y-97282095D01*
X107097580Y-97044000D01*
X107145200Y-96901142D01*
X107240438Y-96805904D01*
X107335676Y-96758285D01*
X107526152Y-96710666D01*
X107669009Y-96710666D01*
X107859485Y-96758285D01*
X107954723Y-96805904D01*
X108049961Y-96901142D01*
X108097580Y-97044000D01*
X108097580Y-97282095D01*
D10*
X141144571Y-111422571D02*
X140287428Y-111422571D01*
X140716000Y-111422571D02*
X140716000Y-109922571D01*
X140573142Y-110136857D01*
X140430285Y-110279714D01*
X140287428Y-110351142D01*
D11*
X109386666Y-114538095D02*
X109386666Y-114061904D01*
X109672380Y-114633333D02*
X108672380Y-114300000D01*
X109672380Y-113966666D01*
D10*
X145208571Y-99230571D02*
X144351428Y-99230571D01*
X144780000Y-99230571D02*
X144780000Y-97730571D01*
X144637142Y-97944857D01*
X144494285Y-98087714D01*
X144351428Y-98159142D01*
X178205142Y-100691142D02*
X179348000Y-100691142D01*
X178776571Y-101262571D02*
X178776571Y-100119714D01*
X180848000Y-101262571D02*
X179990857Y-101262571D01*
X180419428Y-101262571D02*
X180419428Y-99762571D01*
X180276571Y-99976857D01*
X180133714Y-100119714D01*
X179990857Y-100191142D01*
X181419428Y-99905428D02*
X181490857Y-99834000D01*
X181633714Y-99762571D01*
X181990857Y-99762571D01*
X182133714Y-99834000D01*
X182205142Y-99905428D01*
X182276571Y-100048285D01*
X182276571Y-100191142D01*
X182205142Y-100405428D01*
X181348000Y-101262571D01*
X182276571Y-101262571D01*
X182705142Y-99762571D02*
X183205142Y-101262571D01*
X183705142Y-99762571D01*
X193699142Y-81693642D02*
X194842000Y-81693642D01*
X194270571Y-82265071D02*
X194270571Y-81122214D01*
X196342000Y-82265071D02*
X195484857Y-82265071D01*
X195913428Y-82265071D02*
X195913428Y-80765071D01*
X195770571Y-80979357D01*
X195627714Y-81122214D01*
X195484857Y-81193642D01*
X196913428Y-80907928D02*
X196984857Y-80836500D01*
X197127714Y-80765071D01*
X197484857Y-80765071D01*
X197627714Y-80836500D01*
X197699142Y-80907928D01*
X197770571Y-81050785D01*
X197770571Y-81193642D01*
X197699142Y-81407928D01*
X196842000Y-82265071D01*
X197770571Y-82265071D01*
X198199142Y-80765071D02*
X198699142Y-82265071D01*
X199199142Y-80765071D01*
X115236571Y-104564571D02*
X114379428Y-104564571D01*
X114808000Y-104564571D02*
X114808000Y-103064571D01*
X114665142Y-103278857D01*
X114522285Y-103421714D01*
X114379428Y-103493142D01*
X136318571Y-73322571D02*
X135461428Y-73322571D01*
X135890000Y-73322571D02*
X135890000Y-71822571D01*
X135747142Y-72036857D01*
X135604285Y-72179714D01*
X135461428Y-72251142D01*
D11*
X110739180Y-99442400D02*
X109739180Y-99442400D01*
X109739180Y-99204304D01*
X109786800Y-99061447D01*
X109882038Y-98966209D01*
X109977276Y-98918590D01*
X110167752Y-98870971D01*
X110310609Y-98870971D01*
X110501085Y-98918590D01*
X110596323Y-98966209D01*
X110691561Y-99061447D01*
X110739180Y-99204304D01*
X110739180Y-99442400D01*
X110453466Y-98490019D02*
X110453466Y-98013828D01*
X110739180Y-98585257D02*
X109739180Y-98251923D01*
X110739180Y-97918590D01*
X109739180Y-97728114D02*
X109739180Y-97156685D01*
X110739180Y-97442400D02*
X109739180Y-97442400D01*
X110453466Y-96870971D02*
X110453466Y-96394780D01*
X110739180Y-96966209D02*
X109739180Y-96632876D01*
X110739180Y-96299542D01*
D10*
X149932970Y-56814271D02*
X149075827Y-56814271D01*
X149504399Y-56814271D02*
X149504399Y-55314271D01*
X149361541Y-55528557D01*
X149218684Y-55671414D01*
X149075827Y-55742842D01*
X144700571Y-84244571D02*
X143843428Y-84244571D01*
X144272000Y-84244571D02*
X144272000Y-82744571D01*
X144129142Y-82958857D01*
X143986285Y-83101714D01*
X143843428Y-83173142D01*
D11*
X107545142Y-113990476D02*
X107592761Y-114038095D01*
X107640380Y-114180952D01*
X107640380Y-114276190D01*
X107592761Y-114419047D01*
X107497523Y-114514285D01*
X107402285Y-114561904D01*
X107211809Y-114609523D01*
X107068952Y-114609523D01*
X106878476Y-114561904D01*
X106783238Y-114514285D01*
X106688000Y-114419047D01*
X106640380Y-114276190D01*
X106640380Y-114180952D01*
X106688000Y-114038095D01*
X106735619Y-113990476D01*
D10*
X130231485Y-56761771D02*
X129517200Y-56761771D01*
X129517200Y-55261771D01*
X131588628Y-56618914D02*
X131517200Y-56690342D01*
X131302914Y-56761771D01*
X131160057Y-56761771D01*
X130945771Y-56690342D01*
X130802914Y-56547485D01*
X130731485Y-56404628D01*
X130660057Y-56118914D01*
X130660057Y-55904628D01*
X130731485Y-55618914D01*
X130802914Y-55476057D01*
X130945771Y-55333200D01*
X131160057Y-55261771D01*
X131302914Y-55261771D01*
X131517200Y-55333200D01*
X131588628Y-55404628D01*
X132231485Y-56761771D02*
X132231485Y-55261771D01*
X132588628Y-55261771D01*
X132802914Y-55333200D01*
X132945771Y-55476057D01*
X133017200Y-55618914D01*
X133088628Y-55904628D01*
X133088628Y-56118914D01*
X133017200Y-56404628D01*
X132945771Y-56547485D01*
X132802914Y-56690342D01*
X132588628Y-56761771D01*
X132231485Y-56761771D01*
D11*
%TO.C,J4*%
X111450380Y-107334333D02*
X112164666Y-107334333D01*
X112307523Y-107381952D01*
X112402761Y-107477190D01*
X112450380Y-107620047D01*
X112450380Y-107715285D01*
X111783714Y-106429571D02*
X112450380Y-106429571D01*
X111402761Y-106667666D02*
X112117047Y-106905761D01*
X112117047Y-106286714D01*
%TO.C,RV1*%
X143569398Y-76640229D02*
X143093208Y-76973562D01*
X143569398Y-77211657D02*
X142569398Y-77211657D01*
X142569398Y-76830705D01*
X142617018Y-76735467D01*
X142664637Y-76687848D01*
X142759875Y-76640229D01*
X142902732Y-76640229D01*
X142997970Y-76687848D01*
X143045589Y-76735467D01*
X143093208Y-76830705D01*
X143093208Y-77211657D01*
X142569398Y-76354514D02*
X143569398Y-76021181D01*
X142569398Y-75687848D01*
X143569398Y-74830705D02*
X143569398Y-75402133D01*
X143569398Y-75116419D02*
X142569398Y-75116419D01*
X142712256Y-75211657D01*
X142807494Y-75306895D01*
X142855113Y-75402133D01*
X152169398Y-76735467D02*
X152169398Y-77306895D01*
X152169398Y-77021181D02*
X151169398Y-77021181D01*
X151312256Y-77116419D01*
X151407494Y-77211657D01*
X151455113Y-77306895D01*
X151169398Y-76116419D02*
X151169398Y-76021181D01*
X151217018Y-75925943D01*
X151264637Y-75878324D01*
X151359875Y-75830705D01*
X151550351Y-75783086D01*
X151788446Y-75783086D01*
X151978922Y-75830705D01*
X152074160Y-75878324D01*
X152121779Y-75925943D01*
X152169398Y-76021181D01*
X152169398Y-76116419D01*
X152121779Y-76211657D01*
X152074160Y-76259276D01*
X151978922Y-76306895D01*
X151788446Y-76354514D01*
X151550351Y-76354514D01*
X151359875Y-76306895D01*
X151264637Y-76259276D01*
X151217018Y-76211657D01*
X151169398Y-76116419D01*
X152169398Y-75354514D02*
X151169398Y-75354514D01*
X152169398Y-74783086D02*
X151597970Y-75211657D01*
X151169398Y-74783086D02*
X151740827Y-75354514D01*
%TO.C,C1*%
X134727333Y-102293142D02*
X134679714Y-102340761D01*
X134536857Y-102388380D01*
X134441619Y-102388380D01*
X134298761Y-102340761D01*
X134203523Y-102245523D01*
X134155904Y-102150285D01*
X134108285Y-101959809D01*
X134108285Y-101816952D01*
X134155904Y-101626476D01*
X134203523Y-101531238D01*
X134298761Y-101436000D01*
X134441619Y-101388380D01*
X134536857Y-101388380D01*
X134679714Y-101436000D01*
X134727333Y-101483619D01*
X135679714Y-102388380D02*
X135108285Y-102388380D01*
X135394000Y-102388380D02*
X135394000Y-101388380D01*
X135298761Y-101531238D01*
X135203523Y-101626476D01*
X135108285Y-101674095D01*
X133822571Y-93588380D02*
X133251142Y-93588380D01*
X133536857Y-93588380D02*
X133536857Y-92588380D01*
X133441619Y-92731238D01*
X133346380Y-92826476D01*
X133251142Y-92874095D01*
X134441619Y-92588380D02*
X134536857Y-92588380D01*
X134632095Y-92636000D01*
X134679714Y-92683619D01*
X134727333Y-92778857D01*
X134774952Y-92969333D01*
X134774952Y-93207428D01*
X134727333Y-93397904D01*
X134679714Y-93493142D01*
X134632095Y-93540761D01*
X134536857Y-93588380D01*
X134441619Y-93588380D01*
X134346380Y-93540761D01*
X134298761Y-93493142D01*
X134251142Y-93397904D01*
X134203523Y-93207428D01*
X134203523Y-92969333D01*
X134251142Y-92778857D01*
X134298761Y-92683619D01*
X134346380Y-92636000D01*
X134441619Y-92588380D01*
X135632095Y-92921714D02*
X135632095Y-93588380D01*
X135203523Y-92921714D02*
X135203523Y-93445523D01*
X135251142Y-93540761D01*
X135346380Y-93588380D01*
X135489238Y-93588380D01*
X135584476Y-93540761D01*
X135632095Y-93493142D01*
X136441619Y-93064571D02*
X136108285Y-93064571D01*
X136108285Y-93588380D02*
X136108285Y-92588380D01*
X136584476Y-92588380D01*
%TO.C,J1*%
X196048380Y-80089333D02*
X196762666Y-80089333D01*
X196905523Y-80136952D01*
X197000761Y-80232190D01*
X197048380Y-80375047D01*
X197048380Y-80470285D01*
X197048380Y-79089333D02*
X197048380Y-79660761D01*
X197048380Y-79375047D02*
X196048380Y-79375047D01*
X196191238Y-79470285D01*
X196286476Y-79565523D01*
X196334095Y-79660761D01*
X184907180Y-93271314D02*
X184907180Y-93842742D01*
X184907180Y-93557028D02*
X183907180Y-93557028D01*
X184050038Y-93652266D01*
X184145276Y-93747504D01*
X184192895Y-93842742D01*
X184002419Y-92890361D02*
X183954800Y-92842742D01*
X183907180Y-92747504D01*
X183907180Y-92509409D01*
X183954800Y-92414171D01*
X184002419Y-92366552D01*
X184097657Y-92318933D01*
X184192895Y-92318933D01*
X184335752Y-92366552D01*
X184907180Y-92937980D01*
X184907180Y-92318933D01*
X183907180Y-92033219D02*
X184907180Y-91699885D01*
X183907180Y-91366552D01*
X184907180Y-91033219D02*
X183907180Y-91033219D01*
X183907180Y-90795123D01*
X183954800Y-90652266D01*
X184050038Y-90557028D01*
X184145276Y-90509409D01*
X184335752Y-90461790D01*
X184478609Y-90461790D01*
X184669085Y-90509409D01*
X184764323Y-90557028D01*
X184859561Y-90652266D01*
X184907180Y-90795123D01*
X184907180Y-91033219D01*
X184811942Y-89461790D02*
X184859561Y-89509409D01*
X184907180Y-89652266D01*
X184907180Y-89747504D01*
X184859561Y-89890361D01*
X184764323Y-89985600D01*
X184669085Y-90033219D01*
X184478609Y-90080838D01*
X184335752Y-90080838D01*
X184145276Y-90033219D01*
X184050038Y-89985600D01*
X183954800Y-89890361D01*
X183907180Y-89747504D01*
X183907180Y-89652266D01*
X183954800Y-89509409D01*
X184002419Y-89461790D01*
X184907180Y-88271314D02*
X183907180Y-88271314D01*
X183907180Y-87890361D01*
X183954800Y-87795123D01*
X184002419Y-87747504D01*
X184097657Y-87699885D01*
X184240514Y-87699885D01*
X184335752Y-87747504D01*
X184383371Y-87795123D01*
X184430990Y-87890361D01*
X184430990Y-88271314D01*
X184907180Y-87128457D02*
X184859561Y-87223695D01*
X184811942Y-87271314D01*
X184716704Y-87318933D01*
X184430990Y-87318933D01*
X184335752Y-87271314D01*
X184288133Y-87223695D01*
X184240514Y-87128457D01*
X184240514Y-86985600D01*
X184288133Y-86890361D01*
X184335752Y-86842742D01*
X184430990Y-86795123D01*
X184716704Y-86795123D01*
X184811942Y-86842742D01*
X184859561Y-86890361D01*
X184907180Y-86985600D01*
X184907180Y-87128457D01*
X184240514Y-86461790D02*
X184907180Y-86271314D01*
X184430990Y-86080838D01*
X184907180Y-85890361D01*
X184240514Y-85699885D01*
X184859561Y-84937980D02*
X184907180Y-85033219D01*
X184907180Y-85223695D01*
X184859561Y-85318933D01*
X184764323Y-85366552D01*
X184383371Y-85366552D01*
X184288133Y-85318933D01*
X184240514Y-85223695D01*
X184240514Y-85033219D01*
X184288133Y-84937980D01*
X184383371Y-84890361D01*
X184478609Y-84890361D01*
X184573847Y-85366552D01*
X184907180Y-84461790D02*
X184240514Y-84461790D01*
X184430990Y-84461790D02*
X184335752Y-84414171D01*
X184288133Y-84366552D01*
X184240514Y-84271314D01*
X184240514Y-84176076D01*
X184907180Y-83080838D02*
X183907180Y-83080838D01*
X184240514Y-82604647D02*
X184907180Y-82604647D01*
X184335752Y-82604647D02*
X184288133Y-82557028D01*
X184240514Y-82461790D01*
X184240514Y-82318933D01*
X184288133Y-82223695D01*
X184383371Y-82176076D01*
X184907180Y-82176076D01*
%TO.C,R5*%
X126934933Y-69178780D02*
X126601600Y-68702590D01*
X126363504Y-69178780D02*
X126363504Y-68178780D01*
X126744457Y-68178780D01*
X126839695Y-68226400D01*
X126887314Y-68274019D01*
X126934933Y-68369257D01*
X126934933Y-68512114D01*
X126887314Y-68607352D01*
X126839695Y-68654971D01*
X126744457Y-68702590D01*
X126363504Y-68702590D01*
X127839695Y-68178780D02*
X127363504Y-68178780D01*
X127315885Y-68654971D01*
X127363504Y-68607352D01*
X127458742Y-68559733D01*
X127696838Y-68559733D01*
X127792076Y-68607352D01*
X127839695Y-68654971D01*
X127887314Y-68750209D01*
X127887314Y-68988304D01*
X127839695Y-69083542D01*
X127792076Y-69131161D01*
X127696838Y-69178780D01*
X127458742Y-69178780D01*
X127363504Y-69131161D01*
X127315885Y-69083542D01*
%TO.C,U1*%
X149999398Y-88264904D02*
X150808922Y-88264904D01*
X150904160Y-88217285D01*
X150951779Y-88169666D01*
X150999398Y-88074428D01*
X150999398Y-87883952D01*
X150951779Y-87788714D01*
X150904160Y-87741095D01*
X150808922Y-87693476D01*
X149999398Y-87693476D01*
X150999398Y-86693476D02*
X150999398Y-87264904D01*
X150999398Y-86979190D02*
X149999398Y-86979190D01*
X150142256Y-87074428D01*
X150237494Y-87169666D01*
X150285113Y-87264904D01*
%TO.C,R3*%
X179274380Y-112739466D02*
X178798190Y-113072800D01*
X179274380Y-113310895D02*
X178274380Y-113310895D01*
X178274380Y-112929942D01*
X178322000Y-112834704D01*
X178369619Y-112787085D01*
X178464857Y-112739466D01*
X178607714Y-112739466D01*
X178702952Y-112787085D01*
X178750571Y-112834704D01*
X178798190Y-112929942D01*
X178798190Y-113310895D01*
X178274380Y-112406133D02*
X178274380Y-111787085D01*
X178655333Y-112120419D01*
X178655333Y-111977561D01*
X178702952Y-111882323D01*
X178750571Y-111834704D01*
X178845809Y-111787085D01*
X179083904Y-111787085D01*
X179179142Y-111834704D01*
X179226761Y-111882323D01*
X179274380Y-111977561D01*
X179274380Y-112263276D01*
X179226761Y-112358514D01*
X179179142Y-112406133D01*
X183834380Y-112787085D02*
X183834380Y-113358514D01*
X183834380Y-113072800D02*
X182834380Y-113072800D01*
X182977238Y-113168038D01*
X183072476Y-113263276D01*
X183120095Y-113358514D01*
X183834380Y-112358514D02*
X182834380Y-112358514D01*
X183834380Y-111787085D02*
X183262952Y-112215657D01*
X182834380Y-111787085D02*
X183405809Y-112358514D01*
%TO.C,R14*%
X90035142Y-93744380D02*
X89701809Y-93268190D01*
X89463714Y-93744380D02*
X89463714Y-92744380D01*
X89844666Y-92744380D01*
X89939904Y-92792000D01*
X89987523Y-92839619D01*
X90035142Y-92934857D01*
X90035142Y-93077714D01*
X89987523Y-93172952D01*
X89939904Y-93220571D01*
X89844666Y-93268190D01*
X89463714Y-93268190D01*
X90987523Y-93744380D02*
X90416095Y-93744380D01*
X90701809Y-93744380D02*
X90701809Y-92744380D01*
X90606571Y-92887238D01*
X90511333Y-92982476D01*
X90416095Y-93030095D01*
X91844666Y-93077714D02*
X91844666Y-93744380D01*
X91606571Y-92696761D02*
X91368476Y-93411047D01*
X91987523Y-93411047D01*
%TO.C,R2*%
X168069180Y-82157866D02*
X167592990Y-82491200D01*
X168069180Y-82729295D02*
X167069180Y-82729295D01*
X167069180Y-82348342D01*
X167116800Y-82253104D01*
X167164419Y-82205485D01*
X167259657Y-82157866D01*
X167402514Y-82157866D01*
X167497752Y-82205485D01*
X167545371Y-82253104D01*
X167592990Y-82348342D01*
X167592990Y-82729295D01*
X167164419Y-81776914D02*
X167116800Y-81729295D01*
X167069180Y-81634057D01*
X167069180Y-81395961D01*
X167116800Y-81300723D01*
X167164419Y-81253104D01*
X167259657Y-81205485D01*
X167354895Y-81205485D01*
X167497752Y-81253104D01*
X168069180Y-81824533D01*
X168069180Y-81205485D01*
%TO.C,R1*%
X162498380Y-77281066D02*
X162022190Y-77614400D01*
X162498380Y-77852495D02*
X161498380Y-77852495D01*
X161498380Y-77471542D01*
X161546000Y-77376304D01*
X161593619Y-77328685D01*
X161688857Y-77281066D01*
X161831714Y-77281066D01*
X161926952Y-77328685D01*
X161974571Y-77376304D01*
X162022190Y-77471542D01*
X162022190Y-77852495D01*
X162498380Y-76328685D02*
X162498380Y-76900114D01*
X162498380Y-76614400D02*
X161498380Y-76614400D01*
X161641238Y-76709638D01*
X161736476Y-76804876D01*
X161784095Y-76900114D01*
X160218380Y-73842476D02*
X160218380Y-74413904D01*
X160218380Y-74128190D02*
X159218380Y-74128190D01*
X159361238Y-74223428D01*
X159456476Y-74318666D01*
X159504095Y-74413904D01*
X159218380Y-73223428D02*
X159218380Y-73128190D01*
X159266000Y-73032952D01*
X159313619Y-72985333D01*
X159408857Y-72937714D01*
X159599333Y-72890095D01*
X159837428Y-72890095D01*
X160027904Y-72937714D01*
X160123142Y-72985333D01*
X160170761Y-73032952D01*
X160218380Y-73128190D01*
X160218380Y-73223428D01*
X160170761Y-73318666D01*
X160123142Y-73366285D01*
X160027904Y-73413904D01*
X159837428Y-73461523D01*
X159599333Y-73461523D01*
X159408857Y-73413904D01*
X159313619Y-73366285D01*
X159266000Y-73318666D01*
X159218380Y-73223428D01*
X160218380Y-72461523D02*
X159218380Y-72461523D01*
X160218380Y-71890095D02*
X159646952Y-72318666D01*
X159218380Y-71890095D02*
X159789809Y-72461523D01*
%TO.C,R11*%
X91644380Y-101734857D02*
X91168190Y-102068190D01*
X91644380Y-102306285D02*
X90644380Y-102306285D01*
X90644380Y-101925333D01*
X90692000Y-101830095D01*
X90739619Y-101782476D01*
X90834857Y-101734857D01*
X90977714Y-101734857D01*
X91072952Y-101782476D01*
X91120571Y-101830095D01*
X91168190Y-101925333D01*
X91168190Y-102306285D01*
X91644380Y-100782476D02*
X91644380Y-101353904D01*
X91644380Y-101068190D02*
X90644380Y-101068190D01*
X90787238Y-101163428D01*
X90882476Y-101258666D01*
X90930095Y-101353904D01*
X91644380Y-99830095D02*
X91644380Y-100401523D01*
X91644380Y-100115809D02*
X90644380Y-100115809D01*
X90787238Y-100211047D01*
X90882476Y-100306285D01*
X90930095Y-100401523D01*
X90266780Y-101615776D02*
X90266780Y-102187204D01*
X90266780Y-101901490D02*
X89266780Y-101901490D01*
X89409638Y-101996728D01*
X89504876Y-102091966D01*
X89552495Y-102187204D01*
X89266780Y-100996728D02*
X89266780Y-100901490D01*
X89314400Y-100806252D01*
X89362019Y-100758633D01*
X89457257Y-100711014D01*
X89647733Y-100663395D01*
X89885828Y-100663395D01*
X90076304Y-100711014D01*
X90171542Y-100758633D01*
X90219161Y-100806252D01*
X90266780Y-100901490D01*
X90266780Y-100996728D01*
X90219161Y-101091966D01*
X90171542Y-101139585D01*
X90076304Y-101187204D01*
X89885828Y-101234823D01*
X89647733Y-101234823D01*
X89457257Y-101187204D01*
X89362019Y-101139585D01*
X89314400Y-101091966D01*
X89266780Y-100996728D01*
X90266780Y-100234823D02*
X89266780Y-100234823D01*
X90266780Y-99663395D02*
X89695352Y-100091966D01*
X89266780Y-99663395D02*
X89838209Y-100234823D01*
%TO.C,D1*%
X144146380Y-79478095D02*
X143146380Y-79478095D01*
X143146380Y-79240000D01*
X143194000Y-79097142D01*
X143289238Y-79001904D01*
X143384476Y-78954285D01*
X143574952Y-78906666D01*
X143717809Y-78906666D01*
X143908285Y-78954285D01*
X144003523Y-79001904D01*
X144098761Y-79097142D01*
X144146380Y-79240000D01*
X144146380Y-79478095D01*
X144146380Y-77954285D02*
X144146380Y-78525714D01*
X144146380Y-78240000D02*
X143146380Y-78240000D01*
X143289238Y-78335238D01*
X143384476Y-78430476D01*
X143432095Y-78525714D01*
X140776380Y-78061904D02*
X139776380Y-78061904D01*
X140776380Y-77490476D02*
X140204952Y-77919047D01*
X139776380Y-77490476D02*
X140347809Y-78061904D01*
%TO.C,C2*%
X167825142Y-61055866D02*
X167872761Y-61103485D01*
X167920380Y-61246342D01*
X167920380Y-61341580D01*
X167872761Y-61484438D01*
X167777523Y-61579676D01*
X167682285Y-61627295D01*
X167491809Y-61674914D01*
X167348952Y-61674914D01*
X167158476Y-61627295D01*
X167063238Y-61579676D01*
X166968000Y-61484438D01*
X166920380Y-61341580D01*
X166920380Y-61246342D01*
X166968000Y-61103485D01*
X167015619Y-61055866D01*
X167015619Y-60674914D02*
X166968000Y-60627295D01*
X166920380Y-60532057D01*
X166920380Y-60293961D01*
X166968000Y-60198723D01*
X167015619Y-60151104D01*
X167110857Y-60103485D01*
X167206095Y-60103485D01*
X167348952Y-60151104D01*
X167920380Y-60722533D01*
X167920380Y-60103485D01*
X159120380Y-62436819D02*
X159120380Y-63008247D01*
X159120380Y-62722533D02*
X158120380Y-62722533D01*
X158263238Y-62817771D01*
X158358476Y-62913009D01*
X158406095Y-63008247D01*
X158120380Y-61817771D02*
X158120380Y-61722533D01*
X158168000Y-61627295D01*
X158215619Y-61579676D01*
X158310857Y-61532057D01*
X158501333Y-61484438D01*
X158739428Y-61484438D01*
X158929904Y-61532057D01*
X159025142Y-61579676D01*
X159072761Y-61627295D01*
X159120380Y-61722533D01*
X159120380Y-61817771D01*
X159072761Y-61913009D01*
X159025142Y-61960628D01*
X158929904Y-62008247D01*
X158739428Y-62055866D01*
X158501333Y-62055866D01*
X158310857Y-62008247D01*
X158215619Y-61960628D01*
X158168000Y-61913009D01*
X158120380Y-61817771D01*
X158120380Y-60865390D02*
X158120380Y-60770152D01*
X158168000Y-60674914D01*
X158215619Y-60627295D01*
X158310857Y-60579676D01*
X158501333Y-60532057D01*
X158739428Y-60532057D01*
X158929904Y-60579676D01*
X159025142Y-60627295D01*
X159072761Y-60674914D01*
X159120380Y-60770152D01*
X159120380Y-60865390D01*
X159072761Y-60960628D01*
X159025142Y-61008247D01*
X158929904Y-61055866D01*
X158739428Y-61103485D01*
X158501333Y-61103485D01*
X158310857Y-61055866D01*
X158215619Y-61008247D01*
X158168000Y-60960628D01*
X158120380Y-60865390D01*
X158453714Y-59674914D02*
X159120380Y-59674914D01*
X158453714Y-60103485D02*
X158977523Y-60103485D01*
X159072761Y-60055866D01*
X159120380Y-59960628D01*
X159120380Y-59817771D01*
X159072761Y-59722533D01*
X159025142Y-59674914D01*
X158596571Y-58865390D02*
X158596571Y-59198723D01*
X159120380Y-59198723D02*
X158120380Y-59198723D01*
X158120380Y-58722533D01*
%TO.C,R15*%
X84193142Y-94432380D02*
X83859809Y-93956190D01*
X83621714Y-94432380D02*
X83621714Y-93432380D01*
X84002666Y-93432380D01*
X84097904Y-93480000D01*
X84145523Y-93527619D01*
X84193142Y-93622857D01*
X84193142Y-93765714D01*
X84145523Y-93860952D01*
X84097904Y-93908571D01*
X84002666Y-93956190D01*
X83621714Y-93956190D01*
X85145523Y-94432380D02*
X84574095Y-94432380D01*
X84859809Y-94432380D02*
X84859809Y-93432380D01*
X84764571Y-93575238D01*
X84669333Y-93670476D01*
X84574095Y-93718095D01*
X86050285Y-93432380D02*
X85574095Y-93432380D01*
X85526476Y-93908571D01*
X85574095Y-93860952D01*
X85669333Y-93813333D01*
X85907428Y-93813333D01*
X86002666Y-93860952D01*
X86050285Y-93908571D01*
X86097904Y-94003809D01*
X86097904Y-94241904D01*
X86050285Y-94337142D01*
X86002666Y-94384761D01*
X85907428Y-94432380D01*
X85669333Y-94432380D01*
X85574095Y-94384761D01*
X85526476Y-94337142D01*
X80900685Y-93765714D02*
X80900685Y-94432380D01*
X80662590Y-93384761D02*
X80424495Y-94099047D01*
X81043542Y-94099047D01*
X81424495Y-94432380D02*
X81424495Y-93432380D01*
X81995923Y-94432380D02*
X81567352Y-93860952D01*
X81995923Y-93432380D02*
X81424495Y-94003809D01*
X82329257Y-93432380D02*
X82995923Y-93432380D01*
X82567352Y-94432380D01*
%TO.C,A1*%
X141363684Y-83363276D02*
X141363684Y-82887086D01*
X141649398Y-83458514D02*
X140649398Y-83125181D01*
X141649398Y-82791848D01*
X141649398Y-81934705D02*
X141649398Y-82506133D01*
X141649398Y-82220419D02*
X140649398Y-82220419D01*
X140792256Y-82315657D01*
X140887494Y-82410895D01*
X140935113Y-82506133D01*
X110328922Y-84085657D02*
X110805113Y-84085657D01*
X110233684Y-84371371D02*
X110567018Y-83371371D01*
X110900351Y-84371371D01*
X111233684Y-84371371D02*
X111233684Y-83704705D01*
X111233684Y-83895181D02*
X111281303Y-83799943D01*
X111328922Y-83752324D01*
X111424160Y-83704705D01*
X111519398Y-83704705D01*
X112281303Y-84371371D02*
X112281303Y-83371371D01*
X112281303Y-84323752D02*
X112186065Y-84371371D01*
X111995589Y-84371371D01*
X111900351Y-84323752D01*
X111852732Y-84276133D01*
X111805113Y-84180895D01*
X111805113Y-83895181D01*
X111852732Y-83799943D01*
X111900351Y-83752324D01*
X111995589Y-83704705D01*
X112186065Y-83704705D01*
X112281303Y-83752324D01*
X113186065Y-83704705D02*
X113186065Y-84371371D01*
X112757494Y-83704705D02*
X112757494Y-84228514D01*
X112805113Y-84323752D01*
X112900351Y-84371371D01*
X113043208Y-84371371D01*
X113138446Y-84323752D01*
X113186065Y-84276133D01*
X113662256Y-84371371D02*
X113662256Y-83704705D01*
X113662256Y-83371371D02*
X113614637Y-83418991D01*
X113662256Y-83466610D01*
X113709875Y-83418991D01*
X113662256Y-83371371D01*
X113662256Y-83466610D01*
X114138446Y-83704705D02*
X114138446Y-84371371D01*
X114138446Y-83799943D02*
X114186065Y-83752324D01*
X114281303Y-83704705D01*
X114424160Y-83704705D01*
X114519398Y-83752324D01*
X114567018Y-83847562D01*
X114567018Y-84371371D01*
X115186065Y-84371371D02*
X115090827Y-84323752D01*
X115043208Y-84276133D01*
X114995589Y-84180895D01*
X114995589Y-83895181D01*
X115043208Y-83799943D01*
X115090827Y-83752324D01*
X115186065Y-83704705D01*
X115328922Y-83704705D01*
X115424160Y-83752324D01*
X115471779Y-83799943D01*
X115519398Y-83895181D01*
X115519398Y-84180895D01*
X115471779Y-84276133D01*
X115424160Y-84323752D01*
X115328922Y-84371371D01*
X115186065Y-84371371D01*
X115709875Y-84466610D02*
X116471779Y-84466610D01*
X116709875Y-84371371D02*
X116709875Y-83371371D01*
X117281303Y-84371371D01*
X117281303Y-83371371D01*
X118186065Y-84371371D02*
X118186065Y-83847562D01*
X118138446Y-83752324D01*
X118043208Y-83704705D01*
X117852732Y-83704705D01*
X117757494Y-83752324D01*
X118186065Y-84323752D02*
X118090827Y-84371371D01*
X117852732Y-84371371D01*
X117757494Y-84323752D01*
X117709875Y-84228514D01*
X117709875Y-84133276D01*
X117757494Y-84038038D01*
X117852732Y-83990419D01*
X118090827Y-83990419D01*
X118186065Y-83942800D01*
X118662256Y-83704705D02*
X118662256Y-84371371D01*
X118662256Y-83799943D02*
X118709875Y-83752324D01*
X118805113Y-83704705D01*
X118947970Y-83704705D01*
X119043208Y-83752324D01*
X119090827Y-83847562D01*
X119090827Y-84371371D01*
X119709875Y-84371371D02*
X119614637Y-84323752D01*
X119567018Y-84276133D01*
X119519398Y-84180895D01*
X119519398Y-83895181D01*
X119567018Y-83799943D01*
X119614637Y-83752324D01*
X119709875Y-83704705D01*
X119852732Y-83704705D01*
X119947970Y-83752324D01*
X119995589Y-83799943D01*
X120043208Y-83895181D01*
X120043208Y-84180895D01*
X119995589Y-84276133D01*
X119947970Y-84323752D01*
X119852732Y-84371371D01*
X119709875Y-84371371D01*
X120233684Y-84466610D02*
X120995589Y-84466610D01*
X121138446Y-83704705D02*
X121376541Y-84371371D01*
X121614637Y-83704705D01*
X121900351Y-83371371D02*
X122519398Y-83371371D01*
X122186065Y-83752324D01*
X122328922Y-83752324D01*
X122424160Y-83799943D01*
X122471779Y-83847562D01*
X122519398Y-83942800D01*
X122519398Y-84180895D01*
X122471779Y-84276133D01*
X122424160Y-84323752D01*
X122328922Y-84371371D01*
X122043208Y-84371371D01*
X121947970Y-84323752D01*
X121900351Y-84276133D01*
X122947970Y-84276133D02*
X122995589Y-84323752D01*
X122947970Y-84371371D01*
X122900351Y-84323752D01*
X122947970Y-84276133D01*
X122947970Y-84371371D01*
X123328922Y-84371371D02*
X123852732Y-83704705D01*
X123328922Y-83704705D02*
X123852732Y-84371371D01*
%TO.C,U2*%
X114277398Y-95348895D02*
X115086922Y-95348895D01*
X115182160Y-95301276D01*
X115229779Y-95253657D01*
X115277398Y-95158419D01*
X115277398Y-94967943D01*
X115229779Y-94872705D01*
X115182160Y-94825086D01*
X115086922Y-94777467D01*
X114277398Y-94777467D01*
X114372637Y-94348895D02*
X114325018Y-94301276D01*
X114277398Y-94206038D01*
X114277398Y-93967943D01*
X114325018Y-93872705D01*
X114372637Y-93825086D01*
X114467875Y-93777467D01*
X114563113Y-93777467D01*
X114705970Y-93825086D01*
X115277398Y-94396514D01*
X115277398Y-93777467D01*
X105537398Y-97325086D02*
X105537398Y-97801276D01*
X104537398Y-97801276D01*
X105537398Y-96991752D02*
X104537398Y-96991752D01*
X105251684Y-96658419D01*
X104537398Y-96325086D01*
X105537398Y-96325086D01*
X104537398Y-95944133D02*
X104537398Y-95325086D01*
X104918351Y-95658419D01*
X104918351Y-95515562D01*
X104965970Y-95420324D01*
X105013589Y-95372705D01*
X105108827Y-95325086D01*
X105346922Y-95325086D01*
X105442160Y-95372705D01*
X105489779Y-95420324D01*
X105537398Y-95515562D01*
X105537398Y-95801276D01*
X105489779Y-95896514D01*
X105442160Y-95944133D01*
X104537398Y-94420324D02*
X104537398Y-94896514D01*
X105013589Y-94944133D01*
X104965970Y-94896514D01*
X104918351Y-94801276D01*
X104918351Y-94563181D01*
X104965970Y-94467943D01*
X105013589Y-94420324D01*
X105108827Y-94372705D01*
X105346922Y-94372705D01*
X105442160Y-94420324D01*
X105489779Y-94467943D01*
X105537398Y-94563181D01*
X105537398Y-94801276D01*
X105489779Y-94896514D01*
X105442160Y-94944133D01*
X105156446Y-93944133D02*
X105156446Y-93182229D01*
X105537398Y-92229848D02*
X105537398Y-92706038D01*
X104537398Y-92706038D01*
X105537398Y-91896514D02*
X104537398Y-91896514D01*
X104537398Y-91515562D01*
X104585018Y-91420324D01*
X104632637Y-91372705D01*
X104727875Y-91325086D01*
X104870732Y-91325086D01*
X104965970Y-91372705D01*
X105013589Y-91420324D01*
X105061208Y-91515562D01*
X105061208Y-91896514D01*
%TO.C,U5*%
X154482895Y-63009980D02*
X154482895Y-63819504D01*
X154530514Y-63914742D01*
X154578133Y-63962361D01*
X154673371Y-64009980D01*
X154863847Y-64009980D01*
X154959085Y-63962361D01*
X155006704Y-63914742D01*
X155054323Y-63819504D01*
X155054323Y-63009980D01*
X156006704Y-63009980D02*
X155530514Y-63009980D01*
X155482895Y-63486171D01*
X155530514Y-63438552D01*
X155625752Y-63390933D01*
X155863847Y-63390933D01*
X155959085Y-63438552D01*
X156006704Y-63486171D01*
X156054323Y-63581409D01*
X156054323Y-63819504D01*
X156006704Y-63914742D01*
X155959085Y-63962361D01*
X155863847Y-64009980D01*
X155625752Y-64009980D01*
X155530514Y-63962361D01*
X155482895Y-63914742D01*
X149649561Y-71209980D02*
X149649561Y-70209980D01*
X150030514Y-70209980D01*
X150125752Y-70257600D01*
X150173371Y-70305219D01*
X150220990Y-70400457D01*
X150220990Y-70543314D01*
X150173371Y-70638552D01*
X150125752Y-70686171D01*
X150030514Y-70733790D01*
X149649561Y-70733790D01*
X150601942Y-71162361D02*
X150744800Y-71209980D01*
X150982895Y-71209980D01*
X151078133Y-71162361D01*
X151125752Y-71114742D01*
X151173371Y-71019504D01*
X151173371Y-70924266D01*
X151125752Y-70829028D01*
X151078133Y-70781409D01*
X150982895Y-70733790D01*
X150792419Y-70686171D01*
X150697180Y-70638552D01*
X150649561Y-70590933D01*
X150601942Y-70495695D01*
X150601942Y-70400457D01*
X150649561Y-70305219D01*
X150697180Y-70257600D01*
X150792419Y-70209980D01*
X151030514Y-70209980D01*
X151173371Y-70257600D01*
X151554323Y-70305219D02*
X151601942Y-70257600D01*
X151697180Y-70209980D01*
X151935276Y-70209980D01*
X152030514Y-70257600D01*
X152078133Y-70305219D01*
X152125752Y-70400457D01*
X152125752Y-70495695D01*
X152078133Y-70638552D01*
X151506704Y-71209980D01*
X152125752Y-71209980D01*
X153030514Y-70209980D02*
X152554323Y-70209980D01*
X152506704Y-70686171D01*
X152554323Y-70638552D01*
X152649561Y-70590933D01*
X152887657Y-70590933D01*
X152982895Y-70638552D01*
X153030514Y-70686171D01*
X153078133Y-70781409D01*
X153078133Y-71019504D01*
X153030514Y-71114742D01*
X152982895Y-71162361D01*
X152887657Y-71209980D01*
X152649561Y-71209980D01*
X152554323Y-71162361D01*
X152506704Y-71114742D01*
X153935276Y-70209980D02*
X153744800Y-70209980D01*
X153649561Y-70257600D01*
X153601942Y-70305219D01*
X153506704Y-70448076D01*
X153459085Y-70638552D01*
X153459085Y-71019504D01*
X153506704Y-71114742D01*
X153554323Y-71162361D01*
X153649561Y-71209980D01*
X153840038Y-71209980D01*
X153935276Y-71162361D01*
X153982895Y-71114742D01*
X154030514Y-71019504D01*
X154030514Y-70781409D01*
X153982895Y-70686171D01*
X153935276Y-70638552D01*
X153840038Y-70590933D01*
X153649561Y-70590933D01*
X153554323Y-70638552D01*
X153506704Y-70686171D01*
X153459085Y-70781409D01*
X154982895Y-71209980D02*
X154411466Y-71209980D01*
X154697180Y-71209980D02*
X154697180Y-70209980D01*
X154601942Y-70352838D01*
X154506704Y-70448076D01*
X154411466Y-70495695D01*
X156125752Y-70162361D02*
X155268609Y-71448076D01*
X156459085Y-71209980D02*
X156459085Y-70209980D01*
X156840038Y-70209980D01*
X156935276Y-70257600D01*
X156982895Y-70305219D01*
X157030514Y-70400457D01*
X157030514Y-70543314D01*
X156982895Y-70638552D01*
X156935276Y-70686171D01*
X156840038Y-70733790D01*
X156459085Y-70733790D01*
X158030514Y-71114742D02*
X157982895Y-71162361D01*
X157840038Y-71209980D01*
X157744800Y-71209980D01*
X157601942Y-71162361D01*
X157506704Y-71067123D01*
X157459085Y-70971885D01*
X157411466Y-70781409D01*
X157411466Y-70638552D01*
X157459085Y-70448076D01*
X157506704Y-70352838D01*
X157601942Y-70257600D01*
X157744800Y-70209980D01*
X157840038Y-70209980D01*
X157982895Y-70257600D01*
X158030514Y-70305219D01*
X158601942Y-70638552D02*
X158506704Y-70590933D01*
X158459085Y-70543314D01*
X158411466Y-70448076D01*
X158411466Y-70400457D01*
X158459085Y-70305219D01*
X158506704Y-70257600D01*
X158601942Y-70209980D01*
X158792419Y-70209980D01*
X158887657Y-70257600D01*
X158935276Y-70305219D01*
X158982895Y-70400457D01*
X158982895Y-70448076D01*
X158935276Y-70543314D01*
X158887657Y-70590933D01*
X158792419Y-70638552D01*
X158601942Y-70638552D01*
X158506704Y-70686171D01*
X158459085Y-70733790D01*
X158411466Y-70829028D01*
X158411466Y-71019504D01*
X158459085Y-71114742D01*
X158506704Y-71162361D01*
X158601942Y-71209980D01*
X158792419Y-71209980D01*
X158887657Y-71162361D01*
X158935276Y-71114742D01*
X158982895Y-71019504D01*
X158982895Y-70829028D01*
X158935276Y-70733790D01*
X158887657Y-70686171D01*
X158792419Y-70638552D01*
X159935276Y-71209980D02*
X159363847Y-71209980D01*
X159649561Y-71209980D02*
X159649561Y-70209980D01*
X159554323Y-70352838D01*
X159459085Y-70448076D01*
X159363847Y-70495695D01*
X160268609Y-70209980D02*
X160935276Y-70209980D01*
X160506704Y-71209980D01*
%TO.C,R4*%
X182288780Y-107862666D02*
X181812590Y-108196000D01*
X182288780Y-108434095D02*
X181288780Y-108434095D01*
X181288780Y-108053142D01*
X181336400Y-107957904D01*
X181384019Y-107910285D01*
X181479257Y-107862666D01*
X181622114Y-107862666D01*
X181717352Y-107910285D01*
X181764971Y-107957904D01*
X181812590Y-108053142D01*
X181812590Y-108434095D01*
X181622114Y-107005523D02*
X182288780Y-107005523D01*
X181241161Y-107243619D02*
X181955447Y-107481714D01*
X181955447Y-106862666D01*
%TO.C,R7*%
X82078533Y-84272380D02*
X81745200Y-83796190D01*
X81507104Y-84272380D02*
X81507104Y-83272380D01*
X81888057Y-83272380D01*
X81983295Y-83320000D01*
X82030914Y-83367619D01*
X82078533Y-83462857D01*
X82078533Y-83605714D01*
X82030914Y-83700952D01*
X81983295Y-83748571D01*
X81888057Y-83796190D01*
X81507104Y-83796190D01*
X82411866Y-83272380D02*
X83078533Y-83272380D01*
X82649961Y-84272380D01*
X81199123Y-85796380D02*
X80627695Y-85796380D01*
X80913409Y-85796380D02*
X80913409Y-84796380D01*
X80818171Y-84939238D01*
X80722933Y-85034476D01*
X80627695Y-85082095D01*
X81818171Y-84796380D02*
X81913409Y-84796380D01*
X82008647Y-84844000D01*
X82056266Y-84891619D01*
X82103885Y-84986857D01*
X82151504Y-85177333D01*
X82151504Y-85415428D01*
X82103885Y-85605904D01*
X82056266Y-85701142D01*
X82008647Y-85748761D01*
X81913409Y-85796380D01*
X81818171Y-85796380D01*
X81722933Y-85748761D01*
X81675314Y-85701142D01*
X81627695Y-85605904D01*
X81580076Y-85415428D01*
X81580076Y-85177333D01*
X81627695Y-84986857D01*
X81675314Y-84891619D01*
X81722933Y-84844000D01*
X81818171Y-84796380D01*
X82580076Y-85796380D02*
X82580076Y-84796380D01*
X83151504Y-85796380D02*
X82722933Y-85224952D01*
X83151504Y-84796380D02*
X82580076Y-85367809D01*
%TO.C,R10*%
X90035142Y-71392380D02*
X89701809Y-70916190D01*
X89463714Y-71392380D02*
X89463714Y-70392380D01*
X89844666Y-70392380D01*
X89939904Y-70440000D01*
X89987523Y-70487619D01*
X90035142Y-70582857D01*
X90035142Y-70725714D01*
X89987523Y-70820952D01*
X89939904Y-70868571D01*
X89844666Y-70916190D01*
X89463714Y-70916190D01*
X90987523Y-71392380D02*
X90416095Y-71392380D01*
X90701809Y-71392380D02*
X90701809Y-70392380D01*
X90606571Y-70535238D01*
X90511333Y-70630476D01*
X90416095Y-70678095D01*
X91606571Y-70392380D02*
X91701809Y-70392380D01*
X91797047Y-70440000D01*
X91844666Y-70487619D01*
X91892285Y-70582857D01*
X91939904Y-70773333D01*
X91939904Y-71011428D01*
X91892285Y-71201904D01*
X91844666Y-71297142D01*
X91797047Y-71344761D01*
X91701809Y-71392380D01*
X91606571Y-71392380D01*
X91511333Y-71344761D01*
X91463714Y-71297142D01*
X91416095Y-71201904D01*
X91368476Y-71011428D01*
X91368476Y-70773333D01*
X91416095Y-70582857D01*
X91463714Y-70487619D01*
X91511333Y-70440000D01*
X91606571Y-70392380D01*
%TO.C,Q1*%
X151731219Y-101390438D02*
X151683600Y-101485676D01*
X151588361Y-101580914D01*
X151445504Y-101723771D01*
X151397885Y-101819009D01*
X151397885Y-101914247D01*
X151635980Y-101866628D02*
X151588361Y-101961866D01*
X151493123Y-102057104D01*
X151302647Y-102104723D01*
X150969314Y-102104723D01*
X150778838Y-102057104D01*
X150683600Y-101961866D01*
X150635980Y-101866628D01*
X150635980Y-101676152D01*
X150683600Y-101580914D01*
X150778838Y-101485676D01*
X150969314Y-101438057D01*
X151302647Y-101438057D01*
X151493123Y-101485676D01*
X151588361Y-101580914D01*
X151635980Y-101676152D01*
X151635980Y-101866628D01*
X151635980Y-100485676D02*
X151635980Y-101057104D01*
X151635980Y-100771390D02*
X150635980Y-100771390D01*
X150778838Y-100866628D01*
X150874076Y-100961866D01*
X150921695Y-101057104D01*
%TO.C,R13*%
X81094342Y-101747580D02*
X80761009Y-101271390D01*
X80522914Y-101747580D02*
X80522914Y-100747580D01*
X80903866Y-100747580D01*
X80999104Y-100795200D01*
X81046723Y-100842819D01*
X81094342Y-100938057D01*
X81094342Y-101080914D01*
X81046723Y-101176152D01*
X80999104Y-101223771D01*
X80903866Y-101271390D01*
X80522914Y-101271390D01*
X82046723Y-101747580D02*
X81475295Y-101747580D01*
X81761009Y-101747580D02*
X81761009Y-100747580D01*
X81665771Y-100890438D01*
X81570533Y-100985676D01*
X81475295Y-101033295D01*
X82380057Y-100747580D02*
X82999104Y-100747580D01*
X82665771Y-101128533D01*
X82808628Y-101128533D01*
X82903866Y-101176152D01*
X82951485Y-101223771D01*
X82999104Y-101319009D01*
X82999104Y-101557104D01*
X82951485Y-101652342D01*
X82903866Y-101699961D01*
X82808628Y-101747580D01*
X82522914Y-101747580D01*
X82427676Y-101699961D01*
X82380057Y-101652342D01*
X80748285Y-102604914D02*
X80748285Y-103271580D01*
X80510190Y-102223961D02*
X80272095Y-102938247D01*
X80891142Y-102938247D01*
X81272095Y-103271580D02*
X81272095Y-102271580D01*
X81843523Y-103271580D02*
X81414952Y-102700152D01*
X81843523Y-102271580D02*
X81272095Y-102843009D01*
X82176857Y-102271580D02*
X82843523Y-102271580D01*
X82414952Y-103271580D01*
%TO.C,R6*%
X138060133Y-69618780D02*
X137726800Y-69142590D01*
X137488704Y-69618780D02*
X137488704Y-68618780D01*
X137869657Y-68618780D01*
X137964895Y-68666400D01*
X138012514Y-68714019D01*
X138060133Y-68809257D01*
X138060133Y-68952114D01*
X138012514Y-69047352D01*
X137964895Y-69094971D01*
X137869657Y-69142590D01*
X137488704Y-69142590D01*
X138917276Y-68618780D02*
X138726800Y-68618780D01*
X138631561Y-68666400D01*
X138583942Y-68714019D01*
X138488704Y-68856876D01*
X138441085Y-69047352D01*
X138441085Y-69428304D01*
X138488704Y-69523542D01*
X138536323Y-69571161D01*
X138631561Y-69618780D01*
X138822038Y-69618780D01*
X138917276Y-69571161D01*
X138964895Y-69523542D01*
X139012514Y-69428304D01*
X139012514Y-69190209D01*
X138964895Y-69094971D01*
X138917276Y-69047352D01*
X138822038Y-68999733D01*
X138631561Y-68999733D01*
X138536323Y-69047352D01*
X138488704Y-69094971D01*
X138441085Y-69190209D01*
X136441085Y-63178780D02*
X137060133Y-63178780D01*
X136726800Y-63559733D01*
X136869657Y-63559733D01*
X136964895Y-63607352D01*
X137012514Y-63654971D01*
X137060133Y-63750209D01*
X137060133Y-63988304D01*
X137012514Y-64083542D01*
X136964895Y-64131161D01*
X136869657Y-64178780D01*
X136583942Y-64178780D01*
X136488704Y-64131161D01*
X136441085Y-64083542D01*
X137393466Y-63178780D02*
X138012514Y-63178780D01*
X137679180Y-63559733D01*
X137822038Y-63559733D01*
X137917276Y-63607352D01*
X137964895Y-63654971D01*
X138012514Y-63750209D01*
X138012514Y-63988304D01*
X137964895Y-64083542D01*
X137917276Y-64131161D01*
X137822038Y-64178780D01*
X137536323Y-64178780D01*
X137441085Y-64131161D01*
X137393466Y-64083542D01*
X138631561Y-63178780D02*
X138726800Y-63178780D01*
X138822038Y-63226400D01*
X138869657Y-63274019D01*
X138917276Y-63369257D01*
X138964895Y-63559733D01*
X138964895Y-63797828D01*
X138917276Y-63988304D01*
X138869657Y-64083542D01*
X138822038Y-64131161D01*
X138726800Y-64178780D01*
X138631561Y-64178780D01*
X138536323Y-64131161D01*
X138488704Y-64083542D01*
X138441085Y-63988304D01*
X138393466Y-63797828D01*
X138393466Y-63559733D01*
X138441085Y-63369257D01*
X138488704Y-63274019D01*
X138536323Y-63226400D01*
X138631561Y-63178780D01*
X139964895Y-64178780D02*
X139631561Y-63702590D01*
X139393466Y-64178780D02*
X139393466Y-63178780D01*
X139774419Y-63178780D01*
X139869657Y-63226400D01*
X139917276Y-63274019D01*
X139964895Y-63369257D01*
X139964895Y-63512114D01*
X139917276Y-63607352D01*
X139869657Y-63654971D01*
X139774419Y-63702590D01*
X139393466Y-63702590D01*
%TO.C,R16*%
X90035142Y-86378380D02*
X89701809Y-85902190D01*
X89463714Y-86378380D02*
X89463714Y-85378380D01*
X89844666Y-85378380D01*
X89939904Y-85426000D01*
X89987523Y-85473619D01*
X90035142Y-85568857D01*
X90035142Y-85711714D01*
X89987523Y-85806952D01*
X89939904Y-85854571D01*
X89844666Y-85902190D01*
X89463714Y-85902190D01*
X90987523Y-86378380D02*
X90416095Y-86378380D01*
X90701809Y-86378380D02*
X90701809Y-85378380D01*
X90606571Y-85521238D01*
X90511333Y-85616476D01*
X90416095Y-85664095D01*
X91844666Y-85378380D02*
X91654190Y-85378380D01*
X91558952Y-85426000D01*
X91511333Y-85473619D01*
X91416095Y-85616476D01*
X91368476Y-85806952D01*
X91368476Y-86187904D01*
X91416095Y-86283142D01*
X91463714Y-86330761D01*
X91558952Y-86378380D01*
X91749428Y-86378380D01*
X91844666Y-86330761D01*
X91892285Y-86283142D01*
X91939904Y-86187904D01*
X91939904Y-85949809D01*
X91892285Y-85854571D01*
X91844666Y-85806952D01*
X91749428Y-85759333D01*
X91558952Y-85759333D01*
X91463714Y-85806952D01*
X91416095Y-85854571D01*
X91368476Y-85949809D01*
%TO.C,R12*%
X94811180Y-106560857D02*
X94334990Y-106894190D01*
X94811180Y-107132285D02*
X93811180Y-107132285D01*
X93811180Y-106751333D01*
X93858800Y-106656095D01*
X93906419Y-106608476D01*
X94001657Y-106560857D01*
X94144514Y-106560857D01*
X94239752Y-106608476D01*
X94287371Y-106656095D01*
X94334990Y-106751333D01*
X94334990Y-107132285D01*
X94811180Y-105608476D02*
X94811180Y-106179904D01*
X94811180Y-105894190D02*
X93811180Y-105894190D01*
X93954038Y-105989428D01*
X94049276Y-106084666D01*
X94096895Y-106179904D01*
X93906419Y-105227523D02*
X93858800Y-105179904D01*
X93811180Y-105084666D01*
X93811180Y-104846571D01*
X93858800Y-104751333D01*
X93906419Y-104703714D01*
X94001657Y-104656095D01*
X94096895Y-104656095D01*
X94239752Y-104703714D01*
X94811180Y-105275142D01*
X94811180Y-104656095D01*
%TO.C,R8*%
X90511333Y-78504380D02*
X90178000Y-78028190D01*
X89939904Y-78504380D02*
X89939904Y-77504380D01*
X90320857Y-77504380D01*
X90416095Y-77552000D01*
X90463714Y-77599619D01*
X90511333Y-77694857D01*
X90511333Y-77837714D01*
X90463714Y-77932952D01*
X90416095Y-77980571D01*
X90320857Y-78028190D01*
X89939904Y-78028190D01*
X91082761Y-77932952D02*
X90987523Y-77885333D01*
X90939904Y-77837714D01*
X90892285Y-77742476D01*
X90892285Y-77694857D01*
X90939904Y-77599619D01*
X90987523Y-77552000D01*
X91082761Y-77504380D01*
X91273238Y-77504380D01*
X91368476Y-77552000D01*
X91416095Y-77599619D01*
X91463714Y-77694857D01*
X91463714Y-77742476D01*
X91416095Y-77837714D01*
X91368476Y-77885333D01*
X91273238Y-77932952D01*
X91082761Y-77932952D01*
X90987523Y-77980571D01*
X90939904Y-78028190D01*
X90892285Y-78123428D01*
X90892285Y-78313904D01*
X90939904Y-78409142D01*
X90987523Y-78456761D01*
X91082761Y-78504380D01*
X91273238Y-78504380D01*
X91368476Y-78456761D01*
X91416095Y-78409142D01*
X91463714Y-78313904D01*
X91463714Y-78123428D01*
X91416095Y-78028190D01*
X91368476Y-77980571D01*
X91273238Y-77932952D01*
%TO.C,R9*%
X81621333Y-76652380D02*
X81288000Y-76176190D01*
X81049904Y-76652380D02*
X81049904Y-75652380D01*
X81430857Y-75652380D01*
X81526095Y-75700000D01*
X81573714Y-75747619D01*
X81621333Y-75842857D01*
X81621333Y-75985714D01*
X81573714Y-76080952D01*
X81526095Y-76128571D01*
X81430857Y-76176190D01*
X81049904Y-76176190D01*
X82097523Y-76652380D02*
X82288000Y-76652380D01*
X82383238Y-76604761D01*
X82430857Y-76557142D01*
X82526095Y-76414285D01*
X82573714Y-76223809D01*
X82573714Y-75842857D01*
X82526095Y-75747619D01*
X82478476Y-75700000D01*
X82383238Y-75652380D01*
X82192761Y-75652380D01*
X82097523Y-75700000D01*
X82049904Y-75747619D01*
X82002285Y-75842857D01*
X82002285Y-76080952D01*
X82049904Y-76176190D01*
X82097523Y-76223809D01*
X82192761Y-76271428D01*
X82383238Y-76271428D01*
X82478476Y-76223809D01*
X82526095Y-76176190D01*
X82573714Y-76080952D01*
X80995923Y-78176380D02*
X80424495Y-78176380D01*
X80710209Y-78176380D02*
X80710209Y-77176380D01*
X80614971Y-77319238D01*
X80519733Y-77414476D01*
X80424495Y-77462095D01*
X81614971Y-77176380D02*
X81710209Y-77176380D01*
X81805447Y-77224000D01*
X81853066Y-77271619D01*
X81900685Y-77366857D01*
X81948304Y-77557333D01*
X81948304Y-77795428D01*
X81900685Y-77985904D01*
X81853066Y-78081142D01*
X81805447Y-78128761D01*
X81710209Y-78176380D01*
X81614971Y-78176380D01*
X81519733Y-78128761D01*
X81472114Y-78081142D01*
X81424495Y-77985904D01*
X81376876Y-77795428D01*
X81376876Y-77557333D01*
X81424495Y-77366857D01*
X81472114Y-77271619D01*
X81519733Y-77224000D01*
X81614971Y-77176380D01*
X82376876Y-78176380D02*
X82376876Y-77176380D01*
X82948304Y-78176380D02*
X82519733Y-77604952D01*
X82948304Y-77176380D02*
X82376876Y-77747809D01*
%TO.C,J2*%
X143938666Y-114260380D02*
X143938666Y-114974666D01*
X143891047Y-115117523D01*
X143795809Y-115212761D01*
X143652952Y-115260380D01*
X143557714Y-115260380D01*
X144367238Y-114355619D02*
X144414857Y-114308000D01*
X144510095Y-114260380D01*
X144748190Y-114260380D01*
X144843428Y-114308000D01*
X144891047Y-114355619D01*
X144938666Y-114450857D01*
X144938666Y-114546095D01*
X144891047Y-114688952D01*
X144319619Y-115260380D01*
X144938666Y-115260380D01*
X143351523Y-113736380D02*
X143351523Y-112736380D01*
X143351523Y-113212571D02*
X143922952Y-113212571D01*
X143922952Y-113736380D02*
X143922952Y-112736380D01*
X144780095Y-113688761D02*
X144684857Y-113736380D01*
X144494380Y-113736380D01*
X144399142Y-113688761D01*
X144351523Y-113593523D01*
X144351523Y-113212571D01*
X144399142Y-113117333D01*
X144494380Y-113069714D01*
X144684857Y-113069714D01*
X144780095Y-113117333D01*
X144827714Y-113212571D01*
X144827714Y-113307809D01*
X144351523Y-113403047D01*
X145684857Y-113736380D02*
X145684857Y-113212571D01*
X145637238Y-113117333D01*
X145542000Y-113069714D01*
X145351523Y-113069714D01*
X145256285Y-113117333D01*
X145684857Y-113688761D02*
X145589619Y-113736380D01*
X145351523Y-113736380D01*
X145256285Y-113688761D01*
X145208666Y-113593523D01*
X145208666Y-113498285D01*
X145256285Y-113403047D01*
X145351523Y-113355428D01*
X145589619Y-113355428D01*
X145684857Y-113307809D01*
X146018190Y-113069714D02*
X146399142Y-113069714D01*
X146161047Y-112736380D02*
X146161047Y-113593523D01*
X146208666Y-113688761D01*
X146303904Y-113736380D01*
X146399142Y-113736380D01*
X147113428Y-113688761D02*
X147018190Y-113736380D01*
X146827714Y-113736380D01*
X146732476Y-113688761D01*
X146684857Y-113593523D01*
X146684857Y-113212571D01*
X146732476Y-113117333D01*
X146827714Y-113069714D01*
X147018190Y-113069714D01*
X147113428Y-113117333D01*
X147161047Y-113212571D01*
X147161047Y-113307809D01*
X146684857Y-113403047D01*
X147589619Y-113736380D02*
X147589619Y-113069714D01*
X147589619Y-113260190D02*
X147637238Y-113164952D01*
X147684857Y-113117333D01*
X147780095Y-113069714D01*
X147875333Y-113069714D01*
D13*
%TO.C,J4*%
X102488000Y-112716000D02*
X101728000Y-112716000D01*
X102488000Y-103658929D02*
X102488000Y-104056000D01*
X105028000Y-103658929D02*
X105028000Y-104056000D01*
X110108000Y-112716000D02*
X109348000Y-112716000D01*
X109348000Y-112716000D02*
X109348000Y-106716000D01*
X101728000Y-103658929D02*
X101728000Y-104056000D01*
X109568000Y-106716000D02*
X109568000Y-112716000D01*
X104268000Y-112716000D02*
X104268000Y-106716000D01*
X110048000Y-106716000D02*
X110048000Y-112716000D01*
X109448000Y-106716000D02*
X109448000Y-112716000D01*
X107568000Y-106716000D02*
X107568000Y-112716000D01*
X106808000Y-103658929D02*
X106808000Y-104056000D01*
X110108000Y-106716000D02*
X110108000Y-112716000D01*
X109808000Y-106716000D02*
X109808000Y-112716000D01*
X100778000Y-104056000D02*
X100778000Y-106716000D01*
X111058000Y-106716000D02*
X111058000Y-104056000D01*
X100778000Y-106716000D02*
X111058000Y-106716000D01*
X105028000Y-112716000D02*
X104268000Y-112716000D01*
X110998000Y-101346000D02*
X110998000Y-102616000D01*
X109348000Y-103726000D02*
X109348000Y-104056000D01*
X109688000Y-106716000D02*
X109688000Y-112716000D01*
X104268000Y-103658929D02*
X104268000Y-104056000D01*
X110108000Y-103726000D02*
X110108000Y-104056000D01*
X107568000Y-112716000D02*
X106808000Y-112716000D01*
X102488000Y-106716000D02*
X102488000Y-112716000D01*
X106808000Y-112716000D02*
X106808000Y-106716000D01*
X105028000Y-106716000D02*
X105028000Y-112716000D01*
X103378000Y-104056000D02*
X103378000Y-106716000D01*
X101728000Y-112716000D02*
X101728000Y-106716000D01*
X105918000Y-104056000D02*
X105918000Y-106716000D01*
X109728000Y-101346000D02*
X110998000Y-101346000D01*
X108458000Y-104056000D02*
X108458000Y-106716000D01*
X109928000Y-106716000D02*
X109928000Y-112716000D01*
X107568000Y-103658929D02*
X107568000Y-104056000D01*
X111058000Y-104056000D02*
X100778000Y-104056000D01*
%TO.C,RV1*%
X150587018Y-80929991D02*
X150587018Y-71159991D01*
X144247018Y-71159991D02*
X150587018Y-71159991D01*
X144247018Y-80929991D02*
X144247018Y-71159991D01*
X144247018Y-80929991D02*
X150587018Y-80929991D01*
%TO.C,C1*%
X134254000Y-100703000D02*
X134254000Y-98576000D01*
X134414000Y-100731000D02*
X134414000Y-98576000D01*
X133493000Y-96496000D02*
X133493000Y-94620000D01*
X132213000Y-99370000D02*
X132213000Y-95702000D01*
X132853000Y-100052000D02*
X132853000Y-98576000D01*
X134694000Y-100760000D02*
X134694000Y-94312000D01*
X133013000Y-96496000D02*
X133013000Y-94900000D01*
X134814000Y-100766000D02*
X134814000Y-94306000D01*
X134093000Y-100667000D02*
X134093000Y-98576000D01*
X132813000Y-100020000D02*
X132813000Y-98576000D01*
X133653000Y-100522000D02*
X133653000Y-98576000D01*
X133653000Y-96496000D02*
X133653000Y-94550000D01*
X134454000Y-100737000D02*
X134454000Y-98576000D01*
X134013000Y-96496000D02*
X134013000Y-94426000D01*
X133973000Y-100634000D02*
X133973000Y-98576000D01*
X133733000Y-96496000D02*
X133733000Y-94518000D01*
X132693000Y-96496000D02*
X132693000Y-95156000D01*
X134454000Y-96496000D02*
X134454000Y-94335000D01*
X133293000Y-100348000D02*
X133293000Y-98576000D01*
X133573000Y-96496000D02*
X133573000Y-94584000D01*
X131933000Y-98886000D02*
X131933000Y-96186000D01*
X134894000Y-100766000D02*
X134894000Y-94306000D01*
X132733000Y-99952000D02*
X132733000Y-98576000D01*
X132493000Y-99718000D02*
X132493000Y-95354000D01*
X134053000Y-100657000D02*
X134053000Y-98576000D01*
X134214000Y-96496000D02*
X134214000Y-94377000D01*
X138394241Y-99375000D02*
X137764241Y-99375000D01*
X134734000Y-100763000D02*
X134734000Y-94309000D01*
X133453000Y-96496000D02*
X133453000Y-94640000D01*
X133613000Y-100506000D02*
X133613000Y-98576000D01*
X133493000Y-100452000D02*
X133493000Y-98576000D01*
X132773000Y-99986000D02*
X132773000Y-98576000D01*
X133333000Y-96496000D02*
X133333000Y-94702000D01*
X133053000Y-100200000D02*
X133053000Y-98576000D01*
X134534000Y-96496000D02*
X134534000Y-94325000D01*
X134133000Y-100677000D02*
X134133000Y-98576000D01*
X132573000Y-99801000D02*
X132573000Y-95271000D01*
X134494000Y-96496000D02*
X134494000Y-94330000D01*
X132973000Y-100143000D02*
X132973000Y-98576000D01*
X132893000Y-96496000D02*
X132893000Y-94988000D01*
X134294000Y-100711000D02*
X134294000Y-98576000D01*
X133693000Y-96496000D02*
X133693000Y-94534000D01*
X132773000Y-96496000D02*
X132773000Y-95086000D01*
X133413000Y-96496000D02*
X133413000Y-94660000D01*
X133253000Y-100326000D02*
X133253000Y-98576000D01*
X131973000Y-98968000D02*
X131973000Y-96104000D01*
X133693000Y-100538000D02*
X133693000Y-98576000D01*
X133373000Y-96496000D02*
X133373000Y-94680000D01*
X138079241Y-99690000D02*
X138079241Y-99060000D01*
X133773000Y-100569000D02*
X133773000Y-98576000D01*
X132653000Y-99879000D02*
X132653000Y-98576000D01*
X133573000Y-100488000D02*
X133573000Y-98576000D01*
X133533000Y-96496000D02*
X133533000Y-94602000D01*
X133173000Y-100278000D02*
X133173000Y-98576000D01*
X133773000Y-96496000D02*
X133773000Y-94503000D01*
X134334000Y-100718000D02*
X134334000Y-98576000D01*
X133933000Y-100622000D02*
X133933000Y-98576000D01*
X134334000Y-96496000D02*
X134334000Y-94354000D01*
X134053000Y-96496000D02*
X134053000Y-94415000D01*
X134494000Y-100742000D02*
X134494000Y-98576000D01*
X132733000Y-96496000D02*
X132733000Y-95120000D01*
X131653000Y-97938000D02*
X131653000Y-97134000D01*
X132933000Y-96496000D02*
X132933000Y-94958000D01*
X134614000Y-100754000D02*
X134614000Y-98576000D01*
X134534000Y-100747000D02*
X134534000Y-98576000D01*
X134173000Y-100686000D02*
X134173000Y-98576000D01*
X132373000Y-99580000D02*
X132373000Y-95492000D01*
X133413000Y-100412000D02*
X133413000Y-98576000D01*
X133333000Y-100370000D02*
X133333000Y-98576000D01*
X134614000Y-96496000D02*
X134614000Y-94318000D01*
X131773000Y-98476000D02*
X131773000Y-96596000D01*
X132013000Y-99045000D02*
X132013000Y-96027000D01*
X132613000Y-96496000D02*
X132613000Y-95231000D01*
X132173000Y-99312000D02*
X132173000Y-95760000D01*
X133893000Y-96496000D02*
X133893000Y-94462000D01*
X133053000Y-96496000D02*
X133053000Y-94872000D01*
X133013000Y-100172000D02*
X133013000Y-98576000D01*
X134374000Y-96496000D02*
X134374000Y-94347000D01*
X134374000Y-100725000D02*
X134374000Y-98576000D01*
X132853000Y-96496000D02*
X132853000Y-95020000D01*
X134414000Y-96496000D02*
X134414000Y-94341000D01*
X133853000Y-100597000D02*
X133853000Y-98576000D01*
X131813000Y-98595000D02*
X131813000Y-96477000D01*
X133293000Y-96496000D02*
X133293000Y-94724000D01*
X134013000Y-100646000D02*
X134013000Y-98576000D01*
X133973000Y-96496000D02*
X133973000Y-94438000D01*
X131893000Y-98798000D02*
X131893000Y-96274000D01*
X132413000Y-99628000D02*
X132413000Y-95444000D01*
X133893000Y-100610000D02*
X133893000Y-98576000D01*
X133133000Y-96496000D02*
X133133000Y-94820000D01*
X134133000Y-96496000D02*
X134133000Y-94395000D01*
X132973000Y-96496000D02*
X132973000Y-94929000D01*
X132653000Y-96496000D02*
X132653000Y-95193000D01*
X134574000Y-100751000D02*
X134574000Y-98576000D01*
X132333000Y-99531000D02*
X132333000Y-95541000D01*
X132693000Y-99916000D02*
X132693000Y-98576000D01*
X133093000Y-96496000D02*
X133093000Y-94846000D01*
X132293000Y-99480000D02*
X132293000Y-95592000D01*
X134294000Y-96496000D02*
X134294000Y-94361000D01*
X131853000Y-98701000D02*
X131853000Y-96371000D01*
X133813000Y-96496000D02*
X133813000Y-94489000D01*
X131693000Y-98169000D02*
X131693000Y-96903000D01*
X133533000Y-100470000D02*
X133533000Y-98576000D01*
X133613000Y-96496000D02*
X133613000Y-94566000D01*
X132133000Y-99250000D02*
X132133000Y-95822000D01*
X134214000Y-100695000D02*
X134214000Y-98576000D01*
X131733000Y-98338000D02*
X131733000Y-96734000D01*
X134654000Y-96496000D02*
X134654000Y-94314000D01*
X132533000Y-99760000D02*
X132533000Y-95312000D01*
X133933000Y-96496000D02*
X133933000Y-94450000D01*
X134654000Y-100758000D02*
X134654000Y-98576000D01*
X132253000Y-99426000D02*
X132253000Y-95646000D01*
X134173000Y-96496000D02*
X134173000Y-94386000D01*
X133213000Y-96496000D02*
X133213000Y-94770000D01*
X133173000Y-96496000D02*
X133173000Y-94794000D01*
X134854000Y-100766000D02*
X134854000Y-94306000D01*
X132933000Y-100114000D02*
X132933000Y-98576000D01*
X133373000Y-100392000D02*
X133373000Y-98576000D01*
X133093000Y-100226000D02*
X133093000Y-98576000D01*
X134774000Y-100764000D02*
X134774000Y-94308000D01*
X132093000Y-99186000D02*
X132093000Y-95886000D01*
X134574000Y-96496000D02*
X134574000Y-94321000D01*
X133453000Y-100432000D02*
X133453000Y-98576000D01*
X134254000Y-96496000D02*
X134254000Y-94369000D01*
X132053000Y-99117000D02*
X132053000Y-95955000D01*
X132893000Y-100084000D02*
X132893000Y-98576000D01*
X133213000Y-100302000D02*
X133213000Y-98576000D01*
X132813000Y-96496000D02*
X132813000Y-95052000D01*
X133813000Y-100583000D02*
X133813000Y-98576000D01*
X132453000Y-99673000D02*
X132453000Y-95399000D01*
X132613000Y-99841000D02*
X132613000Y-98576000D01*
X133733000Y-100554000D02*
X133733000Y-98576000D01*
X133133000Y-100252000D02*
X133133000Y-98576000D01*
X134093000Y-96496000D02*
X134093000Y-94405000D01*
X133853000Y-96496000D02*
X133853000Y-94475000D01*
X133253000Y-96496000D02*
X133253000Y-94746000D01*
X138164000Y-97536000D02*
G75*
G03*
X138164000Y-97536000I-3270000J0D01*
G01*
%TO.C,J1*%
X188832000Y-93544000D02*
X188882000Y-93544000D01*
X188632000Y-93044000D02*
X194032000Y-93044000D01*
X198832000Y-82694000D02*
X186232000Y-82694000D01*
X186932000Y-93544000D02*
X188832000Y-93544000D01*
X186232000Y-93044000D02*
X187182000Y-93044000D01*
X187182000Y-93044000D02*
X186932000Y-93544000D01*
X198832000Y-93544000D02*
X198832000Y-82694000D01*
X186232000Y-82694000D02*
X186232000Y-93044000D01*
X193732000Y-93544000D02*
X198832000Y-93544000D01*
X194032000Y-93044000D02*
X193732000Y-93544000D01*
X188882000Y-93544000D02*
X188632000Y-93044000D01*
%TO.C,R5*%
X127703664Y-65086400D02*
X126499536Y-65086400D01*
X127703664Y-67806400D02*
X126499536Y-67806400D01*
%TO.C,U1*%
X149547018Y-85653000D02*
X148037018Y-85653000D01*
X149547018Y-89354000D02*
X148037018Y-89354000D01*
X144906018Y-82383000D02*
X144906018Y-92623000D01*
X148037018Y-82383000D02*
X148037018Y-92623000D01*
X149547018Y-92623000D02*
X144906018Y-92623000D01*
X149547018Y-82383000D02*
X149547018Y-92623000D01*
X149547018Y-82383000D02*
X144906018Y-82383000D01*
%TO.C,R3*%
X182462000Y-113174864D02*
X182462000Y-111970736D01*
X179742000Y-113174864D02*
X179742000Y-111970736D01*
%TO.C,R14*%
X86058000Y-97732000D02*
X95298000Y-97732000D01*
X95298000Y-94292000D02*
X86058000Y-94292000D01*
X95988000Y-96012000D02*
X95298000Y-96012000D01*
X95298000Y-97732000D02*
X95298000Y-94292000D01*
X86058000Y-94292000D02*
X86058000Y-97732000D01*
X85368000Y-96012000D02*
X86058000Y-96012000D01*
%TO.C,R2*%
X166616800Y-77371200D02*
X163176800Y-77371200D01*
X163176800Y-86611200D02*
X166616800Y-86611200D01*
X166616800Y-86611200D02*
X166616800Y-77371200D01*
X163176800Y-77371200D02*
X163176800Y-86611200D01*
X164896800Y-87301200D02*
X164896800Y-86611200D01*
X164896800Y-76681200D02*
X164896800Y-77371200D01*
%TO.C,R1*%
X161126000Y-76512336D02*
X161126000Y-77716464D01*
X158406000Y-76512336D02*
X158406000Y-77716464D01*
%TO.C,R11*%
X92112000Y-101694064D02*
X92112000Y-100489936D01*
X94832000Y-101694064D02*
X94832000Y-100489936D01*
%TO.C,D1*%
X141224000Y-79810000D02*
X141224000Y-77400000D01*
X142694000Y-81280000D02*
G75*
G03*
X142694000Y-81280000I-1470000J0D01*
G01*
%TO.C,C2*%
X162028000Y-61329200D02*
X159867000Y-61329200D01*
X162028000Y-63050200D02*
X160652000Y-63050200D01*
X166129000Y-61930200D02*
X164108000Y-61930200D01*
X165222000Y-57703959D02*
X164592000Y-57703959D01*
X165552000Y-62970200D02*
X164108000Y-62970200D01*
X165063000Y-63450200D02*
X161073000Y-63450200D01*
X166298000Y-60889200D02*
X159838000Y-60889200D01*
X162028000Y-62410200D02*
X160212000Y-62410200D01*
X166070000Y-62090200D02*
X164108000Y-62090200D01*
X164907000Y-57388959D02*
X164907000Y-58018959D01*
X166178000Y-61770200D02*
X164108000Y-61770200D01*
X164008000Y-64010200D02*
X162128000Y-64010200D01*
X165675000Y-62810200D02*
X164108000Y-62810200D01*
X162028000Y-61249200D02*
X159857000Y-61249200D01*
X166235000Y-61529200D02*
X164108000Y-61529200D01*
X164718000Y-63690200D02*
X161418000Y-63690200D01*
X166283000Y-61209200D02*
X164108000Y-61209200D01*
X165205000Y-63330200D02*
X160931000Y-63330200D01*
X162028000Y-61129200D02*
X159846000Y-61129200D01*
X162028000Y-62810200D02*
X160461000Y-62810200D01*
X162028000Y-61730200D02*
X159947000Y-61730200D01*
X166227000Y-61569200D02*
X164108000Y-61569200D01*
X162028000Y-62850200D02*
X160490000Y-62850200D01*
X165448000Y-63090200D02*
X164108000Y-63090200D01*
X166250000Y-61449200D02*
X164108000Y-61449200D01*
X162028000Y-63130200D02*
X160725000Y-63130200D01*
X162028000Y-62290200D02*
X160152000Y-62290200D01*
X165758000Y-62690200D02*
X164108000Y-62690200D01*
X166002000Y-62250200D02*
X164108000Y-62250200D01*
X162028000Y-62450200D02*
X160234000Y-62450200D01*
X162028000Y-61850200D02*
X159982000Y-61850200D01*
X164330000Y-63890200D02*
X161806000Y-63890200D01*
X162028000Y-63170200D02*
X160763000Y-63170200D01*
X166166000Y-61810200D02*
X164108000Y-61810200D01*
X166298000Y-60969200D02*
X159838000Y-60969200D01*
X166020000Y-62210200D02*
X164108000Y-62210200D01*
X162028000Y-61970200D02*
X160021000Y-61970200D01*
X166154000Y-61850200D02*
X164108000Y-61850200D01*
X162028000Y-62530200D02*
X160278000Y-62530200D01*
X162028000Y-62330200D02*
X160172000Y-62330200D01*
X162028000Y-62490200D02*
X160256000Y-62490200D01*
X162028000Y-61409200D02*
X159879000Y-61409200D01*
X165902000Y-62450200D02*
X164108000Y-62450200D01*
X162028000Y-62890200D02*
X160520000Y-62890200D01*
X162028000Y-61810200D02*
X159970000Y-61810200D01*
X162028000Y-61489200D02*
X159893000Y-61489200D01*
X162028000Y-61289200D02*
X159862000Y-61289200D01*
X162028000Y-61529200D02*
X159901000Y-61529200D01*
X165616000Y-62890200D02*
X164108000Y-62890200D01*
X166189000Y-61730200D02*
X164108000Y-61730200D01*
X162028000Y-61169200D02*
X159850000Y-61169200D01*
X165704000Y-62770200D02*
X164108000Y-62770200D01*
X165012000Y-63490200D02*
X161124000Y-63490200D01*
X162028000Y-61449200D02*
X159886000Y-61449200D01*
X163701000Y-64090200D02*
X162435000Y-64090200D01*
X162028000Y-61770200D02*
X159958000Y-61770200D01*
X166086000Y-62050200D02*
X164108000Y-62050200D01*
X164127000Y-63970200D02*
X162009000Y-63970200D01*
X165292000Y-63250200D02*
X160844000Y-63250200D01*
X162028000Y-62650200D02*
X160352000Y-62650200D01*
X163870000Y-64050200D02*
X162266000Y-64050200D01*
X162028000Y-62010200D02*
X160035000Y-62010200D01*
X162028000Y-62690200D02*
X160378000Y-62690200D01*
X166298000Y-60929200D02*
X159838000Y-60929200D01*
X162028000Y-61690200D02*
X159937000Y-61690200D01*
X166290000Y-61129200D02*
X164108000Y-61129200D01*
X165984000Y-62290200D02*
X164108000Y-62290200D01*
X165964000Y-62330200D02*
X164108000Y-62330200D01*
X162028000Y-62730200D02*
X160404000Y-62730200D01*
X162028000Y-61890200D02*
X159994000Y-61890200D01*
X164844000Y-63610200D02*
X161292000Y-63610200D01*
X162028000Y-62570200D02*
X160302000Y-62570200D01*
X165411000Y-63130200D02*
X164108000Y-63130200D01*
X166209000Y-61650200D02*
X164108000Y-61650200D01*
X165784000Y-62650200D02*
X164108000Y-62650200D01*
X166054000Y-62130200D02*
X164108000Y-62130200D01*
X166263000Y-61369200D02*
X164108000Y-61369200D01*
X164577000Y-63770200D02*
X161559000Y-63770200D01*
X166218000Y-61610200D02*
X164108000Y-61610200D01*
X166038000Y-62170200D02*
X164108000Y-62170200D01*
X165112000Y-63410200D02*
X161024000Y-63410200D01*
X165250000Y-63290200D02*
X160886000Y-63290200D01*
X166292000Y-61089200D02*
X159844000Y-61089200D01*
X166243000Y-61489200D02*
X164108000Y-61489200D01*
X164233000Y-63930200D02*
X161903000Y-63930200D01*
X163470000Y-64130200D02*
X162666000Y-64130200D01*
X165333000Y-63210200D02*
X160803000Y-63210200D01*
X162028000Y-62250200D02*
X160134000Y-62250200D01*
X162028000Y-62610200D02*
X160326000Y-62610200D01*
X165373000Y-63170200D02*
X164108000Y-63170200D01*
X162028000Y-63010200D02*
X160618000Y-63010200D01*
X165646000Y-62850200D02*
X164108000Y-62850200D01*
X166279000Y-61249200D02*
X164108000Y-61249200D01*
X166257000Y-61409200D02*
X164108000Y-61409200D01*
X166142000Y-61890200D02*
X164108000Y-61890200D01*
X164782000Y-63650200D02*
X161354000Y-63650200D01*
X165944000Y-62370200D02*
X164108000Y-62370200D01*
X164958000Y-63530200D02*
X161178000Y-63530200D01*
X166115000Y-61970200D02*
X164108000Y-61970200D01*
X165732000Y-62730200D02*
X164108000Y-62730200D01*
X162028000Y-63090200D02*
X160688000Y-63090200D01*
X162028000Y-62370200D02*
X160192000Y-62370200D01*
X162028000Y-62130200D02*
X160082000Y-62130200D01*
X162028000Y-61569200D02*
X159909000Y-61569200D01*
X165810000Y-62610200D02*
X164108000Y-62610200D01*
X162028000Y-62930200D02*
X160552000Y-62930200D01*
X165924000Y-62410200D02*
X164108000Y-62410200D01*
X164649000Y-63730200D02*
X161487000Y-63730200D01*
X166295000Y-61049200D02*
X159841000Y-61049200D01*
X164418000Y-63850200D02*
X161718000Y-63850200D01*
X166274000Y-61289200D02*
X164108000Y-61289200D01*
X166269000Y-61329200D02*
X164108000Y-61329200D01*
X162028000Y-62970200D02*
X160584000Y-62970200D01*
X165160000Y-63370200D02*
X160976000Y-63370200D01*
X162028000Y-62090200D02*
X160066000Y-62090200D01*
X164902000Y-63570200D02*
X161234000Y-63570200D01*
X162028000Y-62170200D02*
X160098000Y-62170200D01*
X162028000Y-61369200D02*
X159873000Y-61369200D01*
X162028000Y-62210200D02*
X160116000Y-62210200D01*
X165484000Y-63050200D02*
X164108000Y-63050200D01*
X162028000Y-61209200D02*
X159853000Y-61209200D01*
X165858000Y-62530200D02*
X164108000Y-62530200D01*
X165518000Y-63010200D02*
X164108000Y-63010200D01*
X165880000Y-62490200D02*
X164108000Y-62490200D01*
X162028000Y-61930200D02*
X160007000Y-61930200D01*
X165584000Y-62930200D02*
X164108000Y-62930200D01*
X162028000Y-62770200D02*
X160432000Y-62770200D01*
X166286000Y-61169200D02*
X164108000Y-61169200D01*
X165834000Y-62570200D02*
X164108000Y-62570200D01*
X166199000Y-61690200D02*
X164108000Y-61690200D01*
X164500000Y-63810200D02*
X161636000Y-63810200D01*
X166101000Y-62010200D02*
X164108000Y-62010200D01*
X162028000Y-61610200D02*
X159918000Y-61610200D01*
X162028000Y-62050200D02*
X160050000Y-62050200D01*
X166296000Y-61009200D02*
X159840000Y-61009200D01*
X162028000Y-61650200D02*
X159927000Y-61650200D01*
X166338000Y-60889200D02*
G75*
G03*
X166338000Y-60889200I-3270000J0D01*
G01*
%TO.C,R15*%
X85249936Y-90842000D02*
X86454064Y-90842000D01*
X85249936Y-93562000D02*
X86454064Y-93562000D01*
%TO.C,A1*%
X134847018Y-76298991D02*
X137387018Y-76298991D01*
X96617018Y-91668991D02*
X140057018Y-91668991D01*
X134847018Y-76298991D02*
X134847018Y-73628991D01*
X140057018Y-91668991D02*
X140057018Y-73628991D01*
X134847018Y-76298991D02*
X99287018Y-76298991D01*
X99287018Y-76298991D02*
X99287018Y-73628991D01*
X96617018Y-73628991D02*
X96617018Y-91668991D01*
X137387018Y-88998991D02*
X99287018Y-88998991D01*
X137387018Y-76298991D02*
X137387018Y-73628991D01*
X99287018Y-88998991D02*
X99287018Y-91668991D01*
X140057018Y-73628991D02*
X137387018Y-73628991D01*
X137387018Y-88998991D02*
X137387018Y-91668991D01*
X134847018Y-73628991D02*
X96617018Y-73628991D01*
%TO.C,U2*%
X112495018Y-93256991D02*
X113825018Y-93256991D01*
X111225018Y-93256991D02*
X111225018Y-95916991D01*
X113825018Y-93256991D02*
X113825018Y-94586991D01*
X106085018Y-93256991D02*
X106085018Y-95916991D01*
X111225018Y-95916991D02*
X106085018Y-95916991D01*
X111225018Y-93256991D02*
X106085018Y-93256991D01*
%TO.C,U5*%
X154244800Y-64557600D02*
X152594800Y-64557600D01*
X157894800Y-69757600D02*
X157894800Y-64557600D01*
X152594800Y-69757600D02*
X157894800Y-69757600D01*
X152594800Y-64557600D02*
X152594800Y-69757600D01*
X157894800Y-64557600D02*
X156244800Y-64557600D01*
X154244800Y-64557600D02*
G75*
G03*
X156244800Y-64557600I1000000J0D01*
G01*
%TO.C,R4*%
X182836400Y-112316000D02*
X186276400Y-112316000D01*
X186276400Y-112316000D02*
X186276400Y-103076000D01*
X182836400Y-103076000D02*
X182836400Y-112316000D01*
X184556400Y-113006000D02*
X184556400Y-112316000D01*
X184556400Y-102386000D02*
X184556400Y-103076000D01*
X186276400Y-103076000D02*
X182836400Y-103076000D01*
%TO.C,R7*%
X85249936Y-85688000D02*
X86454064Y-85688000D01*
X85249936Y-82968000D02*
X86454064Y-82968000D01*
%TO.C,R10*%
X85368000Y-73660000D02*
X86058000Y-73660000D01*
X95298000Y-71940000D02*
X86058000Y-71940000D01*
X95988000Y-73660000D02*
X95298000Y-73660000D01*
X86058000Y-71940000D02*
X86058000Y-75380000D01*
X86058000Y-75380000D02*
X95298000Y-75380000D01*
X95298000Y-75380000D02*
X95298000Y-71940000D01*
%TO.C,Q1*%
X145542600Y-96175200D02*
X145542600Y-106415200D01*
X148673600Y-96175200D02*
X148673600Y-106415200D01*
X150183600Y-106415200D02*
X145542600Y-106415200D01*
X150183600Y-96175200D02*
X145542600Y-96175200D01*
X150183600Y-96175200D02*
X150183600Y-106415200D01*
X150183600Y-99445200D02*
X148673600Y-99445200D01*
X150183600Y-103146200D02*
X148673600Y-103146200D01*
%TO.C,R13*%
X85249936Y-98208000D02*
X86454064Y-98208000D01*
X85249936Y-100928000D02*
X86454064Y-100928000D01*
%TO.C,R6*%
X132916800Y-66446400D02*
X133606800Y-66446400D01*
X142846800Y-64726400D02*
X133606800Y-64726400D01*
X143536800Y-66446400D02*
X142846800Y-66446400D01*
X133606800Y-68166400D02*
X142846800Y-68166400D01*
X142846800Y-68166400D02*
X142846800Y-64726400D01*
X133606800Y-64726400D02*
X133606800Y-68166400D01*
%TO.C,R16*%
X95988000Y-88646000D02*
X95298000Y-88646000D01*
X95298000Y-86926000D02*
X86058000Y-86926000D01*
X86058000Y-90366000D02*
X95298000Y-90366000D01*
X85368000Y-88646000D02*
X86058000Y-88646000D01*
X86058000Y-86926000D02*
X86058000Y-90366000D01*
X95298000Y-90366000D02*
X95298000Y-86926000D01*
%TO.C,R12*%
X95358800Y-110538000D02*
X98798800Y-110538000D01*
X98798800Y-110538000D02*
X98798800Y-101298000D01*
X97078800Y-100608000D02*
X97078800Y-101298000D01*
X97078800Y-111228000D02*
X97078800Y-110538000D01*
X95358800Y-101298000D02*
X95358800Y-110538000D01*
X98798800Y-101298000D02*
X95358800Y-101298000D01*
%TO.C,R8*%
X95988000Y-80772000D02*
X95298000Y-80772000D01*
X86058000Y-79052000D02*
X86058000Y-82492000D01*
X95298000Y-82492000D02*
X95298000Y-79052000D01*
X86058000Y-82492000D02*
X95298000Y-82492000D01*
X85368000Y-80772000D02*
X86058000Y-80772000D01*
X95298000Y-79052000D02*
X86058000Y-79052000D01*
%TO.C,R9*%
X85249936Y-75856000D02*
X86454064Y-75856000D01*
X85249936Y-78576000D02*
X86454064Y-78576000D01*
%TO.C,J2*%
X130738000Y-105062000D02*
X131238000Y-104812000D01*
X131238000Y-102412000D02*
X131238000Y-103362000D01*
X131238000Y-103362000D02*
X130738000Y-103112000D01*
X130738000Y-115012000D02*
X141588000Y-115012000D01*
X131238000Y-104812000D02*
X131238000Y-110212000D01*
X141588000Y-115012000D02*
X141588000Y-102412000D01*
X130738000Y-103112000D02*
X130738000Y-105012000D01*
X130738000Y-109912000D02*
X130738000Y-115012000D01*
X141588000Y-102412000D02*
X131238000Y-102412000D01*
X131238000Y-110212000D02*
X130738000Y-109912000D01*
X130738000Y-105012000D02*
X130738000Y-105062000D01*
%TD*%
M02*
