%TF.GenerationSoftware,KiCad,Pcbnew,(6.0.5)*%
%TF.CreationDate,2022-05-15T12:42:04+02:00*%
%TF.ProjectId,pid_controller,7069645f-636f-46e7-9472-6f6c6c65722e,1.0*%
%TF.SameCoordinates,Original*%
%TF.FileFunction,Soldermask,Bot*%
%TF.FilePolarity,Negative*%
%FSLAX46Y46*%
G04 Gerber Fmt 4.6, Leading zero omitted, Abs format (unit mm)*
G04 Created by KiCad (PCBNEW (6.0.5)) date 2022-05-15 12:42:04*
%MOMM*%
%LPD*%
G01*
G04 APERTURE LIST*
G04 Aperture macros list*
%AMRoundRect*
0 Rectangle with rounded corners*
0 $1 Rounding radius*
0 $2 $3 $4 $5 $6 $7 $8 $9 X,Y pos of 4 corners*
0 Add a 4 corners polygon primitive as box body*
4,1,4,$2,$3,$4,$5,$6,$7,$8,$9,$2,$3,0*
0 Add four circle primitives for the rounded corners*
1,1,$1+$1,$2,$3*
1,1,$1+$1,$4,$5*
1,1,$1+$1,$6,$7*
1,1,$1+$1,$8,$9*
0 Add four rect primitives between the rounded corners*
20,1,$1+$1,$2,$3,$4,$5,0*
20,1,$1+$1,$4,$5,$6,$7,0*
20,1,$1+$1,$6,$7,$8,$9,0*
20,1,$1+$1,$8,$9,$2,$3,0*%
G04 Aperture macros list end*
%ADD10R,1.700000X1.700000*%
%ADD11O,1.700000X1.700000*%
%ADD12C,1.440000*%
%ADD13R,1.600000X1.600000*%
%ADD14C,1.600000*%
%ADD15R,3.960000X1.980000*%
%ADD16O,3.960000X1.980000*%
%ADD17R,2.000000X1.905000*%
%ADD18O,2.000000X1.905000*%
%ADD19O,1.600000X1.600000*%
%ADD20C,7.000000*%
%ADD21R,1.800000X1.800000*%
%ADD22O,1.800000X1.800000*%
%ADD23R,1.980000X3.960000*%
%ADD24O,1.980000X3.960000*%
%ADD25RoundRect,0.150000X0.150000X-0.825000X0.150000X0.825000X-0.150000X0.825000X-0.150000X-0.825000X0*%
%ADD26R,4.600000X1.100000*%
%ADD27R,9.400000X10.800000*%
%ADD28R,3.900000X6.000000*%
%ADD29C,3.000000*%
%ADD30R,1.800000X2.600000*%
%ADD31O,1.800000X2.600000*%
%ADD32RoundRect,0.250001X0.462499X1.074999X-0.462499X1.074999X-0.462499X-1.074999X0.462499X-1.074999X0*%
G04 APERTURE END LIST*
D10*
%TO.C,J4*%
X109728000Y-102616000D03*
D11*
X107188000Y-102616000D03*
X104648000Y-102616000D03*
X102108000Y-102616000D03*
%TD*%
D12*
%TO.C,RV1*%
X146277018Y-73504991D03*
X146277018Y-76044991D03*
X146277018Y-78584991D03*
%TD*%
D13*
%TO.C,C1*%
X136144000Y-97536000D03*
D14*
X133644000Y-97536000D03*
%TD*%
D15*
%TO.C,J1*%
X192532000Y-85344000D03*
D16*
X192532000Y-90344000D03*
%TD*%
D17*
%TO.C,U1*%
X146277018Y-84963000D03*
D18*
X146277018Y-87503000D03*
X146277018Y-90043000D03*
%TD*%
D14*
%TO.C,R14*%
X84328000Y-96012000D03*
D19*
X97028000Y-96012000D03*
%TD*%
D14*
%TO.C,R2*%
X164896800Y-75641200D03*
D19*
X164896800Y-88341200D03*
%TD*%
D20*
%TO.C,Hole3*%
X193040000Y-109220000D03*
%TD*%
D21*
%TO.C,D1*%
X141224000Y-76200000D03*
D22*
X141224000Y-81280000D03*
%TD*%
D13*
%TO.C,C2*%
X163068000Y-59639200D03*
D14*
X163068000Y-62139200D03*
%TD*%
D20*
%TO.C,Hole2*%
X88540000Y-109220000D03*
%TD*%
%TO.C,Hole4*%
X193040000Y-60960000D03*
%TD*%
D13*
%TO.C,A1*%
X136117018Y-75028991D03*
D19*
X133577018Y-75028991D03*
X131037018Y-75028991D03*
X128497018Y-75028991D03*
X125957018Y-75028991D03*
X123417018Y-75028991D03*
X120877018Y-75028991D03*
X118337018Y-75028991D03*
X115797018Y-75028991D03*
X113257018Y-75028991D03*
X110717018Y-75028991D03*
X108177018Y-75028991D03*
X105637018Y-75028991D03*
X103097018Y-75028991D03*
X100557018Y-75028991D03*
X100557018Y-90268991D03*
X103097018Y-90268991D03*
X105637018Y-90268991D03*
X108177018Y-90268991D03*
X110717018Y-90268991D03*
X113257018Y-90268991D03*
X115797018Y-90268991D03*
X118337018Y-90268991D03*
X120877018Y-90268991D03*
X123417018Y-90268991D03*
X125957018Y-90268991D03*
X128497018Y-90268991D03*
X131037018Y-90268991D03*
X133577018Y-90268991D03*
X136117018Y-90268991D03*
%TD*%
D10*
%TO.C,U2*%
X112495018Y-94586991D03*
D11*
X109955018Y-94586991D03*
X107415018Y-94586991D03*
%TD*%
D13*
%TO.C,U5*%
X151434800Y-65887600D03*
D19*
X151434800Y-68427600D03*
X159054800Y-68427600D03*
X159054800Y-65887600D03*
%TD*%
D14*
%TO.C,R4*%
X184556400Y-114046000D03*
D19*
X184556400Y-101346000D03*
%TD*%
D14*
%TO.C,R10*%
X84328000Y-73660000D03*
D19*
X97028000Y-73660000D03*
%TD*%
D17*
%TO.C,Q1*%
X146913600Y-98755200D03*
D18*
X146913600Y-101295200D03*
X146913600Y-103835200D03*
%TD*%
D14*
%TO.C,R6*%
X144576800Y-66446400D03*
D19*
X131876800Y-66446400D03*
%TD*%
D20*
%TO.C,Hole1*%
X88540000Y-63500000D03*
%TD*%
D14*
%TO.C,R16*%
X84328000Y-88646000D03*
D19*
X97028000Y-88646000D03*
%TD*%
D14*
%TO.C,R12*%
X97078800Y-112268000D03*
D19*
X97078800Y-99568000D03*
%TD*%
D14*
%TO.C,R8*%
X84328000Y-80772000D03*
D19*
X97028000Y-80772000D03*
%TD*%
D23*
%TO.C,J2*%
X138938000Y-108712000D03*
D24*
X133938000Y-108712000D03*
%TD*%
D25*
%TO.C,U4*%
X123698000Y-107377000D03*
X122428000Y-107377000D03*
X121158000Y-107377000D03*
X119888000Y-107377000D03*
X119888000Y-102427000D03*
X121158000Y-102427000D03*
X122428000Y-102427000D03*
X123698000Y-102427000D03*
%TD*%
D26*
%TO.C,Q2*%
X157343800Y-111556800D03*
D27*
X166493800Y-109016800D03*
D26*
X157343800Y-106476800D03*
%TD*%
D28*
%TO.C,U3*%
X181347600Y-94518000D03*
X172313600Y-94518000D03*
X181347600Y-65786000D03*
X172567600Y-65786000D03*
%TD*%
D29*
%TO.C,DS1*%
X154901900Y-91503500D03*
X154901900Y-60502800D03*
X79902800Y-60502800D03*
X79903320Y-91503500D03*
D30*
X149402800Y-60502800D03*
D31*
X146862800Y-60502800D03*
X144322800Y-60502800D03*
X141782800Y-60502800D03*
X139242800Y-60502800D03*
X136702800Y-60502800D03*
X134162800Y-60502800D03*
X131622800Y-60502800D03*
X129082800Y-60502800D03*
X126542800Y-60502800D03*
X124002800Y-60502800D03*
X121462800Y-60502800D03*
X118922800Y-60502800D03*
X116382800Y-60502800D03*
X113842800Y-60502800D03*
X111302800Y-60502800D03*
%TD*%
D32*
%TO.C,R17*%
X166079500Y-67564000D03*
X163104500Y-67564000D03*
%TD*%
M02*
