%TF.GenerationSoftware,KiCad,Pcbnew,(6.0.5)*%
%TF.CreationDate,2022-05-15T12:42:04+02:00*%
%TF.ProjectId,pid_controller,7069645f-636f-46e7-9472-6f6c6c65722e,1.0*%
%TF.SameCoordinates,Original*%
%TF.FileFunction,Copper,L2,Bot*%
%TF.FilePolarity,Positive*%
%FSLAX46Y46*%
G04 Gerber Fmt 4.6, Leading zero omitted, Abs format (unit mm)*
G04 Created by KiCad (PCBNEW (6.0.5)) date 2022-05-15 12:42:04*
%MOMM*%
%LPD*%
G01*
G04 APERTURE LIST*
G04 Aperture macros list*
%AMRoundRect*
0 Rectangle with rounded corners*
0 $1 Rounding radius*
0 $2 $3 $4 $5 $6 $7 $8 $9 X,Y pos of 4 corners*
0 Add a 4 corners polygon primitive as box body*
4,1,4,$2,$3,$4,$5,$6,$7,$8,$9,$2,$3,0*
0 Add four circle primitives for the rounded corners*
1,1,$1+$1,$2,$3*
1,1,$1+$1,$4,$5*
1,1,$1+$1,$6,$7*
1,1,$1+$1,$8,$9*
0 Add four rect primitives between the rounded corners*
20,1,$1+$1,$2,$3,$4,$5,0*
20,1,$1+$1,$4,$5,$6,$7,0*
20,1,$1+$1,$6,$7,$8,$9,0*
20,1,$1+$1,$8,$9,$2,$3,0*%
G04 Aperture macros list end*
%ADD10C,0.300000*%
%TA.AperFunction,NonConductor*%
%ADD11C,0.300000*%
%TD*%
%TA.AperFunction,ComponentPad*%
%ADD12R,1.700000X1.700000*%
%TD*%
%TA.AperFunction,ComponentPad*%
%ADD13O,1.700000X1.700000*%
%TD*%
%TA.AperFunction,ComponentPad*%
%ADD14C,1.440000*%
%TD*%
%TA.AperFunction,ComponentPad*%
%ADD15R,1.600000X1.600000*%
%TD*%
%TA.AperFunction,ComponentPad*%
%ADD16C,1.600000*%
%TD*%
%TA.AperFunction,ComponentPad*%
%ADD17R,3.960000X1.980000*%
%TD*%
%TA.AperFunction,ComponentPad*%
%ADD18O,3.960000X1.980000*%
%TD*%
%TA.AperFunction,ComponentPad*%
%ADD19R,2.000000X1.905000*%
%TD*%
%TA.AperFunction,ComponentPad*%
%ADD20O,2.000000X1.905000*%
%TD*%
%TA.AperFunction,ComponentPad*%
%ADD21O,1.600000X1.600000*%
%TD*%
%TA.AperFunction,ComponentPad*%
%ADD22C,7.000000*%
%TD*%
%TA.AperFunction,ComponentPad*%
%ADD23R,1.800000X1.800000*%
%TD*%
%TA.AperFunction,ComponentPad*%
%ADD24O,1.800000X1.800000*%
%TD*%
%TA.AperFunction,ComponentPad*%
%ADD25R,1.980000X3.960000*%
%TD*%
%TA.AperFunction,ComponentPad*%
%ADD26O,1.980000X3.960000*%
%TD*%
%TA.AperFunction,SMDPad,CuDef*%
%ADD27RoundRect,0.150000X0.150000X-0.825000X0.150000X0.825000X-0.150000X0.825000X-0.150000X-0.825000X0*%
%TD*%
%TA.AperFunction,SMDPad,CuDef*%
%ADD28R,4.600000X1.100000*%
%TD*%
%TA.AperFunction,SMDPad,CuDef*%
%ADD29R,9.400000X10.800000*%
%TD*%
%TA.AperFunction,ComponentPad*%
%ADD30R,3.900000X6.000000*%
%TD*%
%TA.AperFunction,ComponentPad*%
%ADD31C,3.000000*%
%TD*%
%TA.AperFunction,ComponentPad*%
%ADD32R,1.800000X2.600000*%
%TD*%
%TA.AperFunction,ComponentPad*%
%ADD33O,1.800000X2.600000*%
%TD*%
%TA.AperFunction,SMDPad,CuDef*%
%ADD34RoundRect,0.250001X0.462499X1.074999X-0.462499X1.074999X-0.462499X-1.074999X0.462499X-1.074999X0*%
%TD*%
%TA.AperFunction,Conductor*%
%ADD35C,0.750000*%
%TD*%
%TA.AperFunction,Conductor*%
%ADD36C,0.600000*%
%TD*%
%TA.AperFunction,Conductor*%
%ADD37C,2.000000*%
%TD*%
%TA.AperFunction,Conductor*%
%ADD38C,2.750000*%
%TD*%
G04 APERTURE END LIST*
D10*
D11*
X189180457Y-63403942D02*
X188037600Y-63403942D01*
X188609028Y-63975371D02*
X188609028Y-62832514D01*
X187394742Y-62618228D02*
X187323314Y-62546800D01*
X187180457Y-62475371D01*
X186823314Y-62475371D01*
X186680457Y-62546800D01*
X186609028Y-62618228D01*
X186537600Y-62761085D01*
X186537600Y-62903942D01*
X186609028Y-63118228D01*
X187466171Y-63975371D01*
X186537600Y-63975371D01*
X185251885Y-62975371D02*
X185251885Y-63975371D01*
X185609028Y-62403942D02*
X185966171Y-63475371D01*
X185037600Y-63475371D01*
X184680457Y-62475371D02*
X184180457Y-63975371D01*
X183680457Y-62475371D01*
D12*
%TO.P,J4,1,Pin_1*%
%TO.N,/A*%
X109728000Y-102616000D03*
D13*
%TO.P,J4,2,Pin_2*%
%TO.N,/ROTARY_DATA*%
X107188000Y-102616000D03*
%TO.P,J4,3,Pin_3*%
%TO.N,/ROTARY_SWITCH*%
X104648000Y-102616000D03*
%TO.P,J4,4,Pin_4*%
%TO.N,GND*%
X102108000Y-102616000D03*
%TD*%
D14*
%TO.P,RV1,1,1*%
%TO.N,+5V*%
X146277018Y-73504991D03*
%TO.P,RV1,2,2*%
%TO.N,Net-(DS1-Pad5)*%
X146277018Y-76044991D03*
%TO.P,RV1,3,3*%
%TO.N,GND*%
X146277018Y-78584991D03*
%TD*%
D15*
%TO.P,C1,1*%
%TO.N,+12V*%
X136144000Y-97536000D03*
D16*
%TO.P,C1,2*%
%TO.N,GND*%
X133644000Y-97536000D03*
%TD*%
D17*
%TO.P,J1,1,Pin_1*%
%TO.N,+12V*%
X192532000Y-85344000D03*
D18*
%TO.P,J1,2,Pin_2*%
%TO.N,GND*%
X192532000Y-90344000D03*
%TD*%
D19*
%TO.P,U1,1,IN*%
%TO.N,+12V*%
X146277018Y-84963000D03*
D20*
%TO.P,U1,2,GND*%
%TO.N,GND*%
X146277018Y-87503000D03*
%TO.P,U1,3,OUT*%
%TO.N,+5V*%
X146277018Y-90043000D03*
%TD*%
D16*
%TO.P,R14,1*%
%TO.N,+5V*%
X84328000Y-96012000D03*
D21*
%TO.P,R14,2*%
%TO.N,SCL*%
X97028000Y-96012000D03*
%TD*%
D16*
%TO.P,R2,1*%
%TO.N,+24V*%
X164896800Y-75641200D03*
D21*
%TO.P,R2,2*%
%TO.N,Net-(R1-Pad2)*%
X164896800Y-88341200D03*
%TD*%
D22*
%TO.P,Hole3,3*%
%TO.N,GND*%
X193040000Y-109220000D03*
%TD*%
D23*
%TO.P,D1,1,K*%
%TO.N,+5V*%
X141224000Y-76200000D03*
D24*
%TO.P,D1,2,A*%
%TO.N,Net-(A1-Pad27)*%
X141224000Y-81280000D03*
%TD*%
D15*
%TO.P,C2,1*%
%TO.N,+5V*%
X163068000Y-59639200D03*
D16*
%TO.P,C2,2*%
%TO.N,GND*%
X163068000Y-62139200D03*
%TD*%
D22*
%TO.P,Hole2,2*%
%TO.N,GND*%
X88540000Y-109220000D03*
%TD*%
%TO.P,Hole4,4*%
%TO.N,GND*%
X193040000Y-60960000D03*
%TD*%
D15*
%TO.P,A1,1,D1/TX*%
%TO.N,Net-(A1-Pad1)*%
X136117018Y-75028991D03*
D21*
%TO.P,A1,2,D0/RX*%
%TO.N,Net-(A1-Pad2)*%
X133577018Y-75028991D03*
%TO.P,A1,3,~RESET*%
%TO.N,Net-(A1-Pad3)*%
X131037018Y-75028991D03*
%TO.P,A1,4,GND*%
%TO.N,GND*%
X128497018Y-75028991D03*
%TO.P,A1,5,D2*%
%TO.N,EN*%
X125957018Y-75028991D03*
%TO.P,A1,6,D3*%
%TO.N,PWM_Signal*%
X123417018Y-75028991D03*
%TO.P,A1,7,D4*%
%TO.N,D4*%
X120877018Y-75028991D03*
%TO.P,A1,8,D5*%
%TO.N,D5*%
X118337018Y-75028991D03*
%TO.P,A1,9,D6*%
%TO.N,D6*%
X115797018Y-75028991D03*
%TO.P,A1,10,D7*%
%TO.N,D7*%
X113257018Y-75028991D03*
%TO.P,A1,11,D8*%
%TO.N,/A*%
X110717018Y-75028991D03*
%TO.P,A1,12,D9*%
%TO.N,/ROTARY_DATA*%
X108177018Y-75028991D03*
%TO.P,A1,13,D10*%
%TO.N,RS*%
X105637018Y-75028991D03*
%TO.P,A1,14,D11*%
%TO.N,/ROTARY_SWITCH*%
X103097018Y-75028991D03*
%TO.P,A1,15,D12*%
%TO.N,Net-(A1-Pad15)*%
X100557018Y-75028991D03*
%TO.P,A1,16,D13*%
%TO.N,Net-(A1-Pad16)*%
X100557018Y-90268991D03*
%TO.P,A1,17,3V3*%
%TO.N,Net-(A1-Pad17)*%
X103097018Y-90268991D03*
%TO.P,A1,18,AREF*%
%TO.N,Net-(A1-Pad18)*%
X105637018Y-90268991D03*
%TO.P,A1,19,A0*%
%TO.N,Net-(A1-Pad19)*%
X108177018Y-90268991D03*
%TO.P,A1,20,A1*%
%TO.N,Net-(A1-Pad20)*%
X110717018Y-90268991D03*
%TO.P,A1,21,A2*%
%TO.N,Net-(A1-Pad21)*%
X113257018Y-90268991D03*
%TO.P,A1,22,A3*%
%TO.N,Net-(A1-Pad22)*%
X115797018Y-90268991D03*
%TO.P,A1,23,A4*%
%TO.N,SDA*%
X118337018Y-90268991D03*
%TO.P,A1,24,A5*%
%TO.N,SCL*%
X120877018Y-90268991D03*
%TO.P,A1,25,A6*%
%TO.N,Net-(A1-Pad25)*%
X123417018Y-90268991D03*
%TO.P,A1,26,A7*%
%TO.N,Net-(A1-Pad26)*%
X125957018Y-90268991D03*
%TO.P,A1,27,+5V*%
%TO.N,Net-(A1-Pad27)*%
X128497018Y-90268991D03*
%TO.P,A1,28,~RESET*%
%TO.N,Net-(A1-Pad28)*%
X131037018Y-90268991D03*
%TO.P,A1,29,GND*%
%TO.N,GND*%
X133577018Y-90268991D03*
%TO.P,A1,30,VIN*%
%TO.N,+12V*%
X136117018Y-90268991D03*
%TD*%
D12*
%TO.P,U2,1,+VS*%
%TO.N,+5V*%
X112495018Y-94586991D03*
D13*
%TO.P,U2,2,Vout*%
%TO.N,Net-(A1-Pad19)*%
X109955018Y-94586991D03*
%TO.P,U2,3,GND*%
%TO.N,GND*%
X107415018Y-94586991D03*
%TD*%
D15*
%TO.P,U5,1*%
%TO.N,Net-(R5-Pad1)*%
X151434800Y-65887600D03*
D21*
%TO.P,U5,2*%
%TO.N,GND*%
X151434800Y-68427600D03*
%TO.P,U5,3*%
X159054800Y-68427600D03*
%TO.P,U5,4*%
%TO.N,Net-(R1-Pad2)*%
X159054800Y-65887600D03*
%TD*%
D16*
%TO.P,R4,1*%
%TO.N,Net-(Q1-Pad1)*%
X184556400Y-114046000D03*
D21*
%TO.P,R4,2*%
%TO.N,Net-(R1-Pad2)*%
X184556400Y-101346000D03*
%TD*%
D16*
%TO.P,R10,1*%
%TO.N,+5V*%
X84328000Y-73660000D03*
D21*
%TO.P,R10,2*%
%TO.N,/ROTARY_DATA*%
X97028000Y-73660000D03*
%TD*%
D19*
%TO.P,Q1,1,G*%
%TO.N,Net-(Q1-Pad1)*%
X146913600Y-98755200D03*
D20*
%TO.P,Q1,2,D*%
%TO.N,+12V*%
X146913600Y-101295200D03*
%TO.P,Q1,3,S*%
%TO.N,/HeaterPowerOut*%
X146913600Y-103835200D03*
%TD*%
D16*
%TO.P,R6,1*%
%TO.N,Net-(R5-Pad1)*%
X144576800Y-66446400D03*
D21*
%TO.P,R6,2*%
%TO.N,PWM_Signal*%
X131876800Y-66446400D03*
%TD*%
D22*
%TO.P,Hole1,1*%
%TO.N,GND*%
X88540000Y-63500000D03*
%TD*%
D16*
%TO.P,R16,1*%
%TO.N,+5V*%
X84328000Y-88646000D03*
D21*
%TO.P,R16,2*%
%TO.N,SDA*%
X97028000Y-88646000D03*
%TD*%
D16*
%TO.P,R12,1*%
%TO.N,+5V*%
X97078800Y-112268000D03*
D21*
%TO.P,R12,2*%
%TO.N,/A*%
X97078800Y-99568000D03*
%TD*%
D16*
%TO.P,R8,1*%
%TO.N,+5V*%
X84328000Y-80772000D03*
D21*
%TO.P,R8,2*%
%TO.N,/ROTARY_SWITCH*%
X97028000Y-80772000D03*
%TD*%
D25*
%TO.P,J2,1,Pin_1*%
%TO.N,/HeaterPowerOut*%
X138938000Y-108712000D03*
D26*
%TO.P,J2,2,Pin_2*%
%TO.N,GND*%
X133938000Y-108712000D03*
%TD*%
D27*
%TO.P,U4,1,A0*%
%TO.N,GND*%
X123698000Y-107377000D03*
%TO.P,U4,2,A1*%
X122428000Y-107377000D03*
%TO.P,U4,3,A2*%
%TO.N,Net-(U4-Pad3)*%
X121158000Y-107377000D03*
%TO.P,U4,4,GND*%
%TO.N,GND*%
X119888000Y-107377000D03*
%TO.P,U4,5,SDA*%
%TO.N,SDA*%
X119888000Y-102427000D03*
%TO.P,U4,6,SCL*%
%TO.N,SCL*%
X121158000Y-102427000D03*
%TO.P,U4,7,WP*%
%TO.N,GND*%
X122428000Y-102427000D03*
%TO.P,U4,8,VCC*%
%TO.N,+5V*%
X123698000Y-102427000D03*
%TD*%
D28*
%TO.P,Q2,1,G*%
%TO.N,Net-(Q1-Pad1)*%
X157343800Y-111556800D03*
D29*
%TO.P,Q2,2,D*%
%TO.N,+12V*%
X166493800Y-109016800D03*
D28*
%TO.P,Q2,3,S*%
%TO.N,/HeaterPowerOut*%
X157343800Y-106476800D03*
%TD*%
D30*
%TO.P,U3,1,+Vin*%
%TO.N,+12V*%
X181347600Y-94518000D03*
%TO.P,U3,2,-Vin*%
%TO.N,GND*%
X172313600Y-94518000D03*
%TO.P,U3,3,+Vout*%
%TO.N,+24V*%
X181347600Y-65786000D03*
%TO.P,U3,4,-Vout*%
%TO.N,GND*%
X172567600Y-65786000D03*
%TD*%
D31*
%TO.P,DS1,*%
%TO.N,*%
X154901900Y-91503500D03*
X154901900Y-60502800D03*
X79902800Y-60502800D03*
X79903320Y-91503500D03*
D32*
%TO.P,DS1,1,LEDK*%
%TO.N,GND*%
X149402800Y-60502800D03*
D33*
%TO.P,DS1,2,LEDA*%
%TO.N,Net-(DS1-Pad2)*%
X146862800Y-60502800D03*
%TO.P,DS1,3,VSS*%
%TO.N,GND*%
X144322800Y-60502800D03*
%TO.P,DS1,4,VDD*%
%TO.N,+5V*%
X141782800Y-60502800D03*
%TO.P,DS1,5,Vo*%
%TO.N,Net-(DS1-Pad5)*%
X139242800Y-60502800D03*
%TO.P,DS1,6,RS*%
%TO.N,RS*%
X136702800Y-60502800D03*
%TO.P,DS1,7,R/~W*%
%TO.N,GND*%
X134162800Y-60502800D03*
%TO.P,DS1,8,E*%
%TO.N,EN*%
X131622800Y-60502800D03*
%TO.P,DS1,9,DB0*%
%TO.N,Net-(DS1-Pad9)*%
X129082800Y-60502800D03*
%TO.P,DS1,10,DB1*%
%TO.N,Net-(DS1-Pad10)*%
X126542800Y-60502800D03*
%TO.P,DS1,11,DB2*%
%TO.N,Net-(DS1-Pad11)*%
X124002800Y-60502800D03*
%TO.P,DS1,12,DB3*%
%TO.N,Net-(DS1-Pad12)*%
X121462800Y-60502800D03*
%TO.P,DS1,13,DB4*%
%TO.N,D4*%
X118922800Y-60502800D03*
%TO.P,DS1,14,DB5*%
%TO.N,D5*%
X116382800Y-60502800D03*
%TO.P,DS1,15,DB6*%
%TO.N,D6*%
X113842800Y-60502800D03*
%TO.P,DS1,16,DB7*%
%TO.N,D7*%
X111302800Y-60502800D03*
%TD*%
D34*
%TO.P,R17,1*%
%TO.N,+5V*%
X166079500Y-67564000D03*
%TO.P,R17,2*%
%TO.N,Net-(DS1-Pad2)*%
X163104500Y-67564000D03*
%TD*%
D35*
%TO.N,/ROTARY_SWITCH*%
X98757001Y-97487001D02*
X96319999Y-97487001D01*
X93740990Y-84059010D02*
X97028000Y-80772000D01*
X99519001Y-97487001D02*
X104648000Y-102616000D01*
X98757001Y-97487001D02*
X99519001Y-97487001D01*
X93740990Y-94907992D02*
X93740990Y-84059010D01*
X96319999Y-97487001D02*
X93740990Y-94907992D01*
%TO.N,GND*%
X123698000Y-107377000D02*
X122428000Y-107377000D01*
X124358400Y-97536000D02*
X122478800Y-99415600D01*
X122428000Y-108352000D02*
X121752990Y-109027010D01*
D36*
X122377200Y-99517200D02*
X122428000Y-99568000D01*
D35*
X121752990Y-109027010D02*
X120563010Y-109027010D01*
X122428000Y-107377000D02*
X122428000Y-108352000D01*
X119888000Y-108352000D02*
X119888000Y-107377000D01*
X133644000Y-97536000D02*
X124358400Y-97536000D01*
D36*
X122428000Y-99568000D02*
X122428000Y-101701600D01*
D35*
X120563010Y-109027010D02*
X119888000Y-108352000D01*
X116652010Y-104141010D02*
X119888000Y-107377000D01*
X102108000Y-102616000D02*
X103633010Y-104141010D01*
X103633010Y-104141010D02*
X116652010Y-104141010D01*
%TO.N,/A*%
X107873026Y-72184999D02*
X110717018Y-75028991D01*
X92690980Y-75814018D02*
X96319999Y-72184999D01*
X97078800Y-99568000D02*
X95947430Y-99568000D01*
X96319999Y-72184999D02*
X107873026Y-72184999D01*
X95947430Y-99568000D02*
X92690980Y-96311550D01*
X92690980Y-96311550D02*
X92690980Y-75814018D01*
%TO.N,+5V*%
X123850400Y-102362000D02*
X124866400Y-103378000D01*
X141782800Y-69010773D02*
X141782800Y-60502800D01*
X161756599Y-58327799D02*
X163068000Y-59639200D01*
X166079500Y-67564000D02*
X166079500Y-62650700D01*
X146277018Y-73504991D02*
X141782800Y-69010773D01*
X131824418Y-104495600D02*
X124866400Y-104495600D01*
X146277018Y-90043000D02*
X131824418Y-104495600D01*
X112495018Y-97299020D02*
X112495018Y-94586991D01*
X119691598Y-104495600D02*
X112495018Y-97299020D01*
X141782800Y-60502800D02*
X141782800Y-59252800D01*
X124866400Y-104495600D02*
X119691598Y-104495600D01*
X141782800Y-59252800D02*
X142707801Y-58327799D01*
X166079500Y-62650700D02*
X163068000Y-59639200D01*
X142707801Y-58327799D02*
X161756599Y-58327799D01*
X124866400Y-103378000D02*
X124866400Y-104495600D01*
%TO.N,Net-(Q1-Pad1)*%
X139070998Y-113030000D02*
X155870600Y-113030000D01*
X136296400Y-110255402D02*
X139070998Y-113030000D01*
X146913600Y-98755200D02*
X144709798Y-98755200D01*
X144709798Y-98755200D02*
X136296400Y-107168598D01*
X155870600Y-113030000D02*
X157343800Y-111556800D01*
X136296400Y-107168598D02*
X136296400Y-110255402D01*
%TO.N,SCL*%
X121158000Y-90549973D02*
X120877018Y-90268991D01*
D36*
X121158000Y-102177000D02*
X121158000Y-90549973D01*
D35*
%TO.N,Net-(DS1-Pad5)*%
X139242800Y-69010773D02*
X139242800Y-60502800D01*
X146277018Y-76044991D02*
X139242800Y-69010773D01*
D37*
%TO.N,+12V*%
X136117018Y-90268991D02*
X136117018Y-97509018D01*
D38*
X192532000Y-85344000D02*
X191542001Y-84354001D01*
X188925200Y-81737200D02*
X148590000Y-81737200D01*
X188468000Y-85344000D02*
X186080400Y-85344000D01*
D37*
X141423009Y-84963000D02*
X146277018Y-84963000D01*
D38*
X170230800Y-109016800D02*
X181965600Y-97282000D01*
X183032400Y-92833200D02*
X186283600Y-85852000D01*
D37*
X136117018Y-97509018D02*
X136144000Y-97536000D01*
D38*
X148590000Y-81737200D02*
X146304000Y-84023200D01*
X192532000Y-85344000D02*
X188468000Y-85344000D01*
X160324800Y-99568000D02*
X164084000Y-103327200D01*
X191542001Y-84354001D02*
X147395599Y-84354001D01*
X166493800Y-109016800D02*
X170230800Y-109016800D01*
X181406800Y-90017600D02*
X181406800Y-94589600D01*
X192532000Y-85344000D02*
X188925200Y-81737200D01*
X190521600Y-85344000D02*
X181347600Y-94518000D01*
D37*
X158772200Y-101295200D02*
X146913600Y-101295200D01*
X166493800Y-109016800D02*
X158772200Y-101295200D01*
D38*
X166493800Y-109016800D02*
X166848800Y-109016800D01*
X150317200Y-99568000D02*
X149402800Y-100482400D01*
X181347600Y-94518000D02*
X183032400Y-92833200D01*
X157045000Y-99568000D02*
X160324800Y-99568000D01*
X157045000Y-99568000D02*
X150317200Y-99568000D01*
X186080400Y-85344000D02*
X181406800Y-90017600D01*
X192532000Y-85344000D02*
X190521600Y-85344000D01*
X166493800Y-109016800D02*
X157045000Y-99568000D01*
X166848800Y-109016800D02*
X181347600Y-94518000D01*
X164084000Y-103327200D02*
X164134800Y-103327200D01*
D37*
X136117018Y-90268991D02*
X141423009Y-84963000D01*
D38*
X147395599Y-84354001D02*
X147320000Y-84429600D01*
D37*
%TO.N,/HeaterPowerOut*%
X153152800Y-106756200D02*
X155108600Y-108712000D01*
X142036800Y-108712000D02*
X155108600Y-108712000D01*
X143992600Y-106756200D02*
X146126200Y-104622600D01*
X140208000Y-108712000D02*
X142697200Y-106222800D01*
X138938000Y-108712000D02*
X140208000Y-108712000D01*
X157343800Y-106476800D02*
X144272000Y-106476800D01*
X144272000Y-106476800D02*
X143992600Y-106756200D01*
X142367000Y-104622600D02*
X146126200Y-104622600D01*
X142697200Y-106222800D02*
X142900400Y-106222800D01*
X138938000Y-108712000D02*
X142036800Y-108712000D01*
X155108600Y-108712000D02*
X157343800Y-106476800D01*
X146126200Y-104622600D02*
X146913600Y-103835200D01*
X138938000Y-108051600D02*
X142367000Y-104622600D01*
X142036800Y-108712000D02*
X143992600Y-106756200D01*
X143992600Y-106756200D02*
X153152800Y-106756200D01*
X138938000Y-108712000D02*
X138938000Y-108051600D01*
D35*
%TO.N,Net-(A1-Pad19)*%
X109955018Y-94586991D02*
X109955018Y-92046991D01*
X109955018Y-92046991D02*
X108177018Y-90268991D01*
%TO.N,Net-(A1-Pad27)*%
X137486009Y-81280000D02*
X128497018Y-90268991D01*
X141224000Y-81280000D02*
X137486009Y-81280000D01*
%TO.N,EN*%
X133351801Y-63481801D02*
X131622800Y-61752800D01*
X133351801Y-67634208D02*
X133351801Y-63481801D01*
X125957018Y-75028991D02*
X133351801Y-67634208D01*
X131622800Y-61752800D02*
X131622800Y-60502800D01*
%TO.N,SDA*%
X118208991Y-90268991D02*
X118337018Y-90268991D01*
D36*
X119888000Y-102177000D02*
X119888000Y-91819973D01*
D35*
X119888000Y-91819973D02*
X118337018Y-90268991D01*
%TO.N,Net-(DS1-Pad2)*%
X163104500Y-67564000D02*
X158218301Y-62677801D01*
X147787801Y-62677801D02*
X146862800Y-61752800D01*
X158218301Y-62677801D02*
X147787801Y-62677801D01*
X146862800Y-61752800D02*
X146862800Y-60502800D01*
X146277018Y-61088582D02*
X146862800Y-60502800D01*
%TO.N,/ROTARY_DATA*%
X108177018Y-75028991D02*
X106702017Y-73553990D01*
X96012000Y-92964000D02*
X94790999Y-91742999D01*
X94790999Y-90980999D02*
X94790999Y-88191999D01*
X107954007Y-75028991D02*
X108177018Y-75028991D01*
X94790999Y-88191999D02*
X107954007Y-75028991D01*
X97134010Y-73553990D02*
X97028000Y-73660000D01*
X106702017Y-73553990D02*
X97134010Y-73553990D01*
X107188000Y-102616000D02*
X97536000Y-92964000D01*
X96520000Y-92964000D02*
X96012000Y-92964000D01*
X97536000Y-92964000D02*
X96520000Y-92964000D01*
X94790999Y-91742999D02*
X94790999Y-90980999D01*
%TD*%
M02*
