M48
; DRILL file {KiCad (6.0.5)} date Sun May 15 12:41:58 2022
; FORMAT={-:-/ absolute / inch / decimal}
; #@! TF.CreationDate,2022-05-15T12:41:58+02:00
; #@! TF.GenerationSoftware,Kicad,Pcbnew,(6.0.5)
; #@! TF.FileFunction,Plated,1,2,PTH
FMAT,2
INCH
; #@! TA.AperFunction,Plated,PTH,ComponentDrill
T1C0.0315
; #@! TA.AperFunction,Plated,PTH,ComponentDrill
T2C0.0354
; #@! TA.AperFunction,Plated,PTH,ComponentDrill
T3C0.0394
; #@! TA.AperFunction,Plated,PTH,ComponentDrill
T4C0.0433
; #@! TA.AperFunction,Plated,PTH,ComponentDrill
T5C0.0472
; #@! TA.AperFunction,Plated,PTH,ComponentDrill
T6C0.0520
; #@! TA.AperFunction,Plated,PTH,ComponentDrill
T7C0.0984
; #@! TA.AperFunction,Plated,PTH,ComponentDrill
T8C0.1378
%
G90
G05
T1
X3.32Y-2.9
X3.32Y-3.18
X3.32Y-3.49
X3.32Y-3.78
X3.82Y-2.9
X3.82Y-3.18
X3.82Y-3.49
X3.82Y-3.78
X3.822Y-3.92
X3.822Y-4.42
X5.192Y-2.616
X5.2616Y-3.84
X5.36Y-3.84
X5.692Y-2.616
X5.7589Y-2.8939
X5.7589Y-2.9939
X5.7589Y-3.0939
X5.962Y-2.594
X5.962Y-2.694
X6.262Y-2.594
X6.262Y-2.694
X6.42Y-2.348
X6.42Y-2.4464
X6.492Y-2.978
X6.492Y-3.478
X7.266Y-3.99
X7.266Y-4.49
T2
X5.56Y-3.0
X5.56Y-3.2
T3
X3.9589Y-2.9539
X3.9589Y-3.5539
X4.02Y-4.04
X4.0589Y-2.9539
X4.0589Y-3.5539
X4.12Y-4.04
X4.1589Y-2.9539
X4.1589Y-3.5539
X4.22Y-4.04
X4.2289Y-3.7239
X4.2589Y-2.9539
X4.2589Y-3.5539
X4.32Y-4.04
X4.3289Y-3.7239
X4.3589Y-2.9539
X4.3589Y-3.5539
X4.4289Y-3.7239
X4.4589Y-2.9539
X4.4589Y-3.5539
X4.5589Y-2.9539
X4.5589Y-3.5539
X4.6589Y-2.9539
X4.6589Y-3.5539
X4.7589Y-2.9539
X4.7589Y-3.5539
X4.8589Y-2.9539
X4.8589Y-3.5539
X4.9589Y-2.9539
X4.9589Y-3.5539
X5.0589Y-2.9539
X5.0589Y-3.5539
X5.1589Y-2.9539
X5.1589Y-3.5539
X5.2589Y-2.9539
X5.2589Y-3.5539
X5.3589Y-2.9539
X5.3589Y-3.5539
T4
X5.7589Y-3.345
X5.7589Y-3.445
X5.7589Y-3.545
X5.784Y-3.888
X5.784Y-3.988
X5.784Y-4.088
T5
X4.382Y-2.382
X4.482Y-2.382
X4.582Y-2.382
X4.682Y-2.382
X4.782Y-2.382
X4.882Y-2.382
X4.982Y-2.382
X5.082Y-2.382
X5.182Y-2.382
X5.282Y-2.382
X5.382Y-2.382
X5.482Y-2.382
X5.582Y-2.382
X5.682Y-2.382
X5.782Y-2.382
X5.882Y-2.382
T6
X5.2731Y-4.28
X5.47Y-4.28
X7.58Y-3.36
X7.58Y-3.5569
T7
X3.1458Y-2.382
X3.1458Y-3.6025
X6.0985Y-2.382
X6.0985Y-3.6025
X6.784Y-3.7212
X6.794Y-2.59
X7.1397Y-2.59
X7.1397Y-3.7212
T8
X3.4858Y-2.5
X3.4858Y-4.3
X7.6Y-2.4
X7.6Y-4.3
T0
M30
